<?xml version="1.0" encoding="utf-8"?>
<!-- Generated by IcoMoon.io -->
<!DOCTYPE svg PUBLIC "-//W3C//DTD SVG 1.1//EN" "http://www.w3.org/Graphics/SVG/1.1/DTD/svg11.dtd">
<svg version="1.1" xmlns="http://www.w3.org/2000/svg" xmlns:xlink="http://www.w3.org/1999/xlink" width="32" height="32" viewBox="0 0 32 32">
<path fill="#4493d1" d="M28.102 0.389c0 0-24.421-0.007-24.413 0-2.247 0-3.551 1.162-3.551 3.535v24.468c0 2.22 1.245 3.421 3.49 3.421h24.572c2.245 0 3.327-1.143 3.327-3.421v-24.468c0-2.315-1.109-3.535-3.425-3.535zM14.5 29.076c-2.247 0-4.36-0.875-5.948-2.464s-2.464-3.701-2.464-5.948c0-3.032 1.642-5.841 4.285-7.332l0.727 1.289c-2.179 1.229-3.532 3.545-3.532 6.043 0 1.851 0.721 3.592 2.030 4.901s3.050 2.030 4.902 2.030c3.22 0 5.991-2.184 6.741-5.309l1.439 0.345c-0.91 3.794-4.274 6.444-8.18 6.444zM25.901 25.976l-0.615 0.246-0.312-0.525-4.046-7.504h-8.915l-0.072-0.72-1.296-11.977 0.017-0.017c-0.063-0.17-0.109-0.356-0.131-0.544-0.154-1.291 0.767-2.467 2.058-2.621s2.463 0.765 2.617 2.056c0.154 1.291-0.767 2.463-2.058 2.617-0.296 0.035-0.583 0.012-0.856-0.057l0.649 5.627 6.742 0.002v1.48l-6.581 0.056 0.24 2.616h8.473l0.209 0.333 3.942 7.341 1.543-0.632 0.55 1.366-2.158 0.856z"></path>
</svg>
