<?xml version="1.0" encoding="utf-8"?>
<!-- Generated by IcoMoon.io -->
<!DOCTYPE svg PUBLIC "-//W3C//DTD SVG 1.1//EN" "http://www.w3.org/Graphics/SVG/1.1/DTD/svg11.dtd">
<svg version="1.1" xmlns="http://www.w3.org/2000/svg" xmlns:xlink="http://www.w3.org/1999/xlink" width="32" height="32" viewBox="0 0 32 32">
<path fill="#4493d1" d="M27.814 0.182l-23.501-0c-2.303 0-4.176 1.874-4.176 4.177v23.498c0 2.304 1.873 4.178 4.176 4.178h23.501c2.303 0 4.176-1.874 4.176-4.178v-23.498c0-2.303-1.874-4.177-4.176-4.177zM22.756 8.627c1.601 0 2.898 1.298 2.898 2.898s-1.298 2.898-2.898 2.898c-1.601 0-2.898-1.298-2.898-2.898s1.297-2.898 2.898-2.898zM4.602 5.803v5.256h-0.786c-0.149 0-0.27-0.12-0.27-0.27v-6.782c0-0.229 0.171-0.416 0.406-0.416h3.475c0.235 0 0.406 0.186 0.406 0.416v0.398h5.373c0.15 0 0.27 0.12 0.27 0.269v1.525h-4.587v-0.399c0-0.229-0.171-0.416-0.407-0.416h-3.474c-0.235 0-0.407 0.189-0.407 0.42zM5.929 14.51c-0.15 0-0.27-0.12-0.27-0.269v-6.782c0-0.229 0.171-0.416 0.406-0.416h3.475c0.235 0 0.407 0.186 0.407 0.416v0.398h5.373c0.15 0 0.27 0.12 0.27 0.269v6.117c0 0.149-0.12 0.269-0.27 0.269h-9.391zM18.78 28.695v-8.805h-0.395l-1.798 2.683c-0.293 0.399-0.887 0.593-1.361 0.593h-4.222c-0.701 0-1.271-0.568-1.271-1.269 0-0.699 0.569-1.252 1.271-1.252h3.84l2.664-4.028c0.638-0.974 1.886-1.445 2.891-1.445l5.219-0.003c1.606 0 2.907 1.299 2.907 2.904l0.006 10.621h-9.751z"></path>
<path fill="#4493d1" d="M11.424 8.781h-1.6v1.599h-1.6v1.601h1.6v1.6h1.6v-1.6h1.6v-1.601h-1.6z"></path>
</svg>
