<?xml version="1.0" encoding="utf-8"?>
<!-- Generated by IcoMoon.io -->
<!DOCTYPE svg PUBLIC "-//W3C//DTD SVG 1.1//EN" "http://www.w3.org/Graphics/SVG/1.1/DTD/svg11.dtd">
<svg version="1.1" xmlns="http://www.w3.org/2000/svg" xmlns:xlink="http://www.w3.org/1999/xlink" width="32" height="32" viewBox="0 0 32 32">
<path fill="none" stroke="#4493d1" stroke-width="1.6842" stroke-miterlimit="10" stroke-linecap="butt" stroke-linejoin="miter" d="M24.421 16c0 4.65-3.771 8.421-8.421 8.421s-8.421-3.771-8.421-8.421c0-4.651 3.77-8.421 8.421-8.421s8.421 3.77 8.421 8.421zM11.357 8.969c-0.751-0.343-1.553-0.548-2.396-0.548-5.123 0-5.224 5.053-7.751 7.579 2.526 2.526 2.627 7.579 7.751 7.579 0.845 0 1.648-0.206 2.401-0.551M20.638 23.028c0.752 0.344 1.555 0.551 2.4 0.551 5.123 0 5.224-5.053 7.751-7.579-2.526-2.526-2.627-7.579-7.751-7.579-0.843 0-1.645 0.205-2.397 0.548M8.708 11.789l7.504 12.627M23.292 11.79h-14.584M16.211 24.416l7.080-12.626"></path>
</svg>
