<?xml version="1.0" encoding="utf-8"?>
<!-- Generated by IcoMoon.io -->
<!DOCTYPE svg PUBLIC "-//W3C//DTD SVG 1.1//EN" "http://www.w3.org/Graphics/SVG/1.1/DTD/svg11.dtd">
<svg version="1.1" xmlns="http://www.w3.org/2000/svg" xmlns:xlink="http://www.w3.org/1999/xlink" width="32" height="32" viewBox="0 0 32 32">
<path fill="#4493d1" d="M27.988 0.065h-23.501c-2.302 0-4.175 1.873-4.175 4.177v23.498c0 2.304 1.873 4.178 4.175 4.178h23.501c2.303 0 4.177-1.874 4.177-4.178v-23.498c0-2.304-1.874-4.177-4.177-4.177zM19.656 6.887c1.262 0 2.286 1.023 2.286 2.286 0 1.262-1.024 2.285-2.286 2.285s-2.285-1.024-2.285-2.285c0-1.263 1.023-2.286 2.285-2.286zM14.132 16.432l1.161-3.312c0.225-0.624 0.658-1.112 1.879-1.112h5.365c1.222 0 1.655 0.488 1.88 1.112l1.161 3.312c0.086 0.214 0.132 0.695-0.341 1.017l-2.732 1.802c-0.398 0.264-0.936 0.154-1.199-0.244s-0.153-0.938 0.246-1.2l2.169-1.431-0.612-1.685h-0.845l0.496 1.367-1.646 1.086c-0.37 0.244-0.623 0.617-0.712 1.053s-0.003 0.878 0.24 1.248c0.098 0.147 0.218 0.273 0.352 0.38h-2.279c0.134-0.107 0.254-0.233 0.352-0.38 0.244-0.37 0.329-0.813 0.24-1.248-0.089-0.435-0.342-0.809-0.712-1.053l-1.646-1.086 0.495-1.367h-0.845l-0.611 1.685 2.169 1.431c0.399 0.263 0.509 0.801 0.246 1.2s-0.801 0.509-1.199 0.244l-2.732-1.802c-0.473-0.322-0.428-0.803-0.341-1.017zM12.609 5.617c0.132 1.329-0.205 2.707-1.050 3.873-0.714 0.984-1.687 1.668-2.756 2.030 0.048-0.785-0.052-1.564-0.289-2.303 0.176-0.487 0.422-0.958 0.741-1.398 0.845-1.166 2.051-1.914 3.354-2.203zM8.2 3.404c0.755 0.85 1.253 1.929 1.385 3.121-0.305 0.281-0.586 0.59-0.833 0.931-0.216 0.298-0.402 0.616-0.562 0.945-0.16-0.328-0.347-0.645-0.564-0.945-0.242-0.333-0.515-0.637-0.811-0.912 0.129-1.198 0.628-2.285 1.386-3.139zM3.768 5.617c1.303 0.289 2.509 1.037 3.354 2.203s1.182 2.544 1.051 3.872c-1.304-0.288-2.51-1.036-3.355-2.201s-1.182-2.544-1.050-3.873zM4.626 22.583l-0.127-2.814h0.451l-0.13 2.789c0.022-0.002 0.042-0.007 0.064-0.007l3.097-0.474-0.135-2.996h0.448l-0.136 2.969 2.583-0.396-0.14-2.979h0.459l-0.141 2.952 1.897-0.291-0.127-2.718h0.455l-0.125 2.686 2.717-0.416h6.53c1.103 0 1.989 0.89 1.989 1.986 0 1.090-0.879 1.973-1.974 1.981l-7.081-0.001c-0.471-0.006-0.851-0.389-0.851-0.861 0-0.477 0.386-0.863 0.862-0.863h3.658l2.978-0.622-0.161-0.77-2.899 0.605h-3.576c-0.91 0-1.65 0.74-1.65 1.65 0 0.316 0.094 0.61 0.25 0.861l-8.929-0.001c-0.634 0-1.148-0.515-1.148-1.152 0-0.545 0.381-1.001 0.891-1.119zM27.883 27.62c0 0-22.586 0-23.28 0-0.914 0-0.868-0.89-0.868-0.89v-0.628c0-0.258 0.21-0.468 0.469-0.468h18.593c1.483 0 2.124-1.387 2.902-1.387h2.271c0.707 0 0.785 0.607 0.785 0.607v1.898c0 0 0.047 0.868-0.873 0.868zM26.709 23.525c-1.159 0-2.1-0.943-2.1-2.1 0-1.161 0.941-2.1 2.1-2.1s2.102 0.938 2.102 2.1c0 1.158-0.943 2.1-2.102 2.1z"></path>
</svg>
