<?xml version="1.0" encoding="utf-8"?>
<!-- Generated by IcoMoon.io -->
<!DOCTYPE svg PUBLIC "-//W3C//DTD SVG 1.1//EN" "http://www.w3.org/Graphics/SVG/1.1/DTD/svg11.dtd">
<svg version="1.1" xmlns="http://www.w3.org/2000/svg" xmlns:xlink="http://www.w3.org/1999/xlink" width="32" height="32" viewBox="0 0 32 32">
<path fill="#4493d1" d="M22.603 21.080c-0.626 0-1.134 0.506-1.134 1.133s0.507 1.134 1.134 1.134c0.625-0 1.132-0.508 1.132-1.134s-0.507-1.133-1.132-1.133z"></path>
<path fill="#4493d1" d="M9.043 21.059c-0.626 0-1.134 0.507-1.134 1.133 0 0.627 0.508 1.134 1.134 1.134s1.133-0.507 1.133-1.134c0-0.626-0.507-1.133-1.133-1.133z"></path>
<path fill="#4493d1" d="M15.918 12.123h-2.642v2.642h-2.642v2.642h2.642v2.641h2.642v-2.641h2.642v-2.642h-2.642z"></path>
<path fill="#4493d1" d="M27.572 0.267h-23.287c-2.282 0-4.138 1.857-4.138 4.139v23.284c0 2.283 1.856 4.139 4.138 4.139h23.287c2.282 0 4.138-1.857 4.138-4.139v-23.284c0-2.282-1.857-4.139-4.138-4.139zM16.752 8.868h0.663v-0.321c0-0.571 0.499-1.033 1.117-1.033 0.616 0 1.115 0.462 1.115 1.033v0.321h0.649v0.508h-3.544v-0.508zM9.037 24.558c-1.308 0-2.368-1.060-2.368-2.369 0-1.308 1.061-2.37 2.368-2.37s2.37 1.062 2.37 2.37c-0 1.309-1.061 2.369-2.37 2.369zM22.603 24.582c-1.309 0-2.37-1.061-2.37-2.37s1.061-2.369 2.37-2.369c1.308 0 2.367 1.061 2.367 2.369s-1.059 2.37-2.367 2.37zM27.415 22.216h-1.736c0-1.7-1.377-3.082-3.076-3.082s-3.078 1.383-3.078 3.082h-7.418c0-1.7-1.378-3.082-3.077-3.082s-3.078 1.383-3.078 3.082h-1.438c-0.506 0-0.901-0.384-0.901-0.878v-10.364c0-0.565 0.446-1.018 0.992-1.018h18.625c0.708 0 1.225 0.351 1.481 0.967l1.87 4.553c0.708 0.138 1.131 0.443 1.451 2.19l0.505 3.152c0.182 1.026-0.398 1.4-1.12 1.4z"></path>
<path fill="#4493d1" d="M20.371 11.012v4.305h4.978l-1.746-4.305z"></path>
</svg>
