<?xml version="1.0" encoding="utf-8"?>
<!-- Generated by IcoMoon.io -->
<!DOCTYPE svg PUBLIC "-//W3C//DTD SVG 1.1//EN" "http://www.w3.org/Graphics/SVG/1.1/DTD/svg11.dtd">
<svg version="1.1" xmlns="http://www.w3.org/2000/svg" xmlns:xlink="http://www.w3.org/1999/xlink" width="32" height="32" viewBox="0 0 32 32">
<path fill="none" stroke="#4493d1" stroke-width="1.6842" stroke-miterlimit="10" stroke-linecap="butt" stroke-linejoin="miter" d="M5.895 16c0-5.581 4.525-10.105 10.105-10.105s10.105 4.525 10.105 10.105-4.525 10.105-10.105 10.105-10.105-4.525-10.105-10.105zM7.249 10.947c-2.333-1.347-0.776-3.228-0.776-4.474 1.247 0 3.128-1.558 4.474 0.776M24.752 21.053c2.333 1.347 0.776 3.228 0.776 4.474-1.246 0-3.127 1.558-4.474-0.776M21.053 7.248c1.347-2.333 3.227-0.776 4.474-0.776 0 1.247 1.557 3.127-0.777 4.475M10.947 24.751c-1.348 2.333-3.228 0.776-4.474 0.776 0-1.246-1.559-3.128 0.776-4.474M5.896 16c-2.696 0-2.286-2.407-2.91-3.487 1.080-0.623 1.929-2.913 4.263-1.565M26.105 16c2.695 0 2.285 2.408 2.909 3.488-1.080 0.623-1.928 2.912-4.264 1.564M16 5.895c0-2.695 2.407-2.285 3.487-2.909 0.624 1.080 2.913 1.93 1.565 4.264M16 26.104c0 2.696-2.407 2.287-3.487 2.91-0.623-1.080-2.913-1.929-1.565-4.264M7.249 21.052c-2.334 1.348-3.183-0.941-4.264-1.564 0.624-1.081 0.215-3.488 2.909-3.488M24.752 10.947c2.333-1.347 3.182 0.943 4.263 1.566-0.623 1.080-0.214 3.486-2.909 3.486M10.947 7.247c-1.347-2.333 0.941-3.182 1.565-4.263 1.080 0.624 3.487 0.216 3.487 2.91M21.052 24.751c1.348 2.334-0.941 3.184-1.565 4.264-1.080-0.624-3.487-0.215-3.487-2.909M16 5.895l8.752 15.158M7.251 21.052l17.501 0.001M7.251 21.052l8.749-15.157M10.168 16l-2.92-5.053M16 26.105l-2.917-5.053M13.083 10.948l-5.835-0.001M24.749 10.948h-5.831M18.916 21.053l-2.916 5.053M24.749 10.948l-2.916 5.052"></path>
</svg>
