<?xml version="1.0" encoding="utf-8"?>
<!-- Generated by IcoMoon.io -->
<!DOCTYPE svg PUBLIC "-//W3C//DTD SVG 1.1//EN" "http://www.w3.org/Graphics/SVG/1.1/DTD/svg11.dtd">
<svg version="1.1" xmlns="http://www.w3.org/2000/svg" xmlns:xlink="http://www.w3.org/1999/xlink" width="32" height="32" viewBox="0 0 32 32">
<path fill="#4493d1" d="M19.816 19.601c-0.001 0.866-0.705 1.573-1.57 1.576-0.865-0.003-1.57-0.71-1.572-1.576v-0.179h-0.796v0.179c0 1.308 1.063 2.373 2.368 2.373 1.304 0 2.364-1.064 2.364-2.373h0v-0.179h-0.795v0.179z"></path>
<path fill="#4493d1" d="M19.865 14.387c0.232 0 0.399-0.193 0.399-0.4v-1.723c0-0.232-0.167-0.399-0.399-0.399-0.206 0-0.4 0.167-0.4 0.399v1.723c0 0.206 0.193 0.4 0.4 0.4z"></path>
<path fill="#4493d1" d="M27.562 0.313h-23.18c-2.271 0-4.119 1.849-4.119 4.12v23.178c0 2.272 1.848 4.12 4.119 4.12h23.18c2.271 0 4.119-1.848 4.119-4.12v-23.178c0-2.271-1.848-4.12-4.119-4.12zM3.684 6.227c1.639 1.477 4 0.295 4.464 0.038 1.19-0.66 2.352-0.828 3.454-0.5 1.311 0.39 2.164 1.39 2.561 1.959 0.076-0.009 0.152-0.018 0.227-0.018 0.683 0 1.358 0.394 2.292 0.937 0.252 0.148 0.523 0.304 0.816 0.469 0.192 0.106 0.413 0.459 0.377 0.668 0 0.003 0 0.006 0 0.009l-0.007 0.046c-0.021 0.289-0.204 0.479-0.556 0.581l-4.585 1.299c-0.004 0.001-0.35 0.115-0.633 0.115-0.104 0-0.153-0.015-0.169-0.022-0.286-0.123-0.453-0.332-0.503-0.605-0.012-0.062-0.024-0.124-0.022-0.194 0.020-1.071 0.529-2.057 1.356-2.676-0.323-0.401-0.862-0.928-1.588-1.14-0.7-0.205-1.473-0.078-2.295 0.378-0.539 0.299-2.991 1.519-5.188 0.446v-1.788zM20.403 26.444c-2.506-0.001-4.741-1.175-6.177-3.002h-5.487c-1.163 1.619-2.981 2.738-5.067 2.96v-14.288c2.080 0.22 3.891 1.332 5.056 2.943l1.234 0.001-0.001-1.23c0.001-0.741 0.264-1.417 0.699-1.95 0.186 0.354 0.493 0.636 0.914 0.816 0.151 0.060 0.32 0.089 0.518 0.089 0.37 0 0.747-0.105 0.898-0.153l4.586-1.299c0.846-0.246 1.116-0.811 1.203-1.191l1.488 0.59c0 0 1.711 0.172 2.368 0.324 2.948 0.684 5.626 3.967 5.626 7.533-0.001 4.34-3.518 7.856-7.858 7.857z"></path>
</svg>
