<?xml version="1.0" encoding="utf-8"?>
<!-- Generated by IcoMoon.io -->
<!DOCTYPE svg PUBLIC "-//W3C//DTD SVG 1.1//EN" "http://www.w3.org/Graphics/SVG/1.1/DTD/svg11.dtd">
<svg version="1.1" xmlns="http://www.w3.org/2000/svg" xmlns:xlink="http://www.w3.org/1999/xlink" width="32" height="32" viewBox="0 0 32 32">
<path fill="none" stroke="#4493d1" stroke-width="1.6842" stroke-miterlimit="10" stroke-linecap="butt" stroke-linejoin="miter" d="M25.358 14.454c-2.277 4.1-5.2 8.283-16.516 8.283-3.702 0-8 0-8 0v4.211M0.842 25.263c0 0 8.158 0.842 15.737 0.842 10.105 0 11.21-6.525 11.21-7.579 0-2.245-2.007-3.619-3.699-4.886-0.371-0.276-1.654-1.235-2.024-1.512-1.117-0.835-1.347-2.419-0.51-3.536 0.835-1.117 2.418-1.346 3.536-0.51 0.37 0.277 4.046 3.025 4.046 3.025l-1.198 1.762M21.099 19.714l3.388 6.392h2.461"></path>
</svg>
