<?xml version="1.0" encoding="utf-8"?>
<!-- Generated by IcoMoon.io -->
<!DOCTYPE svg PUBLIC "-//W3C//DTD SVG 1.1//EN" "http://www.w3.org/Graphics/SVG/1.1/DTD/svg11.dtd">
<svg version="1.1" xmlns="http://www.w3.org/2000/svg" xmlns:xlink="http://www.w3.org/1999/xlink" width="32" height="32" viewBox="0 0 32 32">
<path fill="none" stroke="#4493d1" stroke-width="1.6842" stroke-miterlimit="10" stroke-linecap="butt" stroke-linejoin="miter" d="M8.474 17.684c-0.737 0-5.106 0-5.106 0s-2.526-0.675-2.526-3.378c0-2.857 2.585-5.043 7.228-5.043 5.228 0 8.191 2.705 11.11 5.053 4.186 3.368 8.417 6.737 12.82 6.737M5.053 14.316c0 0 3.299 0 4.211 0 2.013 0 3.368 1.395 3.368 3.368 0 1.666-1.1 3.368-3.368 3.368-2.152 0-7.632 0-7.632 0l1.737-3.368M14.316 16.842v4.211c0 0 4.525 0 5.053 0 1.86 0 3.368-1.508 3.368-3.368 0-0.584 0-0.584 0-0.584"></path>
</svg>
