<?xml version="1.0" encoding="utf-8"?>
<!-- Generated by IcoMoon.io -->
<!DOCTYPE svg PUBLIC "-//W3C//DTD SVG 1.1//EN" "http://www.w3.org/Graphics/SVG/1.1/DTD/svg11.dtd">
<svg version="1.1" xmlns="http://www.w3.org/2000/svg" xmlns:xlink="http://www.w3.org/1999/xlink" width="32" height="32" viewBox="0 0 32 32">
<path fill="none" stroke="#4493d1" stroke-width="1.6842" stroke-miterlimit="10" stroke-linecap="butt" stroke-linejoin="miter" d="M15.158 19.368c0 0 3.658 0 5.053 0s2.526 1.131 2.526 2.526-1.132 2.526-2.526 2.526-20.211 0-20.211 0M31.158 22.737c-7.579-7.158-15.158-8.912-15.158-8.912s-1.684 1.754-1.684 4.701c0 3.368 1.684 5.895 1.684 5.895M31.158 25.263v-5.614c-2.464-3.13-10.105-12.070-15.158-12.070-4 0-8.421 4.511-8.421 9.596 0 1.469 0.144 2.577 0.55 3.878h3.661"></path>
</svg>
