<?xml version="1.0" encoding="utf-8"?>
<!-- Generated by IcoMoon.io -->
<!DOCTYPE svg PUBLIC "-//W3C//DTD SVG 1.1//EN" "http://www.w3.org/Graphics/SVG/1.1/DTD/svg11.dtd">
<svg version="1.1" xmlns="http://www.w3.org/2000/svg" xmlns:xlink="http://www.w3.org/1999/xlink" width="32" height="32" viewBox="0 0 32 32">
<path fill="none" stroke="#4493d1" stroke-width="1.6842" stroke-miterlimit="10" stroke-linecap="butt" stroke-linejoin="miter" d="M6.737 26.105h-5.895c0 0 1.211-6.285 4.691-15.527 1.583-4.204 3.415-4.684 5.624-4.684 2.526 0 3.842 1.948 6.528 5.895 2.12 3.113 9.263 14.316 11.789 14.316 0.842 0 2.526 0 2.526 0M24.968 22.12c0 0-0.232 2.301-3.284 2.301-2.789 0-4-3.173-4-4.249 0-1.214 0.301-2.002 0.526-2.488-0.842 0-2.737 0.001-4.158-1.256s-2.445-3.61-3.632-4.797c0 0-3.938 5.352-6.737 14.474"></path>
</svg>
