<?xml version="1.0" encoding="utf-8"?>
<!-- Generated by IcoMoon.io -->
<!DOCTYPE svg PUBLIC "-//W3C//DTD SVG 1.1//EN" "http://www.w3.org/Graphics/SVG/1.1/DTD/svg11.dtd">
<svg version="1.1" xmlns="http://www.w3.org/2000/svg" xmlns:xlink="http://www.w3.org/1999/xlink" width="32" height="32" viewBox="0 0 32 32">
<path fill="none" stroke="#4493d1" stroke-width="1.6842" stroke-miterlimit="10" stroke-linecap="butt" stroke-linejoin="miter" d="M14.316 20.211c0 3.421 1.684 10.947 1.684 10.947h-4.211M14.316 1.695c0 0-5.053 2.815-5.053 6.726 0 2.632 1.684 4.211 1.684 4.211s0 1.684 0 6.737c0 3.718 1.037 6.316 2.947 11.789M14.895 24.497c4.109 0 6.157-0.813 6.157-2.128 0-2.497-3.368-4.053-3.368-4.053 0-5.053 0-5.684 0-5.684s1.684-1.684 1.684-4.211c0-3.912-5.053-6.726-5.053-6.726v-1.695M14.316 5.895c-0.93 0-1.684 1.131-1.684 2.526s0.755 2.526 1.684 2.526 1.684-1.131 1.684-2.526-0.755-2.526-1.684-2.526z"></path>
</svg>
