<?xml version="1.0" encoding="utf-8"?>
<!-- Generated by IcoMoon.io -->
<!DOCTYPE svg PUBLIC "-//W3C//DTD SVG 1.1//EN" "http://www.w3.org/Graphics/SVG/1.1/DTD/svg11.dtd">
<svg version="1.1" xmlns="http://www.w3.org/2000/svg" xmlns:xlink="http://www.w3.org/1999/xlink" width="32" height="32" viewBox="0 0 32 32">
<path fill="none" stroke="#4493d1" stroke-width="1.6842" stroke-miterlimit="10" stroke-linecap="butt" stroke-linejoin="miter" d="M0 12.632c0 0 9.737 0 10.947 0 2.526 0 1.684 2.737 1.684 7.579-7.413 6.579-10.947 10.947-10.947 10.947h1.737c0 0 10.316-6.421 12.877-6.737s6.438 0 6.438 0v6.737h4.211M32 10.947h-12.632c0 0 0-4.59 0-5.053 0-1.395-1.132-2.526-2.526-2.526s-2.526 1.131-2.526 2.526c0 0.462 0 2.064 0 2.526 0 2.388 0.878 3.287 3.368 4.468 1.237 0.586 1.895 1.284 1.895 2.269 0 1.054-0.211 2.12-0.211 4.947 0 0 2.739 0.271 5.316 0.849 0.871 0.195 1.473 0.73 1.473 1.731 0 1.316-0.842 8.474-0.842 8.474"></path>
</svg>
