<?xml version="1.0" encoding="utf-8"?>
<!-- Generated by IcoMoon.io -->
<!DOCTYPE svg PUBLIC "-//W3C//DTD SVG 1.1//EN" "http://www.w3.org/Graphics/SVG/1.1/DTD/svg11.dtd">
<svg version="1.1" xmlns="http://www.w3.org/2000/svg" xmlns:xlink="http://www.w3.org/1999/xlink" width="32" height="32" viewBox="0 0 32 32">
<path fill="none" stroke="#4493d1" stroke-width="1.6842" stroke-miterlimit="10" stroke-linecap="butt" stroke-linejoin="miter" d="M22.763 12.428l-6.985 6.744-8.269-3.119 2.456-8.24M27.048 12.099l2.616-2.584c0 0-2.708-3.317-3.214-3.852-1.528-1.614-3.568-2.163-5.659-0.183-2.090 1.978-1.655 4.046-0.128 5.659 0.509 0.535 1.783 1.595 1.783 1.595M6.803 6.802c-3.22 6.903-4.277 8.356-4.277 10.040 0 0.973 0.496 2.052 1.219 2.765 3.711 3.665 7.507 6.499 12.255 6.499 5.333 0 10.105-6.17 10.105-8.941 0-2.504-1.064-3.453-3.66-4.43-17.866-6.734-17.866-6.734-17.866-6.734"></path>
</svg>
