<?xml version="1.0" encoding="utf-8"?>
<!-- Generated by IcoMoon.io -->
<!DOCTYPE svg PUBLIC "-//W3C//DTD SVG 1.1//EN" "http://www.w3.org/Graphics/SVG/1.1/DTD/svg11.dtd">
<svg version="1.1" xmlns="http://www.w3.org/2000/svg" xmlns:xlink="http://www.w3.org/1999/xlink" width="32" height="32" viewBox="0 0 32 32">
<path fill="none" stroke="#4493d1" stroke-width="1.6842" stroke-miterlimit="10" stroke-linecap="butt" stroke-linejoin="miter" d="M19.368 6.737c0 1.86-1.508 3.368-3.368 3.368s-3.368-1.508-3.368-3.368c0-0.616 0-1.91 0-2.526 0-1.86 1.508-3.368 3.368-3.368s3.368 1.508 3.368 3.368c0 0.616 0 1.91 0 2.526zM23.997 27.953l-5.99-2.864-10.059 2.864M12.632 16.842l-0.844 5.578c0 0-3.277 1.476-4.616 2.173-1.34 0.7-2.961 1.592-2.961 3.775 0 1.737 1.249 2.86 2.933 2.86s5.488-1.086 8.856-1.996c3.368-0.91 6.573-1.96 6.573-1.96M16 29.233c3.368 0.909 7.172 1.925 8.856 1.925s2.933-1.123 2.933-2.86c0-2.183-1.621-3.087-2.961-3.786-1.34-0.697-4.616-2.196-4.616-2.196l-0.844-5.474M0.424 26.373c0 0 3.735-2.65 5.419-5.361s3.299-6.363 4.263-7.539 4.211-2.149 4.211-2.149v-1.672M17.684 9.652v1.672c0 0 3.246 0.973 4.211 2.149s2.579 4.828 4.263 7.539 5.419 5.361 5.419 5.361"></path>
</svg>
