<?xml version="1.0" encoding="utf-8"?>
<!-- Generated by IcoMoon.io -->
<!DOCTYPE svg PUBLIC "-//W3C//DTD SVG 1.1//EN" "http://www.w3.org/Graphics/SVG/1.1/DTD/svg11.dtd">
<svg version="1.1" xmlns="http://www.w3.org/2000/svg" xmlns:xlink="http://www.w3.org/1999/xlink" width="32" height="32" viewBox="0 0 32 32">
<path fill="none" stroke="#4493d1" stroke-width="1.6842" stroke-miterlimit="10" stroke-linecap="butt" stroke-linejoin="miter" d="M22.737 30.307l-7.158-10.939c4.842 0 5.48-0.31 5.84 2.211 0.172 1.208 1.528 9.579 1.528 9.579M19.875 10.258c0.158 1.103-0.68 2.415-2.451 2.416-7.878 0.001-9.698 0.896-11.164 3.737-1.764 3.416-4.575 14.747-4.575 14.747h1.737c0 0 5.853-10.105 6.515-10.105s10.275 10.105 10.275 10.105h5.053M18.419 0.070l1.8 12.602c0.479 3.361 0.972 5.012 3.36 5.012 0.462 0 2.064 0 2.526 0 1.395 0 2.526-1.132 2.526-2.526s-1.132-2.526-2.526-2.526c-2.159 0-5.886 0.041-5.886 0.041"></path>
</svg>
