<?xml version="1.0" encoding="utf-8"?>
<!-- Generated by IcoMoon.io -->
<!DOCTYPE svg PUBLIC "-//W3C//DTD SVG 1.1//EN" "http://www.w3.org/Graphics/SVG/1.1/DTD/svg11.dtd">
<svg version="1.1" xmlns="http://www.w3.org/2000/svg" xmlns:xlink="http://www.w3.org/1999/xlink" width="32" height="32" viewBox="0 0 32 32">
<path fill="none" stroke="#4493d1" stroke-width="1.6842" stroke-miterlimit="10" stroke-linecap="butt" stroke-linejoin="miter" d="M0.937 17.684c0 0 5.063 0 7.589 0 1.486 0 2.421 1.062 2.421 2.526 0 1.459-0.988 2.526-2.474 2.526-0.736 0-2.368 0-3.421 0-1.684 0-4.211-0.842-4.211-4.211 0-4.474 4.579-7.579 10.474-7.579 3 0 5.292 1.069 6.857 3.168 0.804 1.080 2.415 3.24 3.218 4.32 1.367 1.834 2.819 2.617 4.714 2.617 1.684 0 5.053 0 5.053 0v-5.895M10.824 21.053h7.463l-2.507-3.366-3.991-0.003M31.158 17.688h-5.505c0.288-0.497 0.452-1.074 0.452-1.688 0-1.86-1.508-3.368-3.368-3.368s-6.005 0-6.005 0"></path>
</svg>
