<?xml version="1.0" encoding="utf-8"?>
<!-- Generated by IcoMoon.io -->
<!DOCTYPE svg PUBLIC "-//W3C//DTD SVG 1.1//EN" "http://www.w3.org/Graphics/SVG/1.1/DTD/svg11.dtd">
<svg version="1.1" xmlns="http://www.w3.org/2000/svg" xmlns:xlink="http://www.w3.org/1999/xlink" width="32" height="32" viewBox="0 0 32 32">
<path fill="none" stroke="#4493d1" stroke-width="1.6842" stroke-miterlimit="10" stroke-linecap="butt" stroke-linejoin="miter" d="M14.803 18.311c0 0 0.767 2.131 1.396 3.88 0.631 1.751 2.559 2.659 4.31 2.029s2.659-2.56 2.028-4.309c-0.361-1.007-1.344-3.739-2.115-5.879-1.752-4.863-5.982-9.822-10.317-9.822-4 0-5.895 2.456-5.895 5.263 0 4.211 4.141 6.246 6.737 20h5.895M14.316 29.474c-0.842-7.981-2.355-14.538-3.586-19.438 2.354 5.134 5.27 5.965 7.586 5.965 1.725 0 3.242-0.928 4.18-1.821 3.358-3.196 7.466-7.104 7.466-7.104"></path>
</svg>
