<?xml version="1.0" encoding="utf-8"?>
<!-- Generated by IcoMoon.io -->
<!DOCTYPE svg PUBLIC "-//W3C//DTD SVG 1.1//EN" "http://www.w3.org/Graphics/SVG/1.1/DTD/svg11.dtd">
<svg version="1.1" xmlns="http://www.w3.org/2000/svg" xmlns:xlink="http://www.w3.org/1999/xlink" width="32" height="32" viewBox="0 0 32 32">
<path fill="none" stroke="#4493d1" stroke-width="1.6842" stroke-miterlimit="10" stroke-linecap="butt" stroke-linejoin="miter" d="M11.496 14.316c0 0-3.21-5.998-3.75-6.979-0.74-1.347-2.433-1.837-3.779-1.096s-1.837 2.434-1.096 3.779c0.245 0.446 1.097 1.992 1.342 2.437 1.267 2.304 2.791 1.86 5.236 1.86s14.403 0 14.403 0-11.957 0-14.403 0c-3.505 0-3.489 3.3-2.295 5.368 1.136 1.968 3.792 8.105 8.003 8.105 2.175 0 3.571-1.314 4.564-2.384 3.702-3.987 11.436-13.616 11.436-13.616v-3.368l-15.768 13.161-2.345-4.376"></path>
</svg>
