<?xml version="1.0" encoding="utf-8"?>
<!-- Generated by IcoMoon.io -->
<!DOCTYPE svg PUBLIC "-//W3C//DTD SVG 1.1//EN" "http://www.w3.org/Graphics/SVG/1.1/DTD/svg11.dtd">
<svg version="1.1" xmlns="http://www.w3.org/2000/svg" xmlns:xlink="http://www.w3.org/1999/xlink" width="32" height="32" viewBox="0 0 32 32">
<path fill="none" stroke="#4493d1" stroke-width="1.6842" stroke-miterlimit="10" stroke-linecap="butt" stroke-linejoin="miter" d="M0.842 30.316c0 0 3.843 0.842 7 0.842 4.842 0 16.579-5.421 16.579-5.421v5.421h4.211M21.079 12.428c-3.555 6.731-7.552 13.214-10.757 14.736s-9.48 0.784-9.48 0.784v4.052M19.085 22.897c0 0 5.154-1.944 7.284-1.944 0.893 0 1.473 0.73 1.473 1.731 0 1.316-0.842 8.474-0.842 8.474M23.763 11.219l1.869-3.659c0 0-3.971-2.526-4.52-2.821-1.655-0.89-3.439-0.789-4.592 1.355s-0.255 3.688 1.4 4.579c0.549 0.295 1.291 0.755 3.16 1.756 2.909 1.559 3.341 2.568 3.341 5.256 0 1.054 0 11.489 0 14.316"></path>
</svg>
