<?xml version="1.0" encoding="utf-8"?>
<!-- Generated by IcoMoon.io -->
<!DOCTYPE svg PUBLIC "-//W3C//DTD SVG 1.1//EN" "http://www.w3.org/Graphics/SVG/1.1/DTD/svg11.dtd">
<svg version="1.1" xmlns="http://www.w3.org/2000/svg" xmlns:xlink="http://www.w3.org/1999/xlink" width="32" height="32" viewBox="0 0 32 32">
<path fill="none" stroke="#4493d1" stroke-width="1.6842" stroke-miterlimit="10" stroke-linecap="butt" stroke-linejoin="miter" d="M28.632 26.105h-2.526v-16.392M26.105 22.631c0 0 0.599 0.106 0.842 0.106 2.326 0 4.211-1.885 4.211-4.211 0-0.947-0.404-1.761-0.84-2.524-3.37-5.897-6.387-10.108-11.791-10.108-4.541 0-10.947 3.368-10.947 7.579 0 1.79 0.315 3.632 1.111 8.893l-6.163 0.371-1.285 3.368c0 0 8.179 0 9.021 0 1.395 0 2.37-0.842 2.37-2.526s0-7.579 0-7.579 2.105-3.368 5.895-3.368c1.754 0 4.211 2.526 4.211 2.526l-2.243 2.349 2.243 2.861"></path>
</svg>
