<?xml version="1.0" encoding="utf-8"?>
<!-- Generated by IcoMoon.io -->
<!DOCTYPE svg PUBLIC "-//W3C//DTD SVG 1.1//EN" "http://www.w3.org/Graphics/SVG/1.1/DTD/svg11.dtd">
<svg version="1.1" xmlns="http://www.w3.org/2000/svg" xmlns:xlink="http://www.w3.org/1999/xlink" width="32" height="32" viewBox="0 0 32 32">
<path fill="none" stroke="#4493d1" stroke-width="1.6842" stroke-miterlimit="10" stroke-linecap="butt" stroke-linejoin="miter" d="M18.526 31.158h-5.053l1.921-5.501c-3.542-1.709-6.131-1.692-6.131-4.445 0-2.691 2.808-3.102 6.229-8.666 1.913-3.112 2.192-9.005 2.192-10.861 0-0.842 0-1.684 0-1.684M18.846 11.316l1.194-3.419c0 0-2.555-1.182-3.821-1.769s-2.768-0.035-3.353 1.231c-0.586 1.266-0.035 2.768 1.231 3.354s2.293 1.061 2.293 1.061 1.294 1.331 1.294 3.805c0 1.656-0.737 3.074-2.736 5.074 3.578 1.874 4.441 2.557 4.441 3.912 0 1.204-0.633 1.987-3.079 6.594"></path>
</svg>
