<?xml version="1.0" encoding="utf-8"?>
<!-- Generated by IcoMoon.io -->
<!DOCTYPE svg PUBLIC "-//W3C//DTD SVG 1.1//EN" "http://www.w3.org/Graphics/SVG/1.1/DTD/svg11.dtd">
<svg version="1.1" xmlns="http://www.w3.org/2000/svg" xmlns:xlink="http://www.w3.org/1999/xlink" width="32" height="32" viewBox="0 0 32 32">
<path fill="none" stroke="#4493d1" stroke-width="1.6842" stroke-miterlimit="10" stroke-linecap="butt" stroke-linejoin="miter" d="M17.684 0v11.789c2.526 0.842 2.526 2.384 2.526 3.368 0 1.054-0.842 4.947-0.842 4.947s2.739 0.271 5.316 0.849c0.871 0.195 1.473 0.73 1.473 1.731 0 1.316-0.842 8.474-0.842 8.474M15.158 7.579c0 0-2.906 0-3.368 0-1.395 0-2.526 1.132-2.526 2.526s1.131 2.526 2.526 2.526c0.462 0 2.526 0 2.526 0s-0.012 3.877 0 5.895c0 0-0.908 0.985-1.684 1.684-7.413 6.579-10.947 10.947-10.947 10.947h1.737c0 0 10.316-6.421 12.877-6.737s6.438 0 6.438 0v6.737h4.211"></path>
</svg>
