<?xml version="1.0" encoding="utf-8"?>
<!-- Generated by IcoMoon.io -->
<!DOCTYPE svg PUBLIC "-//W3C//DTD SVG 1.1//EN" "http://www.w3.org/Graphics/SVG/1.1/DTD/svg11.dtd">
<svg version="1.1" xmlns="http://www.w3.org/2000/svg" xmlns:xlink="http://www.w3.org/1999/xlink" width="32" height="32" viewBox="0 0 32 32">
<path fill="none" stroke="#4493d1" stroke-width="1.6842" stroke-miterlimit="10" stroke-linecap="butt" stroke-linejoin="miter" d="M20.264 26.105c-0.737 0-6.79 0-6.79 0s-2.526-0.675-2.526-3.378c0-2.314 0-11.78 0-11.78s2.204 0 3.088 0c1.466 0 2.504 0.59 3.336 2.022 1.761 3.027 6.605 11.353 6.605 11.353M14.888 15.333l3.183 5.471c0 0 4.232 2.083 4.727 2.355 1.011 0.556 1.624 1.621 1.624 2.947 0 1.666-1.101 3.368-3.368 3.368-2.152 0-9.316 0-9.316 0l1.737-3.368M17.684 10.105c0 0 0-4.035 0-5.895s-1.508-3.368-3.368-3.368-3.368 1.508-3.368 3.368 0 9.263 0 9.263"></path>
</svg>
