<?xml version="1.0" encoding="utf-8"?>
<!-- Generated by IcoMoon.io -->
<!DOCTYPE svg PUBLIC "-//W3C//DTD SVG 1.1//EN" "http://www.w3.org/Graphics/SVG/1.1/DTD/svg11.dtd">
<svg version="1.1" xmlns="http://www.w3.org/2000/svg" xmlns:xlink="http://www.w3.org/1999/xlink" width="32" height="32" viewBox="0 0 32 32">
<path fill="#4493d1" d="M9.665 23.022c-0.286-0.078-0.286-0.070-0.597-0.139v-1.26c0.423 0.041 0.731 0.378 0.732 0.748l1.12 0.001c0-0.846-0.705-1.694-1.852-1.841v-0.67h-1.073v0.67c-1.081 0.143-1.783 0.949-1.783 1.668 0 0.725 0.468 1.295 1.144 1.481 0.264 0.073 0.403 0.112 0.649 0.159v1.344c-0.494-0.102-0.741-0.527-0.741-0.847h-1.143c0 0.712 0.729 1.8 1.873 1.931v0.717h1.072v-0.717c1.185-0.155 1.904-0.772 1.905-1.672-0-0.585-0.241-1.284-1.307-1.574zM7.995 22.687c-0.479-0.085-0.612-0.291-0.612-0.512 0-0.258 0.325-0.507 0.612-0.541v1.052zM9.080 25.177v-1.136c0.473 0.068 0.773 0.272 0.773 0.564 0 0.259-0.279 0.553-0.773 0.572z"></path>
<path fill="#4493d1" d="M28.037 0.275h-23.807c-2.177 0-3.949 1.773-3.949 3.951v23.804c0 2.179 1.772 3.951 3.949 3.951h23.807c2.178 0 3.95-1.772 3.95-3.951v-23.804c0-2.178-1.772-3.951-3.95-3.951zM23.374 4.35c1.057 0 1.915 0.858 1.915 1.915s-0.858 1.914-1.915 1.914c-1.058 0-1.914-0.857-1.914-1.914s0.856-1.915 1.914-1.915zM9.232 4.436c1.041 0 1.884 0.844 1.884 1.884s-0.843 1.885-1.884 1.885c-1.040 0-1.884-0.845-1.884-1.885s0.844-1.884 1.884-1.884zM5.297 10.79c0.284-0.938 1.211-1.932 2.428-1.932h3.014c1.215 0 2.143 0.994 2.427 1.932l1.063 3.876h-1.657l-0.88-3.196h-0.743l0.859 3.196h-5.15l0.859-3.196h-0.743l-0.88 3.196h-1.657l1.062-3.876zM8.535 27.906c-2.478 0-4.486-2.009-4.486-4.486s2.009-4.486 4.486-4.486c2.478 0 4.486 2.009 4.486 4.486s-2.008 4.486-4.486 4.486zM28.217 17.909l-2.219 0.001v8.872c0 0.62-0.509 1.123-1.129 1.123-0.619 0-1.122-0.503-1.122-1.123 0-0.847 0-7.79 0-8.872h-0.716c0 1.082 0 8.024 0 8.872 0 0.62-0.504 1.123-1.124 1.123s-1.128-0.503-1.128-1.123c0-0.479 0-4.823 0-8.871l-16.731 0.005v-2.15h16.731c0-2.8 0-5.031 0-5.031l-3.574 4.232c-0.752 0.869-2.091-0.216-1.336-1.145l3.704-4.45c0.24-0.239 0.454-0.534 1.339-0.534h4.509c0.94 0 1.703 0.762 1.703 1.702l-0.003 5.226h1.097v2.142z"></path>
</svg>
