<?xml version="1.0" encoding="utf-8"?>
<!-- Generated by IcoMoon.io -->
<!DOCTYPE svg PUBLIC "-//W3C//DTD SVG 1.1//EN" "http://www.w3.org/Graphics/SVG/1.1/DTD/svg11.dtd">
<svg version="1.1" xmlns="http://www.w3.org/2000/svg" xmlns:xlink="http://www.w3.org/1999/xlink" width="20" height="20" viewBox="0 0 20 20">
<path fill="#4493d1" d="M1 10h1v1h-1v-1z"></path>
<path fill="#4493d1" d="M3 10h1v1h-1v-1z"></path>
<path fill="#4493d1" d="M5 10h1v1h-1v-1z"></path>
<path fill="#4493d1" d="M7 10h1v1h-1v-1z"></path>
<path fill="#4493d1" d="M9 10h1v1h-1v-1z"></path>
<path fill="#4493d1" d="M11 10h1v1h-1v-1z"></path>
<path fill="#4493d1" d="M13 10h1v1h-1v-1z"></path>
<path fill="#4493d1" d="M15 10h1v1h-1v-1z"></path>
<path fill="#4493d1" d="M17 10h1v1h-1v-1z"></path>
<path fill="#4493d1" d="M9 16h1v1h-1v-1z"></path>
<path fill="#4493d1" d="M9 14h1v1h-1v-1z"></path>
<path fill="#4493d1" d="M9 12h1v1h-1v-1z"></path>
<path fill="#4493d1" d="M9 8h1v1h-1v-1z"></path>
<path fill="#4493d1" d="M9 6h1v1h-1v-1z"></path>
<path fill="#4493d1" d="M9 4h1v1h-1v-1z"></path>
<path fill="#4493d1" d="M9 2h1v1h-1v-1z"></path>
<path fill="#4493d1" d="M1 16h1v1h-1v-1z"></path>
<path fill="#4493d1" d="M1 18h1v1h-1v-1z"></path>
<path fill="#4493d1" d="M1 14h1v1h-1v-1z"></path>
<path fill="#4493d1" d="M1 12h1v1h-1v-1z"></path>
<path fill="#4493d1" d="M1 2h1v1h-1v-1z"></path>
<path fill="#4493d1" d="M1 8h1v1h-1v-1z"></path>
<path fill="#4493d1" d="M1 6h1v1h-1v-1z"></path>
<path fill="#4493d1" d="M1 4h1v1h-1v-1z"></path>
<path fill="#4493d1" d="M17 16h1v1h-1v-1z"></path>
<path fill="#4493d1" d="M17 18h1v1h-1v-1z"></path>
<path fill="#4493d1" d="M17 14h1v1h-1v-1z"></path>
<path fill="#4493d1" d="M17 12h1v1h-1v-1z"></path>
<path fill="#4493d1" d="M17 2h1v1h-1v-1z"></path>
<path fill="#4493d1" d="M17 8h1v1h-1v-1z"></path>
<path fill="#4493d1" d="M17 6h1v1h-1v-1z"></path>
<path fill="#4493d1" d="M17 4h1v1h-1v-1z"></path>
<path fill="#4493d1" d="M9 18h1v1h-1v-1z"></path>
<path fill="#4493d1" d="M3 2h1v1h-1v-1z"></path>
<path fill="#4493d1" d="M5 2h1v1h-1v-1z"></path>
<path fill="#4493d1" d="M7 2h1v1h-1v-1z"></path>
<path fill="#4493d1" d="M11 2h1v1h-1v-1z"></path>
<path fill="#4493d1" d="M13 2h1v1h-1v-1z"></path>
<path fill="#4493d1" d="M15 2h1v1h-1v-1z"></path>
<path fill="#4493d1" d="M3 18h1v1h-1v-1z"></path>
<path fill="#4493d1" d="M5 18h1v1h-1v-1z"></path>
<path fill="#4493d1" d="M7 18h1v1h-1v-1z"></path>
<path fill="#4493d1" d="M11 18h1v1h-1v-1z"></path>
<path fill="#4493d1" d="M13 18h1v1h-1v-1z"></path>
<path fill="#4493d1" d="M15 18h1v1h-1v-1z"></path>
</svg>
