<?xml version="1.0" encoding="utf-8"?>
<!-- Generated by IcoMoon.io -->
<!DOCTYPE svg PUBLIC "-//W3C//DTD SVG 1.1//EN" "http://www.w3.org/Graphics/SVG/1.1/DTD/svg11.dtd">
<svg version="1.1" xmlns="http://www.w3.org/2000/svg" xmlns:xlink="http://www.w3.org/1999/xlink" width="32" height="32" viewBox="0 0 32 32">
<path fill="none" stroke="#4493d1" stroke-width="1.6842" stroke-miterlimit="10" stroke-linecap="butt" stroke-linejoin="miter" d="M24.421 22.68c0 4.296-3.599 6.625-5.401 7.671-0.888 0.512-1.92 0.807-3.020 0.807s-2.131-0.296-3.020-0.808c-1.802-1.045-5.401-3.374-5.401-7.669 0-1.823 0-8.726 0-10.049 0-4.652 3.769-8.421 8.421-8.421s8.421 3.769 8.421 8.421c0 1.323 0 8.226 0 10.049zM16 16.842v6.737M8.921 18.526c0 0 1.516 0.842 2.443 0.842s2.162 0 2.162 0M18.474 19.368c0 0 1.235 0 2.162 0 0.928 0 2.443-0.842 2.443-0.842M12.632 25.263c0 0 1.405 0.842 3.368 0.842 1.96 0 3.368-0.842 3.368-0.842M7.579 15.158c0 0-0.755-0.842-1.684-0.842v0c-0.93 0-1.684 0.755-1.684 1.684v8.421c0 0.93 0.755 1.684 1.684 1.684v0c0.93 0 1.684-0.755 1.684-1.684v-9.263zM27.789 16c0-0.93-0.755-1.684-1.684-1.684v0c-0.93 0-1.684 0.842-1.684 0.842v9.263c0 0.93 0.755 1.684 1.684 1.684v0c0.93 0 1.684-0.755 1.684-1.684v-8.421zM18.949 4.745c0.285-0.396 0.419-0.869 0.419-1.377 0-1.395-1.016-2.526-3.368-2.526s-3.368 1.131-3.368 2.526c0 0.523 0.142 1.009 0.445 1.412M24.421 14.316c0-2-0.816-4.401-2.815-5.053-1.291-0.421-3.080 1.684-5.606 1.684-1.843 0-4.184-1.736-5.095-1.74M16 15.158v-1.684M13.474 15.158c-0.842 0-2.526-0.842-3.368-0.842s-2.526 0-2.526 0M24.421 14.316c0 0-1.684 0-2.526 0s-2.526 0.842-3.368 0.842"></path>
</svg>
