<?xml version="1.0" encoding="utf-8"?>
<!-- Generated by IcoMoon.io -->
<!DOCTYPE svg PUBLIC "-//W3C//DTD SVG 1.1//EN" "http://www.w3.org/Graphics/SVG/1.1/DTD/svg11.dtd">
<svg version="1.1" xmlns="http://www.w3.org/2000/svg" xmlns:xlink="http://www.w3.org/1999/xlink" width="32" height="32" viewBox="0 0 32 32">
<path fill="#4493d1" d="M15.412 7.126h0.979v-0.814h0.815v-0.979h-0.815v-0.818h-0.979v0.818h-0.815v0.979h0.815z"></path>
<path fill="#4493d1" d="M27.566 0.337h-23.287c-2.282 0-4.138 1.857-4.138 4.139v23.283c0 2.283 1.856 4.139 4.138 4.139h23.287c2.282 0 4.138-1.857 4.138-4.139v-23.283c0-2.282-1.856-4.139-4.138-4.139zM15.909 3.969c1.397 0 3.685 0.587 4.961 1.982l-1.718 3.296c-0.748-0.97-1.923-1.593-3.243-1.593-1.305 0-2.467 0.61-3.216 1.561l-1.751-3.19c1.474-1.474 3.51-2.055 4.967-2.055zM19.056 11.621c0 1.739-1.412 3.149-3.152 3.149-1.739 0-3.148-1.41-3.148-3.149s1.409-3.149 3.148-3.149c1.741 0 3.152 1.41 3.152 3.149zM9.773 18.395c0.286-0.999 1.55-2.772 3.735-2.782l4.912 0.004c2.136 0.053 3.374 1.791 3.657 2.778l1.808 5.981h-2.648l-1.154-3.948h-0.807l1.147 3.948h-9l1.152-3.948h-0.807l-1.151 3.948h-2.686l1.843-5.981zM27.686 27.876h-23.559v-2.242h23.559v2.242z"></path>
</svg>
