<?xml version="1.0" encoding="utf-8"?>
<!-- Generated by IcoMoon.io -->
<!DOCTYPE svg PUBLIC "-//W3C//DTD SVG 1.1//EN" "http://www.w3.org/Graphics/SVG/1.1/DTD/svg11.dtd">
<svg version="1.1" xmlns="http://www.w3.org/2000/svg" xmlns:xlink="http://www.w3.org/1999/xlink" width="32" height="32" viewBox="0 0 32 32">
<path fill="#4493d1" d="M27.685 0.185h-23.393c-2.292 0-4.157 1.865-4.157 4.157v23.391c0 2.293 1.865 4.158 4.157 4.158h23.393c2.292 0 4.158-1.865 4.158-4.158v-23.391c0-2.292-1.865-4.157-4.157-4.157zM4.136 15.134l7.026-1.075h6.501c1.098 0 1.98 0.886 1.98 1.977 0 1.085-0.875 1.963-1.965 1.972l-7.049-0.001c-0.469-0.006-0.847-0.387-0.847-0.858 0-0.475 0.384-0.859 0.859-0.859h3.642l2.966-0.619-0.161-0.766-2.886 0.603h-3.561c-0.905 0-1.642 0.736-1.642 1.642 0 0.315 0.094 0.607 0.248 0.858l-5.111-0.001v-2.872zM4.151 20.835v-1.534h19.48v1.534h-19.48zM20.144 16.068c0-1.073 0.869-1.941 1.94-1.941 1.070 0 1.942 0.868 1.942 1.941 0 1.069-0.872 1.941-1.942 1.941-1.072 0-1.94-0.872-1.94-1.941zM27.826 26.993c0 0.479-0.388 0.866-0.867 0.866 0 0-11.696-0.001-12.052-0.001-0.478 0-0.824-0.467-0.779-0.944 0-0.32 0-3.312 0-3.459 0-0.933 4.5-1.036 4.5-0.014v2.347c4.307-1.148 7.451-5.096 7.466-9.751-0.002-4.658-3.162-8.588-7.466-9.742v2.64h-4.503c0 0 0-3.41 0-3.727-0.043-0.477 0.309-0.898 0.785-0.942 7.012-0.638 12.918 4.893 12.918 11.774 0 0.017-0.001 10.951-0.001 10.951z"></path>
</svg>
