<?xml version="1.0" encoding="utf-8"?>
<!-- Generated by IcoMoon.io -->
<!DOCTYPE svg PUBLIC "-//W3C//DTD SVG 1.1//EN" "http://www.w3.org/Graphics/SVG/1.1/DTD/svg11.dtd">
<svg version="1.1" xmlns="http://www.w3.org/2000/svg" xmlns:xlink="http://www.w3.org/1999/xlink" width="32" height="32" viewBox="0 0 32 32">
<path fill="#4493d1" d="M26.855 13.436c0-1.58-1.281-2.738-2.86-2.738-0.072 0-0.144 0.003-0.214 0.007v5.491c0.071 0.005 0.143 0.009 0.214 0.009 1.58 0 2.86-1.188 2.86-2.768z"></path>
<path fill="#4493d1" d="M28.174 0.365h-24.179c-2.032 0-3.68 1.647-3.68 3.679v24.179c0 2.032 1.647 3.679 3.68 3.679h24.179c2.032 0 3.679-1.647 3.679-3.679v-24.179c0-2.032-1.647-3.679-3.679-3.679zM8.947 8.918l14.834 0.004c0.071-0.003 0.143-0.005 0.214-0.005 2.607 0 4.72 1.911 4.72 4.518s-2.113 4.568-4.72 4.568c-0.071 0-0.143-0.003-0.214-0.006v0.696c0 1.462-1.186 2.648-2.648 2.648h-9.538c-1.463 0-2.648-1.186-2.648-2.648v-9.776zM29.236 22.005c0 1.462-1.186 2.648-2.648 2.648h-20.602c-1.462 0-2.648-1.186-2.648-2.648v-0.092h25.898v0.092z"></path>
</svg>
