<?xml version="1.0" encoding="utf-8"?>
<!-- Generated by IcoMoon.io -->
<!DOCTYPE svg PUBLIC "-//W3C//DTD SVG 1.1//EN" "http://www.w3.org/Graphics/SVG/1.1/DTD/svg11.dtd">
<svg version="1.1" xmlns="http://www.w3.org/2000/svg" xmlns:xlink="http://www.w3.org/1999/xlink" width="32" height="32" viewBox="0 0 32 32">
<path fill="#4493d1" d="M27.727 0.169l-23.392-0c-2.292 0-4.157 1.865-4.157 4.158v23.391c0 2.293 1.865 4.158 4.157 4.158h23.392c2.291 0 4.157-1.865 4.157-4.158v-23.39c0-2.293-1.866-4.158-4.157-4.158zM22.333 16.197c-0.199 1.282 0.206 2.72-0.176 5.608-0.396 2.918-1.081 5.477-2.415 5.477-1.578 0-1.366-2.911-1.182-5.281 0.054-0.713 0.094-1.329 0.056-1.751-0.16-1.765-0.92-3.008-2.557-3.008-1.628 0-2.398 1.243-2.557 3.008-0.038 0.422 0.002 1.038 0.056 1.751 0.184 2.369 0.395 5.281-1.182 5.281-1.334 0-2.020-2.56-2.415-5.477-0.382-2.888 0.022-4.326-0.176-5.608-0.38-2.43-2.5-4.609-1.846-7.707 0.364-1.719 1.31-2.527 2.247-2.867 2.161-0.786 3.555 0.729 5.874 0.729s3.713-1.515 5.873-0.729c0.938 0.34 1.884 1.148 2.247 2.867 0.655 3.098-1.466 5.277-1.845 7.707z"></path>
</svg>
