<?xml version="1.0" encoding="utf-8"?>
<!-- Generated by IcoMoon.io -->
<!DOCTYPE svg PUBLIC "-//W3C//DTD SVG 1.1//EN" "http://www.w3.org/Graphics/SVG/1.1/DTD/svg11.dtd">
<svg version="1.1" xmlns="http://www.w3.org/2000/svg" xmlns:xlink="http://www.w3.org/1999/xlink" width="32" height="32" viewBox="0 0 32 32">
<path fill="#4493d1" d="M17.579 21.171c-0.394-0.033-0.741 0.258-0.776 0.652-0.032 0.395 0.258 0.741 0.656 0.775 0.39 0.034 0.736-0.258 0.77-0.653 0.035-0.392-0.258-0.74-0.651-0.773z"></path>
<path fill="#4493d1" d="M16.44 19.585c-0.263 0-0.477 0.216-0.477 0.479s0.214 0.478 0.477 0.478c0.264 0 0.479-0.214 0.479-0.478 0-0.263-0.215-0.479-0.479-0.479z"></path>
<path fill="#4493d1" d="M16.725 18.511c0.262 0 0.479-0.213 0.479-0.478 0-0.261-0.217-0.476-0.479-0.476-0.264 0-0.478 0.215-0.478 0.476 0 0.265 0.214 0.478 0.478 0.478z"></path>
<path fill="#4493d1" d="M11.815 13.014c-0.581 0-1.050 0.469-1.050 1.050 0 0.578 0.47 1.049 1.050 1.049s1.048-0.471 1.048-1.049c0-0.581-0.468-1.050-1.048-1.050z"></path>
<path fill="#4493d1" d="M18.148 18.305c-0.4 0-0.717 0.319-0.717 0.714s0.318 0.715 0.717 0.715c0.392 0 0.711-0.32 0.711-0.715s-0.319-0.714-0.711-0.714z"></path>
<path fill="#4493d1" d="M27.522 0.281h-23.287c-2.282 0-4.138 1.856-4.138 4.138v23.285c0 2.283 1.856 4.139 4.138 4.139h23.287c2.282 0 4.137-1.856 4.137-4.139v-23.285c0-2.282-1.855-4.138-4.137-4.138zM11.245 28.439h-8.439c0 0 0.736-8.104 0.807-8.189 0.074-0.081 1.548 0.092 1.548 1.258 0 0.84 0.004 1.771 0.008 2.288l5.352-5.342c0.283-0.283 0.74-0.282 1.021 0s0.282 0.739 0 1.020l-4.16 4.157 0.422 0.423 5.302-5.296c0.282-0.282 0.739-0.282 1.020 0.001s0.281 0.739-0.001 1.020l-5.301 5.297 0.422 0.422 4.557-4.552c0.283-0.282 0.74-0.282 1.021 0.001 0.282 0.281 0.282 0.739 0 1.020l-4.558 4.552 0.423 0.423 3.399-3.397c0.282-0.282 0.739-0.282 1.021 0s0.282 0.739-0 1.021l-3.4 3.397 0.006 0.005-0.47 0.47zM24.719 20.462v7.977h-10.038v-2.605l0.848-0.847c0.514-0.514 0.514-1.347 0-1.861-0.189-0.189-0.422-0.308-0.667-0.358l0.382-0.381c0.514-0.513 0.514-1.346 0.001-1.86-0.191-0.191-0.426-0.311-0.673-0.36 0.484-0.516 0.478-1.325-0.026-1.828-0.514-0.515-1.346-0.515-1.86-0.001l-0.366 0.366c-0.050-0.246-0.169-0.479-0.358-0.669-0.514-0.514-1.346-0.514-1.86-0.001l-1.195 1.194h-0.67c-0.419 0-0.758-0.34-0.758-0.756 0-0.107 0.020-0.205 0.059-0.296l1.961-4.941c0 0 0.205-2.046 0.389-2.832 0.819-3.525 4.751-6.726 9.018-6.726 5.197 0 9.406 4.207 9.406 9.398 0 2.997-1.408 5.668-3.593 7.386z"></path>
<path fill="#4493d1" d="M19.163 20.278c-0.265 0-0.48 0.215-0.48 0.476 0 0.265 0.215 0.478 0.48 0.478 0.264 0 0.477-0.213 0.477-0.478 0-0.261-0.213-0.476-0.477-0.476z"></path>
<path fill="#4493d1" d="M20.231 12.885h-0.167v0.852l0.166 0.001c1.063 0.002 1.932 0.868 1.935 1.932-0.003 1.063-0.872 1.93-1.936 1.932l-0.165 0.002v0.853h0.167c1.538 0 2.788-1.25 2.788-2.786s-1.25-2.784-2.788-2.784z"></path>
</svg>
