<?xml version="1.0" encoding="utf-8"?>
<!-- Generated by IcoMoon.io -->
<!DOCTYPE svg PUBLIC "-//W3C//DTD SVG 1.1//EN" "http://www.w3.org/Graphics/SVG/1.1/DTD/svg11.dtd">
<svg version="1.1" xmlns="http://www.w3.org/2000/svg" xmlns:xlink="http://www.w3.org/1999/xlink" width="32" height="32" viewBox="0 0 32 32">
<path fill="#4493d1" d="M24.257 20.892h3.14v0.789h-3.14v-0.789z"></path>
<path fill="#4493d1" d="M25.434 17.052v1.161h-1.178v0.79h1.178v1.148h0.789v-1.148h1.173v-0.79h-1.173v-1.161z"></path>
<path fill="#4493d1" d="M27.732 0.275h-23.393c-2.292 0-4.157 1.865-4.157 4.158v23.39c0 2.293 1.865 4.158 4.157 4.158h23.393c2.292 0 4.158-1.865 4.158-4.158v-23.39c0-2.293-1.866-4.158-4.158-4.158zM17.721 21.626c-0.094 0.742-0.775 1.27-1.517 1.177l-2.991-0.377c-0.741-0.094-1.27-0.775-1.177-1.517s0.775-1.269 1.517-1.176l2.99 0.377c0.686 0.087 1.188 0.673 1.188 1.345 0 0.057-0.003 0.114-0.010 0.171zM20.15 18.278c-0.052 0.415-0.264 0.786-0.595 1.043s-0.743 0.371-1.159 0.317l-5.207-0.656c-0.859-0.108-1.469-0.896-1.361-1.754 0.052-0.415 0.264-0.786 0.595-1.043 0.332-0.258 0.743-0.371 1.159-0.318l5.207 0.657c0.859 0.108 1.469 0.895 1.361 1.753zM21.987 14.642c-0.109 0.858-0.896 1.47-1.755 1.36l-3.799-0.478c0.367-0.291 0.634-0.686 0.765-1.145 0.167-0.581 0.098-1.192-0.196-1.722-0.047-0.085-0.101-0.168-0.157-0.245l3.781 0.476c0.858 0.108 1.469 0.895 1.361 1.754zM25.828 23.249c-1.925 0-2.863-1.57-2.863-2.968 0-2.055 2.863-6.598 2.863-6.598s2.863 4.543 2.863 6.598c0 1.398-0.937 2.968-2.863 2.968zM27.552 12.32h-6.336c-0.159-0.059-0.327-0.102-0.503-0.124l-5.183-0.655-5.729-1.651c-0.183-0.053-0.373 0.052-0.426 0.235s0.051 0.383 0.233 0.436l5.844 1.685c0.403 0.115 0.736 0.382 0.94 0.749s0.251 0.79 0.135 1.191c-0.115 0.402-0.381 0.735-0.749 0.939-0.364 0.201-0.785 0.25-1.184 0.137-0.003-0.001-0.005-0.001-0.009-0.001l-2.458-0.713c-1.276-0.4-2.225 0.002-3.233 0.427-0.776 0.328-1.578 0.665-2.666 0.739-0.133 0.009-0.273 0.017-0.438 0.016-0.192-0.002-0.347 0.151-0.348 0.341-0.003 0.191 0.157 0.358 0.348 0.358 1.461-0.001 2.479-0.431 3.377-0.81 0.962-0.406 1.721-0.727 2.758-0.401 0.003 0.001 0.217 0.063 0.517 0.149-0.689 0.317-1.203 0.97-1.305 1.774-0.117 0.924 0.342 1.79 1.096 2.236-0.472 0.322-0.811 0.834-0.888 1.444-0.142 1.124 0.658 2.219 1.782 2.328 0-0-5.827-0-7.619-0s-1.93-1.93-1.93-1.93v-12.099h23.733c0 0 1.788-0.082 1.788 1.564-0 1.731-1.547 1.636-1.547 1.636z"></path>
</svg>
