<?xml version="1.0" encoding="utf-8"?>
<!-- Generated by IcoMoon.io -->
<!DOCTYPE svg PUBLIC "-//W3C//DTD SVG 1.1//EN" "http://www.w3.org/Graphics/SVG/1.1/DTD/svg11.dtd">
<svg version="1.1" xmlns="http://www.w3.org/2000/svg" xmlns:xlink="http://www.w3.org/1999/xlink" width="221" height="32" viewBox="0 0 221 32">
<path fill="#4493d1" d="M28.158 19.151h-4.325l-1.44-3.305h-3.756l-1.662-3.814h3.756l-1.44-3.305h4.325l1.44 3.305h3.756l1.662 3.814h-3.756l1.44 3.305zM38.248 18.823l-8.202-18.824h-24.945l12.304 28.235h24.945l-4.101-9.412z"></path>
<path fill="#4493d1" d="M64.302 13.621c0-2.777-0.685-4.88-2.053-6.308s-3.436-2.143-6.204-2.143h-3.584v17.125h2.971c5.913 0 8.869-2.891 8.869-8.675zM67.198 13.531c0 3.604-0.983 6.358-2.949 8.264s-4.785 2.859-8.459 2.859h-6.077v-21.829h6.719c3.394 0 6.037 0.933 7.928 2.8s2.837 4.502 2.837 7.906z"></path>
<path fill="#4493d1" d="M74.35 24.655h-2.688v-16.394h2.688v16.394zM71.454 3.826c0-0.597 0.151-1.030 0.455-1.299s0.68-0.403 1.128-0.403c0.418 0 0.784 0.135 1.097 0.403s0.471 0.702 0.471 1.299c0 0.588-0.157 1.021-0.471 1.299s-0.679 0.418-1.097 0.418c-0.448 0-0.824-0.139-1.128-0.418s-0.455-0.711-0.455-1.299z"></path>
<path fill="#4493d1" d="M90.222 20.131c0 1.532-0.573 2.72-1.717 3.561s-2.753 1.262-4.823 1.262c-2.16 0-3.877-0.343-5.151-1.030v-2.449c1.802 0.875 3.539 1.314 5.211 1.314 1.353 0 2.339-0.219 2.956-0.657s0.926-1.025 0.926-1.762c0-0.647-0.297-1.195-0.888-1.642s-1.644-0.961-3.158-1.538c-1.543-0.598-2.628-1.107-3.255-1.531s-1.088-0.898-1.381-1.426c-0.294-0.528-0.441-1.17-0.441-1.926 0-1.344 0.547-2.404 1.642-3.18s2.599-1.165 4.509-1.165c1.861 0 3.604 0.368 5.226 1.105l-0.91 2.135c-1.663-0.697-3.16-1.045-4.495-1.045-1.115 0-1.961 0.177-2.538 0.53s-0.866 0.838-0.866 1.456c0 0.597 0.249 1.092 0.747 1.486s1.657 0.938 3.479 1.635c1.364 0.508 2.371 0.98 3.023 1.418s1.133 0.931 1.441 1.478 0.463 1.204 0.463 1.971z"></path>
<path fill="#4493d1" d="M101.509 10.216c-1.622 0-2.794 0.458-3.516 1.374s-1.092 2.354-1.112 4.315v0.523c0 2.22 0.368 3.825 1.105 4.815s1.931 1.486 3.584 1.486c1.374 0 2.447-0.558 3.218-1.672s1.157-2.667 1.157-4.658c0-2.001-0.386-3.531-1.157-4.591s-1.864-1.59-3.278-1.59zM101.957 24.953c-2.2 0-3.892-0.791-5.076-2.374h-0.179l0.060 0.612c0.079 0.776 0.119 1.468 0.119 2.076v6.734h-2.688v-23.74h2.21l0.358 2.24h0.119c0.637-0.896 1.374-1.543 2.21-1.941s1.801-0.597 2.896-0.597c2.13 0 3.785 0.739 4.965 2.217s1.769 3.561 1.769 6.248c0 2.678-0.592 4.768-1.777 6.271s-2.847 2.255-4.987 2.255z"></path>
<path fill="#4493d1" d="M115.544 8.261v10.556c0 1.323 0.296 2.307 0.888 2.949s1.51 0.963 2.755 0.963c1.682 0 2.906-0.468 3.672-1.404s1.15-2.444 1.15-4.524v-8.54h2.703v16.394h-2.21l-0.388-2.165h-0.135c-0.487 0.786-1.18 1.394-2.075 1.822s-1.936 0.642-3.12 0.642c-1.971 0-3.457-0.473-4.457-1.419s-1.501-2.458-1.501-4.539v-10.736h2.718z"></path>
<path fill="#4493d1" d="M137.387 22.759c0.349 0 0.756-0.035 1.225-0.105s0.821-0.149 1.060-0.239v2.061c-0.248 0.11-0.634 0.216-1.157 0.321s-1.053 0.157-1.59 0.157c-3.204 0-4.808-1.687-4.808-5.061v-9.541h-2.315v-1.284l2.344-1.075 1.075-3.494h1.598v3.762h4.733v2.090h-4.733v9.466c0 0.946 0.226 1.672 0.679 2.18s1.083 0.762 1.889 0.762z"></path>
<path fill="#4493d1" d="M149.243 10.157c-1.284 0-2.3 0.413-3.046 1.239s-1.189 1.976-1.328 3.449h8.346c-0.020-1.533-0.373-2.697-1.060-3.494s-1.657-1.194-2.911-1.194zM149.915 24.953c-2.458 0-4.387-0.744-5.786-2.232s-2.098-3.536-2.098-6.144c0-2.628 0.651-4.721 1.956-6.279s3.066-2.337 5.285-2.337c2.060 0 3.703 0.665 4.927 1.993s1.837 3.128 1.837 5.397v1.628h-11.228c0.050 1.861 0.523 3.275 1.419 4.24s2.165 1.448 3.807 1.448c0.876 0 1.707-0.077 2.494-0.232s1.707-0.456 2.762-0.903v2.359c-0.905 0.388-1.756 0.662-2.553 0.821s-1.737 0.239-2.822 0.239z"></path>
<path fill="#4493d1" d="M164.965 15.144v5.689h3.016c1.274 0 2.215-0.244 2.822-0.732s0.911-1.234 0.911-2.24c0-1.812-1.294-2.717-3.882-2.717h-2.867zM164.965 11.471h2.687c1.255 0 2.163-0.194 2.725-0.582s0.844-1.030 0.844-1.926c0-0.836-0.306-1.436-0.918-1.799s-1.581-0.545-2.904-0.545h-2.434v4.853zM160.337 2.826h6.793c3.096 0 5.343 0.441 6.742 1.321s2.098 2.282 2.098 4.203c0 1.304-0.306 2.374-0.919 3.21s-1.425 1.339-2.441 1.508v0.149c1.383 0.308 2.381 0.886 2.994 1.732s0.918 1.971 0.918 3.374c0 1.991-0.719 3.544-2.157 4.658s-3.391 1.672-5.86 1.672h-8.167v-21.829z"></path>
<path fill="#4493d1" d="M185.077 24.655h-4.554v-16.693h4.554v16.693zM180.329 3.647c0-1.483 0.827-2.225 2.478-2.225s2.478 0.742 2.478 2.225c0 0.707-0.207 1.256-0.619 1.65s-1.032 0.59-1.859 0.59c-1.652 0-2.478-0.747-2.478-2.24z"></path>
<path fill="#4493d1" d="M189.855 24.655h4.554v-23.233h-4.554v23.233z"></path>
<path fill="#4493d1" d="M199.186 24.655h4.554v-23.233h-4.554v23.233z"></path>
<path fill="#4493d1" d="M220.164 19.698c0 1.712-0.595 3.016-1.784 3.912s-2.969 1.344-5.338 1.344c-1.215 0-2.249-0.082-3.106-0.246s-1.657-0.405-2.404-0.724v-3.762c0.846 0.398 1.799 0.732 2.859 1s1.993 0.403 2.8 0.403c1.652 0 2.478-0.478 2.478-1.433 0-0.358-0.11-0.649-0.329-0.873s-0.597-0.478-1.135-0.762c-0.537-0.284-1.254-0.614-2.15-0.993-1.284-0.538-2.227-1.035-2.829-1.493s-1.040-0.983-1.314-1.575c-0.274-0.592-0.411-1.321-0.411-2.187 0-1.483 0.575-2.63 1.725-3.441s2.78-1.217 4.89-1.217c2.010 0 3.966 0.438 5.868 1.314l-1.374 3.284c-0.836-0.358-1.618-0.652-2.344-0.881s-1.468-0.344-2.225-0.344c-1.344 0-2.016 0.364-2.016 1.090 0 0.408 0.217 0.761 0.649 1.060s1.381 0.741 2.845 1.329c1.304 0.528 2.26 1.021 2.867 1.478s1.055 0.986 1.344 1.583 0.433 1.309 0.433 2.135z"></path>
<path fill="#4493d1" d="M6.256 7.748l-4.645 0.746 13.459 19.481-8.814-20.227z"></path>
<path fill="#4493d1" d="M4.066 15.628l-3.824 1.49 12.488 11.050-8.664-12.541z"></path>
</svg>
