<?xml version="1.0" encoding="utf-8"?>
<!-- Generated by IcoMoon.io -->
<!DOCTYPE svg PUBLIC "-//W3C//DTD SVG 1.1//EN" "http://www.w3.org/Graphics/SVG/1.1/DTD/svg11.dtd">
<svg version="1.1" xmlns="http://www.w3.org/2000/svg" xmlns:xlink="http://www.w3.org/1999/xlink" width="32" height="32" viewBox="0 0 32 32">
<path fill="#4493d1" d="M27.913 0.658h-23.955c-2.014 0-3.646 1.632-3.646 3.645v23.955c0 2.013 1.632 3.645 3.646 3.645h23.955c2.013 0 3.645-1.632 3.645-3.645v-23.955c0-2.013-1.632-3.645-3.645-3.645zM23.728 10.662c0.2 0 0.362 0.162 0.362 0.362s-0.162 0.362-0.362 0.362-0.362-0.162-0.362-0.362 0.162-0.362 0.362-0.362zM23.161 9.828c0.165 0 0.298 0.134 0.298 0.298s-0.134 0.298-0.298 0.298-0.298-0.134-0.298-0.298 0.134-0.298 0.298-0.298zM23.246 11.426c0 0.2-0.162 0.362-0.362 0.362s-0.362-0.162-0.362-0.362 0.162-0.362 0.362-0.362c0.2 0 0.362 0.162 0.362 0.362zM22.341 9.34c0.165 0 0.299 0.134 0.299 0.299s-0.134 0.299-0.299 0.299-0.299-0.134-0.299-0.299c0-0.165 0.134-0.299 0.299-0.299zM22.306 10.281c0.165 0 0.299 0.134 0.299 0.299s-0.134 0.299-0.299 0.299-0.299-0.134-0.299-0.299 0.134-0.299 0.299-0.299zM21.471 9.259c0.15 0 0.271 0.121 0.271 0.272 0 0.149-0.121 0.271-0.271 0.271s-0.271-0.121-0.271-0.271c0-0.151 0.121-0.272 0.271-0.272zM21.461 10.039c0.15 0 0.272 0.122 0.272 0.272s-0.121 0.272-0.272 0.272c-0.15 0-0.272-0.122-0.272-0.272s0.122-0.272 0.272-0.272zM18.895 5.065c1.199 0 2.172 0.972 2.172 2.172s-0.972 2.172-2.172 2.172c-1.199 0-2.171-0.972-2.171-2.172s0.972-2.172 2.171-2.172zM19.526 11.623c-0.15 0-0.272-0.122-0.272-0.272s0.121-0.272 0.272-0.272c0.15 0 0.272 0.122 0.272 0.272s-0.122 0.272-0.272 0.272zM19.798 12.24c0 0.15-0.122 0.272-0.272 0.272s-0.272-0.122-0.272-0.272 0.121-0.272 0.272-0.272c0.15 0 0.272 0.122 0.272 0.272zM19.622 10.451c0-0.15 0.121-0.271 0.271-0.271s0.271 0.121 0.271 0.271-0.121 0.271-0.271 0.271-0.271-0.121-0.271-0.271zM20.375 11.688c-0.15 0-0.272-0.121-0.272-0.272s0.122-0.272 0.272-0.272c0.15 0 0.272 0.122 0.272 0.272s-0.122 0.272-0.272 0.272zM20.647 12.24c0 0.15-0.121 0.272-0.272 0.272s-0.272-0.122-0.272-0.272 0.122-0.272 0.272-0.272c0.15 0 0.272 0.122 0.272 0.272zM20.34 9.807c0-0.15 0.121-0.272 0.272-0.272s0.272 0.122 0.272 0.272-0.122 0.272-0.272 0.272c-0.15 0-0.272-0.122-0.272-0.272zM20.446 10.652c0-0.15 0.121-0.271 0.271-0.271s0.271 0.121 0.271 0.271-0.121 0.271-0.271 0.271-0.271-0.121-0.271-0.271zM18.449 18.372c-0.302 0-0.575-0.123-0.771-0.322l-0.007 0.007-3.086-2.986v-2.523l-3.619 2.362-0.029-0.044c-0.008 0.005-0.016 0.009-0.024 0.014l0.053 0.031v11.336c0.010 0.076 0.017 0.154 0.017 0.234 0 0.918-0.745 1.662-1.662 1.662s-1.662-0.744-1.662-1.662c0-0.060 0.004-0.12 0.009-0.179v-13.321l0.007 0.005c0.001-0.732 0.364-1.379 0.919-1.771l-0.002-0.004 0.075-0.046c0.026-0.017 0.054-0.033 0.081-0.050l4.384-2.711c0.195-0.177 0.423-0.319 0.673-0.416l0.056-0.034 0.002 0.012c0.228-0.081 0.473-0.126 0.729-0.126 1.199 0 2.172 0.972 2.172 2.171 0 0.058-0.003 0.115-0.007 0.172v3.843l2.391 2.429c0.237 0.199 0.388 0.498 0.387 0.831-0 0.6-0.487 1.086-1.086 1.086zM25.805 19.052h-3.297l-4.504-4.585c0 0-0.723-1.407 0.684-1.568h7.117v6.153z"></path>
</svg>
