<?xml version="1.0" encoding="utf-8"?>
<!-- Generated by IcoMoon.io -->
<!DOCTYPE svg PUBLIC "-//W3C//DTD SVG 1.1//EN" "http://www.w3.org/Graphics/SVG/1.1/DTD/svg11.dtd">
<svg version="1.1" xmlns="http://www.w3.org/2000/svg" xmlns:xlink="http://www.w3.org/1999/xlink" width="32" height="32" viewBox="0 0 32 32">
<path fill="#4493d1" d="M15.187 24.465c0.252-0.114 0.362-0.411 0.247-0.663-0.18-0.395-0.405-0.759-0.669-1.080-0.175-0.214-0.491-0.246-0.705-0.069s-0.245 0.49-0.069 0.705c0.209 0.254 0.388 0.544 0.532 0.86 0.084 0.184 0.266 0.293 0.456 0.293 0.069 0 0.14-0.015 0.207-0.045z"></path>
<path fill="#4493d1" d="M14.030 18.991c0.297 0.189 0.579 0.405 0.839 0.642 0.001 0.001 0.003 0.002 0.003 0.003 0.095 0.093 0.221 0.143 0.349 0.143 0.090 0 0.18-0.024 0.262-0.075 0.235-0.145 0.309-0.453 0.164-0.688-0.002-0.004-0.257-0.426-0.382-0.916-0.068-0.268-0.34-0.429-0.609-0.362-0.174 0.045-0.295 0.179-0.346 0.338-0.17-0.003-0.338 0.070-0.435 0.223-0.148 0.233-0.080 0.543 0.153 0.691z"></path>
<path fill="#4493d1" d="M12.785 18.387c0.055 0.020 0.11 0.029 0.165 0.029 0.207 0 0.401-0.129 0.473-0.336 0.092-0.261-0.046-0.546-0.307-0.638-0.387-0.136-0.788-0.239-1.192-0.305-0.276-0.045-0.53 0.141-0.575 0.414s0.14 0.53 0.414 0.575c0.346 0.058 0.69 0.145 1.022 0.261z"></path>
<path fill="#4493d1" d="M13.47 21.647c-0.373-0.203-0.78-0.351-1.207-0.44-0.271-0.057-0.536 0.118-0.592 0.389s0.118 0.535 0.389 0.592c0.331 0.069 0.646 0.183 0.933 0.34 0.076 0.041 0.158 0.061 0.239 0.061 0.177 0 0.35-0.095 0.44-0.262 0.132-0.242 0.042-0.546-0.201-0.679z"></path>
<path fill="#4493d1" d="M9.361 18.233c0.318-0.093 0.662-0.151 1.020-0.175 0.276-0.018 0.485-0.257 0.466-0.533s-0.249-0.485-0.533-0.466c-0.43 0.029-0.843 0.099-1.231 0.211-0.265 0.076-0.419 0.354-0.342 0.619 0.063 0.22 0.264 0.363 0.481 0.363 0.046 0 0.093-0.007 0.139-0.020z"></path>
<path fill="#4493d1" d="M9.894 15.112c0.58 0 1.048-0.471 1.048-1.049 0-0.581-0.468-1.050-1.048-1.050s-1.050 0.469-1.050 1.050c-0 0.578 0.47 1.049 1.050 1.049z"></path>
<path fill="#4493d1" d="M14.681 17.205c0.077 0.043 0.161 0.063 0.243 0.063 0.175 0 0.346-0.093 0.437-0.257 0.134-0.24 0.344-0.438 0.61-0.575 0.246-0.127 0.342-0.429 0.215-0.675-0.126-0.246-0.428-0.342-0.674-0.215-0.442 0.227-0.796 0.566-1.026 0.978-0.134 0.242-0.047 0.547 0.194 0.682z"></path>
<path fill="#4493d1" d="M10.666 21.107h-1.145c-0.277 0-0.5 0.223-0.5 0.5s0.223 0.501 0.5 0.501h1.145c0.277 0 0.5-0.224 0.5-0.501s-0.223-0.5-0.5-0.5z"></path>
<path fill="#4493d1" d="M16.967 21.839c0.251-0.116 0.361-0.413 0.246-0.664-0.17-0.372-0.376-0.732-0.609-1.069-0.158-0.228-0.469-0.284-0.697-0.127s-0.284 0.468-0.127 0.696c0.2 0.29 0.376 0.598 0.522 0.918 0.085 0.183 0.266 0.291 0.455 0.291 0.070-0 0.141-0.015 0.209-0.046z"></path>
<path fill="#4493d1" d="M15.955 26.309c0-0.316-0.021-0.629-0.066-0.932-0.040-0.274-0.287-0.463-0.567-0.425-0.273 0.040-0.463 0.294-0.424 0.568 0.037 0.256 0.056 0.521 0.056 0.789v0.28c0 0.277 0.224 0.501 0.501 0.501s0.5-0.224 0.5-0.501h-0v-0.28z"></path>
<path fill="#4493d1" d="M18.842 15.705c0-0.277-0.223-0.501-0.5-0.501h-1.145c-0.277 0-0.5 0.224-0.5 0.501s0.223 0.5 0.5 0.5h1.145c0.277 0 0.5-0.223 0.5-0.5z"></path>
<path fill="#4493d1" d="M27.609 0.281h-23.286c-2.281 0-4.137 1.856-4.137 4.138v23.284c0 2.283 1.856 4.139 4.137 4.139h23.286c2.282 0 4.139-1.856 4.139-4.139v-23.284c0-2.282-1.857-4.138-4.139-4.138zM22.783 20.488v7.977h-4.926v-0.374c0-0.277-0.223-0.501-0.5-0.501s-0.501 0.224-0.501 0.501v0.374h-0.9v-0.375c0-0.277-0.223-0.501-0.5-0.501s-0.501 0.224-0.501 0.501v0.375h-2.2v-2.879h-1.47c-1.972 0-3.578-1.539-3.695-3.48h0.43c0.277 0 0.501-0.224 0.501-0.501s-0.224-0.5-0.501-0.5h-0.442v-1.838c0.186-0.173 0.377-0.335 0.574-0.468 0.228-0.155 0.288-0.467 0.133-0.695s-0.467-0.288-0.695-0.133c-0.331 0.225-0.65 0.496-0.95 0.806-0.127 0.132-0.159 0.313-0.115 0.477h-0.208c-0.419 0-0.758-0.34-0.758-0.757 0-0.105 0.020-0.206 0.060-0.295l1.959-4.942c0 0 0.204-2.049 0.387-2.832 0.819-3.527 4.748-6.728 9.012-6.728 5.192 0 9.396 4.207 9.397 9.398 0 2.997-1.405 5.671-3.59 7.39z"></path>
<path fill="#4493d1" d="M18.297 12.914h-0.166v0.852l0.165 0.001c1.064 0.002 1.933 0.868 1.936 1.932-0.003 1.063-0.872 1.93-1.936 1.932l-0.165 0.002v0.853h0.166c1.538 0 2.789-1.25 2.789-2.786s-1.251-2.784-2.789-2.784z"></path>
<path fill="#4493d1" d="M17.353 24.445c0.005 0 0.009 0 0.015-0.001 0.276-0.008 0.494-0.237 0.486-0.514-0.011-0.409-0.058-0.82-0.14-1.221-0.056-0.271-0.321-0.447-0.591-0.391s-0.446 0.319-0.39 0.591c0.070 0.344 0.11 0.697 0.12 1.049 0.008 0.271 0.23 0.487 0.5 0.487z"></path>
<path fill="#4493d1" d="M17.356 24.945c-0.277 0-0.501 0.224-0.501 0.501v1.144c0 0.277 0.224 0.501 0.501 0.501s0.5-0.224 0.5-0.501v-1.144c0-0.277-0.223-0.501-0.5-0.501z"></path>
</svg>
