<?xml version="1.0" encoding="utf-8"?>
<!-- Generated by IcoMoon.io -->
<!DOCTYPE svg PUBLIC "-//W3C//DTD SVG 1.1//EN" "http://www.w3.org/Graphics/SVG/1.1/DTD/svg11.dtd">
<svg version="1.1" xmlns="http://www.w3.org/2000/svg" xmlns:xlink="http://www.w3.org/1999/xlink" width="32" height="32" viewBox="0 0 32 32">
<path fill="#4493d1" d="M10.556 26.978h11.639v-11.572h-11.639v11.572zM19.954 16.936c0.411 0 0.744 0.334 0.744 0.744s-0.333 0.744-0.744 0.744c-0.411 0-0.744-0.333-0.744-0.744s0.333-0.744 0.744-0.744zM18.245 19.203c0-0.325 0.26-0.548 0.545-0.548-0.003 0 2.308 0 2.308 0 0.311 0 0.546 0.247 0.546 0.548v2.832h0.001c0 0.235-0.189 0.398-0.396 0.398 0 0-0.092 0-0.241 0v3.727c0 0.679-0.992 0.679-0.992 0v-3.727c-0.050 0-0.1 0-0.151 0v3.727c0 0.674-0.992 0.674-0.992 0v-3.727c-0.142 0-0.23 0-0.231 0-0.205 0-0.397-0.166-0.397-0.398v-2.832zM16.391 16.936c0.411 0 0.744 0.334 0.744 0.744s-0.333 0.744-0.744 0.744-0.744-0.333-0.744-0.744c0-0.411 0.333-0.744 0.744-0.744zM14.682 19.203c0-0.325 0.261-0.548 0.545-0.548-0.003 0 2.308 0 2.308 0 0.311 0 0.546 0.247 0.546 0.548v2.832h0.001c0 0.235-0.188 0.398-0.396 0.398 0 0-0.092 0-0.241 0v3.727c0 0.679-0.992 0.679-0.992 0v-3.727c-0.050 0-0.1 0-0.151 0v3.727c0 0.674-0.992 0.674-0.992 0v-3.727c-0.142 0-0.23 0-0.231 0-0.205 0-0.397-0.166-0.397-0.398v-2.832zM12.828 16.936c0.411 0 0.744 0.334 0.744 0.744s-0.334 0.744-0.744 0.744c-0.411 0-0.744-0.333-0.744-0.744s0.333-0.744 0.744-0.744zM11.119 19.203c0-0.325 0.261-0.548 0.545-0.548-0.003 0 2.308 0 2.308 0 0.311 0 0.546 0.247 0.546 0.548v2.832h0.001c0 0.235-0.189 0.398-0.396 0.398 0 0-0.092 0-0.241 0v3.727c0 0.679-0.992 0.679-0.992 0v-3.727c-0.050 0-0.1 0-0.151 0v3.727c0 0.674-0.992 0.674-0.992 0v-3.727c-0.142 0-0.23 0-0.231 0-0.204 0-0.397-0.166-0.397-0.398v-2.832z"></path>
<path fill="#4493d1" d="M28.045 0.552c-0 0-24.171-0.008-24.163 0-2.228 0-3.48 1.152-3.48 3.505v24.258c0 2.201 1.126 3.354 3.352 3.354h24.361c2.226 0 3.353-1.095 3.353-3.354v-24.258c0-2.296-1.127-3.505-3.423-3.505zM18.135 7.238l1.184 1.481-0.034-4.671c-0.013-1.539 2.214-1.557 2.227 0l-0.034 4.671 1.198-1.467c0.826-0.908 2.281 0.358 1.383 1.383l-2.905 3.458c-0.459 0.459-1.055 0.457-1.511 0l-2.891-3.471c-0.897-1.026 0.57-2.305 1.383-1.384zM8.668 6.713l2.891-3.472c0.456-0.456 1.052-0.459 1.511 0l2.905 3.458c0.897 1.025-0.557 2.291-1.384 1.383l-1.197-1.467 0.034 4.671c-0.013 1.556-2.24 1.539-2.227 0l0.033-4.671-1.184 1.481c-0.813 0.921-2.281-0.358-1.383-1.383zM22.289 29.209h-11.809c-1.174-0-2.147-0.934-2.147-2.135v-11.768l0.003-0.001c0-1.174 0.902-2.148 2.144-2.148h11.795c1.201 0 2.143 0.961 2.143 2.149v11.768l0 0.003c0.002 1.252-0.956 2.132-2.13 2.132z"></path>
</svg>
