<?xml version="1.0" encoding="utf-8"?>
<!-- Generated by IcoMoon.io -->
<!DOCTYPE svg PUBLIC "-//W3C//DTD SVG 1.1//EN" "http://www.w3.org/Graphics/SVG/1.1/DTD/svg11.dtd">
<svg version="1.1" xmlns="http://www.w3.org/2000/svg" xmlns:xlink="http://www.w3.org/1999/xlink" width="32" height="32" viewBox="0 0 32 32">
<path fill="#4493d1" d="M13.915 16.355v-0.005c0.302-0.118 0.502-0.378 0.502-0.871 0-0.7-0.455-1.018-1.152-1.018-0.333 0-0.635 0.010-0.958 0.046v3.393h0.661v-1.341h0.343c0.087 0 0.108 0.046 0.133 0.143l0.313 1.198 0.691-0-0.415-1.387c-0.021-0.086-0.046-0.138-0.118-0.158zM13.336 16.033h-0.368v-1.034c0.108-0.010 0.215-0.015 0.322-0.015 0.395 0 0.476 0.235 0.476 0.537 0 0.359-0.127 0.512-0.43 0.512z"></path>
<path fill="#4493d1" d="M18.463 16.407h0.897v-0.548h-0.897v-0.819h0.995v-0.553h-1.655v3.414h1.695v-0.538h-1.035z"></path>
<path fill="#4493d1" d="M5.243 16.407h0.896v-0.548h-0.896v-0.819h0.993v-0.553h-1.654v3.414h1.695v-0.538h-1.035z"></path>
<path fill="#4493d1" d="M10.729 16.407h0.897v-0.548h-0.897v-0.819h0.994v-0.553h-1.654v3.414h1.695v-0.538h-1.035z"></path>
<path fill="#4493d1" d="M8.111 15.782l-0.671-1.295h-0.62v3.414h0.645v-2.206l0.645 1.294 0.64-1.299h0.021v2.211h0.62v-3.414h-0.62z"></path>
<path fill="#4493d1" d="M16.169 16.555h0.465v0.122c0 0.354-0.051 0.753-0.491 0.753-0.573 0-0.588-0.813-0.588-1.233 0-0.415 0.041-1.203 0.609-1.203 0.266 0 0.394 0.148 0.542 0.332l0.364-0.486c-0.262-0.26-0.533-0.409-0.896-0.409-0.967 0-1.311 0.921-1.311 1.771 0 0.84 0.313 1.756 1.261 1.756 0.926 0 1.111-0.804 1.111-1.546v-0.398h-1.065v0.542z"></path>
<path fill="#4493d1" d="M26.219 17.901h0.656v-1.305l0.866-2.109h-0.672l-0.517 1.556-0.518-1.556h-0.707l0.892 2.145z"></path>
<path fill="#4493d1" d="M20.042 17.901h0.645v-2.108h0.015l1.096 2.108h0.578v-3.414h-0.64v2.021h-0.009l-1.045-2.021h-0.64z"></path>
<path fill="#4493d1" d="M27.827 0.413h-23.678c-2.033 0-3.936 1.908-3.936 3.94v23.671c0 2.033 1.911 3.95 3.945 3.95h23.67c2.033 0 3.948-1.907 3.948-3.94v-23.679c-0-2.033-1.915-3.943-3.949-3.943zM28.632 20.405h-8.425v8.416h-8.424v-8.416h-8.428v-8.422h8.428v-8.416h8.424v8.416h8.425v8.422z"></path>
<path fill="#4493d1" d="M24.232 17.957c0.42 0 0.748-0.194 0.973-0.471l-0.338-0.481c-0.169 0.225-0.321 0.394-0.599 0.394-0.533 0-0.625-0.741-0.625-1.202 0-0.615 0.144-1.203 0.61-1.203 0.252 0 0.39 0.169 0.538 0.395l0.395-0.467c-0.263-0.312-0.524-0.491-0.922-0.491-0.947 0-1.312 0.89-1.312 1.766-0 0.926 0.338 1.76 1.28 1.76z"></path>
</svg>
