<?xml version="1.0" encoding="utf-8"?>
<!-- Generated by IcoMoon.io -->
<!DOCTYPE svg PUBLIC "-//W3C//DTD SVG 1.1//EN" "http://www.w3.org/Graphics/SVG/1.1/DTD/svg11.dtd">
<svg version="1.1" xmlns="http://www.w3.org/2000/svg" xmlns:xlink="http://www.w3.org/1999/xlink" width="32" height="32" viewBox="0 0 32 32">
<path fill="#4493d1" d="M27.782 0.121h-23.392c-2.293 0-4.157 1.865-4.157 4.158v23.391c0 2.293 1.865 4.158 4.157 4.158h23.392c2.292 0 4.157-1.865 4.157-4.158v-23.391c0-2.293-1.866-4.158-4.157-4.158zM22.543 8.459c1.593 0 2.884 1.291 2.884 2.885 0 1.593-1.291 2.884-2.884 2.884s-2.885-1.292-2.885-2.884c0-1.594 1.292-2.885 2.885-2.885zM24.132 14.969c-0.022 2.89-0.522 3.271-1.571 3.271-1.048 0-1.548-0.381-1.57-3.271h3.142zM15.455 7.575c0.352 0 0.638 0.286 0.638 0.639s-0.287 0.639-0.638 0.639c-0.353 0-0.639-0.286-0.639-0.639s0.286-0.639 0.639-0.639zM10.889 3.511c0.502 0 0.91 0.408 0.91 0.911s-0.408 0.91-0.91 0.91c-0.503 0-0.911-0.407-0.911-0.91s0.408-0.911 0.911-0.911zM5.948 3.505c0.51 0 0.925 0.411 0.925 0.917s-0.415 0.917-0.925 0.917-0.924-0.41-0.924-0.917c0-0.506 0.414-0.917 0.924-0.917zM8.758 9.379c-0.047 0.164-0.228 0.297-0.406 0.282-0.178 0.015-0.329-0.118-0.377-0.282l-0.707-2.471h-0.346l1.025 4.278h-0.899v3.039c0 0.251-0.203 0.454-0.454 0.454s-0.453-0.203-0.453-0.454v-3.039h-0.383v3.039c0 0.251-0.205 0.454-0.456 0.454s-0.452-0.203-0.452-0.454v-3.039h-0.914l1.034-4.278h-0.346l-0.706 2.471c-0.055 0.189-0.281 0.333-0.489 0.274-0.207-0.060-0.323-0.281-0.253-0.517l0.728-2.535c0.291-1.013 1.138-0.981 1.138-0.981h1.808c0 0 0.848-0.032 1.139 0.981l0.378 1.316 0.378-1.316c0.29-1.013 1.139-0.981 1.139-0.981h2.336c0 0 0.848-0.032 1.139 0.981l0.721 2.512 0.561 0.054c0.007-0.001 1.74-0.002 1.74-0.002 0.451 0 0.849 0.367 0.849 0.819v1.614c0 0.155-0.121 0.28-0.276 0.28-0.154 0-0.279-0.125-0.279-0.28 0-0.181 0-1.42 0-1.42h-0.29c0 0 0 3.881 0 4.188 0 0.206-0.169 0.375-0.377 0.375s-0.375-0.168-0.375-0.375c0-0.308 0-2.241 0-2.241h-0.293c0 0 0 1.933 0 2.241 0 0.206-0.168 0.375-0.374 0.375s-0.378-0.168-0.378-0.375h-0v-4.482l-0.917-0.256c-0.159-0.048-0.308-0.188-0.349-0.331l-0.657-2.389h-0.346c0 0 0 6.791 0 7.229 0 0.295-0.241 0.534-0.535 0.534s-0.534-0.239-0.534-0.534c0-0.437 0-4.113 0-4.113h-0.395c0 0 0 3.676 0 4.113 0 0.295-0.24 0.534-0.534 0.534-0.296 0-0.537-0.239-0.537-0.534 0-0.437 0-7.229 0-7.229h-0.318l-0.708 2.471zM28.293 27.171c0 0.699-0.063 1.264-0.063 1.264h-9.643v-8.765h-0.393l-1.79 2.671c-0.292 0.397-0.883 0.59-1.355 0.59h-4.202c-0.699 0-1.264-0.565-1.264-1.263 0-0.696 0.566-1.246 1.264-1.246h3.822l2.651-4.010c0.636-0.969 1.814-1.432 2.878-1.432 0 2.82 0.703 4.013 1.973 4.013v4.688c-0.357 0.153-0.608 0.509-0.608 0.923 0 0.554 0.443 0.998 0.997 0.998s0.999-0.456 0.999-1.012c0-0.413-0.251-0.769-0.608-0.922v-4.69c1.27-0 1.973-1.192 1.973-4.011 2.112 0 3.369 1.258 3.369 3.184v9.018z"></path>
</svg>
