<?xml version="1.0" encoding="utf-8"?>
<!-- Generated by IcoMoon.io -->
<!DOCTYPE svg PUBLIC "-//W3C//DTD SVG 1.1//EN" "http://www.w3.org/Graphics/SVG/1.1/DTD/svg11.dtd">
<svg version="1.1" xmlns="http://www.w3.org/2000/svg" xmlns:xlink="http://www.w3.org/1999/xlink" width="32" height="32" viewBox="0 0 32 32">
<path fill="#4493d1" d="M14.616 4.463c0 0.497-0.403 0.9-0.9 0.9s-0.9-0.403-0.9-0.9c0-0.497 0.403-0.9 0.9-0.9s0.9 0.403 0.9 0.9z"></path>
<path fill="#4493d1" d="M28.131 0.396c-0.001 0-24.431-0.008-24.423 0-2.252 0-3.518 1.164-3.518 3.543v24.52c0 2.225 1.139 3.39 3.388 3.39h24.624c2.25 0 3.39-1.107 3.39-3.39v-24.52c0-2.32-1.14-3.543-3.46-3.543zM27.465 8.723l-7.77-1.174v-0.679h-3.175l-0.005 1.097c0.871 0.163 3.159 1.561 3.159 4.276v15.777c0 0.391-0.183 1.044-0.966 1.044h-6.949c-0.783 0-0.966-0.652-0.966-1.044v-15.777c0-2.715 2.372-4.113 3.233-4.276l-0.004-0.92c-2.088 0.522-2.791 1.611-3.418 2.499s-1.846 0.144-1.402-0.744c0.319-0.931 1.938-2.46 3.145-2.905-0.305-0.183-0.65-0.72-0.65-1.32 0-1.264 0.972-2.102 2.045-2.102 1.102 0 1.878 0.915 1.878 1.629h0.914v1.148h3.16v-0.731l7.77-1.129v5.332z"></path>
</svg>
