<?xml version="1.0" encoding="utf-8"?>
<!-- Generated by IcoMoon.io -->
<!DOCTYPE svg PUBLIC "-//W3C//DTD SVG 1.1//EN" "http://www.w3.org/Graphics/SVG/1.1/DTD/svg11.dtd">
<svg version="1.1" xmlns="http://www.w3.org/2000/svg" xmlns:xlink="http://www.w3.org/1999/xlink" width="32" height="32" viewBox="0 0 32 32">
<path fill="#4493d1" d="M27.825 0.18h-23.393c-2.291 0-4.156 1.866-4.156 4.158v23.391c0 2.293 1.865 4.158 4.156 4.158h23.393c2.292 0 4.157-1.864 4.157-4.158v-23.391c0-2.292-1.866-4.158-4.157-4.158zM23.57 9.831c0.51 0 0.924 0.414 0.924 0.924s-0.413 0.924-0.924 0.924-0.924-0.414-0.924-0.924 0.414-0.924 0.924-0.924zM17.029 3.954c0.727 0 1.317 0.591 1.317 1.317s-0.59 1.317-1.317 1.317-1.316-0.59-1.316-1.317c0-0.726 0.589-1.317 1.316-1.317zM9.885 3.944c0.738 0 1.337 0.593 1.337 1.325s-0.599 1.326-1.337 1.326c-0.739 0-1.336-0.593-1.336-1.326s0.597-1.325 1.336-1.325zM5.877 12.087l1.053-3.666c0.42-1.464 1.647-1.419 1.647-1.419h2.614c0 0 1.226-0.045 1.647 1.419l0.514 1.792 0.514-1.792c0.421-1.464 1.647-1.419 1.647-1.419h3.379c0 0 1.227-0.045 1.648 1.419l1.043 3.638c0 0 0.822 0.075 0.833 0.075 0.316 0 2.167 0 2.492 0 0.654 0 1.228 0.531 1.228 1.184 0 0.333 0 2.112 0 2.335s-0.175 0.406-0.399 0.406c-0.222 0-0.404-0.182-0.404-0.406 0-0.26 0-2.053 0-2.053h-0.417c0 0 0 5.612 0 6.056 0 0.299-0.246 0.543-0.545 0.543s-0.542-0.243-0.542-0.543c0-0.444 0-3.239 0-3.239h-0.425c0 0 0 2.795 0 3.239 0 0.299-0.243 0.543-0.543 0.543s-0.544-0.243-0.544-0.543c0-0.402 0-5.518 0-6.483-0.53-0.151-1.25-0.355-1.406-0.39-0.007-0.001-0.011-0.006-0.018-0.008-0.176-0.044-0.324-0.16-0.376-0.336l-0.982-3.573-0.499-0.001c0 0 0 9.822 0 10.454 0 0.427-0.35 0.773-0.778 0.773-0.426 0-0.772-0.346-0.772-0.773 0-0.631 0-5.948 0-5.948h-0.571c0 0 0 5.316 0 5.948 0 0.427-0.346 0.773-0.772 0.773s-0.776-0.346-0.776-0.773c0-0.631 0-10.454 0-10.454l-0.46 0.001-1.008 3.52c-0.016 0.068-0.045 0.129-0.086 0.182-0.099 0.148-0.271 0.23-0.464 0.224-0.194 0.006-0.366-0.078-0.466-0.227-0.035-0.049-0.063-0.103-0.079-0.164l-1.012-3.536-0.498-0.001 1.481 6.187h-1.3v4.394c0 0.362-0.295 0.657-0.658 0.657s-0.654-0.294-0.654-0.657v-4.394h-0.554v4.394c0 0.362-0.296 0.657-0.658 0.657-0.363 0-0.654-0.294-0.654-0.657v-4.394h-1.322l1.496-6.187-0.5 0.001-1.024 3.573c-0.077 0.274-0.384 0.425-0.683 0.339s-0.488-0.348-0.388-0.691zM6.226 27.574c-0.642 0-1.253-0.161-1.845-0.422v-0.83c0.601 0.307 1.211 0.5 1.845 0.5 1.376 0 2.64-0.827 3.936-1.83 0.153 0.121 0.304 0.238 0.458 0.361 0.050 0.040 0.101 0.080 0.15 0.119-1.411 1.103-2.884 2.102-4.545 2.102zM16.119 27.574c-1.915 0-3.578-1.327-5.186-2.61-0.733-0.585-1.447-1.153-2.168-1.595v2.010c-0.252 0.165-0.503 0.316-0.753 0.446v-2.81c0-0.019 0.008-0.035 0.010-0.052-0.468-0.22-0.942-0.369-1.428-0.421v3.754c-0.126 0.016-0.251 0.028-0.378 0.028s-0.251-0.012-0.376-0.028h0v-3.755c-0.498 0.050-0.982 0.198-1.46 0.41v-0.813c0.59-0.229 1.199-0.371 1.837-0.371 1.914 0 3.576 1.327 5.184 2.61 0.736 0.587 1.454 1.158 2.177 1.601v-2.020c0.251-0.165 0.502-0.317 0.753-0.445v2.814c0 0.020-0.008 0.037-0.011 0.056 0.468 0.219 0.943 0.367 1.43 0.419v-3.752c0.12-0.015 0.239-0.028 0.36-0.028 0.132 0 0.262 0.012 0.394 0.030v3.742c0.485-0.053 0.959-0.205 1.426-0.425-0.002-0.015-0.009-0.028-0.009-0.043v-2.796c0.25 0.13 0.501 0.281 0.754 0.447v1.99c0.46-0.283 0.918-0.614 1.379-0.971 0.151 0.119 0.3 0.236 0.453 0.357 0.052 0.041 0.104 0.083 0.156 0.124-1.413 1.101-2.886 2.098-4.545 2.098zM27.886 27.171c-0.595 0.249-1.211 0.403-1.856 0.403-1.665 0-3.141-1.005-4.556-2.111-0.211-0.165-0.421-0.333-0.63-0.499-0.264-0.212-0.526-0.421-0.788-0.622-1.293-1.001-2.554-1.825-3.928-1.825-1.379 0-2.644 0.828-3.941 1.834-0.157-0.124-0.313-0.245-0.472-0.372-0.046-0.036-0.091-0.072-0.137-0.108 1.305-1.020 2.663-1.942 4.173-2.079 0.125-0.011 0.249-0.028 0.377-0.028s0.252 0.007 0.377 0.018c1.506 0.135 2.859 1.062 4.16 2.079 0.217 0.169 0.433 0.342 0.648 0.513 0.259 0.207 0.514 0.41 0.769 0.607 1.301 1.008 2.567 1.839 3.947 1.839 0.638 0 1.252-0.182 1.856-0.473v0.822zM27.886 22.985c-0.482-0.23-0.969-0.39-1.471-0.444v3.748c-0.134 0.018-0.269 0.031-0.404 0.031-0.117 0-0.233-0.013-0.349-0.027v-3.747c-0.483 0.052-0.954 0.2-1.418 0.417v2.872c-0.251-0.128-0.502-0.28-0.753-0.445v-2.023c-0.469 0.286-0.936 0.626-1.406 0.99-0.159-0.126-0.318-0.248-0.479-0.377-0.043-0.034-0.087-0.069-0.13-0.103 1.418-1.107 2.897-2.112 4.564-2.112 0.642 0 1.255 0.152 1.848 0.399v0.82z"></path>
</svg>
