<?xml version="1.0" encoding="utf-8"?>
<!-- Generated by IcoMoon.io -->
<!DOCTYPE svg PUBLIC "-//W3C//DTD SVG 1.1//EN" "http://www.w3.org/Graphics/SVG/1.1/DTD/svg11.dtd">
<svg version="1.1" xmlns="http://www.w3.org/2000/svg" xmlns:xlink="http://www.w3.org/1999/xlink" width="32" height="32" viewBox="0 0 32 32">
<path fill="#4493d1" d="M19.176 18.605h2.018v7.853h-2.018v-7.853z"></path>
<path fill="#4493d1" d="M19.176 14.183h2.018v2.548h-2.018v-2.548z"></path>
<path fill="#4493d1" d="M11.82 23.072l-2.927 1.313h4.088v-6.567h-1.161z"></path>
<path fill="#4493d1" d="M12.441 25.852h-4.671c-0.729 0-0.732 1.029-0.003 1.029h4.717c-0.343-0.22-0.364-0.788-0.043-1.029z"></path>
<path fill="#4493d1" d="M28.331 0.398c0 0-24.335-0.008-24.327 0-2.242 0-3.503 1.16-3.503 3.529v24.424c0 2.216 1.133 3.377 3.375 3.377h24.527c2.241 0 3.377-1.103 3.377-3.377v-24.424c-0-2.311-1.136-3.529-3.447-3.529zM10.585 1.858c0.605 0 1.095 1.053 1.095 2.351s-1.095 2.351-1.095 2.351-1.094-1.053-1.094-2.351c-0.001-1.299 0.489-2.351 1.094-2.351zM10.585 8.425c0 0 1.095 1.053 1.095 2.351s-0.49 2.351-1.095 2.351c-0.604 0-1.094-1.053-1.094-2.351s1.094-2.351 1.094-2.351zM9.054 10.63c-0.919 0.918-2.009 1.316-2.437 0.888s-0.030-1.518 0.889-2.436 2.436-0.889 2.436-0.889 0.030 1.519-0.888 2.437zM6.56 3.492c0.428-0.428 1.519-0.030 2.437 0.888 0.918 0.919 0.888 2.437 0.888 2.437s-1.518 0.029-2.436-0.888c-0.919-0.919-1.316-2.009-0.889-2.436zM4.95 7.574c0-0.605 1.053-1.094 2.351-1.094s2.351 1.094 2.351 1.094-1.053 1.094-2.351 1.094-2.351-0.49-2.351-1.094zM14.501 28.413h-6.693c-1.116 0-2.080-0.985-2.080-2.189v-7.541c0-0.766 0.29-1.329 1.093-1.719 0 0 4.998-2.224 5.004-2.233l-0.006 1.569h2.66v9.352c-0.799 0.105-0.799 1.276 0.021 1.38v1.381zM14.529 11.461c-0.427 0.428-1.518 0.030-2.436-0.889s-0.889-2.436-0.889-2.436 1.519-0.030 2.437 0.888c0.918 0.919 1.316 2.009 0.889 2.437zM13.868 8.668c-1.298 0-2.351-1.094-2.351-1.094s0.495-0.514 1.224-0.838l-0.076-0.116c-0.724 0.266-1.404 0.254-1.404 0.254s-0.030-1.518 0.888-2.436c0.919-0.919 2.009-1.316 2.436-0.889 0.394 0.394 0.087 1.351-0.682 2.216 3.9-1.256 11.753-1.152 12.132-1.146l-0.013 0.802c-0.091-0.001-8.031-0.108-11.787 1.073 1.124 0.082 1.984 0.533 1.984 1.079 0 0.604-1.053 1.094-2.351 1.094zM26.921 12.304v16.032h-9.536v-16.058h2.018l-2.006-1.595 1.109-1.492 1.804 1.312-0.797-2.602 1.74-0.54 0.898 2.757h0.004l0.903-2.757 1.74 0.54-0.802 2.602 1.74-1.287 1.109 1.492-1.942 1.569h2.017v0.025z"></path>
<path fill="#4493d1" d="M23.111 18.605h2.018v7.853h-2.018v-7.853z"></path>
<path fill="#4493d1" d="M23.111 14.183h2.018v2.548h-2.018v-2.548z"></path>
</svg>
