<?xml version="1.0" encoding="utf-8"?>
<!-- Generated by IcoMoon.io -->
<!DOCTYPE svg PUBLIC "-//W3C//DTD SVG 1.1//EN" "http://www.w3.org/Graphics/SVG/1.1/DTD/svg11.dtd">
<svg version="1.1" xmlns="http://www.w3.org/2000/svg" xmlns:xlink="http://www.w3.org/1999/xlink" width="32" height="32" viewBox="0 0 32 32">
<path fill="#4493d1" d="M27.948 0.128h-23.501c-2.303 0-4.176 1.874-4.176 4.177v23.498c0 2.304 1.873 4.178 4.176 4.178h23.501c2.303 0 4.176-1.874 4.176-4.178v-23.498c0-2.303-1.873-4.177-4.176-4.177zM24.817 6.876c0.911 0 1.644 0.737 1.644 1.646s-0.733 1.644-1.644 1.644c-0.906 0-1.644-0.736-1.644-1.644s0.738-1.646 1.644-1.646zM25.7 10.808c-0.002 0.186-0.018 1.21-0.239 1.519-0.244 0.338-0.644 0.287-0.644 0.287s-0.45 0.015-0.628-0.261c-0.176-0.27-0.262-0.808-0.256-1.545h1.767zM5.164 3.572h11.115v7.685l-0.649-0.649v-6.387h-9.82v12.433h9.82v-3.908l0.649 0.649v3.91h-11.115v-13.733zM13.014 15.214c0.079 0.272-0.077 0.556-0.348 0.636-0.049 0.014-0.097 0.021-0.144 0.021-0.222 0-0.427-0.145-0.492-0.369l-1.193-4.094h-0.422l-1.193 4.094c-0.066 0.224-0.271 0.369-0.493 0.369-0.047 0-0.095-0.007-0.143-0.021-0.272-0.079-0.428-0.364-0.348-0.636l1.208-4.146v-2.659l-0.306 0.001-0.002-0.001-0.686 2.336c-0.048 0.163-0.197 0.269-0.359 0.269-0.035 0-0.070-0.005-0.105-0.015-0.198-0.058-0.312-0.266-0.253-0.464 0 0 0.718-2.441 0.719-2.444 0.286-0.95 1.089-0.922 1.089-0.922h2.169c0 0 0.802-0.028 1.088 0.922 0.001 0.002 0.72 2.444 0.72 2.444 0.058 0.198-0.055 0.406-0.254 0.464-0.035 0.010-0.070 0.015-0.105 0.015-0.161 0-0.31-0.105-0.358-0.269l-0.687-2.336-0.002 0.001-0.306-0.001v2.661l1.208 4.144zM9.749 6.017c0-0.483 0.392-0.876 0.875-0.876s0.876 0.393 0.876 0.876c0 0.483-0.392 0.876-0.876 0.876s-0.875-0.393-0.875-0.876zM17.945 21.045c0 0.913-0.746 1.653-1.666 1.653s-1.667-0.74-1.667-1.653c0-0.913 0.746-1.653 1.667-1.653s1.666 0.74 1.666 1.653zM9.387 21.060c0 0.91-0.737 1.647-1.648 1.647-0.91 0-1.648-0.738-1.648-1.647s0.738-1.648 1.648-1.648c0.911 0 1.648 0.738 1.648 1.648zM11.026 28.684h-6.605c0-0.4 0-2.635 0-3.229 0-1.164 0.956-2.111 2.122-2.111 0.579 0 1.712 0 2.276 0 1.166 0 2.207 0.946 2.207 2.111 0 0.594 0 2.829 0 3.229zM12.265 28.684l1.312-3.574c0.525-1.825 2.055-1.769 2.055-1.769h1.299c0 0 1.529-0.056 2.055 1.769l1.312 3.574h-8.033zM20.468 15.186h-2.281c-0.384 0-0.694-0.309-0.694-0.693 0-0.127 0.094-0.329 0.155-0.429l-2.785-2.785c-0.111-0.111-0.11-0.289 0.001-0.399s0.289-0.111 0.398 0l2.927 2.927 2.072 0.001 1.366-2.061c0.373-0.561 1.020-0.939 1.756-0.939h0.105c-0.001 0.208 0.015 1.479 0.446 1.927 0.323 0.323 0.664 0.295 0.664 0.295v1.691c-0.207 0.086-0.353 0.291-0.353 0.529 0 0.317 0.256 0.574 0.573 0.574s0.575-0.257 0.575-0.574c0-0.239-0.147-0.443-0.355-0.529v-1.683c0 0 0.391 0.035 0.723-0.368 0.318-0.395 0.391-1.297 0.388-1.84 1.069 0 1.973 1.041 1.973 2.198v4.423h-5.745v-4.314c-0.153 0.23-0.672 0.997-1.162 1.726-0.145 0.218-0.485 0.322-0.745 0.322zM26.472 20.918c0 0.909-0.738 1.649-1.648 1.649-0.911 0-1.648-0.74-1.648-1.649 0-0.911 0.737-1.649 1.648-1.649 0.91 0 1.648 0.737 1.648 1.649zM28.142 28.684h-6.603c0-0.399 0-2.635 0-3.229 0-1.164 1.040-2.111 2.207-2.111 0.563 0 1.695 0 2.273 0 1.166 0 2.123 0.946 2.123 2.111 0 0.594 0 2.829 0 3.229z"></path>
</svg>
