<?xml version="1.0" encoding="utf-8"?>
<!-- Generated by IcoMoon.io -->
<!DOCTYPE svg PUBLIC "-//W3C//DTD SVG 1.1//EN" "http://www.w3.org/Graphics/SVG/1.1/DTD/svg11.dtd">
<svg version="1.1" xmlns="http://www.w3.org/2000/svg" xmlns:xlink="http://www.w3.org/1999/xlink" width="32" height="32" viewBox="0 0 32 32">
<path fill="#4493d1" d="M28.045 0.552c0 0-24.17-0.008-24.163 0-2.228 0-3.48 1.152-3.48 3.505v24.258c0 2.201 1.126 3.354 3.352 3.354h24.361c2.226 0 3.353-1.095 3.353-3.354v-24.258c0-2.296-1.127-3.505-3.423-3.505zM22.535 5.719l1.177 1.177-0.761 0.761-1.177-1.177 0.761-0.761zM8.563 23.758l-2.9-2.9 0.724-0.724 2.9 2.9-0.724 0.724zM10.025 22.299l-2.9-2.9 0.725-0.724 2.9 2.9-0.724 0.724zM8.638 17.872l0.724-0.724 2.9 2.9-0.724 0.724-2.9-2.9zM13.662 12.833l0.725-0.724 2.9 2.9-0.725 0.724-2.9-2.9zM15.63 16.815l-0.725 0.724-2.9-2.9 0.724-0.724 2.9 2.9zM16.143 9.042c-1.483 0-2.538 0.494-3.418 1.675-0.477 0.637-0.776 1.488-0.926 2.276-0.117 0.645 0.014 1.142-0.648 1.142-0.41 0-0.637-0.427-0.637-0.838 0.001-3.032 2.429-5.529 5.462-5.529 3.116 0 5.797 2.379 5.797 5.495 0 0.402-0.268 0.804-0.67 0.804-0.436 0-0.536-0.511-0.603-0.938-0.151-0.938-0.226-1.541-0.738-2.345-0.837-1.315-2.051-1.743-3.618-1.743zM11.111 15.445l2.899 2.9-0.724 0.724-2.9-2.9 0.725-0.724zM22.777 17.619c-1.332 1.851-2.613 2.948-2.613 5.227v1.743c0 2.161-1.86 3.82-4.020 3.82-2.187 0-4.021-1.734-4.021-3.92 0-0.52 0.385-0.972 0.905-0.972 0.787 0 0.754 1.014 1.039 1.743 0.352 0.888 1.080 1.407 2.044 1.407 1.231 0 2.312-0.913 2.312-2.145v-1.943c0-3.929 4.021-5.319 4.021-9.248 0-3.477-2.823-6.299-6.299-6.299-2.153 0-3.669 0.703-4.96 2.412-0.762 1.014-1.106 1.759-1.273 3.015-0.101 0.779-0.117 1.81-0.905 1.81-0.52 0-0.905-0.452-0.905-0.972-0-4.422 3.686-7.941 8.108-7.941 4.39 0 7.908 3.619 7.908 8.008-0 1.734-0.336 2.848-1.341 4.255zM24.494 6.112l-1.177-1.177 0.761-0.761 1.178 1.177-0.762 0.761z"></path>
</svg>
