<?xml version="1.0" encoding="utf-8"?>
<!-- Generated by IcoMoon.io -->
<!DOCTYPE svg PUBLIC "-//W3C//DTD SVG 1.1//EN" "http://www.w3.org/Graphics/SVG/1.1/DTD/svg11.dtd">
<svg version="1.1" xmlns="http://www.w3.org/2000/svg" xmlns:xlink="http://www.w3.org/1999/xlink" width="32" height="32" viewBox="0 0 32 32">
<path fill="#4493d1" d="M28.138 10.331c0 2.014-1.633 3.647-3.647 3.647s-3.647-1.633-3.647-3.647c0-2.014 1.633-3.647 3.647-3.647s3.647 1.633 3.647 3.647z"></path>
<path fill="#4493d1" d="M1.646 3.13v6.614h-0.989c-0.188 0-0.34-0.151-0.34-0.339v-8.535c0-0.289 0.215-0.524 0.511-0.524h4.374c0.295 0 0.511 0.234 0.511 0.523v0.501h6.761c0.189 0 0.34 0.152 0.34 0.338v1.919h-5.772v-0.502c0-0.289-0.216-0.523-0.512-0.523h-4.372c-0.296 0-0.512 0.238-0.512 0.528z"></path>
<path fill="#4493d1" d="M15.473 13.75c0 0.188-0.152 0.338-0.34 0.338h-11.818c-0.188 0-0.34-0.151-0.34-0.339v-8.535c0-0.289 0.215-0.524 0.511-0.524h4.373c0.296 0 0.512 0.234 0.512 0.523v0.501h6.761c0.188 0 0.34 0.152 0.34 0.338v7.697zM10.231 8.891v-2.013h-2.014v2.013h-2.014v2.014h2.014v2.014h2.014v-2.014h2.014v-2.014h-2.014z"></path>
<path fill="#4493d1" d="M28.095 14.918c2.021 0 3.658 1.635 3.658 3.655l0.008 13.367h-12.272v-11.081h-0.497l-2.263 3.376c-0.369 0.502-1.117 0.746-1.713 0.746h-5.313c-0.882 0-1.599-0.715-1.599-1.597 0-0.88 0.717-1.575 1.599-1.575h4.832l3.353-5.069c0.803-1.226 2.374-1.819 3.638-1.819l6.568-0.004z"></path>
</svg>
