<?xml version="1.0" encoding="utf-8"?>
<!-- Generated by IcoMoon.io -->
<!DOCTYPE svg PUBLIC "-//W3C//DTD SVG 1.1//EN" "http://www.w3.org/Graphics/SVG/1.1/DTD/svg11.dtd">
<svg version="1.1" xmlns="http://www.w3.org/2000/svg" xmlns:xlink="http://www.w3.org/1999/xlink" width="32" height="32" viewBox="0 0 32 32">
<path fill="#4493d1" d="M6.025 11.043c0.164-1.656-0.256-3.376-1.31-4.828-1.054-1.453-2.558-2.387-4.183-2.747-0.165 1.657 0.255 3.376 1.309 4.829s2.558 2.386 4.184 2.745z"></path>
<path fill="#4493d1" d="M5.342 5.76c0.27 0.374 0.504 0.769 0.704 1.179 0.2-0.411 0.432-0.807 0.701-1.179 0.308-0.425 0.658-0.811 1.039-1.161-0.165-1.485-0.785-2.831-1.727-3.891-0.945 1.066-1.568 2.421-1.728 3.914 0.37 0.344 0.71 0.722 1.012 1.138z"></path>
<path fill="#4493d1" d="M11.557 3.469c-1.625 0.36-3.129 1.293-4.183 2.747-0.398 0.548-0.705 1.136-0.924 1.743 0.296 0.921 0.421 1.893 0.361 2.871 1.334-0.452 2.547-1.305 3.437-2.532 1.054-1.454 1.474-3.172 1.309-4.83z"></path>
<path fill="#4493d1" d="M20.344 5.051c-1.574 0-2.85 1.276-2.85 2.851 0 1.573 1.276 2.85 2.85 2.85s2.851-1.277 2.851-2.85c0-1.575-1.277-2.851-2.851-2.851z"></path>
<path fill="#4493d1" d="M27.73 16.954l-1.448-4.129c-0.281-0.778-0.821-1.386-2.344-1.386h-6.69c-1.522 0-2.063 0.608-2.344 1.386l-1.448 4.129c-0.109 0.267-0.165 0.866 0.424 1.268l3.407 2.247c0.497 0.33 1.167 0.192 1.496-0.305 0.328-0.498 0.191-1.169-0.307-1.497l-2.704-1.784 0.762-2.101h1.054l-0.617 1.705 2.053 1.354c0.461 0.304 0.777 0.769 0.888 1.312 0.111 0.542 0.004 1.095-0.299 1.556-0.122 0.183-0.271 0.341-0.439 0.474h2.842c-0.167-0.134-0.317-0.291-0.439-0.474-0.304-0.461-0.41-1.014-0.299-1.556 0.111-0.543 0.427-1.009 0.888-1.312l2.053-1.354-0.618-1.705h1.054l0.763 2.101-2.705 1.784c-0.498 0.328-0.636 0.999-0.307 1.497 0.329 0.497 0.999 0.635 1.496 0.305l3.407-2.247c0.589-0.402 0.532-1.001 0.424-1.268z"></path>
<path fill="#4493d1" d="M26.521 23.18c0-1.448 1.173-2.618 2.618-2.618s2.622 1.17 2.622 2.618c0 1.444-1.177 2.619-2.622 2.619s-2.618-1.175-2.618-2.619z"></path>
<path fill="#4493d1" d="M1.077 28.429c-0.323 0-0.585 0.262-0.585 0.584v0.783c0 0-0.058 1.11 1.082 1.11 0.865 0 29.030 0 29.030 0 1.146 0 1.088-1.083 1.088-1.083v-2.367c0 0-0.098-0.756-0.979-0.756h-2.831c-0.97 0-1.769 1.729-3.618 1.729h-23.186z"></path>
<path fill="#4493d1" d="M23.6 22.512h-8.143l-3.389 0.519 0.156-3.35h-0.568l0.158 3.389-2.366 0.362 0.176-3.681h-0.572l0.175 3.715-3.22 0.494 0.169-3.702h-0.558l0.168 3.736-3.862 0.592c-0.027 0-0.053 0.006-0.080 0.009l0.163-3.478h-0.562l0.158 3.509c-0.636 0.146-1.111 0.715-1.111 1.395 0 0.794 0.641 1.436 1.432 1.436l11.134 0.001c-0.194-0.314-0.311-0.68-0.311-1.074 0-1.134 0.923-2.057 2.057-2.057h4.46l3.615-0.755 0.2 0.96-3.714 0.776h-4.561c-0.594 0-1.075 0.482-1.075 1.076 0 0.589 0.474 1.067 1.061 1.074l8.83 0.001c1.365-0.011 2.461-1.111 2.461-2.47 0-1.367-1.105-2.477-2.48-2.477z"></path>
</svg>
