<?xml version="1.0" encoding="utf-8"?>
<!-- Generated by IcoMoon.io -->
<!DOCTYPE svg PUBLIC "-//W3C//DTD SVG 1.1//EN" "http://www.w3.org/Graphics/SVG/1.1/DTD/svg11.dtd">
<svg version="1.1" xmlns="http://www.w3.org/2000/svg" xmlns:xlink="http://www.w3.org/1999/xlink" width="32" height="32" viewBox="0 0 32 32">
<path fill="#4493d1" d="M16.91 7.777v-0.629h0.822v-0.398c0-0.708 0.619-1.281 1.384-1.281 0.764 0 1.383 0.573 1.383 1.281v0.398h0.805v0.629h-4.394z"></path>
<path fill="#4493d1" d="M27.099 23.69c0 1.622-1.314 2.938-2.935 2.938-1.622 0-2.938-1.315-2.938-2.938s1.316-2.937 2.938-2.937c1.621 0 2.935 1.315 2.935 2.937zM25.567 23.69c0-0.776-0.628-1.404-1.404-1.404s-1.405 0.628-1.405 1.404 0.629 1.406 1.405 1.406c0.775-0 1.404-0.629 1.404-1.406zM10.284 23.662c0 1.622-1.315 2.937-2.938 2.937-1.621 0-2.936-1.314-2.936-2.937 0-1.621 1.315-2.938 2.936-2.938 1.622 0 2.938 1.316 2.938 2.938zM8.758 23.664c0-0.776-0.629-1.404-1.405-1.404s-1.405 0.628-1.405 1.404c0 0.777 0.629 1.405 1.405 1.405s1.405-0.628 1.405-1.405z"></path>
<path fill="#4493d1" d="M29.094 15.338c0.877 0.171 1.403 0.55 1.799 2.715l0.626 3.907c0.226 1.272-0.493 1.735-1.389 1.735h-2.152c0-2.107-1.707-3.821-3.814-3.821s-3.816 1.714-3.816 3.821h-9.196c0-2.107-1.708-3.821-3.815-3.821s-3.816 1.714-3.816 3.821h-1.783c-0.628 0-1.117-0.475-1.117-1.089v-12.849c0-0.7 0.553-1.263 1.23-1.263h23.089c0.877 0 1.519 0.436 1.836 1.199l2.318 5.644zM21.397 9.805v5.338h6.172l-2.165-5.338h-4.007zM15.876 14.457v-3.275h-3.275v3.275h-3.276v3.276h3.276v3.275h3.275v-3.275h3.275v-3.276h-3.275z"></path>
</svg>
