<?xml version="1.0" encoding="utf-8"?>
<!-- Generated by IcoMoon.io -->
<!DOCTYPE svg PUBLIC "-//W3C//DTD SVG 1.1//EN" "http://www.w3.org/Graphics/SVG/1.1/DTD/svg11.dtd">
<svg version="1.1" xmlns="http://www.w3.org/2000/svg" xmlns:xlink="http://www.w3.org/1999/xlink" width="32" height="32" viewBox="0 0 32 32">
<path fill="#4493d1" d="M7.109 5.47c1.027-0.569 1.991-0.728 2.865-0.471 0.906 0.265 1.579 0.924 1.982 1.424-1.032 0.772-1.668 2.004-1.693 3.341-0.002 0.087 0.012 0.165 0.027 0.243 0.062 0.341 0.27 0.602 0.628 0.755 0.020 0.009 0.081 0.027 0.211 0.027 0.354 0 0.786-0.143 0.791-0.144l5.724-1.622c0.439-0.128 0.669-0.365 0.695-0.726l0.009-0.057c0-0.003 0-0.007 0-0.011 0.046-0.261-0.231-0.702-0.47-0.834-0.367-0.205-0.704-0.401-1.019-0.585-1.166-0.679-2.009-1.17-2.861-1.17-0.094 0-0.188 0.011-0.283 0.022-0.495-0.711-1.56-1.96-3.197-2.446-1.377-0.41-2.827-0.2-4.313 0.624-0.579 0.321-3.527 1.797-5.573-0.047v2.232c2.743 1.34 5.804-0.183 6.477-0.556z"></path>
<path fill="#4493d1" d="M24.292 9.819c-0.82-0.189-2.956-0.404-2.956-0.404l-1.858-0.736c-0.108 0.474-0.445 1.179-1.502 1.487l-5.726 1.622c-0.19 0.060-0.66 0.19-1.122 0.19-0.247 0-0.458-0.036-0.647-0.111-0.525-0.225-0.909-0.577-1.141-1.018-0.543 0.665-0.871 1.51-0.873 2.435l0.001 1.536-1.541-0.001c-1.455-2.011-3.716-3.4-6.312-3.674v17.838c2.605-0.276 4.873-1.674 6.326-3.695h6.85c1.793 2.28 4.583 3.746 7.711 3.748 5.418-0.001 9.809-4.39 9.81-9.809 0-4.452-3.343-8.552-7.024-9.405zM20.335 11.33c0-0.289 0.242-0.498 0.499-0.498 0.289 0 0.498 0.209 0.498 0.498v2.152c0 0.258-0.209 0.499-0.498 0.499-0.258 0-0.499-0.241-0.499-0.499v-2.152zM21.765 20.491c0 1.633-1.324 2.962-2.952 2.962-1.63 0-2.957-1.329-2.957-2.962v-0.223h0.994v0.223c0.002 1.081 0.882 1.964 1.962 1.967 1.080-0.003 1.959-0.886 1.96-1.967v-0.223h0.993l-0 0.223z"></path>
</svg>
