<?xml version="1.0" encoding="utf-8"?>
<!-- Generated by IcoMoon.io -->
<!DOCTYPE svg PUBLIC "-//W3C//DTD SVG 1.1//EN" "http://www.w3.org/Graphics/SVG/1.1/DTD/svg11.dtd">
<svg version="1.1" xmlns="http://www.w3.org/2000/svg" xmlns:xlink="http://www.w3.org/1999/xlink" width="32" height="32" viewBox="0 0 32 32">
<path fill="#4493d1" d="M7.276 5.96c1.337 0 2.419-1.084 2.419-2.42s-1.082-2.419-2.419-2.419c-1.335 0-2.419 1.083-2.419 2.419s1.083 2.42 2.419 2.42z"></path>
<path fill="#4493d1" d="M25.427 5.926c1.356 0 2.457-1.1 2.457-2.457s-1.101-2.458-2.457-2.458c-1.358 0-2.456 1.101-2.456 2.458s1.099 2.457 2.456 2.457z"></path>
<path fill="#4493d1" d="M6.382 19.729c-3.18 0-5.758 2.578-5.758 5.757s2.578 5.758 5.758 5.758 5.758-2.578 5.758-5.758c0-3.18-2.578-5.757-5.758-5.757zM7.064 29.141v0.92h-1.376v-0.92c-1.468-0.168-2.404-1.566-2.404-2.479h1.467c0 0.411 0.316 0.956 0.95 1.087v-1.725c-0.316-0.061-0.494-0.111-0.833-0.204-0.867-0.24-1.468-0.97-1.468-1.901 0-0.922 0.901-1.957 2.288-2.141v-0.859h1.377v0.859c1.471 0.189 2.376 1.277 2.376 2.363l-1.437-0.001c-0.001-0.475-0.396-0.906-0.939-0.959v1.618c0.399 0.088 0.399 0.078 0.767 0.178 1.369 0.373 1.677 1.269 1.677 2.020-0 1.154-0.923 1.946-2.444 2.145z"></path>
<path fill="#4493d1" d="M5.688 24.546c-0.615-0.11-0.785-0.373-0.785-0.657 0-0.331 0.417-0.651 0.785-0.694v1.35zM7.081 27.742v-1.458c0.608 0.087 0.992 0.349 0.992 0.724 0 0.332-0.358 0.71-0.992 0.734z"></path>
<path fill="#4493d1" d="M4.119 10.15h0.954l-1.102 4.102h6.61l-1.102-4.102h0.954l1.129 4.102h2.127l-1.364-4.975c-0.364-1.203-1.554-2.479-3.114-2.479h-3.868c-1.561 0-2.752 1.276-3.116 2.479l-1.363 4.975h2.127l1.13-4.102z"></path>
<path fill="#4493d1" d="M28.052 6.773c1.207 0 2.186 0.978 2.186 2.185l-0.004 6.707h1.408v2.749l-2.848 0.001v11.387c0 0.796-0.653 1.441-1.449 1.441-0.794 0-1.44-0.646-1.44-1.441 0-1.088 0-9.998 0-11.386h-0.918c0 1.389 0 10.298 0 11.386 0 0.796-0.646 1.441-1.443 1.441s-1.447-0.646-1.447-1.441c0-0.615 0-6.191 0-11.385l-21.472 0.007v-2.76h21.473c0-3.593 0-6.458 0-6.458l-4.587 5.431c-0.965 1.115-2.683-0.278-1.715-1.47l4.753-5.711c0.308-0.306 0.583-0.685 1.718-0.685h5.786z"></path>
</svg>
