<?xml version="1.0" encoding="utf-8"?>
<!-- Generated by IcoMoon.io -->
<!DOCTYPE svg PUBLIC "-//W3C//DTD SVG 1.1//EN" "http://www.w3.org/Graphics/SVG/1.1/DTD/svg11.dtd">
<svg version="1.1" xmlns="http://www.w3.org/2000/svg" xmlns:xlink="http://www.w3.org/1999/xlink" width="32" height="32" viewBox="0 0 32 32">
<path fill="#4493d1" d="M2.741 16.978h2.773c0.211 0 0.405 0.105 0.521 0.278 0 0 0.529 0.798 1.056 1.59 0.293-2.593 1.311-11.657 1.311-11.657 0.035-0.299 0.28-0.535 0.585-0.553 0.303-0.019 0.573 0.184 0.644 0.478 0 0 1.328 5.569 1.957 8.2 0.414-1.169 0.832-2.354 0.832-2.354 0.088-0.248 0.322-0.416 0.586-0.417s0.5 0.162 0.589 0.41c0 0 1.234 3.351 1.481 4.026 0.625 0 2.407 0 2.407 0 0.21 0 0.405 0.105 0.521 0.278 0 0 0.529 0.798 1.056 1.59 0.293-2.593 1.312-11.657 1.312-11.657 0.034-0.299 0.279-0.535 0.584-0.553 0.302-0.019 0.575 0.184 0.645 0.478 0 0 1.327 5.566 1.956 8.2 0.413-1.169 0.833-2.354 0.833-2.354 0.087-0.248 0.321-0.416 0.584-0.417s0.501 0.162 0.59 0.41c0 0 1.235 3.35 1.482 4.026 0.431 0 1.709 0 2.46 0l0.131-0.25c1.195-2.056 2.067-5.863 2.067-8.635 0-3.537-2.574-7.81-7.591-7.81-7.169 0-8.090 6.716-8.090 6.716s-0.889-6.683-8.054-6.683c-4.84 0-7.437 4.118-7.437 7.778 0 3.161 1.384 7.063 2.093 8.666l0.118 0.22z"></path>
<path fill="#4493d1" d="M26.608 18.228c-0.263 0-0.497-0.165-0.586-0.409 0 0-0.554-1.503-1.034-2.808-0.449 1.273-0.957 2.716-0.957 2.716-0.092 0.261-0.345 0.431-0.622 0.415-0.277-0.013-0.512-0.208-0.575-0.479 0 0-0.894-3.743-1.619-6.784-0.431 3.83-1.104 9.812-1.104 9.812-0.029 0.259-0.22 0.475-0.475 0.536-0.256 0.062-0.521-0.042-0.667-0.261 0 0-1.515-2.28-1.821-2.738-0.521 0-2.508 0-2.508 0-0.261 0-0.496-0.164-0.585-0.409 0 0-0.554-1.503-1.034-2.808-0.451 1.273-0.96 2.716-0.96 2.716-0.092 0.262-0.345 0.431-0.621 0.415-0.277-0.013-0.511-0.208-0.577-0.479 0 0-0.892-3.743-1.616-6.779-0.431 3.827-1.103 9.807-1.103 9.807-0.030 0.259-0.22 0.475-0.475 0.536-0.256 0.062-0.521-0.042-0.668-0.261 0 0-1.515-2.28-1.821-2.738-0.254 0-1.059 0-1.76 0 4.482 7.963 12.601 13.209 12.601 13.209s8.266-5.246 12.819-13.209l-2.231-0z"></path>
</svg>
