<?xml version="1.0" encoding="utf-8"?>
<!-- Generated by IcoMoon.io -->
<!DOCTYPE svg PUBLIC "-//W3C//DTD SVG 1.1//EN" "http://www.w3.org/Graphics/SVG/1.1/DTD/svg11.dtd">
<svg version="1.1" xmlns="http://www.w3.org/2000/svg" xmlns:xlink="http://www.w3.org/1999/xlink" width="32" height="32" viewBox="0 0 32 32">
<path fill="#4493d1" d="M20.033 10.287c0 2.278-1.85 4.125-4.13 4.125-2.278 0-4.125-1.847-4.125-4.125s1.847-4.125 4.125-4.125c2.28-0 4.13 1.847 4.13 4.125z"></path>
<path fill="#4493d1" d="M15.91 0.262c-1.909 0-4.575 0.761-6.507 2.692l2.294 4.18c0.981-1.246 2.504-2.045 4.213-2.045 1.73 0 3.269 0.817 4.249 2.087l2.25-4.318c-1.671-1.827-4.669-2.596-6.499-2.596zM17.61 3.331h-1.068v1.067h-1.283v-1.067h-1.068v-1.282h1.068v-1.071h1.283v1.071h1.068v1.282z"></path>
<path fill="#4493d1" d="M10.483 21.825h1.057l-1.509 5.172h11.791l-1.502-5.172h1.058l1.511 5.172h3.469l-2.368-7.836c-0.37-1.294-1.992-3.571-4.791-3.64l-6.435-0.006c-2.863 0.014-4.518 2.336-4.893 3.645l-2.414 7.836h3.519l1.508-5.172z"></path>
<path fill="#4493d1" d="M0.474 28.647h30.865v2.937h-30.865v-2.937z"></path>
</svg>
