<?xml version="1.0" encoding="utf-8"?>
<!-- Generated by IcoMoon.io -->
<!DOCTYPE svg PUBLIC "-//W3C//DTD SVG 1.1//EN" "http://www.w3.org/Graphics/SVG/1.1/DTD/svg11.dtd">
<svg version="1.1" xmlns="http://www.w3.org/2000/svg" xmlns:xlink="http://www.w3.org/1999/xlink" width="32" height="32" viewBox="0 0 32 32">
<path fill="#4493d1" d="M0.331 20.355h25.77v2.029h-25.77v-2.029z"></path>
<path fill="#4493d1" d="M19.481 25.833c0-1.352-5.953-1.216-5.953 0.018 0 0.195 0 4.152 0 4.576-0.059 0.63 0.398 1.248 1.031 1.248 0.471 0 15.944 0.001 15.944 0.001 0.634 0 1.147-0.512 1.147-1.146 0 0 0.001-14.464 0.001-14.487 0-9.103-7.813-16.419-17.088-15.576-0.63 0.058-1.096 0.614-1.039 1.246 0 0.42 0 4.93 0 4.93h5.957v-3.492c5.695 1.527 9.875 6.726 9.877 12.887-0.020 6.157-4.18 11.38-9.877 12.899v-3.105z"></path>
<path fill="#4493d1" d="M21.489 16.077c0-1.419 1.149-2.567 2.567-2.567 1.416 0 2.569 1.148 2.569 2.567 0 1.414-1.153 2.568-2.569 2.568-1.418 0-2.567-1.154-2.567-2.568z"></path>
<path fill="#4493d1" d="M18.206 13.42h-8.601l-9.295 1.423v3.799l6.761 0.001c-0.205-0.331-0.329-0.718-0.329-1.135 0-1.198 0.975-2.172 2.172-2.172h4.71l3.817-0.797 0.213 1.014-3.923 0.819h-4.817c-0.627 0-1.136 0.508-1.136 1.136 0 0.622 0.501 1.126 1.121 1.134l9.325 0.001c1.443-0.011 2.6-1.173 2.6-2.609 0-1.443-1.167-2.615-2.619-2.615z"></path>
</svg>
