<?xml version="1.0" encoding="utf-8"?>
<!-- Generated by IcoMoon.io -->
<!DOCTYPE svg PUBLIC "-//W3C//DTD SVG 1.1//EN" "http://www.w3.org/Graphics/SVG/1.1/DTD/svg11.dtd">
<svg version="1.1" xmlns="http://www.w3.org/2000/svg" xmlns:xlink="http://www.w3.org/1999/xlink" width="32" height="32" viewBox="0 0 32 32">
<path fill="#4493d1" d="M25.204 7.282c-0.086 0-0.17 0.002-0.255 0.006v-0.005h-17.635v11.623c0 1.738 1.409 3.148 3.148 3.148h11.339c1.738 0 3.148-1.41 3.148-3.148v-0.828c0.084 0.004 0.169 0.006 0.255 0.006 3.099 0 5.612-2.333 5.612-5.431s-2.512-5.371-5.611-5.371zM25.204 15.945c-0.086 0-0.17-0.005-0.255-0.010v-6.527c0.084-0.005 0.169-0.009 0.255-0.009 1.878 0 3.401 1.377 3.401 3.255s-1.522 3.292-3.401 3.292z"></path>
<path fill="#4493d1" d="M31.435 22.732v0.109c0 1.738-1.41 3.148-3.148 3.148h-24.493c-1.738 0-3.148-1.41-3.148-3.148v-0.109h30.788z"></path>
</svg>
