<?xml version="1.0" encoding="utf-8"?>
<!-- Generated by IcoMoon.io -->
<!DOCTYPE svg PUBLIC "-//W3C//DTD SVG 1.1//EN" "http://www.w3.org/Graphics/SVG/1.1/DTD/svg11.dtd">
<svg version="1.1" xmlns="http://www.w3.org/2000/svg" xmlns:xlink="http://www.w3.org/1999/xlink" width="32" height="32" viewBox="0 0 32 32">
<path fill="#4493d1" d="M15.449 25.176c-0.343-0.343-0.9-0.343-1.243 0l-4.139 4.136-0.515-0.515 5.55-5.543c0.343-0.343 0.343-0.9 0-1.242-0.342-0.344-0.899-0.344-1.243-0.001l-5.549 5.543-0.514-0.514 6.455-6.449c0.343-0.343 0.344-0.9 0.001-1.243s-0.9-0.344-1.242-0.001l-6.456 6.449-0.514-0.515 5.066-5.062c0.343-0.343 0.343-0.899 0-1.243-0.342-0.343-0.899-0.344-1.243 0l-6.517 6.505c-0.004-0.63-0.009-1.763-0.009-2.786 0-1.421-1.795-1.631-1.885-1.532-0.088 0.103-0.983 9.971-0.983 9.971h10.276l0.572-0.573-0.007-0.006 4.14-4.137c0.343-0.343 0.343-0.899 0-1.243z"></path>
<path fill="#4493d1" d="M20.073 0.981c-5.196 0-9.984 3.898-10.982 8.191-0.223 0.957-0.474 3.449-0.474 3.449l-2.387 6.017c-0.047 0.11-0.072 0.23-0.072 0.361 0 0.507 0.413 0.921 0.923 0.921h0.815l1.456-1.454c0.627-0.624 1.64-0.624 2.265 0.001 0.23 0.232 0.375 0.516 0.436 0.815l0.445-0.445c0.626-0.626 1.639-0.626 2.265 0.001 0.613 0.613 0.62 1.598 0.031 2.226 0.3 0.059 0.587 0.205 0.819 0.438 0.624 0.625 0.624 1.64-0.001 2.264l-0.465 0.464c0.298 0.060 0.582 0.205 0.812 0.436 0.625 0.626 0.625 1.64 0 2.266l-1.032 1.031v3.173h12.223v-9.714c2.661-2.093 4.376-5.345 4.376-8.995 0-6.322-5.125-11.444-11.454-11.444zM11.438 14.906c-0.707 0-1.279-0.573-1.279-1.277 0-0.707 0.572-1.278 1.279-1.278 0.706 0 1.276 0.571 1.276 1.278 0 0.704-0.57 1.277-1.276 1.277zM17.417 17.883c0.319 0 0.583 0.262 0.583 0.58 0 0.322-0.264 0.582-0.583 0.582-0.321 0-0.582-0.26-0.582-0.582 0-0.318 0.261-0.58 0.582-0.58zM17.069 21.518c-0.32 0-0.581-0.261-0.581-0.582 0-0.32 0.261-0.583 0.581-0.583 0.321 0 0.583 0.263 0.583 0.583 0 0.321-0.261 0.582-0.583 0.582zM18.311 24.021c-0.484-0.042-0.837-0.463-0.799-0.944 0.043-0.479 0.465-0.834 0.945-0.793 0.478 0.041 0.835 0.464 0.792 0.941-0.042 0.482-0.463 0.837-0.938 0.796zM19.149 20.534c-0.487 0-0.873-0.39-0.873-0.871s0.387-0.869 0.873-0.869c0.478 0 0.866 0.389 0.866 0.869s-0.389 0.871-0.866 0.871zM20.386 22.359c-0.323 0-0.585-0.259-0.585-0.582 0-0.318 0.262-0.58 0.585-0.58 0.321 0 0.581 0.262 0.581 0.58-0 0.323-0.26 0.582-0.581 0.582zM21.686 18.978h-0.203v-1.038l0.201-0.002c1.296-0.002 2.353-1.057 2.357-2.352-0.004-1.295-1.062-2.35-2.356-2.352l-0.202-0.001v-1.038h0.203c1.872 0 3.395 1.52 3.395 3.391s-1.522 3.393-3.395 3.393z"></path>
</svg>
