<?xml version="1.0" encoding="utf-8"?>
<!-- Generated by IcoMoon.io -->
<!DOCTYPE svg PUBLIC "-//W3C//DTD SVG 1.1//EN" "http://www.w3.org/Graphics/SVG/1.1/DTD/svg11.dtd">
<svg version="1.1" xmlns="http://www.w3.org/2000/svg" xmlns:xlink="http://www.w3.org/1999/xlink" width="32" height="32" viewBox="0 0 32 32">
<path fill="#4493d1" d="M16.059 17.089c2.362 0 3.458 1.793 3.689 4.34 0.055 0.609-0.003 1.498-0.081 2.526-0.266 3.418-0.571 7.618 1.705 7.618 1.925 0 2.913-3.693 3.484-7.902 0.551-4.167-0.032-6.241 0.254-8.091 0.547-3.506 3.607-6.649 2.662-11.119-0.524-2.479-1.889-3.646-3.241-4.136-3.116-1.134-5.127 1.051-8.473 1.051s-5.357-2.185-8.474-1.051c-1.351 0.49-2.716 1.657-3.241 4.136-0.944 4.47 2.115 7.613 2.663 11.119 0.287 1.85-0.296 3.924 0.254 8.091 0.571 4.209 1.559 7.902 3.484 7.902 2.275 0 1.971-4.2 1.705-7.618-0.078-1.028-0.136-1.917-0.081-2.526 0.23-2.546 1.341-4.34 3.69-4.34z"></path>
</svg>
