<?xml version="1.0" encoding="utf-8"?>
<!-- Generated by IcoMoon.io -->
<!DOCTYPE svg PUBLIC "-//W3C//DTD SVG 1.1//EN" "http://www.w3.org/Graphics/SVG/1.1/DTD/svg11.dtd">
<svg version="1.1" xmlns="http://www.w3.org/2000/svg" xmlns:xlink="http://www.w3.org/1999/xlink" width="32" height="32" viewBox="0 0 32 32">
<path fill="#4493d1" d="M2.65 24.964c-2.22 0-2.392-2.392-2.392-2.392v-14.995h29.413c0 0 2.216-0.102 2.216 1.938 0 2.145-1.917 2.028-1.917 2.028h-7.852c-0.198-0.074-0.406-0.127-0.624-0.154l-6.424-0.811-7.101-2.047c-0.227-0.066-0.463 0.065-0.529 0.291-0.065 0.227 0.063 0.474 0.289 0.541l7.243 2.088c0.5 0.143 0.913 0.473 1.165 0.929s0.311 0.979 0.168 1.477c-0.143 0.498-0.472 0.911-0.928 1.164-0.451 0.25-0.973 0.309-1.468 0.17-0.003-0.001-0.006-0.001-0.011-0.001l-3.047-0.884c-1.581-0.496-2.758 0.002-4.007 0.529-0.961 0.406-1.955 0.824-3.305 0.916-0.165 0.011-0.339 0.021-0.543 0.020-0.238-0.002-0.431 0.187-0.432 0.422-0.003 0.237 0.195 0.443 0.432 0.443 1.811-0.001 3.072-0.534 4.185-1.004 1.192-0.503 2.133-0.901 3.419-0.497 0.003 0.001 0.269 0.078 0.64 0.184-0.854 0.393-1.491 1.202-1.617 2.199-0.145 1.145 0.424 2.218 1.358 2.772-0.585 0.399-1.005 1.034-1.1 1.79-0.176 1.393 0.815 2.75 2.209 2.886-0-0-7.222-0-9.443-0z"></path>
<path fill="#4493d1" d="M25.887 23.143h3.891v-0.978h-3.891v0.978zM27.346 17.407v1.439h-1.459v0.979h1.459v1.423h0.977v-1.423h1.454v-0.979h-1.454v-1.439h-0.977zM27.834 25.087c-2.386 0-3.549-1.947-3.549-3.679 0-2.547 3.549-8.177 3.549-8.177s3.548 5.631 3.548 8.177c0 1.732-1.161 3.679-3.548 3.679z"></path>
<path fill="#4493d1" d="M23.074 14.42c-0.136 1.064-1.11 1.822-2.175 1.685l-4.708-0.593c0.455-0.36 0.785-0.851 0.949-1.419 0.207-0.72 0.121-1.477-0.243-2.134-0.059-0.105-0.125-0.208-0.195-0.304l4.686 0.591c1.064 0.135 1.821 1.11 1.686 2.174z"></path>
<path fill="#4493d1" d="M20.798 18.926c-0.065 0.515-0.327 0.974-0.738 1.293-0.411 0.318-0.921 0.459-1.437 0.393l-6.453-0.813c-1.065-0.134-1.821-1.11-1.686-2.174 0.065-0.515 0.327-0.975 0.738-1.292 0.412-0.32 0.921-0.459 1.436-0.394l6.454 0.814c1.064 0.134 1.821 1.109 1.686 2.173z"></path>
<path fill="#4493d1" d="M17.787 23.075c-0.116 0.92-0.96 1.574-1.88 1.459l-3.706-0.468c-0.919-0.116-1.574-0.961-1.458-1.881s0.96-1.573 1.88-1.457l3.705 0.467c0.85 0.107 1.472 0.833 1.472 1.667 0 0.071-0.003 0.141-0.013 0.213z"></path>
</svg>
