<?xml version="1.0" encoding="utf-8"?>
<!-- Generated by IcoMoon.io -->
<!DOCTYPE svg PUBLIC "-//W3C//DTD SVG 1.1//EN" "http://www.w3.org/Graphics/SVG/1.1/DTD/svg11.dtd">
<svg version="1.1" xmlns="http://www.w3.org/2000/svg" xmlns:xlink="http://www.w3.org/1999/xlink" width="32" height="32" viewBox="0 0 32 32">
<path fill="#4493d1" d="M28.471 11.064v8.263h-4.428l-6.049-6.156c0 0-0.971-1.89 0.919-2.106h9.557z"></path>
<path fill="#4493d1" d="M22.109 3.46c0 1.611-1.306 2.916-2.916 2.916s-2.916-1.306-2.916-2.916c0-1.611 1.306-2.916 2.916-2.916s2.916 1.306 2.916 2.916z"></path>
<path fill="#4493d1" d="M19.531 15.839l-3.211-3.262v-5.161c0.007-0.076 0.010-0.153 0.010-0.231 0-1.61-1.306-2.916-2.916-2.916-0.343 0-0.673 0.060-0.979 0.169l-0.003-0.016-0.075 0.046c-0.336 0.131-0.641 0.321-0.903 0.559l-5.888 3.64c-0.036 0.022-0.073 0.044-0.108 0.067l-0.101 0.062 0.002 0.005c-0.745 0.527-1.233 1.395-1.234 2.378l-0.010-0.007v17.888c-0.008 0.079-0.013 0.16-0.013 0.241 0 1.232 0.999 2.231 2.232 2.231s2.232-0.999 2.232-2.231c0-0.107-0.009-0.212-0.023-0.314v-15.224l-0.071-0.041c0.011-0.006 0.022-0.012 0.033-0.019l0.039 0.060 4.86-3.172v3.388l4.144 4.010 0.009-0.009c0.264 0.267 0.631 0.433 1.036 0.433 0.805 0 1.458-0.652 1.458-1.458 0.002-0.447-0.201-0.848-0.519-1.116z"></path>
<path fill="#4493d1" d="M26.169 8.545c0 0.269-0.218 0.486-0.486 0.486s-0.486-0.218-0.486-0.486c0-0.269 0.218-0.486 0.486-0.486s0.486 0.218 0.486 0.486z"></path>
<path fill="#4493d1" d="M25.035 9.085c0 0.269-0.218 0.486-0.486 0.486s-0.486-0.218-0.486-0.486c0-0.269 0.218-0.486 0.486-0.486s0.486 0.218 0.486 0.486z"></path>
<path fill="#4493d1" d="M22.288 6.541c0-0.202 0.163-0.365 0.364-0.365s0.364 0.163 0.364 0.365c0 0.2-0.163 0.364-0.364 0.364s-0.364-0.164-0.364-0.364z"></path>
<path fill="#4493d1" d="M21.863 6.912c0 0.201-0.163 0.365-0.365 0.365s-0.365-0.163-0.365-0.365c0-0.201 0.163-0.365 0.365-0.365s0.365 0.163 0.365 0.365z"></path>
<path fill="#4493d1" d="M20.897 7.776c0 0.201-0.163 0.364-0.364 0.364s-0.364-0.163-0.364-0.364c0-0.201 0.163-0.364 0.364-0.364s0.364 0.163 0.364 0.364z"></path>
<path fill="#4493d1" d="M20.405 8.985c0 0.201-0.163 0.365-0.365 0.365s-0.365-0.163-0.365-0.365c0-0.201 0.163-0.365 0.365-0.365s0.365 0.163 0.365 0.365z"></path>
<path fill="#4493d1" d="M20.405 10.179c0 0.201-0.163 0.365-0.365 0.365s-0.365-0.163-0.365-0.365c0-0.201 0.163-0.365 0.365-0.365s0.365 0.163 0.365 0.365z"></path>
<path fill="#4493d1" d="M21.545 10.179c0 0.201-0.163 0.365-0.365 0.365s-0.365-0.163-0.365-0.365c0-0.201 0.163-0.365 0.365-0.365s0.365 0.163 0.365 0.365z"></path>
<path fill="#4493d1" d="M21.545 9.072c0 0.201-0.163 0.365-0.365 0.365s-0.365-0.163-0.365-0.365c0-0.201 0.163-0.365 0.365-0.365s0.365 0.163 0.365 0.365z"></path>
<path fill="#4493d1" d="M22.004 8.046c0 0.201-0.163 0.364-0.364 0.364s-0.364-0.163-0.364-0.364c0-0.201 0.163-0.364 0.364-0.364s0.364 0.163 0.364 0.364z"></path>
<path fill="#4493d1" d="M23.003 7.587c0 0.201-0.163 0.365-0.365 0.365s-0.365-0.163-0.365-0.365c0-0.201 0.163-0.365 0.365-0.365s0.365 0.163 0.365 0.365z"></path>
<path fill="#4493d1" d="M24.222 6.686c0 0.222-0.18 0.401-0.401 0.401s-0.401-0.18-0.401-0.401c0-0.222 0.18-0.401 0.401-0.401s0.401 0.18 0.401 0.401z"></path>
<path fill="#4493d1" d="M24.174 7.948c0 0.222-0.18 0.401-0.401 0.401s-0.401-0.18-0.401-0.401c0-0.222 0.18-0.401 0.401-0.401s0.401 0.18 0.401 0.401z"></path>
<path fill="#4493d1" d="M25.321 7.341c0 0.221-0.179 0.401-0.401 0.401s-0.401-0.179-0.401-0.401c0-0.221 0.179-0.401 0.401-0.401s0.401 0.179 0.401 0.401z"></path>
</svg>
