<?xml version="1.0" encoding="utf-8"?>
<!-- Generated by IcoMoon.io -->
<!DOCTYPE svg PUBLIC "-//W3C//DTD SVG 1.1//EN" "http://www.w3.org/Graphics/SVG/1.1/DTD/svg11.dtd">
<svg version="1.1" xmlns="http://www.w3.org/2000/svg" xmlns:xlink="http://www.w3.org/1999/xlink" width="32" height="32" viewBox="0 0 32 32">
<path fill="#4493d1" d="M17.239 0.486c-5.371 0-10.32 4.032-11.352 8.475-0.23 0.987-0.487 3.568-0.487 3.568l-2.467 6.225c-0.050 0.112-0.076 0.238-0.076 0.371 0 0.525 0.427 0.953 0.954 0.953h0.262c-0.056-0.207-0.015-0.435 0.144-0.601 0.378-0.39 0.78-0.731 1.196-1.015 0.288-0.196 0.679-0.121 0.876 0.167 0.195 0.288 0.121 0.68-0.167 0.876-0.248 0.168-0.488 0.372-0.723 0.59v2.315h0.556c0.348 0 0.631 0.281 0.631 0.63s-0.283 0.631-0.631 0.631h-0.542c0.148 2.445 2.171 4.383 4.654 4.383h1.852v3.626h2.772v-0.472c0-0.349 0.283-0.631 0.631-0.631s0.63 0.282 0.63 0.631v0.472h1.133v-0.472c0-0.349 0.282-0.631 0.631-0.631s0.63 0.282 0.63 0.631v0.472h6.205v-10.048c2.753-2.165 4.523-5.532 4.523-9.308-0-6.537-5.297-11.837-11.836-11.837zM8.317 12.217c0.73 0 1.32 0.591 1.32 1.322 0 0.728-0.59 1.321-1.32 1.321-0.731 0-1.323-0.593-1.323-1.321-0-0.731 0.592-1.322 1.323-1.322zM6.866 18.358c-0.096-0.335 0.097-0.684 0.431-0.78 0.489-0.141 1.009-0.23 1.551-0.266 0.357-0.024 0.648 0.241 0.671 0.588 0.024 0.348-0.24 0.648-0.587 0.671-0.452 0.030-0.884 0.103-1.285 0.22-0.058 0.016-0.117 0.025-0.175 0.025-0.274-0-0.526-0.18-0.606-0.457zM9.29 23.671h-1.442c-0.348 0-0.63-0.283-0.63-0.631s0.281-0.63 0.63-0.63h1.442c0.348 0 0.63 0.281 0.63 0.63s-0.281 0.631-0.63 0.631zM17.517 14.976h1.442c0.348 0 0.63 0.283 0.63 0.631s-0.281 0.63-0.63 0.63h-1.442c-0.349 0-0.63-0.281-0.63-0.63s0.282-0.631 0.63-0.631zM14.102 16.638c0.289-0.519 0.736-0.946 1.292-1.232 0.309-0.16 0.69-0.039 0.849 0.271 0.16 0.31 0.039 0.69-0.271 0.85-0.334 0.173-0.6 0.423-0.768 0.725-0.115 0.207-0.33 0.324-0.551 0.324-0.103 0-0.209-0.025-0.306-0.079-0.304-0.17-0.414-0.553-0.245-0.859zM10.151 17.932c0.057-0.343 0.377-0.577 0.725-0.521 0.508 0.083 1.014 0.212 1.501 0.384 0.329 0.115 0.502 0.475 0.386 0.803-0.091 0.26-0.334 0.423-0.595 0.423-0.069 0-0.139-0.012-0.208-0.037-0.418-0.147-0.852-0.256-1.288-0.329-0.344-0.056-0.577-0.38-0.521-0.724zM13.075 23.946c-0.114 0.21-0.331 0.33-0.555 0.33-0.102 0-0.205-0.025-0.301-0.076-0.362-0.198-0.758-0.341-1.175-0.428-0.341-0.071-0.56-0.404-0.49-0.745 0.071-0.342 0.405-0.561 0.746-0.49 0.538 0.113 1.050 0.299 1.521 0.555 0.306 0.167 0.42 0.55 0.254 0.855zM13.334 18.876c0.123-0.193 0.334-0.286 0.548-0.281 0.064-0.201 0.217-0.37 0.435-0.426 0.339-0.085 0.682 0.118 0.767 0.455 0.158 0.617 0.478 1.148 0.481 1.154 0.182 0.296 0.089 0.685-0.207 0.867-0.103 0.064-0.217 0.094-0.33 0.094-0.162 0-0.32-0.064-0.44-0.18-0.001-0.001-0.003-0.002-0.004-0.003-0.328-0.299-0.683-0.571-1.057-0.809-0.293-0.187-0.38-0.577-0.193-0.87zM14.148 26.33c-0.181-0.398-0.406-0.763-0.67-1.083-0.221-0.27-0.182-0.667 0.087-0.888 0.269-0.222 0.666-0.182 0.888 0.087 0.332 0.404 0.616 0.863 0.842 1.36 0.145 0.317 0.005 0.691-0.312 0.834-0.085 0.039-0.173 0.057-0.261 0.057-0.239-0-0.469-0.137-0.575-0.369zM15.953 29.316c0 0.349-0.281 0.631-0.63 0.631s-0.631-0.282-0.631-0.631v-0.353c0-0.338-0.024-0.672-0.070-0.994-0.050-0.345 0.19-0.665 0.534-0.715 0.353-0.049 0.664 0.19 0.714 0.535 0.056 0.382 0.083 0.776 0.083 1.174l0 0.353zM16.389 23.024c-0.185-0.403-0.405-0.791-0.658-1.156-0.198-0.287-0.126-0.679 0.16-0.877 0.287-0.198 0.679-0.127 0.878 0.16 0.293 0.425 0.552 0.878 0.767 1.347 0.146 0.316 0.006 0.69-0.309 0.836-0.085 0.039-0.175 0.057-0.263 0.057-0.238-0-0.467-0.136-0.574-0.367zM17.083 26.002c-0.012-0.443-0.063-0.888-0.151-1.321-0.070-0.342 0.151-0.674 0.492-0.744 0.34-0.070 0.674 0.151 0.744 0.493 0.103 0.505 0.162 1.022 0.176 1.538 0.010 0.348-0.264 0.637-0.612 0.647-0.007 0.001-0.012 0.001-0.019 0.001-0.34 0-0.62-0.272-0.63-0.614zM18.347 29.317c0 0.349-0.281 0.631-0.63 0.631s-0.631-0.283-0.631-0.631v-1.441c0-0.348 0.282-0.631 0.631-0.631s0.63 0.283 0.63 0.631v1.441zM18.693 19.109v-1.074l0.208-0.002c1.34-0.002 2.434-1.093 2.438-2.433-0.004-1.339-1.098-2.431-2.438-2.433l-0.208-0.001v-1.073h0.209c1.937 0 3.513 1.572 3.513 3.507s-1.576 3.51-3.513 3.51h-0.209z"></path>
</svg>
