<?xml version="1.0" encoding="utf-8"?>
<!-- Generated by IcoMoon.io -->
<!DOCTYPE svg PUBLIC "-//W3C//DTD SVG 1.1//EN" "http://www.w3.org/Graphics/SVG/1.1/DTD/svg11.dtd">
<svg version="1.1" xmlns="http://www.w3.org/2000/svg" xmlns:xlink="http://www.w3.org/1999/xlink" width="32" height="32" viewBox="0 0 32 32">
<path fill="#4493d1" d="M25.944 29.165v-14c0-1.413-1.12-2.556-2.549-2.556h-14.032c-1.478 0-2.551 1.159-2.551 2.556l-0.004 0.001v14c0 1.428 1.157 2.539 2.554 2.54h14.048c1.396 0 2.536-1.047 2.533-2.536v-0.004zM23.299 29.051h-13.846v-13.766h13.846v13.766z"></path>
<path fill="#4493d1" d="M19.837 1.774c-0.015-1.831 2.634-1.852 2.649 0l-0.041 5.557 1.425-1.746c0.983-1.080 2.713 0.426 1.645 1.645l-3.456 4.114c-0.545 0.546-1.255 0.543-1.798 0l-3.44-4.129c-1.068-1.22 0.678-2.741 1.645-1.646l1.409 1.762-0.041-5.557z"></path>
<path fill="#4493d1" d="M10.221 10.383c-0.015 1.831 2.634 1.851 2.649 0l-0.040-5.557 1.425 1.745c0.984 1.080 2.714-0.426 1.646-1.645l-3.456-4.114c-0.546-0.546-1.256-0.543-1.798 0l-3.44 4.13c-1.068 1.22 0.678 2.741 1.645 1.645l1.409-1.762-0.040 5.557z"></path>
<path fill="#4493d1" d="M22.643 23.17c0 0.279-0.225 0.473-0.471 0.473 0 0-3.097 0-3.1 0-0.243 0-0.472-0.197-0.472-0.473v-3.369c0-0.387 0.31-0.651 0.648-0.651-0.004 0 2.745 0 2.745 0 0.37 0 0.65 0.294 0.65 0.651v3.369h0z"></path>
<path fill="#4493d1" d="M21.884 23.519h-1.18v4.557c0 0.808 1.18 0.808 1.18 0v-4.557z"></path>
<path fill="#4493d1" d="M20.526 23.519h-1.18v4.557c0 0.802 1.18 0.802 1.18 0v-4.557z"></path>
<path fill="#4493d1" d="M21.518 17.99c0 0.489-0.396 0.885-0.885 0.885s-0.885-0.396-0.885-0.885c0-0.489 0.396-0.885 0.885-0.885s0.885 0.396 0.885 0.885z"></path>
<path fill="#4493d1" d="M18.404 23.17c0 0.279-0.224 0.473-0.471 0.473 0 0-3.096 0-3.1 0-0.244 0-0.472-0.197-0.472-0.473v-3.369c0-0.387 0.31-0.651 0.648-0.651-0.003 0 2.745 0 2.745 0 0.37 0 0.649 0.294 0.649 0.651v3.369h0.001z"></path>
<path fill="#4493d1" d="M17.646 23.519h-1.18v4.557c0 0.808 1.18 0.808 1.18 0v-4.557z"></path>
<path fill="#4493d1" d="M16.287 23.519h-1.18v4.557c0 0.802 1.18 0.802 1.18 0v-4.557z"></path>
<path fill="#4493d1" d="M17.28 17.99c0 0.489-0.396 0.885-0.885 0.885s-0.885-0.396-0.885-0.885c0-0.489 0.396-0.885 0.885-0.885s0.885 0.396 0.885 0.885z"></path>
<path fill="#4493d1" d="M14.166 23.17c0 0.279-0.225 0.473-0.472 0.473 0 0-3.096 0-3.1 0-0.243 0-0.472-0.197-0.472-0.473v-3.369c0-0.387 0.31-0.651 0.648-0.651-0.004 0 2.745 0 2.745 0 0.37 0 0.65 0.294 0.65 0.651v3.369h0.001z"></path>
<path fill="#4493d1" d="M13.408 23.519h-1.18v4.557c0 0.808 1.18 0.808 1.18 0v-4.557z"></path>
<path fill="#4493d1" d="M12.049 23.519h-1.18v4.557c0 0.802 1.18 0.802 1.18 0v-4.557z"></path>
<path fill="#4493d1" d="M13.041 17.99c0 0.489-0.396 0.885-0.885 0.885s-0.885-0.396-0.885-0.885c0-0.489 0.396-0.885 0.885-0.885s0.885 0.396 0.885 0.885z"></path>
</svg>
