<?xml version="1.0" encoding="utf-8"?>
<!-- Generated by IcoMoon.io -->
<!DOCTYPE svg PUBLIC "-//W3C//DTD SVG 1.1//EN" "http://www.w3.org/Graphics/SVG/1.1/DTD/svg11.dtd">
<svg version="1.1" xmlns="http://www.w3.org/2000/svg" xmlns:xlink="http://www.w3.org/1999/xlink" width="32" height="32" viewBox="0 0 32 32">
<path fill="#4493d1" d="M12.697 14.718c-0.131 0-0.261 0.006-0.393 0.019v1.261h0.449c0.369 0 0.525-0.187 0.525-0.624 0-0.368-0.099-0.655-0.581-0.655z"></path>
<path fill="#4493d1" d="M21.133 11.058v-10.265h-10.275v10.265h-10.279v10.273h10.279v10.265h10.275v-10.265h10.276v-10.273h-10.276zM4.143 18.276h-2.068v-4.163h2.017v0.675h-1.212v0.998h1.093v0.668h-1.093v1.166h1.262v0.656zM7.942 18.276h-0.756v-2.696h-0.025l-0.781 1.585-0.787-1.579v2.69h-0.787v-4.163h0.756l0.818 1.579 0.806-1.579h0.756v4.163zM10.835 18.276h-2.067v-4.163h2.018v0.675h-1.213v0.998h1.095v0.668h-1.095v1.166h1.262v0.656zM14.108 18.276h-0.842l-0.382-1.461c-0.031-0.119-0.056-0.174-0.162-0.174h-0.418v1.635h-0.806v-4.139c0.394-0.044 0.762-0.056 1.168-0.056 0.85 0 1.405 0.387 1.405 1.242 0 0.6-0.244 0.918-0.612 1.062v0.006c0.088 0.025 0.119 0.088 0.144 0.193l0.506 1.692zM17.507 16.459c0 0.905-0.225 1.886-1.355 1.886-1.156 0-1.538-1.117-1.538-2.142 0-1.036 0.419-2.16 1.599-2.16 0.443 0 0.774 0.182 1.093 0.499l-0.444 0.593c-0.181-0.224-0.337-0.405-0.661-0.405-0.693 0-0.743 0.961-0.743 1.467 0 0.512 0.018 1.504 0.718 1.504 0.537 0 0.599-0.487 0.599-0.918v-0.149h-0.567v-0.661h1.299v0.486zM20.269 18.276h-2.068v-4.163h2.018v0.675h-1.213v0.998h1.094v0.668h-1.094v1.166h1.263v0.656zM23.779 18.276h-0.705l-1.337-2.571h-0.019v2.571h-0.787v-4.163h0.781l1.275 2.465h0.011v-2.465h0.781v4.163zM26.042 18.344c-1.149 0-1.562-1.017-1.562-2.147 0-1.068 0.444-2.154 1.6-2.154 0.486 0 0.805 0.219 1.125 0.599l-0.482 0.569c-0.18-0.276-0.349-0.481-0.656-0.481-0.569 0-0.744 0.717-0.744 1.467 0 0.562 0.113 1.466 0.763 1.466 0.339 0 0.525-0.206 0.731-0.48l0.412 0.587c-0.275 0.337-0.675 0.574-1.187 0.574zM29.266 16.684v1.592h-0.8v-1.548l-1.088-2.616h0.862l0.631 1.898 0.631-1.898h0.819l-1.056 2.572z"></path>
</svg>
