<?xml version="1.0" encoding="utf-8"?>
<!-- Generated by IcoMoon.io -->
<!DOCTYPE svg PUBLIC "-//W3C//DTD SVG 1.1//EN" "http://www.w3.org/Graphics/SVG/1.1/DTD/svg11.dtd">
<svg version="1.1" xmlns="http://www.w3.org/2000/svg" xmlns:xlink="http://www.w3.org/1999/xlink" width="32" height="32" viewBox="0 0 32 32">
<path fill="#4493d1" d="M27.327 14.723c2.63 0 4.195 1.566 4.195 3.965v11.23c0 0.87-0.078 1.575-0.078 1.575h-12.008v-10.915h-0.49l-2.229 3.325c-0.363 0.495-1.1 0.735-1.687 0.735h-5.233c-0.87 0-1.575-0.704-1.575-1.573 0-0.867 0.705-1.551 1.575-1.551h4.759l3.301-4.993c0.793-1.207 2.259-1.783 3.584-1.783 0 3.511 0.875 4.997 2.457 4.997v5.838c-0.444 0.191-0.757 0.633-0.757 1.149 0 0.69 0.552 1.243 1.241 1.243s1.243-0.568 1.243-1.26c0-0.515-0.313-0.957-0.757-1.148v-5.84c1.581-0.001 2.457-1.485 2.457-4.995zM26.341 14.723c-0.028 3.599-0.65 4.073-1.957 4.073-1.305 0-1.928-0.474-1.956-4.073h3.913zM24.363 6.616c1.984 0 3.591 1.608 3.591 3.592 0 1.983-1.608 3.592-3.591 3.592s-3.593-1.608-3.593-3.592c0-1.985 1.609-3.592 3.593-3.592z"></path>
<path fill="#4493d1" d="M15.536 7.108c0.438 0 0.795-0.357 0.795-0.796s-0.357-0.795-0.795-0.795c-0.44 0-0.796 0.356-0.796 0.795s0.356 0.796 0.796 0.796z"></path>
<path fill="#4493d1" d="M9.85 2.723c0.626 0 1.133-0.508 1.133-1.133s-0.508-1.134-1.133-1.134c-0.627 0-1.134 0.509-1.134 1.134s0.507 1.133 1.134 1.133z"></path>
<path fill="#4493d1" d="M3.697 2.73c0.635 0 1.151-0.511 1.151-1.142s-0.516-1.142-1.151-1.142c-0.635 0-1.15 0.511-1.15 1.142s0.515 1.142 1.15 1.142z"></path>
<path fill="#4493d1" d="M14.456 13.973c0 0.257 0.212 0.466 0.47 0.466 0.257 0 0.466-0.209 0.466-0.466 0-0.383 0-2.79 0-2.79h0.365c0 0 0 2.407 0 2.79 0 0.257 0.209 0.466 0.467 0.466s0.469-0.209 0.469-0.466c0-0.383 0-5.215 0-5.215h0.361c0 0 0 1.544 0 1.768 0 0.193 0.156 0.348 0.347 0.348 0.193 0 0.344-0.156 0.344-0.348v-2.010c0-0.563-0.496-1.020-1.057-1.020 0 0-2.158 0.002-2.167 0.003l-0.698-0.068-0.897-3.128c-0.362-1.262-1.418-1.222-1.418-1.222h-2.909c0 0-1.056-0.040-1.418 1.222l-0.47 1.638-0.47-1.638c-0.362-1.262-1.418-1.222-1.418-1.222h-2.251c0 0-1.055-0.040-1.418 1.222l-0.906 3.157c-0.087 0.294 0.058 0.57 0.315 0.644 0.258 0.073 0.54-0.106 0.608-0.341l0.88-3.077h0.431l-1.288 5.327h1.138v3.784c0 0.312 0.252 0.565 0.563 0.565 0.313 0 0.567-0.253 0.567-0.565v-3.784h0.477v3.784c0 0.312 0.252 0.565 0.565 0.565s0.566-0.253 0.566-0.565v-3.784h1.119l-1.276-5.327h0.431l0.88 3.077c0.060 0.204 0.247 0.37 0.469 0.351 0.222 0.019 0.448-0.147 0.506-0.351l0.881-3.077h0.396c0 0 0 8.457 0 9.002 0 0.367 0.3 0.665 0.668 0.665 0.367 0 0.665-0.298 0.665-0.665 0-0.544 0-5.122 0-5.122h0.491c0 0 0 4.577 0 5.122 0 0.367 0.298 0.665 0.665 0.665s0.667-0.298 0.667-0.665c0-0.544 0-9.002 0-9.002h0.431l0.818 2.975c0.051 0.178 0.237 0.353 0.435 0.412l1.142 0.319v5.582h-0z"></path>
</svg>
