<?xml version="1.0" encoding="utf-8"?>
<!-- Generated by IcoMoon.io -->
<!DOCTYPE svg PUBLIC "-//W3C//DTD SVG 1.1//EN" "http://www.w3.org/Graphics/SVG/1.1/DTD/svg11.dtd">
<svg version="1.1" xmlns="http://www.w3.org/2000/svg" xmlns:xlink="http://www.w3.org/1999/xlink" width="32" height="32" viewBox="0 0 32 32">
<path fill="#4493d1" d="M19.827 2.625v0.866h-3.745v-1.36h-1.083c0-0.846-0.919-1.931-2.225-1.931-1.272 0-2.424 0.993-2.424 2.491 0 0.712 0.409 1.348 0.77 1.565-1.43 0.528-3.348 2.34-3.727 3.443-0.526 1.052 0.918 1.934 1.661 0.882s1.576-2.343 4.051-2.962l0.004 1.090c-1.020 0.193-3.832 1.85-3.832 5.067v18.698c0 0.464 0.217 1.237 1.145 1.237h8.235c0.928 0 1.145-0.773 1.145-1.237v-18.698c0-3.217-2.711-4.874-3.744-5.067l0.005-1.301h3.763v0.805l9.208 1.392v-6.32l-9.208 1.339zM12.74 3.624c-0.589 0-1.067-0.478-1.067-1.067s0.478-1.066 1.067-1.066c0.589 0 1.067 0.478 1.067 1.066s-0.478 1.067-1.067 1.067z"></path>
</svg>
