<?xml version="1.0" encoding="utf-8"?>
<!-- Generated by IcoMoon.io -->
<!DOCTYPE svg PUBLIC "-//W3C//DTD SVG 1.1//EN" "http://www.w3.org/Graphics/SVG/1.1/DTD/svg11.dtd">
<svg version="1.1" xmlns="http://www.w3.org/2000/svg" xmlns:xlink="http://www.w3.org/1999/xlink" width="32" height="32" viewBox="0 0 32 32">
<path fill="#4493d1" d="M17.307 3.739c0.952 0 1.726-0.773 1.726-1.726 0-0.951-0.774-1.726-1.726-1.726s-1.725 0.774-1.725 1.726c0 0.952 0.772 1.726 1.725 1.726z"></path>
<path fill="#4493d1" d="M7.944 3.75c-0.968 0-1.751-0.778-1.751-1.738 0-0.959 0.782-1.737 1.751-1.737 0.967 0 1.752 0.778 1.752 1.737 0 0.96-0.785 1.738-1.752 1.738z"></path>
<path fill="#4493d1" d="M27.091 9.2c0 0.669-0.542 1.211-1.211 1.211s-1.211-0.542-1.211-1.211c0-0.669 0.542-1.211 1.211-1.211s1.211 0.542 1.211 1.211z"></path>
<path fill="#4493d1" d="M27.634 11.008c-0.426 0-2.853 0-3.267 0-0.015 0-1.092-0.098-1.092-0.098l-1.367-4.768c-0.551-1.919-2.16-1.86-2.16-1.86h-4.428c0 0-1.607-0.059-2.159 1.86l-0.674 2.348-0.674-2.348c-0.552-1.919-2.159-1.86-2.159-1.86h-3.426c0 0-1.609-0.059-2.159 1.86l-1.38 4.804c-0.131 0.45 0.115 0.791 0.508 0.905 0.392 0.113 0.794-0.086 0.895-0.444l1.343-4.683 0.655-0.001-1.96 8.108h1.732v5.759c0 0.475 0.382 0.86 0.858 0.86 0.475 0 0.862-0.386 0.862-0.86v-5.759h0.726v5.759c0 0.475 0.383 0.86 0.858 0.86 0.476 0 0.862-0.386 0.862-0.86v-5.759h1.703l-1.941-8.108 0.652 0.001 1.327 4.634c0.021 0.079 0.057 0.15 0.104 0.214 0.131 0.195 0.357 0.305 0.611 0.298 0.252 0.008 0.478-0.1 0.608-0.294 0.054-0.070 0.091-0.15 0.113-0.239l1.321-4.613 0.603-0.001c0 0 0 12.873 0 13.701 0 0.559 0.457 1.012 1.017 1.012s1.012-0.453 1.012-1.012c0-0.828 0-7.795 0-7.795h0.748c0 0 0 6.967 0 7.795 0 0.559 0.453 1.012 1.011 1.012 0.56 0 1.019-0.453 1.019-1.012 0-0.828 0-13.701 0-13.701l0.655 0.001 1.287 4.683c0.068 0.231 0.261 0.383 0.492 0.441 0.009 0.002 0.015 0.009 0.024 0.010 0.204 0.046 1.147 0.313 1.843 0.512 0 1.265 0 7.97 0 8.497 0 0.392 0.321 0.712 0.712 0.712 0.392 0 0.711-0.319 0.711-0.712 0-0.582 0-4.245 0-4.245h0.557c0 0 0 3.663 0 4.245 0 0.392 0.318 0.712 0.71 0.712s0.715-0.319 0.715-0.712c0-0.582 0-7.937 0-7.937h0.547c0 0 0 2.35 0 2.691 0 0.293 0.239 0.532 0.53 0.532 0.293 0 0.523-0.239 0.523-0.532 0-0.292 0-2.624 0-3.061 0-0.856-0.753-1.552-1.609-1.552z"></path>
<path fill="#4493d1" d="M23.93 27.848c-0.334-0.258-0.668-0.525-1.008-0.796-0.282-0.224-0.565-0.451-0.85-0.673-1.706-1.333-3.479-2.547-5.452-2.725-0.164-0.015-0.328-0.024-0.494-0.024-0.167 0-0.33 0.021-0.494 0.036-1.979 0.179-3.759 1.388-5.469 2.725 0.060 0.047 0.12 0.095 0.179 0.142 0.209 0.166 0.413 0.325 0.619 0.487 1.7-1.318 3.358-2.403 5.165-2.403 1.8 0 3.454 1.080 5.148 2.392 0.343 0.264 0.687 0.538 1.032 0.815 0.274 0.218 0.549 0.437 0.825 0.654 1.854 1.45 3.788 2.766 5.971 2.766 0.846 0 1.653-0.202 2.433-0.529v-1.078c-0.791 0.381-1.596 0.62-2.433 0.62-1.808 0-3.468-1.089-5.173-2.41z"></path>
<path fill="#4493d1" d="M23.134 26.398c0.056 0.045 0.114 0.090 0.17 0.135 0.211 0.169 0.419 0.329 0.628 0.495 0.616-0.477 1.229-0.922 1.843-1.297v2.651c0.329 0.215 0.658 0.415 0.987 0.583v-3.764c0.609-0.284 1.226-0.479 1.859-0.547v4.91c0.152 0.018 0.304 0.035 0.458 0.035 0.177 0 0.354-0.017 0.53-0.041v-4.912c0.657 0.071 1.296 0.279 1.928 0.582v-1.075c-0.776-0.324-1.58-0.523-2.421-0.523-2.184 0-4.122 1.317-5.981 2.768z"></path>
<path fill="#4493d1" d="M9.104 28.489c-0.065-0.052-0.132-0.104-0.197-0.157-0.202-0.161-0.4-0.315-0.601-0.473-1.698 1.315-3.355 2.399-5.158 2.399-0.831 0-1.63-0.252-2.418-0.655v1.088c0.776 0.343 1.577 0.554 2.418 0.554 2.176 0 4.106-1.31 5.956-2.755z"></path>
<path fill="#4493d1" d="M2.644 29.567c0.164 0.021 0.328 0.037 0.493 0.037 0.166 0 0.33-0.016 0.495-0.037v-4.919c0.637 0.069 1.258 0.264 1.871 0.552-0.004 0.022-0.013 0.044-0.013 0.069v3.683c0.328-0.17 0.657-0.369 0.987-0.585v-2.634c0.944 0.579 1.88 1.324 2.841 2.091 2.108 1.682 4.288 3.421 6.797 3.421 2.174 0 4.105-1.306 5.957-2.749-0.068-0.054-0.137-0.108-0.204-0.162-0.201-0.159-0.397-0.311-0.594-0.468-0.605 0.468-1.205 0.902-1.808 1.273v-2.608c-0.33-0.218-0.66-0.416-0.988-0.586v3.665c0 0.020 0.009 0.037 0.011 0.056-0.612 0.289-1.233 0.487-1.869 0.557v-4.905c-0.172-0.024-0.344-0.040-0.516-0.040-0.158 0-0.315 0.017-0.471 0.036v4.917c-0.639-0.068-1.261-0.261-1.874-0.549 0.003-0.025 0.015-0.047 0.015-0.073v-3.689c-0.329 0.168-0.658 0.368-0.987 0.584v2.647c-0.948-0.58-1.888-1.328-2.853-2.098-2.108-1.682-4.287-3.421-6.795-3.421-0.836 0-1.635 0.186-2.408 0.487v1.065c0.627-0.278 1.261-0.472 1.914-0.538v4.922h-0z"></path>
</svg>
