<?xml version="1.0" encoding="utf-8"?>
<!-- Generated by IcoMoon.io -->
<!DOCTYPE svg PUBLIC "-//W3C//DTD SVG 1.1//EN" "http://www.w3.org/Graphics/SVG/1.1/DTD/svg11.dtd">
<svg version="1.1" xmlns="http://www.w3.org/2000/svg" xmlns:xlink="http://www.w3.org/1999/xlink" width="32" height="32" viewBox="0 0 32 32">
<path fill="#4493d1" d="M28.883 12.391v18.895h-11.238v-18.924h2.378l-2.364-1.88 1.308-1.759 2.126 1.546-0.939-3.067 2.051-0.637 1.058 3.249h0.005l1.064-3.249 2.051 0.637-0.945 3.067 2.051-1.516 1.307 1.759-2.288 1.85h2.377v0.030zM26.769 14.606h-2.378v3.002h2.378v-3.002zM22.133 14.606h-2.378v3.002h2.378v-3.002zM26.769 19.817h-2.378v9.255h2.378v-9.255zM22.133 19.817h-2.378v9.255h2.378v-9.255z"></path>
<path fill="#4493d1" d="M11.085 17.101h3.135v11.021c-0.942 0.124-0.942 1.504 0.025 1.627v1.627h-7.888c-1.315 0-2.452-1.161-2.452-2.579v-8.887c0-0.903 0.343-1.566 1.289-2.026 0 0 5.89-2.621 5.897-2.631l-0.007 1.849zM11.818 28.357h-5.505c-0.86 0-0.863 1.213-0.004 1.213h5.559c-0.404-0.258-0.429-0.929-0.050-1.213zM12.454 18.89h-1.369v6.191l-3.449 1.548h4.819v-7.739z"></path>
<path fill="#4493d1" d="M11.902 5.419l0.519 0.79c3.185-2.093 15.281-1.931 15.403-1.929l0.015-0.945c-0.509-0.008-12.511-0.168-15.937 2.084z"></path>
<path fill="#4493d1" d="M8.53 6.817c0 0-1.241 1.289-2.771 1.289s-2.771-0.577-2.771-1.289c0-0.713 1.241-1.289 2.771-1.289s2.771 1.289 2.771 1.289z"></path>
<path fill="#4493d1" d="M10.728 6.817c0 0 1.241 1.289 2.771 1.289s2.772-0.577 2.772-1.289c0-0.713-1.241-1.289-2.772-1.289s-2.771 1.289-2.771 1.289z"></path>
<path fill="#4493d1" d="M8.872 7.545c0 0 0.036 1.79-1.047 2.872s-2.368 1.551-2.872 1.047-0.035-1.789 1.047-2.871c1.082-1.082 2.871-1.048 2.871-1.048z"></path>
<path fill="#4493d1" d="M10.427 5.991c0 0 1.789 0.036 2.871-1.047s1.551-2.367 1.047-2.871c-0.503-0.504-1.788-0.035-2.871 1.048-1.081 1.082-1.047 2.871-1.047 2.871z"></path>
<path fill="#4493d1" d="M9.63 7.82c0 0 1.29 1.241 1.29 2.771s-0.578 2.771-1.29 2.771c-0.712 0-1.289-1.241-1.289-2.771-0.001-1.53 1.289-2.771 1.289-2.771z"></path>
<path fill="#4493d1" d="M9.63 5.622c0 0 1.29-1.241 1.29-2.771s-0.578-2.771-1.29-2.771c-0.712 0-1.289 1.241-1.289 2.771-0.001 1.53 1.289 2.771 1.289 2.771z"></path>
<path fill="#4493d1" d="M10.359 7.478c0 0 1.79-0.035 2.872 1.047s1.551 2.368 1.047 2.872c-0.504 0.504-1.789 0.035-2.871-1.048s-1.048-2.871-1.048-2.871z"></path>
<path fill="#4493d1" d="M8.804 5.924c0 0 0.035-1.789-1.047-2.872-1.083-1.082-2.368-1.55-2.872-1.046-0.503 0.503-0.035 1.789 1.048 2.871 1.081 1.081 2.871 1.047 2.871 1.047z"></path>
</svg>
