<?xml version="1.0" encoding="utf-8"?>
<!-- Generated by IcoMoon.io -->
<!DOCTYPE svg PUBLIC "-//W3C//DTD SVG 1.1//EN" "http://www.w3.org/Graphics/SVG/1.1/DTD/svg11.dtd">
<svg version="1.1" xmlns="http://www.w3.org/2000/svg" xmlns:xlink="http://www.w3.org/1999/xlink" width="32" height="32" viewBox="0 0 32 32">
<path fill="#4493d1" d="M5.615 24.343c-1.136 0-2.057-0.922-2.057-2.057 0-1.137 0.921-2.058 2.057-2.058 1.137 0 2.058 0.921 2.058 2.058s-0.921 2.057-2.058 2.057z"></path>
<path fill="#4493d1" d="M1.471 31.806c0-0.499 0-3.29 0-4.032 0-1.454 1.194-2.635 2.65-2.635 0.723 0 2.138 0 2.842 0 1.456 0 2.756 1.182 2.756 2.635 0 0.742 0 3.533 0 4.032h-8.247z"></path>
<path fill="#4493d1" d="M26.949 24.168c1.136 0 2.057-0.924 2.057-2.059 0-1.138-0.921-2.059-2.057-2.059-1.137 0-2.058 0.921-2.058 2.059 0 1.135 0.92 2.059 2.058 2.059z"></path>
<path fill="#4493d1" d="M31.091 31.806c0-0.499 0-3.29 0-4.032 0-1.454-1.194-2.635-2.651-2.635-0.722 0-2.135 0-2.838 0-1.458 0-2.756 1.182-2.756 2.635 0 0.742 0 3.533 0 4.032h8.245z"></path>
<path fill="#4493d1" d="M16.279 24.332c-1.15 0-2.081-0.924-2.081-2.064s0.931-2.065 2.081-2.065c1.149 0 2.080 0.925 2.080 2.065s-0.931 2.064-2.080 2.064z"></path>
<path fill="#4493d1" d="M11.266 31.806l1.638-4.462c0.656-2.279 2.566-2.209 2.566-2.209h1.622c0 0 1.91-0.070 2.567 2.209l1.638 4.462h-10.030z"></path>
<path fill="#4493d1" d="M16.279 17.598v-4.883l-0.81-0.81v4.88h-12.262v-15.524h12.262v7.975l0.81 0.81v-9.596h-13.879v17.148z"></path>
<path fill="#4493d1" d="M9.218 4.598c0.604 0 1.094-0.49 1.094-1.094s-0.49-1.094-1.094-1.094c-0.603 0-1.093 0.491-1.093 1.094s0.49 1.094 1.093 1.094z"></path>
<path fill="#4493d1" d="M12.83 9.144c0 0-0.898-3.049-0.899-3.051-0.357-1.186-1.358-1.151-1.358-1.151h-2.708c0 0-1.002-0.036-1.36 1.151-0.001 0.003-0.898 3.051-0.898 3.051-0.073 0.248 0.069 0.507 0.316 0.579 0.044 0.012 0.088 0.019 0.132 0.019 0.202 0 0.387-0.132 0.448-0.335l0.857-2.917 0.002 0.001 0.382-0.001v3.32l-1.508 5.177c-0.099 0.34 0.095 0.695 0.435 0.794 0.060 0.017 0.12 0.026 0.179 0.026 0.277 0 0.533-0.181 0.615-0.461l1.49-5.112h0.528l1.49 5.112c0.081 0.28 0.337 0.461 0.614 0.461 0.059 0 0.12-0.009 0.18-0.026 0.339-0.099 0.534-0.454 0.435-0.794l-1.509-5.175v-3.322l0.382 0.001 0.002-0.001 0.858 2.917c0.059 0.204 0.246 0.335 0.447 0.335 0.044 0 0.088-0.007 0.132-0.019 0.247-0.073 0.389-0.332 0.316-0.579z"></path>
<path fill="#4493d1" d="M26.939 8.684c-1.132 0-2.053-0.919-2.053-2.053 0-1.135 0.922-2.056 2.053-2.056 1.138 0 2.053 0.92 2.053 2.056 0 1.134-0.915 2.053-2.053 2.053z"></path>
<path fill="#4493d1" d="M26.939 11.74c0 0 0.498 0.064 0.804-0.358 0.276-0.386 0.297-1.665 0.299-1.897h-2.206c-0.008 0.921 0.099 1.591 0.319 1.929 0.222 0.345 0.785 0.326 0.785 0.326z"></path>
<path fill="#4493d1" d="M17.988 13.551c-0.076 0.124-0.193 0.376-0.193 0.535 0 0.48 0.387 0.865 0.866 0.865h2.849c0.324 0 0.749-0.13 0.93-0.402 0.613-0.91 1.26-1.868 1.451-2.155v5.386h7.174v-5.523c0-1.445-1.129-2.745-2.463-2.745 0.003 0.678-0.088 1.804-0.485 2.297-0.414 0.503-0.903 0.46-0.903 0.46v2.101c0.26 0.107 0.443 0.362 0.443 0.661 0 0.396-0.32 0.716-0.717 0.716-0.396 0-0.715-0.32-0.715-0.716 0-0.297 0.181-0.553 0.44-0.661v-2.111c0 0-0.426 0.035-0.829-0.369-0.537-0.56-0.558-2.147-0.556-2.407h-0.131c-0.919 0-1.726 0.472-2.193 1.173l-1.706 2.573-2.588-0.001-3.654-3.655c-0.137-0.138-0.36-0.138-0.497 0-0.138 0.137-0.139 0.36-0.001 0.498l3.478 3.478z"></path>
</svg>
