<?xml version="1.0" encoding="utf-8"?>
<!-- Generated by IcoMoon.io -->
<!DOCTYPE svg PUBLIC "-//W3C//DTD SVG 1.1//EN" "http://www.w3.org/Graphics/SVG/1.1/DTD/svg11.dtd">
<svg version="1.1" xmlns="http://www.w3.org/2000/svg" xmlns:xlink="http://www.w3.org/1999/xlink" width="32" height="32" viewBox="0 0 32 32">
<path fill="#4493d1" d="M16.41 1.791c5.559 0 10.016 4.583 10.016 10.142 0 2.196-0.425 3.607-1.698 5.39-1.687 2.344-3.31 3.734-3.31 6.62v2.207c0 2.737-2.355 4.838-5.092 4.838-2.769 0-5.092-2.196-5.092-4.965 0-0.658 0.488-1.231 1.146-1.231 0.997 0 0.954 1.284 1.316 2.207 0.446 1.125 1.368 1.782 2.588 1.782 1.559 0 2.928-1.156 2.928-2.716v-2.461c0-4.976 5.093-6.737 5.093-11.712 0-4.403-3.576-7.978-7.978-7.978-2.727 0-4.647 0.891-6.281 3.055-0.965 1.284-1.4 2.228-1.613 3.819-0.127 0.987-0.148 2.292-1.146 2.292-0.658 0-1.146-0.573-1.146-1.231-0.001-5.601 4.667-10.057 10.269-10.057z"></path>
<path fill="#4493d1" d="M16.112 4.846c3.947 0 7.341 3.013 7.341 6.96 0 0.509-0.339 1.018-0.849 1.018-0.552 0-0.679-0.647-0.764-1.188-0.191-1.188-0.287-1.952-0.934-2.97-1.061-1.666-2.598-2.207-4.582-2.207-1.878 0-3.215 0.626-4.329 2.121-0.605 0.807-0.983 1.885-1.173 2.883-0.149 0.817 0.017 1.446-0.821 1.446-0.52 0-0.807-0.541-0.807-1.061 0.001-3.84 3.077-7.002 6.918-7.002z"></path>
<path fill="#4493d1" d="M3.973 20.505l3.672 3.672-0.917 0.917-3.672-3.672 0.917-0.917z"></path>
<path fill="#4493d1" d="M5.821 18.658l3.673 3.673-0.917 0.917-3.673-3.673 0.917-0.917z"></path>
<path fill="#4493d1" d="M7.73 16.725l3.672 3.673-0.917 0.917-3.672-3.673 0.917-0.917z"></path>
<path fill="#4493d1" d="M9.948 14.569l3.672 3.673-0.917 0.917-3.672-3.673 0.917-0.917z"></path>
<path fill="#4493d1" d="M12.005 12.629l3.672 3.672-0.917 0.917-3.672-3.672 0.917-0.917z"></path>
<path fill="#4493d1" d="M14.096 10.343l3.673 3.674-0.917 0.917-3.673-3.674 0.917-0.917z"></path>
<path fill="#4493d1" d="M24.428 2.247l1.491 1.491-0.964 0.964-1.491-1.491 0.964-0.964z"></path>
<path fill="#4493d1" d="M26.367 0.295l1.491 1.491-0.964 0.964-1.491-1.491 0.964-0.964z"></path>
</svg>
