<?xml version="1.0" encoding="utf-8"?>
<!-- Generated by IcoMoon.io -->
<!DOCTYPE svg PUBLIC "-//W3C//DTD SVG 1.1//EN" "http://www.w3.org/Graphics/SVG/1.1/DTD/svg11.dtd">
<svg version="1.1" xmlns="http://www.w3.org/2000/svg" xmlns:xlink="http://www.w3.org/1999/xlink" width="32" height="32" viewBox="0 0 32 32">
<path fill="#4493d1" d="M27.552 27.322c0.824-1.007 1.113-2.407 0.633-3.718l-0.434-1.199h2.634v-22.207h-28.57v22.207h15.364l1.676 4.598c0.476 1.309 1.598 2.199 2.876 2.438l0.788 2.384 6.593 0.001-1.559-4.503zM25.155 15.324c-1.408 0.512-2.135 2.072-1.622 3.481l1.016 2.772h-21.908v-20.552h26.918v20.552h-2.114l-2.29-6.253z"></path>
<path fill="#4493d1" d="M17.33 12.897v1.585h4.631c0.193 0 0.476 0.173 0.476 0.476 0 2.699-0.339 3.974-1.761 3.974-1.478 0-1.781-3.2-3.346-3.408v3.058h-2.477v-3.063c-1.644 0.124-1.909 3.413-3.443 3.413-1.422 0-1.684-1.275-1.684-3.974 0-0.303 0.282-0.476 0.477-0.476h4.651v-1.585h-4.816c-0.278 0-0.503-0.224-0.503-0.501s0.225-0.5 0.503-0.5h4.816v-1.586h-5.421c-0.276 0-0.5-0.224-0.5-0.502 0-0.276 0.224-0.501 0.5-0.501h5.421v-1.585h-5.089c-0.276 0-0.5-0.224-0.5-0.502 0-0.277 0.224-0.502 0.5-0.502h5.089v-1.585h-3.985c-0.279 0-0.502-0.224-0.502-0.501s0.223-0.503 0.502-0.503h3.985v-0.876h2.476v0.876h3.985c0.277 0 0.502 0.226 0.502 0.503s-0.225 0.501-0.502 0.501h-3.985v1.585h5.103c0.277 0 0.502 0.225 0.502 0.502 0 0.278-0.225 0.502-0.502 0.502h-5.103v1.585h5.436c0.276 0 0.501 0.225 0.501 0.501 0 0.278-0.225 0.502-0.501 0.502h-5.436v1.586h4.816c0.278 0 0.502 0.223 0.502 0.5s-0.224 0.501-0.502 0.501h-4.817z"></path>
</svg>
