<?xml version="1.0" encoding="utf-8"?>
<!-- Generated by IcoMoon.io -->
<!DOCTYPE svg PUBLIC "-//W3C//DTD SVG 1.1//EN" "http://www.w3.org/Graphics/SVG/1.1/DTD/svg11.dtd">
<svg version="1.1" xmlns="http://www.w3.org/2000/svg" xmlns:xlink="http://www.w3.org/1999/xlink" width="32" height="32" viewBox="0 0 32 32">
<path fill="#4493d1" d="M27.427 27.237c0.819-1 1.103-2.392 0.631-3.693l-0.433-1.193h2.614v-22.056h-28.377v22.056h15.261l1.664 4.571c0.473 1.301 1.589 2.183 2.858 2.42l0.732 2.436h6.723l-1.673-4.541zM26.591 19.544l-0.622-1.69-0.921-2.537c-1.403 0.512-2.127 2.060-1.615 3.461l1.009 2.755h-21.764v-20.417h26.741v20.417h-2.099l-0.73-1.989z"></path>
<path fill="#4493d1" d="M10.934 9.746c-0.516 0.43-1.254 0.645-2.212 0.645h-1.836v3.172h-1.832v-8.822h3.788c0.874 0 1.569 0.228 2.089 0.682 0.52 0.455 0.779 1.16 0.779 2.113 0 1.043-0.258 1.778-0.775 2.209zM9.527 6.568c-0.234-0.196-0.561-0.293-0.981-0.293h-1.66v2.598h1.66c0.421 0 0.748-0.107 0.981-0.317 0.234-0.212 0.35-0.547 0.35-1.006 0-0.458-0.116-0.785-0.35-0.981z"></path>
<path fill="#4493d1" d="M19.465 6.305h-4.667v1.873h4.285v1.532h-4.285v2.268h4.883v1.585h-6.685v-8.822h6.469v1.563z"></path>
<path fill="#4493d1" d="M27.771 4.742v1.563h-2.638v7.259h-1.856v-7.259h-2.651v-1.563h7.146z"></path>
</svg>
