<?xml version="1.0" encoding="utf-8"?>
<!-- Generated by IcoMoon.io -->
<!DOCTYPE svg PUBLIC "-//W3C//DTD SVG 1.1//EN" "http://www.w3.org/Graphics/SVG/1.1/DTD/svg11.dtd">
<svg version="1.1" xmlns="http://www.w3.org/2000/svg" xmlns:xlink="http://www.w3.org/1999/xlink" width="32" height="32" viewBox="0 0 32 32">
<path fill="#4493d1" d="M27.55 27.337c0.828-1.009 1.114-2.414 0.638-3.725l-0.438-1.204h2.639v-22.25h-28.627v22.251h15.395l1.678 4.611c0.478 1.312 1.603 2.201 2.882 2.441l0.738 2.458h6.782l-1.687-4.581zM26.707 19.576l-0.626-1.706-0.93-2.558c-1.415 0.516-2.145 2.078-1.628 3.49l1.018 2.78h-21.955v-20.597h26.976v20.597h-2.119l-0.737-2.006z"></path>
<path fill="#4493d1" d="M9.421 5.574c0.717-0.734 1.629-1.1 2.735-1.1 1.482 0 2.565 0.491 3.25 1.473 0.378 0.551 0.581 1.105 0.608 1.661h-1.859c-0.118-0.427-0.271-0.749-0.456-0.967-0.331-0.386-0.822-0.579-1.472-0.579-0.662 0-1.185 0.273-1.568 0.818-0.383 0.546-0.573 1.318-0.573 2.315 0 0.999 0.202 1.746 0.605 2.243 0.403 0.498 0.916 0.745 1.538 0.745 0.638 0 1.125-0.213 1.459-0.639 0.185-0.23 0.339-0.574 0.46-1.033h1.848c-0.16 0.97-0.566 1.758-1.221 2.367-0.656 0.607-1.495 0.911-2.518 0.911-1.266 0-2.262-0.41-2.986-1.231-0.726-0.825-1.087-1.957-1.087-3.393 0-1.554 0.412-2.751 1.237-3.592z"></path>
<path fill="#4493d1" d="M23.965 4.643v1.576h-2.662v7.324h-1.872v-7.324h-2.674v-1.576h7.208z"></path>
</svg>
