<?xml version="1.0" encoding="utf-8"?>
<!-- Generated by IcoMoon.io -->
<!DOCTYPE svg PUBLIC "-//W3C//DTD SVG 1.1//EN" "http://www.w3.org/Graphics/SVG/1.1/DTD/svg11.dtd">
<svg version="1.1" xmlns="http://www.w3.org/2000/svg" xmlns:xlink="http://www.w3.org/1999/xlink" width="32" height="32" viewBox="0 0 32 32">
<path fill="#4493d1" d="M16.604 12.772c0.952-0.304 1.969 0.22 2.274 1.174 0.305 0.95-0.221 1.969-1.173 2.275l-4.919 1.572c-0.569 0.183-1.194 0.070-1.665-0.299l-2.035-1.592 4.418 15.888h-12.87v-20.186c0-1.192 0.968-2.159 2.16-2.159h3.217c0.459 0 0.882 0.146 1.23 0.418 0 0 4.197 3.283 5.356 4.19l4.008-1.281zM8.743 18.859h-1.952v-1.955h-2.33v1.954h-1.945v2.337h1.945v1.944h2.33v-1.944h1.952v-2.337z"></path>
<path fill="#4493d1" d="M4.828 8.476c2.145 0 3.884-1.738 3.884-3.885 0-2.144-1.739-3.884-3.884-3.884s-3.885 1.74-3.885 3.884c-0 2.147 1.739 3.885 3.885 3.885z"></path>
<path fill="#4493d1" d="M27.685 8.49c2.146 0 3.889-1.742 3.889-3.889 0-2.15-1.743-3.893-3.889-3.893-2.149 0-3.891 1.743-3.891 3.893 0 2.147 1.741 3.889 3.891 3.889z"></path>
<path fill="#4493d1" d="M26.51 9.534c-1.592 0-2.314 0.545-2.918 1.487l-0.391 0.752-2.273-0.664 0.096-0.62-5.429-1.216-0.152 0.677-1.015-0.226 0.151-0.679-0.408-0.090-0.466 2.080 0.405 0.090 0.156-0.679 1.015 0.227-0.152 0.68 5.43 1.216 0.176-0.637 2.2 0.354-5.667 10.9c-0.438 0.876-0.083 1.939 0.794 2.379 0.876 0.439 1.94 0.083 2.382-0.793l4.728-9.175h0.776v16.193h5.574v-22.256h-5.009z"></path>
</svg>
