<?xml version="1.0" encoding="utf-8"?>
<!-- Generated by IcoMoon.io -->
<!DOCTYPE svg PUBLIC "-//W3C//DTD SVG 1.1//EN" "http://www.w3.org/Graphics/SVG/1.1/DTD/svg11.dtd">
<svg version="1.1" xmlns="http://www.w3.org/2000/svg" xmlns:xlink="http://www.w3.org/1999/xlink" width="32" height="32" viewBox="0 0 32 32">
<path fill="#4493d1" d="M27.542 27.358c0.829-1.011 1.116-2.419 0.639-3.732l-0.439-1.206h2.644v-22.293h-28.682v22.293h15.424l1.681 4.62c0.479 1.315 1.606 2.205 2.887 2.446l0.74 2.462h6.795l-1.69-4.59zM26.697 19.583l-0.627-1.709-0.931-2.563c-1.418 0.517-2.15 2.082-1.631 3.497l1.020 2.785h-21.997v-20.637h27.028v20.637h-2.123l-0.738-2.010z"></path>
<path fill="#4493d1" d="M5.732 5.554c0.718-0.735 1.632-1.102 2.74-1.102 1.485 0 2.57 0.492 3.256 1.476 0.379 0.553 0.582 1.107 0.609 1.664h-1.863c-0.119-0.427-0.271-0.75-0.457-0.969-0.332-0.386-0.824-0.58-1.475-0.58-0.663 0-1.187 0.273-1.57 0.819-0.383 0.547-0.575 1.32-0.575 2.32 0 1.001 0.202 1.749 0.606 2.247s0.918 0.747 1.541 0.747c0.639 0 1.127-0.213 1.462-0.64 0.186-0.231 0.34-0.575 0.461-1.035h1.852c-0.16 0.972-0.568 1.762-1.223 2.371-0.657 0.608-1.498 0.913-2.523 0.913-1.269 0-2.266-0.411-2.992-1.233-0.727-0.827-1.089-1.96-1.089-3.399-0-1.557 0.413-2.757 1.239-3.599z"></path>
<path fill="#4493d1" d="M15.632 4.621h2.109l3.154 8.917h-2.021l-0.588-1.833h-3.284l-0.604 1.833h-1.949l3.183-8.917zM15.51 10.169h2.283l-1.127-3.508-1.156 3.508z"></path>
<path fill="#4493d1" d="M27.594 4.621v1.579h-2.668v7.338h-1.876v-7.338h-2.679v-1.579h7.222z"></path>
</svg>
