<?xml version="1.0" encoding="utf-8"?>
<!-- Generated by IcoMoon.io -->
<!DOCTYPE svg PUBLIC "-//W3C//DTD SVG 1.1//EN" "http://www.w3.org/Graphics/SVG/1.1/DTD/svg11.dtd">
<svg version="1.1" xmlns="http://www.w3.org/2000/svg" xmlns:xlink="http://www.w3.org/1999/xlink" width="32" height="32" viewBox="0 0 32 32">
<path fill="#4493d1" d="M27.409 27.41c0.825-1.009 1.113-2.414 0.636-3.725l-0.436-1.204h2.638v-22.249h-28.631v22.249h15.398l1.678 4.61c0.478 1.312 1.604 2.202 2.883 2.441l0.738 2.458h6.785l-1.687-4.581zM26.566 19.65l-0.626-1.706-0.932-2.559c-1.413 0.518-2.144 2.079-1.627 3.491l1.020 2.78h-21.958v-20.597h26.979v20.597h-2.119l-0.737-2.006z"></path>
<path fill="#4493d1" d="M11.387 4.718h2.676v8.898h-1.733v-6.019c0-0.173 0.002-0.415 0.006-0.728 0.004-0.311 0.006-0.552 0.006-0.721l-1.686 7.468h-1.808l-1.674-7.468c0 0.169 0.002 0.41 0.005 0.721 0.004 0.313 0.007 0.555 0.007 0.728v6.019h-1.733v-8.898h2.706l1.619 6.996 1.608-6.997z"></path>
<path fill="#4493d1" d="M21.486 4.948c0.328 0.141 0.606 0.348 0.833 0.621 0.189 0.226 0.338 0.476 0.448 0.749 0.11 0.274 0.164 0.586 0.164 0.936 0 0.423-0.106 0.839-0.32 1.246-0.213 0.409-0.566 0.698-1.057 0.867 0.411 0.164 0.702 0.399 0.872 0.704 0.171 0.304 0.257 0.767 0.257 1.391v0.597c0 0.407 0.016 0.683 0.049 0.828 0.050 0.229 0.163 0.398 0.343 0.508v0.222h-2.052c-0.057-0.196-0.096-0.356-0.122-0.477-0.048-0.249-0.074-0.505-0.078-0.766l-0.012-0.828c-0.008-0.568-0.106-0.946-0.294-1.134-0.189-0.19-0.543-0.284-1.060-0.284h-1.817v3.489h-1.817v-8.898h4.258c0.607 0.012 1.076 0.089 1.403 0.229zM17.643 6.264v2.391h2.002c0.398 0 0.696-0.048 0.895-0.145 0.352-0.169 0.527-0.503 0.527-1.003 0-0.539-0.17-0.901-0.51-1.086-0.192-0.104-0.478-0.157-0.861-0.157h-2.053z"></path>
<path fill="#4493d1" d="M26.41 13.617h-1.848v-8.898h1.848v8.898z"></path>
</svg>
