<?xml version="1.0" encoding="utf-8"?>
<!-- Generated by IcoMoon.io -->
<!DOCTYPE svg PUBLIC "-//W3C//DTD SVG 1.1//EN" "http://www.w3.org/Graphics/SVG/1.1/DTD/svg11.dtd">
<svg version="1.1" xmlns="http://www.w3.org/2000/svg" xmlns:xlink="http://www.w3.org/1999/xlink" width="32" height="32" viewBox="0 0 32 32">
<path fill="#4493d1" d="M15.812 8.698c2.365 0 4.284-1.919 4.284-4.284s-1.919-4.283-4.284-4.283c-2.366 0-4.285 1.918-4.285 4.283s1.919 4.284 4.285 4.284z"></path>
<path fill="#4493d1" d="M21.464 10.002c-0.702 0-2.828 0-5.044 0v4l0.927 0.227v-0.927c0-0.603 0.549-1.15 1.551-0.476 1.412 0.952 2.931 6.356 1.283 6.143-0.796-0.101-1.245-0.487-2.121-0.536-0.712-0.037-0.712-0.343-0.713-0.745s0-1.695 0-1.695v-0.72c-0.3-0.072-0.649-0.157-0.927-0.226v4.946c0 0 1.391-0.945 2.385-0.175 0.627 0.488 1.020 1.89-0.92 3.034-0.447 0.272-2.884 0.917-3.649-0.518h-0.862c-0.389 0-0.704 0.318-0.704 0.706s0.315 0.705 0.704 0.705h5.108c0.807 0 1.464 0.657 1.464 1.465s-0.657 1.464-1.464 1.464h-5.285c-0.18 0-0.328 0.148-0.328 0.33 0 0.181 0.148 0.328 0.328 0.328h5.285c0.807 0 1.464 0.657 1.464 1.465s-0.657 1.464-1.464 1.464h-6.181c-0.313 0-0.568-0.254-0.568-0.568 0-0.313 0.255-0.568 0.568-0.568h6.181c0.18 0 0.328-0.147 0.328-0.328s-0.148-0.329-0.328-0.329h-5.285c-0.807 0-1.464-0.657-1.464-1.464 0-0.808 0.657-1.466 1.464-1.466h5.285c0.18 0 0.328-0.147 0.328-0.328s-0.148-0.329-0.328-0.329h-5.108c-1.014 0-1.84-0.826-1.84-1.841s0.826-1.842 1.84-1.842h1.14c0.007 0 0.014 0.004 0.021 0.004h0.388c0.377 0 0.363-0.399 0.361-0.399v-5.697c-0.321 0.089-0.688 0.191-0.927 0.257v0.63c0 0 0.001 1.292 0 1.694 0 0.402-0.003 0.709-0.712 0.745-0.875 0.049-1.325 0.435-2.122 0.536-1.648 0.212-0.127-5.192 1.281-6.143 1.002-0.674 1.553-0.127 1.553 0.476v1.008l0.927-0.256v-4.052c-2.143 0-4.157 0-4.821 0-3.032 0-5.735 2.456-5.735 5.487 0 1.543 0 12.247 0 13.284s0.815 1.877 1.85 1.877c1.036 0 1.875-0.841 1.875-1.877 0-1.207 0-11.977 0-11.977h1.553v14.501h11.677v-14.501h1.57c0 0 0 10.77 0 11.977 0 1.036 0.839 1.877 1.876 1.877s1.851-0.841 1.851-1.877c0-1.037 0-11.74 0-13.284-0.001-3.030-2.484-5.486-5.515-5.486z"></path>
</svg>
