<?xml version="1.0" encoding="utf-8"?>
<!-- Generated by IcoMoon.io -->
<!DOCTYPE svg PUBLIC "-//W3C//DTD SVG 1.1//EN" "http://www.w3.org/Graphics/SVG/1.1/DTD/svg11.dtd">
<svg version="1.1" xmlns="http://www.w3.org/2000/svg" xmlns:xlink="http://www.w3.org/1999/xlink" width="32" height="32" viewBox="0 0 32 32">
<path fill="#4493d1" d="M9.102 9.783c1.708-0.764 2.474-2.77 1.708-4.476-0.764-1.708-2.773-2.473-4.48-1.708-1.71 0.764-2.476 2.769-1.709 4.477 0.766 1.709 2.774 2.473 4.482 1.707z"></path>
<path fill="#4493d1" d="M13.955 6.054c0.189-0.325 0.080-0.741-0.247-0.933-0.326-0.189-0.744-0.078-0.933 0.247-0.191 0.324-0.079 0.743 0.244 0.932 0.328 0.189 0.747 0.080 0.937-0.246z"></path>
<path fill="#4493d1" d="M20.248 2.421c0.189-0.325 0.081-0.743-0.247-0.933s-0.745-0.078-0.934 0.247c-0.19 0.325-0.078 0.743 0.245 0.932 0.331 0.191 0.746 0.082 0.936-0.246z"></path>
<path fill="#4493d1" d="M18.15 3.632c0.19-0.326 0.079-0.741-0.248-0.931-0.326-0.19-0.743-0.080-0.932 0.244-0.19 0.328-0.078 0.744 0.246 0.936 0.327 0.189 0.743 0.079 0.934-0.248z"></path>
<path fill="#4493d1" d="M22.345 1.21c0.189-0.325 0.079-0.742-0.246-0.934-0.327-0.188-0.745-0.077-0.936 0.248-0.189 0.326-0.079 0.743 0.247 0.932 0.326 0.19 0.744 0.080 0.934-0.246z"></path>
<path fill="#4493d1" d="M15.922 5.003c0.278-0.255 0.298-0.684 0.043-0.963-0.254-0.278-0.686-0.298-0.964-0.044-0.28 0.255-0.298 0.686-0.044 0.963 0.256 0.279 0.688 0.299 0.965 0.044z"></path>
<path fill="#4493d1" d="M13.955 7.318c0.189 0.326 0.080 0.743-0.247 0.934-0.326 0.189-0.744 0.079-0.933-0.246-0.191-0.325-0.079-0.743 0.244-0.934 0.328-0.188 0.747-0.078 0.937 0.246z"></path>
<path fill="#4493d1" d="M18.15 9.742c0.19 0.326 0.079 0.742-0.248 0.932-0.326 0.189-0.743 0.080-0.932-0.246s-0.078-0.743 0.246-0.933c0.327-0.191 0.743-0.081 0.934 0.247z"></path>
<path fill="#4493d1" d="M27.529 11.081c-1.19 0-7.558 0-8.717 0-2.402 0-4.545 1.948-4.545 4.349 0 1.224 0 9.707 0 10.527 0 0.822 0.644 1.492 1.464 1.492 0.822 0 1.487-0.669 1.487-1.492 0-0.954 0-9.491 0-9.491h1.23v15.19h3.992v-4.116h1.27v4.116h3.995v-15.19h1.242c0 0 0 8.537 0 9.491 0 0.822 0.665 1.492 1.483 1.492 0.822 0 1.471-0.669 1.471-1.492 0-0.82 0-9.303 0-10.527 0-2.401-1.97-4.349-4.372-4.349zM20.382 12.662c-0.326 0.19-0.745 0.080-0.935-0.246s-0.077-0.743 0.245-0.932c0.331-0.191 0.747-0.082 0.938 0.246 0.188 0.325 0.079 0.744-0.247 0.932zM22.48 13.874c-0.326 0.189-0.744 0.078-0.934-0.246-0.189-0.328-0.079-0.746 0.247-0.935s0.744-0.079 0.934 0.247c0.189 0.325 0.079 0.742-0.247 0.933z"></path>
<path fill="#4493d1" d="M15.922 8.37c0.278 0.255 0.298 0.684 0.043 0.964-0.254 0.276-0.686 0.297-0.964 0.044-0.28-0.255-0.298-0.689-0.044-0.965 0.256-0.277 0.688-0.298 0.965-0.043z"></path>
<path fill="#4493d1" d="M16.671 6.136c0.327 0.187 0.438 0.602 0.252 0.932-0.188 0.326-0.606 0.44-0.932 0.254-0.328-0.186-0.44-0.604-0.255-0.93 0.189-0.328 0.607-0.442 0.934-0.256z"></path>
<path fill="#4493d1" d="M23.050 3.302c-1.875 0-3.396 1.521-3.396 3.396s1.52 3.395 3.396 3.395c1.875 0 3.396-1.52 3.396-3.395s-1.521-3.396-3.396-3.396zM21.361 4.458c0.189-0.327 0.605-0.442 0.933-0.254 0.326 0.188 0.439 0.602 0.253 0.932-0.188 0.326-0.605 0.441-0.932 0.254-0.327-0.188-0.441-0.605-0.254-0.932zM20.454 7.323c-0.327-0.188-0.439-0.606-0.255-0.932 0.189-0.328 0.606-0.442 0.934-0.254 0.327 0.187 0.439 0.601 0.25 0.931-0.186 0.327-0.604 0.442-0.93 0.255zM22.58 8.949c-0.188 0.327-0.605 0.441-0.932 0.255-0.327-0.188-0.441-0.605-0.254-0.932 0.189-0.327 0.605-0.442 0.933-0.254 0.326 0.187 0.44 0.603 0.253 0.931zM23.807 7.068c-0.188 0.327-0.605 0.442-0.932 0.255-0.328-0.188-0.439-0.606-0.253-0.931 0.189-0.33 0.606-0.443 0.933-0.255 0.325 0.187 0.442 0.604 0.252 0.931z"></path>
<path fill="#4493d1" d="M18.709 6.063c0.368 0.081 0.6 0.443 0.52 0.813-0.082 0.366-0.446 0.6-0.814 0.52-0.368-0.082-0.6-0.447-0.52-0.813 0.085-0.369 0.447-0.602 0.814-0.52z"></path>
<path fill="#4493d1" d="M19.669 8.812c0.367 0.083 0.6 0.444 0.52 0.813-0.083 0.366-0.447 0.601-0.814 0.52-0.369-0.080-0.6-0.447-0.519-0.813 0.082-0.369 0.446-0.601 0.813-0.52z"></path>
<path fill="#4493d1" d="M19.484 3.448c0.368 0.083 0.601 0.444 0.52 0.813-0.082 0.367-0.446 0.601-0.814 0.52-0.368-0.080-0.599-0.446-0.52-0.812 0.084-0.37 0.447-0.602 0.814-0.521z"></path>
<path fill="#4493d1" d="M8.675 19.406c0.244 0.451 0.717 0.752 1.272 0.752 0.628 0 1.168-0.374 1.384-0.925l2.584-7.582c0.264-0.774-0.151-1.613-0.923-1.877-0.776-0.264-1.614 0.152-1.877 0.924l-1.48 4.353-1.604-2.873c-0.379-0.597-0.958-1.074-1.681-1.316-1.672-0.558-3.478 0.343-4.037 2.014l-1.938 5.799c-0.141 0.352-0.233 0.978-0.233 1.306v11.675h5.799v-9.555l1.595-4.741 1.139 2.046z"></path>
</svg>
