<?xml version="1.0" encoding="utf-8"?>
<!-- Generated by IcoMoon.io -->
<!DOCTYPE svg PUBLIC "-//W3C//DTD SVG 1.1//EN" "http://www.w3.org/Graphics/SVG/1.1/DTD/svg11.dtd">
<svg version="1.1" xmlns="http://www.w3.org/2000/svg" xmlns:xlink="http://www.w3.org/1999/xlink" width="32" height="32" viewBox="0 0 32 32">
<path fill="#4493d1" d="M31.558 31.765h-2.816v-4.757h-25.293v4.757h-2.842v-17.933c0-0.775 0.611-1.405 1.389-1.405v-0.001c0.776 0 1.453 0.631 1.453 1.407v9.77h25.292v-6.923c0-0.776 0.633-1.406 1.41-1.406s1.406 0.63 1.406 1.406l0 15.086z"></path>
<path fill="#4493d1" d="M7.259 15.434c1.195 0 2.162 0.967 2.162 2.161s-0.967 2.163-2.162 2.163c-1.196 0-2.166-0.968-2.166-2.163s0.97-2.161 2.166-2.161z"></path>
<path fill="#4493d1" d="M9.421 21.457c0 0.588-0.477 1.066-1.066 1.066h-3.074c-0.589 0-1.065-0.479-1.065-1.066 0-0.587 0.476-1.063 1.065-1.063h3.074c0.589 0 1.066 0.476 1.066 1.063z"></path>
<path fill="#4493d1" d="M25.982 16.275c0.95 0 1.718 0.745 1.727 1.689l0.004 4.56h-17.356v-6.248l15.626-0.001z"></path>
<path fill="#4493d1" d="M15.697 15.285v-9.87c0-1.062-0.864-1.926-1.924-1.926-1.056 0-1.915 0.859-1.915 1.914 0 0.179-0.145 0.325-0.324 0.325s-0.324-0.146-0.324-0.325c0-0.236-0.192-0.426-0.427-0.426s-0.426 0.191-0.426 0.426c0 0.651 0.528 1.179 1.178 1.179 0.65 0 1.177-0.528 1.177-1.179 0-0.584 0.476-1.060 1.061-1.060 0.589 0 1.069 0.48 1.069 1.071v9.87h0.855z"></path>
<path fill="#4493d1" d="M12.112 12.292h1.086c0 0 0.214-0.925 0.214-2.402s-0.214-2.402-0.214-2.402h-2.776c0 0-0.248 0.747-0.248 2.402s0.248 2.402 0.248 2.402h1.104c0 0.002-0.002 0.005-0.002 0.008 0.001 0.018 0.035 1.801-1.132 2.985h0.769c0.97-1.296 0.952-2.87 0.951-2.993z"></path>
<path fill="#4493d1" d="M19.819 0.325v11.189h11.741v-11.189h-11.741zM20.822 2.867c0-0.826 0.667-1.493 1.496-1.493h6.75c0.826 0 1.495 0.668 1.495 1.493v4.057h-0.906l-0.561-1.525c-0.034-0.093-0.124-0.156-0.224-0.154-0.099 0-0.187 0.064-0.221 0.157 0 0-0.159 0.449-0.315 0.892-0.238-0.998-0.741-3.104-0.741-3.104-0.027-0.112-0.13-0.188-0.244-0.181-0.116 0.006-0.209 0.095-0.222 0.209 0 0-0.385 3.432-0.496 4.414-0.201-0.301-0.4-0.603-0.4-0.603-0.044-0.065-0.118-0.104-0.197-0.104 0 0-0.675 0-0.912 0-0.093-0.255-0.56-1.525-0.56-1.525-0.035-0.093-0.124-0.155-0.224-0.154-0.1 0-0.188 0.064-0.221 0.157 0 0-0.159 0.449-0.316 0.892-0.238-0.996-0.741-3.104-0.741-3.104-0.027-0.112-0.13-0.188-0.244-0.181-0.115 0.006-0.208 0.095-0.222 0.209 0 0-0.384 3.432-0.496 4.414-0.2-0.301-0.401-0.603-0.401-0.603-0.043-0.065-0.117-0.104-0.196-0.104h-0.682v-4.056h-0.001zM29.067 10.581h-6.75c-0.829 0-1.496-0.67-1.496-1.496v-1.689c0.168 0 0.434 0 0.554 0 0.116 0.174 0.69 1.037 0.69 1.037 0.056 0.084 0.157 0.122 0.253 0.099s0.168-0.104 0.18-0.203c0 0 0.254-2.265 0.418-3.714 0.273 1.151 0.612 2.568 0.612 2.568 0.024 0.102 0.113 0.177 0.217 0.181 0.106 0.006 0.201-0.058 0.235-0.157 0 0 0.193-0.546 0.364-1.029 0.182 0.495 0.392 1.064 0.392 1.064 0.033 0.093 0.122 0.154 0.22 0.154 0 0 0.753 0 0.95 0 0.116 0.174 0.69 1.037 0.69 1.037 0.056 0.084 0.156 0.122 0.252 0.099s0.17-0.104 0.18-0.203c0 0 0.255-2.265 0.419-3.715 0.274 1.152 0.612 2.569 0.612 2.569 0.024 0.102 0.113 0.177 0.217 0.181 0.106 0.006 0.201-0.058 0.236-0.157 0 0 0.194-0.546 0.363-1.029 0.181 0.495 0.392 1.064 0.392 1.064 0.034 0.093 0.122 0.154 0.221 0.154h1.072v1.689c0.001 0.826-0.668 1.496-1.494 1.496z"></path>
</svg>
