<?xml version="1.0" encoding="utf-8"?>
<!-- Generated by IcoMoon.io -->
<!DOCTYPE svg PUBLIC "-//W3C//DTD SVG 1.1//EN" "http://www.w3.org/Graphics/SVG/1.1/DTD/svg11.dtd">
<svg version="1.1" xmlns="http://www.w3.org/2000/svg" xmlns:xlink="http://www.w3.org/1999/xlink" width="32" height="32" viewBox="0 0 32 32">
<path fill="#4493d1" d="M5.321 17.864c0-1.171 0.947-2.118 2.12-2.118 1.172 0 2.121 0.946 2.121 2.118 0 1.17-0.95 2.12-2.121 2.12-1.173 0-2.12-0.95-2.12-2.12z"></path>
<path fill="#4493d1" d="M25.799 16.567c0.933 0 1.686 0.731 1.694 1.656l0.004 4.472h-17.017v-6.124l15.319-0.005z"></path>
<path fill="#4493d1" d="M8.52 22.692c0.575 0 1.043-0.468 1.043-1.043s-0.467-1.043-1.043-1.043h-3.015c-0.578 0-1.042 0.468-1.042 1.043s0.464 1.043 1.042 1.043h3.015z"></path>
<path fill="#4493d1" d="M28.505 27.090v4.664h2.761v-14.789c0-0.761-0.615-1.38-1.377-1.38-0.765 0-1.384 0.619-1.384 1.38v6.788h-24.795v-9.578c0-0.761-0.664-1.381-1.427-1.381v0.001c-0.761 0-1.36 0.618-1.36 1.38v17.579h2.788v-4.664h24.795z"></path>
<path fill="#4493d1" d="M19.754 0.070c0.884 0 2.33 0.371 3.135 1.253l-1.085 2.084c-0.474-0.613-1.216-1.007-2.050-1.007-0.825 0-1.558 0.385-2.033 0.987l-1.107-2.018c0.932-0.932 2.219-1.299 3.139-1.299zM19.441 2.17h0.619v-0.619h0.62v-0.618h-0.62v-0.619h-0.619v0.619h-0.619v0.618h0.619v0.619z"></path>
<path fill="#4493d1" d="M21.741 5.124c0 1.099-0.892 1.991-1.991 1.991s-1.991-0.892-1.991-1.991c0-1.1 0.891-1.991 1.991-1.991s1.991 0.891 1.991 1.991z"></path>
<path fill="#4493d1" d="M17.835 7.683c-1.392 0.007-2.198 1.137-2.38 1.775l-1.696 5.567h1.716l1.25-4.271h0.889l-1.247 4.27h6.754l-1.237-4.27h0.889l1.283 4.271h1.691l-1.702-5.567c-0.181-0.63-0.97-1.738-2.332-1.772l-3.878-0.003z"></path>
<path fill="#4493d1" d="M5.146 8.963c-2.444 0-4.43-1.987-4.43-4.431s1.986-4.432 4.43-4.432c2.443 0 4.432 1.988 4.432 4.432s-1.989 4.431-4.432 4.431v0zM5.145 7.866c1.839 0 3.336-1.495 3.336-3.335 0-1.838-1.497-3.335-3.336-3.335-1.838 0-3.332 1.498-3.332 3.335-0 1.84 1.494 3.335 3.332 3.335v0z"></path>
<path fill="#4493d1" d="M5.169 5.116c-0.099 0.045-0.221 0.041-0.32-0.024-0.083-0.053-0.134-0.138-0.148-0.23l-0.005-2.575c0-0.184 0.15-0.333 0.333-0.333s0.333 0.149 0.333 0.333v0 1.998l1.708-0.805c0.165-0.080 0.364-0.008 0.442 0.158v0c0.078 0.167 0.007 0.365-0.159 0.444v0l-2.186 1.034z"></path>
</svg>
