<?xml version="1.0" encoding="utf-8"?>
<!-- Generated by IcoMoon.io -->
<!DOCTYPE svg PUBLIC "-//W3C//DTD SVG 1.1//EN" "http://www.w3.org/Graphics/SVG/1.1/DTD/svg11.dtd">
<svg version="1.1" xmlns="http://www.w3.org/2000/svg" xmlns:xlink="http://www.w3.org/1999/xlink" width="32" height="32" viewBox="0 0 32 32">
<path fill="#4493d1" d="M30.964 15.974c0 8.382-6.795 15.176-15.176 15.176s-15.176-6.794-15.176-15.176c0-8.382 6.794-15.177 15.176-15.177s15.176 6.795 15.176 15.177zM15.788 4.19c-6.508 0-11.784 5.276-11.784 11.784s5.276 11.785 11.784 11.785c6.508 0 11.784-5.277 11.784-11.785s-5.276-11.784-11.784-11.784zM12.681 12.447c0-2.394 1.536-3.234 3.070-3.234 0.913 0 1.695 0.084 2.321 0.858 1.462 1.809-0.169 3.566-2.028 4.495-1.316 0.658-1.937 1.773-1.937 3.325v3.473h3.472c0 0 0 0.036 0-2.047 0-3.125 2.010-2.34 3.472-4.294 1.977-2.644 1.549-5.625-1.133-7.748-3.069-2.431-6.542-1.225-7.51-0.567-0.804 0.546-3.655 2.577-3.106 6.944l3.374 0.007c0 0 0.007-0.408 0.007-1.213zM17.579 26.116v-3.563h-3.472v3.563h3.472z"></path>
</svg>
