<?xml version="1.0" encoding="utf-8"?>
<!-- Generated by IcoMoon.io -->
<!DOCTYPE svg PUBLIC "-//W3C//DTD SVG 1.1//EN" "http://www.w3.org/Graphics/SVG/1.1/DTD/svg11.dtd">
<svg version="1.1" xmlns="http://www.w3.org/2000/svg" xmlns:xlink="http://www.w3.org/1999/xlink" width="32" height="32" viewBox="0 0 32 32">
<path fill="#4493d1" d="M4.878 12.033c0.928 0 1.683 0.753 1.683 1.683 0 0.928-0.755 1.682-1.683 1.682s-1.682-0.754-1.682-1.682c-0-0.93 0.754-1.683 1.682-1.683z"></path>
<path fill="#4493d1" d="M16.031 2.667c1.222 0 2.215 0.992 2.215 2.215s-0.993 2.212-2.215 2.212c-1.221 0-2.212-0.989-2.212-2.212s0.991-2.215 2.212-2.215z"></path>
<path fill="#4493d1" d="M3.84 9.82l0.344 0.547c0.791-0.499 1.842-0.26 2.34 0.531l0.546-0.345c-0.688-1.091-2.137-1.421-3.23-0.733z"></path>
<path fill="#4493d1" d="M5.392 7.219l0.212 0.609c0.884-0.308 1.854 0.16 2.161 1.044l0.609-0.212c-0.425-1.219-1.763-1.865-2.981-1.441z"></path>
<path fill="#4493d1" d="M7.489 5.033l0.070 0.642c0.93-0.101 1.769 0.574 1.871 1.503l0.641-0.070c-0.14-1.282-1.298-2.213-2.582-2.074z"></path>
<path fill="#4493d1" d="M9.948 4.016c0.929 0.111 1.595 0.957 1.484 1.886l0.641 0.076c0.152-1.282-0.767-2.45-2.048-2.603l-0.077 0.641z"></path>
<path fill="#4493d1" d="M20.229 3.189c0.548 0.758 0.376 1.821-0.38 2.369l0.378 0.523c1.045-0.757 1.281-2.223 0.525-3.27l-0.523 0.377z"></path>
<path fill="#4493d1" d="M22.852 4.446c0.363 0.862-0.042 1.858-0.903 2.222l0.251 0.595c1.188-0.501 1.748-1.878 1.247-3.067l-0.595 0.25z"></path>
<path fill="#4493d1" d="M25.126 6.258c0.16 0.923-0.459 1.802-1.381 1.963l0.11 0.635c1.272-0.222 2.128-1.436 1.907-2.708l-0.636 0.11z"></path>
<path fill="#4493d1" d="M25.146 10.139l-0.035 0.644c1.289 0.070 2.395-0.921 2.467-2.21l-0.645-0.036c-0.051 0.934-0.852 1.653-1.787 1.602z"></path>
<path fill="#4493d1" d="M26.864 15.609c-0.936 0-1.695-0.753-1.695-1.681s0.759-1.681 1.695-1.681c0.935 0 1.695 0.752 1.695 1.681s-0.76 1.681-1.695 1.681z"></path>
<path fill="#4493d1" d="M28.653 18.481l0.634 0.001 1.297 4.529c0.1 0.347 0.488 0.538 0.867 0.43 0.38-0.108 0.62-0.44 0.492-0.875l-1.334-4.646c-0.533-1.858-2.088-1.8-2.088-1.8h-3.314c0 0-1.554-0.058-2.088 1.8l-1.335 4.646c-0.127 0.434 0.113 0.766 0.493 0.875 0.379 0.108 0.767-0.082 0.866-0.43l1.298-4.529 0.633-0.001-1.733 6.042h7.045l-1.734-6.042z"></path>
<path fill="#4493d1" d="M4.843 17.838c0.607 0 0.964-0.222 0.977-1.9-0.609 0-1.326 0-1.927 0 0.014 1.678 0.339 1.9 0.95 1.9z"></path>
<path fill="#4493d1" d="M7.134 18.604h0.615c0 0 0 4.226 0 4.698 0 0.407 0.329 0.738 0.734 0.738 0.407 0 0.728-0.331 0.728-0.738 0-0.406 0-4.605 0-5.211 0-1.189-0.975-2.153-2.164-2.153-0.137 0-0.414 0-0.761 0 0 1.637-0.478 2.331-1.183 2.331v1.894c0.208 0.089 0.355 0.296 0.355 0.536 0 0.322-0.258 0.587-0.58 0.587-0.323 0-0.58-0.256-0.58-0.579 0-0.241 0.145-0.447 0.353-0.536v-1.895c-0.74 0-1.196-0.756-1.196-2.338-0.332 0-0.595 0-0.724 0-1.19 0-2.251 0.964-2.251 2.153 0 0.606 0 4.805 0 5.211 0 0.407 0.319 0.738 0.726 0.738s0.736-0.331 0.736-0.738c0-0.473 0-4.699 0-4.699h0.609v5.919h4.583v-5.919h-0z"></path>
<path fill="#4493d1" d="M19.41 10.738h-0.56v17.462c0 0.689-0.559 1.248-1.249 1.248s-1.249-0.559-1.249-1.248v-10.815h-0.64v10.815c0 0.689-0.561 1.248-1.251 1.248s-1.248-0.559-1.248-1.248v-17.462h-0.562l-0.001 6.439c0 0.526-0.427 0.953-0.953 0.953s-0.953-0.427-0.953-0.953v-7.12c0-1.568 1.122-2.456 2.659-2.456h5.257c1.536 0 2.659 0.888 2.659 2.456v7.12c0 0.526-0.427 0.953-0.953 0.953s-0.953-0.427-0.953-0.953l-0.003-6.439z"></path>
</svg>
