<?xml version="1.0" encoding="utf-8"?>
<!-- Generated by IcoMoon.io -->
<!DOCTYPE svg PUBLIC "-//W3C//DTD SVG 1.1//EN" "http://www.w3.org/Graphics/SVG/1.1/DTD/svg11.dtd">
<svg version="1.1" xmlns="http://www.w3.org/2000/svg" xmlns:xlink="http://www.w3.org/1999/xlink" width="32" height="32" viewBox="0 0 32 32">
<path fill="#4493d1" d="M16.095 8.801c2.411 0 4.364-1.953 4.364-4.362 0-2.41-1.954-4.363-4.364-4.363-2.409 0-4.364 1.952-4.364 4.363 0 2.408 1.954 4.362 4.364 4.362z"></path>
<path fill="#4493d1" d="M21.852 10.13c3.089 0 5.618 2.503 5.618 5.589 0 1.571 0 12.476 0 13.531 0 1.056-0.83 1.912-1.886 1.912-1.055 0-1.909-0.856-1.909-1.912 0-1.23 0-12.199 0-12.199h-1.598v14.769h-11.896v-14.769h-1.582c0 0 0 10.969 0 12.199 0 1.056-0.853 1.912-1.908 1.912-1.053 0-1.885-0.856-1.885-1.912 0-1.055 0-11.959 0-13.531 0-3.086 2.754-5.589 5.842-5.589 1.494 0 9.674 0 11.206 0zM14.521 25.938c-0.147-0.155-0.226-0.332-0.212-0.659 0.013-0.292 0.118-0.432 0.268-0.567 0.29-0.262 0.391-0.76 0.391-1.168 0-0.804-0.689-1.452-1.548-1.452-0.723 0-1.382 0.65-1.601 1.068-0.168 0.335-0.391 1.009-0.416 1.798-0.025 0.744 0.11 1.346 0.286 1.955 0.24 0.663 0.888 1.418 1.731 1.418 0.858 0 1.548-0.65 1.548-1.452 0-0.137-0.010-0.254-0.062-0.391-0.047-0.137-0.248-0.406-0.384-0.551zM17.368 26.49c-0.050 0.137-0.065 0.254-0.065 0.391 0 0.802 0.696 1.452 1.553 1.452 0.839 0 1.491-0.755 1.734-1.418 0.176-0.609 0.308-1.211 0.282-1.955-0.023-0.789-0.251-1.462-0.415-1.797-0.217-0.419-0.879-1.068-1.6-1.068-0.857 0-1.553 0.648-1.553 1.452 0 0.408 0.108 0.905 0.397 1.168 0.148 0.134 0.254 0.274 0.268 0.567 0.011 0.327-0.069 0.504-0.212 0.659-0.14 0.145-0.338 0.413-0.388 0.551z"></path>
</svg>
