<?xml version="1.0" encoding="utf-8"?>
<!-- Generated by IcoMoon.io -->
<!DOCTYPE svg PUBLIC "-//W3C//DTD SVG 1.1//EN" "http://www.w3.org/Graphics/SVG/1.1/DTD/svg11.dtd">
<svg version="1.1" xmlns="http://www.w3.org/2000/svg" xmlns:xlink="http://www.w3.org/1999/xlink" width="32" height="32" viewBox="0 0 32 32">
<path fill="#4493d1" d="M16.058 7.906c-2.216 0-4.015-1.784-4.015-3.984s1.799-3.982 4.015-3.982c2.216 0 4.015 1.783 4.015 3.982s-1.798 3.984-4.015 3.984z"></path>
<path fill="#4493d1" d="M26.927 26.475c-0.899 0.258-1.819-0.195-2.055-1.019l-3.074-10.732-1.499-0.002 4.912 17.123h-18.306l4.914-17.123-1.502 0.002-3.073 10.732c-0.236 0.824-1.157 1.276-2.054 1.019-0.899-0.258-1.467-1.044-1.166-2.072l3.162-11.011c1.263-4.4 4.947-4.263 4.947-4.263h7.85c0 0 3.683-0.137 4.947 4.263l3.161 11.011c0.303 1.029-0.266 1.815-1.165 2.072zM16.059 18.957c-3.279 0-5.937 2.656-5.937 5.936 0 3.277 2.657 5.936 5.937 5.936 3.276 0 5.934-2.658 5.934-5.936 0-3.28-2.657-5.936-5.934-5.936zM17.335 23.448c-0.713-0.336-1.016-1.186-0.679-1.899 0.337-0.71 1.188-1.014 1.899-0.677 0.712 0.338 1.014 1.188 0.678 1.9-0.338 0.71-1.187 1.014-1.898 0.676zM18.664 25.434c-0.141 0.298-0.891 1.881-1.044 2.199-0.421 0.89-1.486 1.27-2.378 0.849-0.289-0.139-0.511-0.353-0.697-0.587-0.282-0.356-0.471-1.306-0.471-1.306-0.296 0.209-1.054 0.686-1.367 0.909-0.285 0.199-0.679 0.131-0.88-0.154-0.202-0.285-0.132-0.678 0.151-0.88 0.451-0.315 1.702-1.166 1.702-1.166 0.38-0.267 0.905-0.18 1.172 0.202l0.531 1.079 0.844-1.706-0.737-0.216c-0.162-0.046-0.296-0.158-0.374-0.308l-0.724-1.389c-0.157-0.301-0.041-0.673 0.262-0.829 0.3-0.158 0.671-0.040 0.829 0.26 0 0 0.435 0.837 0.603 1.159 0.398 0.117 2.014 0.587 2.014 0.587 0.087 0.027 0.161 0.077 0.227 0.135 0.384 0.245 0.537 0.74 0.338 1.161z"></path>
</svg>
