<?xml version="1.0" encoding="utf-8"?>
<!-- Generated by IcoMoon.io -->
<!DOCTYPE svg PUBLIC "-//W3C//DTD SVG 1.1//EN" "http://www.w3.org/Graphics/SVG/1.1/DTD/svg11.dtd">
<svg version="1.1" xmlns="http://www.w3.org/2000/svg" xmlns:xlink="http://www.w3.org/1999/xlink" width="32" height="32" viewBox="0 0 32 32">
<path fill="#4493d1" d="M18.926 25.786l-7.732-4.466 0.766-1.325 7.73 4.466z"></path>
<path fill="#4493d1" d="M26.816 28.328c2.233-2.109 3.648-5.072 3.648-8.379 0-4.075-2.14-7.75-5.468-9.814l3.728-6.453-0.585-0.337 0.919-1.599-2.411-1.392-0.922 1.596-0.616-0.356-9.165 15.876 0.801 0.462-1.137 1.966 2.014 1.163 1.137-1.967 0.799 0.462 3.854-6.674c2.363 1.507 3.879 4.146 3.879 7.067 0 4.62-3.761 8.379-8.382 8.379-3.094 0-6.753 0-6.753 0v3.173h19.009v-3.173c-0 0-2.815 0-4.35 0z"></path>
<path fill="#4493d1" d="M9.942 3.932v-2.518h0.31l-0.005-0.604h-2.825l0.004 0.604h0.333v2.518h-2.108v-2.518h0.309l-0.003-0.604h-2.827l0.006 0.604h0.333v2.518h-3.095v12.616h12.635v-12.616h-3.067zM11.939 15.48h-10.496v-10.479h2.025v8.060c0 0.61 0.499 1.105 1.1 1.105 0.603-0.002 1.083-0.496 1.083-1.105v-8.060h2.108v8.060c0 0.61 0.499 1.105 1.1 1.105 0.603-0.002 1.083-0.496 1.082-1.105v-8.060h1.998v10.479h0z"></path>
</svg>
