<?xml version="1.0" encoding="utf-8"?>
<!-- Generated by IcoMoon.io -->
<!DOCTYPE svg PUBLIC "-//W3C//DTD SVG 1.1//EN" "http://www.w3.org/Graphics/SVG/1.1/DTD/svg11.dtd">
<svg version="1.1" xmlns="http://www.w3.org/2000/svg" xmlns:xlink="http://www.w3.org/1999/xlink" width="32" height="32" viewBox="0 0 32 32">
<path fill="#4493d1" d="M14.278 18.59c-1.168 0-2.112 0.951-2.112 2.128 0 1.174 0.945 2.129 2.112 2.129 1.166 0 2.109-0.955 2.109-2.129-0-1.177-0.944-2.128-2.109-2.128z"></path>
<path fill="#4493d1" d="M19.12 18.59c-1.167 0-2.111 0.951-2.111 2.128 0 1.174 0.945 2.129 2.111 2.129s2.11-0.955 2.11-2.129c0-1.177-0.943-2.128-2.11-2.128z"></path>
<path fill="#4493d1" d="M10.241 19.43l-1.467 5.123h1.417l1.43-5.123z"></path>
<path fill="#4493d1" d="M0.334 16.878v7.676h4.829l2.314-7.676z"></path>
<path fill="#4493d1" d="M16.499 12.426c2.603 0 4.018-1.814 4.018-4.053 0-2.237-1.797-4.049-4.018-4.049-2.219 0-4.018 1.812-4.018 4.049 0 2.239 1.8 4.053 4.018 4.053z"></path>
<path fill="#4493d1" d="M21.843 18.534c-0.108 0.302-0.137 0.683 0.073 1.423l1.3 4.596h5.76v7.296h2.584v-31.487h-2.584v16.515h-6.288l-0.845 1.657z"></path>
<path fill="#4493d1" d="M8.118 31.85h17.167l-2.069-7.296h-13.036z"></path>
<path fill="#4493d1" d="M26.799 8.604l-1.69-6.885c-0.229-0.932-1.165-1.502-2.087-1.27-0.925 0.231-1.489 1.173-1.261 2.105l1.525 6.211-2.676 4.727h-7.84c-2.8 0-4.708 1.996-5.207 3.149l-0.086 0.237h15.211l3.936-6.993c0.218-0.388 0.282-0.846 0.175-1.28z"></path>
<path fill="#4493d1" d="M5.342 31.892c-0.16 0-0.322-0.023-0.484-0.069-0.914-0.27-1.439-1.234-1.174-2.156l1.478-5.114h3.612l-1.779 6.086c-0.219 0.76-0.908 1.252-1.654 1.252v0z"></path>
</svg>
