<?xml version="1.0" encoding="utf-8"?>
<!-- Generated by IcoMoon.io -->
<!DOCTYPE svg PUBLIC "-//W3C//DTD SVG 1.1//EN" "http://www.w3.org/Graphics/SVG/1.1/DTD/svg11.dtd">
<svg version="1.1" xmlns="http://www.w3.org/2000/svg" xmlns:xlink="http://www.w3.org/1999/xlink" width="32" height="32" viewBox="0 0 32 32">
<path fill="#4493d1" d="M7.556 4.146v-3.337h-3.337v3.337h-3.337v3.338h3.337v3.337h3.337v-3.337h3.337v-3.338z"></path>
<path fill="#4493d1" d="M18.088 14.506c2.303 0 4.171-1.87 4.171-4.171 0-2.305-1.868-4.17-4.171-4.17s-4.17 1.865-4.17 4.17c0 2.302 1.868 4.171 4.17 4.171z"></path>
<path fill="#4493d1" d="M11.556 31.761v-3.701l-3.712 1.033c-0.272 0.108-0.568 0.169-0.877 0.169-1.312 0-2.376-1.067-2.376-2.378 0-0.493 0.15-0.951 0.405-1.33l5.953-8.164c0.646-0.885 1.549-1.872 3.452-1.872h7.197c1.903 0 2.806 0.986 3.451 1.872l5.953 8.163c0.256 0.379 0.407 0.836 0.407 1.33 0 1.311-1.065 2.378-2.376 2.378-0.309 0-0.606-0.060-0.877-0.169l-3.713-1.033v3.701h-12.888zM18 29.176v0l4.809-1.591-0.108-0.030c-3.318-0.977-2.026-5.361 1.292-4.382l0.453 0.152v-4.951l-6.446 2.106-6.446-2.106v4.951l0.451-0.152c3.32-0.979 4.612 3.405 1.292 4.382l-0.106 0.030 4.809 1.591z"></path>
</svg>
