<?xml version="1.0" encoding="utf-8"?>
<!-- Generated by IcoMoon.io -->
<!DOCTYPE svg PUBLIC "-//W3C//DTD SVG 1.1//EN" "http://www.w3.org/Graphics/SVG/1.1/DTD/svg11.dtd">
<svg version="1.1" xmlns="http://www.w3.org/2000/svg" xmlns:xlink="http://www.w3.org/1999/xlink" width="32" height="32" viewBox="0 0 32 32">
<path fill="#4493d1" d="M24.738 21.666v10.142h-12.75v-3.658h-1.873c-2.601 0-4.711-2.109-4.711-4.713v-3.34h-1.602c-0.532 0-0.966-0.433-0.966-0.963 0-0.134 0.024-0.261 0.072-0.375l2.496-6.286c0 0 0.258-2.604 0.493-3.601 1.039-4.485 6.040-8.556 11.461-8.556 6.596 0 11.946 5.35 11.946 11.952 0 3.813-1.786 7.21-4.566 9.398zM8.339 12.188c-0.731 0-1.329 0.596-1.329 1.331 0 0.739 0.597 1.337 1.329 1.337 0.738 0 1.339-0.597 1.339-1.337-0-0.735-0.601-1.331-1.339-1.331zM19.914 9.288c0 0.697 0.565 1.26 1.258 1.26 0.695 0 1.258-0.562 1.258-1.26 0-0.699-0.563-1.262-1.258-1.262-0.693 0-1.258 0.563-1.258 1.262zM10.406 7.922c0 0.696 0.565 1.261 1.262 1.261 0.699 0 1.262-0.564 1.262-1.261 0-0.699-0.564-1.263-1.262-1.263-0.697 0-1.262 0.565-1.262 1.263zM25.339 10.688l1.828-0.314v-1.76l-1.762-0.304c-0.083-0.319-0.204-0.626-0.355-0.916l1.068-1.516-1.238-1.243-1.464 1.031c-0.218-0.127-0.447-0.242-0.692-0.332-0.069-0.025-0.137-0.043-0.206-0.064l-0.319-1.827h-1.76l-0.297 1.76c-0.321 0.083-0.629 0.204-0.922 0.356l-1.514-1.070-1.248 1.245 1.037 1.457c-0.13 0.22-0.244 0.452-0.334 0.699-0.026 0.069-0.044 0.137-0.065 0.206l-1.511 0.259v-0.839l-1.154-0.198c-0.052-0.201-0.131-0.393-0.226-0.577l0.707-0.999-0.817-0.815-0.962 0.678c-0.14-0.082-0.285-0.158-0.443-0.217-0.040-0.015-0.083-0.018-0.124-0.032l-0.209-1.203h-1.148l-0.201 1.155c-0.202 0.053-0.395 0.133-0.58 0.229l-1.001-0.704-0.813 0.815 0.68 0.962c-0.082 0.139-0.158 0.284-0.215 0.442-0.015 0.041-0.025 0.083-0.038 0.125l-1.197 0.206v1.155l1.161 0.199c0.053 0.198 0.126 0.391 0.22 0.574l-0.706 1 0.814 0.816 0.965-0.68c0.14 0.083 0.286 0.159 0.444 0.218 0.040 0.015 0.083 0.019 0.123 0.033l0.209 1.204 1.148-0.001 0.201-1.154c0.201-0.053 0.393-0.132 0.578-0.228l0.997 0.703 0.817-0.815-0.679-0.962c0.082-0.139 0.157-0.283 0.214-0.44 0.016-0.041 0.020-0.085 0.034-0.127l0.886-0.153v1.444l1.759 0.303c0.083 0.321 0.204 0.629 0.357 0.922l-1.068 1.511 1.241 1.244 1.463-1.031c0.219 0.127 0.447 0.241 0.693 0.331 0.069 0.026 0.137 0.043 0.206 0.065l0.319 1.829h1.527l-0.126 0.732c-0.221 0.050-0.429 0.137-0.625 0.247l-0.73-0.516-0.572 0.573 0.494 0.7c-0.085 0.135-0.159 0.279-0.216 0.433-0.023 0.062-0.032 0.124-0.049 0.186l-0.886 0.151v0.808l0.848 0.147c0.049 0.222 0.136 0.43 0.247 0.627l-0.516 0.729 0.57 0.575 0.7-0.496c0.135 0.086 0.28 0.16 0.435 0.218 0.062 0.023 0.125 0.032 0.188 0.049l0.146 0.882h0.811l0.148-0.845c0.222-0.049 0.43-0.136 0.627-0.247l0.726 0.516 0.575-0.573-0.494-0.695c0.087-0.136 0.162-0.281 0.22-0.437 0.022-0.061 0.030-0.123 0.048-0.185l0.878-0.151v-0.811l-0.843-0.145c-0.049-0.221-0.136-0.43-0.247-0.626l0.515-0.73-0.573-0.573-0.699 0.491c-0.134-0.085-0.278-0.159-0.433-0.217-0.060-0.022-0.121-0.031-0.182-0.047l-0.155-0.882h-0.579l0.28-1.649c0.32-0.082 0.627-0.202 0.919-0.355l1.516 1.070 1.243-1.243-1.033-1.463c0.128-0.219 0.243-0.448 0.334-0.694 0.026-0.069 0.043-0.138 0.065-0.206zM20.876 18.36c0 0.698 0.567 1.261 1.263 1.261 0.693 0 1.256-0.564 1.256-1.261 0-0.697-0.563-1.26-1.256-1.26-0.696 0-1.263 0.564-1.263 1.26z"></path>
</svg>
