<?xml version="1.0" encoding="utf-8"?>
<!-- Generated by IcoMoon.io -->
<!DOCTYPE svg PUBLIC "-//W3C//DTD SVG 1.1//EN" "http://www.w3.org/Graphics/SVG/1.1/DTD/svg11.dtd">
<svg version="1.1" xmlns="http://www.w3.org/2000/svg" xmlns:xlink="http://www.w3.org/1999/xlink" width="32" height="32" viewBox="0 0 32 32">
<path fill="#4493d1" d="M1.547 2.98v6.609h-0.989c-0.187 0-0.339-0.15-0.339-0.339v-8.528c0-0.289 0.215-0.524 0.511-0.524h4.37c0.295 0 0.511 0.234 0.511 0.523v0.501h6.756c0.188 0 0.339 0.152 0.339 0.338v1.918h-5.767v-0.502c0-0.288-0.215-0.523-0.512-0.523h-4.367c-0.296 0-0.512 0.238-0.512 0.528z"></path>
<path fill="#4493d1" d="M15.361 13.591c0 0.187-0.151 0.338-0.339 0.338h-11.808c-0.188 0-0.339-0.15-0.339-0.338v-8.529c0-0.289 0.215-0.524 0.51-0.524h4.369c0.296 0 0.512 0.234 0.512 0.523v0.501h6.755c0.188 0 0.339 0.152 0.339 0.338v7.691h0zM10.124 8.736v-2.012h-2.012v2.012h-2.012v2.012h2.012v2.012h2.012v-2.012h2.011v-2.012h-2.011z"></path>
<path fill="#4493d1" d="M17.774 5.489v25.753h14.153v-25.753h-14.153zM31.040 27.598h-12.381v-9.727h12.381v9.727zM31.040 16.126h-12.381v-9.725h12.381v9.725z"></path>
<path fill="#4493d1" d="M30.142 7.23h-10.594v8.072h10.594v-8.072zM26.569 9.936h-3.489c-0.271 0-0.491-0.219-0.491-0.492 0-0.271 0.22-0.492 0.491-0.492h3.489c0.273 0 0.492 0.22 0.492 0.492 0 0.273-0.219 0.492-0.492 0.492z"></path>
<path fill="#4493d1" d="M30.148 18.699h-10.593v8.070h10.593v-8.070zM26.569 21.407h-3.489c-0.271 0-0.491-0.22-0.491-0.49 0-0.273 0.22-0.493 0.491-0.493h3.489c0.273 0 0.492 0.22 0.492 0.493 0 0.27-0.219 0.49-0.492 0.49z"></path>
</svg>
