<?xml version="1.0" encoding="utf-8"?>
<!-- Generated by IcoMoon.io -->
<!DOCTYPE svg PUBLIC "-//W3C//DTD SVG 1.1//EN" "http://www.w3.org/Graphics/SVG/1.1/DTD/svg11.dtd">
<svg version="1.1" xmlns="http://www.w3.org/2000/svg" xmlns:xlink="http://www.w3.org/1999/xlink" width="32" height="32" viewBox="0 0 32 32">
<path fill="#4493d1" d="M0.405 18.063h20.045v1.879h-20.045v-1.879z"></path>
<path fill="#4493d1" d="M16.138 14.113c0-1.314 1.066-2.378 2.378-2.378 1.311 0 2.379 1.063 2.379 2.378 0 1.31-1.068 2.378-2.379 2.378-1.312 0-2.378-1.068-2.378-2.378z"></path>
<path fill="#4493d1" d="M13.097 11.653h-7.965l-4.736 0.725v4.111l2.39 0.001c-0.19-0.307-0.305-0.665-0.305-1.050 0-1.11 0.902-2.012 2.012-2.012h4.362l3.536-0.739 0.196 0.939-3.633 0.759h-4.461c-0.582 0-1.053 0.471-1.053 1.053 0 0.576 0.464 1.043 1.039 1.050l8.636 0.001c1.335-0.011 2.407-1.086 2.407-2.416 0-1.336-1.081-2.422-2.426-2.422z"></path>
<path fill="#4493d1" d="M17.219 24.986c5.313 0 9.62-4.307 9.62-9.621s-4.307-9.621-9.62-9.621c-3.473 0-6.508 1.848-8.2 4.609h4.029c1.136-0.952 2.598-1.526 4.195-1.526 3.61 0 6.538 2.928 6.538 6.538s-2.927 6.539-6.538 6.539c-1.024 0-1.99-0.242-2.853-0.662h-4.776c1.759 2.273 4.507 3.744 7.604 3.744z"></path>
<path fill="#4493d1" d="M17.219 0.436c-6.583 0-12.164 4.276-14.129 10.2l1.835-0.286 2.977 0.001c1.787-3.315 5.289-5.568 9.318-5.568 5.844 0 10.581 4.738 10.581 10.582s-4.737 10.582-10.581 10.582c-3.669 0-6.9-1.87-8.798-4.707h-4.865c2.288 5.279 7.543 8.974 13.664 8.974 8.223 0 14.889-6.666 14.889-14.889 0-8.222-6.667-14.889-14.889-14.889zM20.597 3.822c-0.054 0.215-0.246 0.358-0.458 0.358-0.038 0-0.077-0.004-0.115-0.015-1.817-0.453-3.746-0.453-5.565 0-0.253 0.068-0.509-0.091-0.572-0.344s0.091-0.509 0.345-0.572c1.967-0.491 4.054-0.491 6.021 0 0.253 0.063 0.407 0.319 0.344 0.572z"></path>
</svg>
