<?xml version="1.0" encoding="utf-8"?>
<!-- Generated by IcoMoon.io -->
<!DOCTYPE svg PUBLIC "-//W3C//DTD SVG 1.1//EN" "http://www.w3.org/Graphics/SVG/1.1/DTD/svg11.dtd">
<svg version="1.1" xmlns="http://www.w3.org/2000/svg" xmlns:xlink="http://www.w3.org/1999/xlink" width="32" height="32" viewBox="0 0 32 32">
<path fill="#4493d1" d="M17.213 0.391c-5.348 0-10.28 4.017-11.305 8.44-0.228 0.983-0.485 3.552-0.485 3.552l-2.456 6.201c-0.050 0.111-0.073 0.238-0.073 0.369 0 0.523 0.423 0.949 0.949 0.949h1.581v3.294c0 2.57 2.079 4.651 4.645 4.651h1.847v3.608h6.864v-1.61h2.795v1.61h2.919v-10.005c2.743-2.157 4.506-5.509 4.506-9.269-0-6.513-5.274-11.791-11.787-11.791zM8.324 14.732c-0.731 0-1.324-0.592-1.324-1.323 0-0.729 0.593-1.32 1.324-1.32 0.724 0 1.319 0.591 1.319 1.32 0 0.731-0.594 1.323-1.319 1.323zM18.779 23.392h2.795v1.512h-2.795v-1.512zM18.779 21.24h2.795v1.511h-2.795v-1.511zM18.779 25.541h2.795v1.514h-2.795v-1.514zM18.779 27.693h2.795v1.514h-2.795v-1.514zM18.779 19.090h2.812c-0.005 0.111-0.018 0.22-0.018 0.334v1.179h-2.795l0-1.512zM26.518 10.376c0 0.805-0.315 1.536-0.828 2.080-0.088 1.148-0.816 2.118-1.83 2.554v0.011c-1.239 0.721-1.979 1.952-2.204 3.429h-1.145v-3.425c0.008-1.068 0.343-1.752 1.047-2.173 0.258-0.148 0.492-0.318 0.691-0.505 0.523 0.188 0.985 0.556 1.279 1.079 0.061 0.103 0.171 0.161 0.279 0.161 0.052 0 0.107-0.013 0.156-0.042 0.157-0.086 0.212-0.281 0.125-0.436h-0.003c-0.329-0.586-0.83-1.019-1.399-1.276 0.292-0.448 0.454-0.983 0.447-1.624 0-0.003 0.004-0.006 0.004-0.011 0-0.29-0.043-0.572-0.12-0.837 0.669-0.128 1.258-0.467 1.691-0.944 0.12-0.132 0.112-0.335-0.021-0.453-0.132-0.119-0.332-0.108-0.449 0.020-0.378 0.411-0.887 0.692-1.467 0.769-0.466-0.863-1.332-1.475-2.347-1.587 0.068-0.547 0.315-1.035 0.686-1.407 0.122-0.124 0.122-0.328 0-0.451-0.124-0.126-0.331-0.126-0.455 0-0.476 0.475-0.793 1.111-0.873 1.818-1.192-0.15-2.11-1.162-2.113-2.394 0-0.175-0.145-0.321-0.316-0.321-0.181 0-0.323 0.146-0.323 0.321 0 0.208 0.020 0.407 0.060 0.602-0.452 0.391-1.014 0.588-1.577 0.588-0.278 0-0.557-0.049-0.82-0.145 0 0-0.004-0.001-0.008-0.002-0.324-0.117-0.621-0.303-0.879-0.56-0.123-0.124-0.327-0.124-0.453 0s-0.126 0.327 0 0.452c0.264 0.263 0.561 0.467 0.878 0.614-0.064 0.797-0.527 1.483-1.175 1.868-0.374-0.569-0.938-1.019-1.63-1.239-0.172-0.054-0.352 0.040-0.407 0.208-0.047 0.169 0.039 0.348 0.209 0.4 0.514 0.163 0.927 0.48 1.225 0.883-0.2 0.054-0.405 0.082-0.622 0.082 0 0 0 0-0.003 0h-0.035c-0.822 0-1.577 0.327-2.126 0.863-0.13 0.123-0.133 0.326-0.005 0.452 0.061 0.065 0.145 0.097 0.232 0.097 0.073 0 0.153-0.030 0.216-0.090 0.436-0.425 1.030-0.681 1.685-0.681h0.039c1.541 0 2.821-1.147 3.022-2.635 0.219 0.047 0.438 0.073 0.66 0.073 0.626 0 1.256-0.194 1.788-0.578 0.195 0.443 0.501 0.831 0.874 1.131-0.38 0.468-0.603 1.024-0.662 1.592-0.16-0.026-0.328-0.040-0.497-0.040-0.483 0-0.973 0.115-1.43 0.359-0.156 0.083-0.216 0.277-0.133 0.434 0.058 0.106 0.171 0.168 0.285 0.168 0.053 0 0.1-0.012 0.146-0.039 0.367-0.192 0.751-0.283 1.131-0.283 0.17 0 0.337 0.018 0.497 0.053 0.070 0.648 0.35 1.282 0.832 1.787 0.064 0.066 0.147 0.099 0.23 0.099 0.078 0 0.16-0.029 0.223-0.088 0.131-0.124 0.134-0.324 0.010-0.452h-0.002c-0.428-0.453-0.655-1.028-0.669-1.61 0-0.008 0.002-0.015 0-0.025 0-0.012 0-0.024 0-0.035 0-0.565 0.195-1.123 0.582-1.571 0.407 0.203 0.87 0.321 1.361 0.321 0 0 0.002 0.001 0.005 0.001 0 0 0.002 0 0.005 0 1.329 0.004 2.404 1.078 2.409 2.406-0.252-0.066-0.512-0.101-0.778-0.101-0.381 0-0.767 0.070-1.14 0.223-0.165 0.068-0.244 0.253-0.177 0.416 0.068 0.163 0.251 0.242 0.415 0.176 0.298-0.119 0.602-0.177 0.901-0.177 0.241 0 0.481 0.037 0.705 0.106-0.079 0.358-0.232 0.646-0.47 0.901-0.018 0.016-0.035 0.034-0.050 0.056-0.182 0.179-0.401 0.345-0.672 0.508-0.926 0.541-1.37 1.522-1.361 2.724v3.425h-1.092v-3.257c0-1.196-0.75-2.331-1.694-2.735-0.451-0.175-0.921-0.468-1.263-0.851-0.488 0.332-1.074 0.527-1.704 0.527-0.632 0-1.218-0.192-1.703-0.522-0.483 0.318-1.066 0.503-1.689 0.503-1.713 0-3.099-1.388-3.099-3.1 0-1.279 0.774-2.377 1.881-2.849 0.299-1.365 1.509-2.387 2.964-2.387 0.077 0 0.148 0.006 0.22 0.011 0.548-0.802 1.47-1.327 2.514-1.327 0.517 0 1.002 0.129 1.428 0.358 0.481-0.32 1.056-0.506 1.675-0.506 0.795 0 1.52 0.31 2.063 0.813 0.228-0.055 0.462-0.087 0.708-0.087 1.229 0 2.291 0.739 2.765 1.798 1.247 0.378 2.155 1.535 2.155 2.904 0 0.275-0.036 0.54-0.104 0.792 0.388 0.511 0.622 1.148 0.622 1.84z"></path>
</svg>
