<?xml version="1.0" encoding="utf-8"?>
<!-- Generated by IcoMoon.io -->
<!DOCTYPE svg PUBLIC "-//W3C//DTD SVG 1.1//EN" "http://www.w3.org/Graphics/SVG/1.1/DTD/svg11.dtd">
<svg version="1.1" xmlns="http://www.w3.org/2000/svg" xmlns:xlink="http://www.w3.org/1999/xlink" width="32" height="32" viewBox="0 0 32 32">
<path fill="#4493d1" d="M16.042 9.285c0.346 0.326 0.908 0.692 1.748 0.792-0.13 0.602-0.040 1.265 0.269 1.805 0.388 0.678 1.060 1.067 1.844 1.067h2.532c0.721 0 1.58 0.236 1.58 1.358v1.291h0.942v-1.291c0-1.419-0.967-2.3-2.523-2.3h-2.532c-0.568 0-0.871-0.322-1.026-0.593-0.267-0.467-0.27-1.105-0.008-1.55 0.088-0.15 0.086-0.336-0.005-0.485s-0.255-0.233-0.43-0.225c-0.715 0.043-1.317-0.15-1.746-0.555-0.37-0.35-0.583-0.835-0.583-1.333 0-0.654 0.382-1.877 1.807-1.918v1.107h0.942v-0.192c1.331 0.027 2.292 0.922 2.292 2.149 0 0.497-0.204 1.074-0.545 1.544-0.104 0.144-0.119 0.333-0.039 0.491s0.243 0.257 0.42 0.257h1.497c1.95 0 3.001 1.627 3.001 3.159v1.734h0.943v-1.734c0-2.016-1.476-4.101-3.945-4.101h-0.688c0.193-0.443 0.298-0.91 0.298-1.35 0-1.745-1.387-3.063-3.234-3.092v-1.199h-0.943v0.282c-1.805 0.038-2.751 1.456-2.751 2.861 0.001 0.756 0.322 1.492 0.881 2.019z"></path>
<path fill="#4493d1" d="M24.015 16.063h0.942v2.847h-0.942v-2.847z"></path>
<path fill="#4493d1" d="M25.489 16.063h0.942v2.847h-0.942v-2.847z"></path>
<path fill="#4493d1" d="M16.293 0c-8.661 0-15.707 7.046-15.707 15.707s7.046 15.706 15.706 15.706c8.661 0 15.707-7.046 15.707-15.706s-7.046-15.707-15.707-15.707zM28.497 15.707c0 2.672-0.865 5.143-2.328 7.155l-3.941-3.941h1.259v-2.814h-4.073l-10.277-10.277c2.012-1.462 4.484-2.328 7.156-2.328 6.729 0 12.204 5.475 12.204 12.204zM4.089 15.707c0-2.641 0.846-5.087 2.277-7.087l7.487 7.488h-7.954v2.813h10.767l6.712 6.712c-2 1.431-4.446 2.277-7.087 2.277-6.728 0.001-12.203-5.473-12.203-12.203z"></path>
</svg>
