<?xml version="1.0" encoding="utf-8"?>
<!-- Generated by IcoMoon.io -->
<!DOCTYPE svg PUBLIC "-//W3C//DTD SVG 1.1//EN" "http://www.w3.org/Graphics/SVG/1.1/DTD/svg11.dtd">
<svg version="1.1" xmlns="http://www.w3.org/2000/svg" xmlns:xlink="http://www.w3.org/1999/xlink" width="32" height="32" viewBox="0 0 32 32">
<path fill="#4493d1" d="M20.572 4.615c0 2.446-1.983 4.429-4.429 4.429s-4.429-1.983-4.429-4.429c0-2.446 1.983-4.429 4.429-4.429s4.429 1.983 4.429 4.429z"></path>
<path fill="#4493d1" d="M16.136 18.302h-4.682v-3.38l-3.58 3.604c-1.618 1.618-3.811-0.456-2.19-2.077l5.928-5.94c0.481-0.478 1.008-0.782 1.842-0.782h5.316c0.835 0 1.399 0.294 1.894 0.782l5.988 5.998c1.543 1.542-0.709 3.636-2.189 2.078l-3.674-3.682v3.399l-4.654 0z"></path>
<path fill="#4493d1" d="M20.77 20.056l-3.518 3.519 2.582 2.578-2.646 2.647c-1.563 1.563 0.593 3.797 2.208 2.181l4.187-4.352c0.898-0.917 1.147-2.61 0.184-3.573-0.003-0.004-2.996-3-2.996-3z"></path>
<path fill="#4493d1" d="M11.455 20.056l3.519 3.519-2.583 2.578 2.646 2.647c1.563 1.563-0.592 3.797-2.208 2.181l-4.186-4.352c-0.899-0.917-1.147-2.61-0.184-3.573 0.003-0.004 2.995-3 2.995-3z"></path>
</svg>
