<?xml version="1.0" encoding="utf-8"?>
<!-- Generated by IcoMoon.io -->
<!DOCTYPE svg PUBLIC "-//W3C//DTD SVG 1.1//EN" "http://www.w3.org/Graphics/SVG/1.1/DTD/svg11.dtd">
<svg version="1.1" xmlns="http://www.w3.org/2000/svg" xmlns:xlink="http://www.w3.org/1999/xlink" width="32" height="32" viewBox="0 0 32 32">
<path fill="#4493d1" d="M3.842 20.594c0.073-2.454-1.262-3.378-2.89-3.989-0.541 2.099 0.952 3.846 2.89 3.989z"></path>
<path fill="#4493d1" d="M4.211 9.636c1.038-2.223 0.178-3.605-1.080-4.809-1.321 1.716-0.642 3.91 1.080 4.809z"></path>
<path fill="#4493d1" d="M4.796 15.824c-0.072-2.453 1.262-3.38 2.891-3.989 0.539 2.098-0.953 3.845-2.891 3.989z"></path>
<path fill="#4493d1" d="M4.796 19.606c-0.072-2.453 1.262-3.378 2.891-3.987 0.539 2.098-0.953 3.845-2.891 3.987z"></path>
<path fill="#4493d1" d="M4.796 12.043c-0.072-2.454 1.262-3.381 2.891-3.991 0.539 2.1-0.953 3.846-2.891 3.991z"></path>
<path fill="#4493d1" d="M3.842 16.812c0.073-2.453-1.262-3.38-2.89-3.989-0.541 2.098 0.952 3.845 2.89 3.989z"></path>
<path fill="#4493d1" d="M3.842 13.031c0.073-2.454-1.262-3.381-2.89-3.992-0.541 2.101 0.952 3.846 2.89 3.992z"></path>
<path fill="#4493d1" d="M22.226 31.534h-13.156l6.578-11.398 6.577 11.398zM11.685 30.025h7.929l-3.964-6.867-3.964 6.867z"></path>
<path fill="#4493d1" d="M1.921 23.77l27.871-7.582-0.414-1.532-27.873 7.583z"></path>
<path fill="#4493d1" d="M21.588 0.317c0 0 0.204 4.021 3.728 3.68 0 0 0.398-3.359-3.728-3.68z"></path>
<path fill="#4493d1" d="M25.277 13.393c-0.368 0.521-0.982 0.858-1.67 0.858-0.562 0-1.112-0.264-1.483-0.634-0.759-0.828-1.743-2.679-1.743-2.679-0.551-1.12-0.847-1.986-0.847-2.861 0-1.865 1.51-3.483 3.379-3.483 0.921 0 1.752 0.369 2.363 0.965 0.611-0.596 1.441-0.965 2.362-0.965 1.87 0 3.379 1.618 3.379 3.483 0 0.876-0.296 1.741-0.847 2.861 0 0-0.984 1.851-1.743 2.679-0.371 0.37-0.921 0.634-1.483 0.634-0.689-0-1.301-0.337-1.669-0.858z"></path>
</svg>
