<?xml version="1.0" encoding="utf-8"?>
<!-- Generated by IcoMoon.io -->
<!DOCTYPE svg PUBLIC "-//W3C//DTD SVG 1.1//EN" "http://www.w3.org/Graphics/SVG/1.1/DTD/svg11.dtd">
<svg version="1.1" xmlns="http://www.w3.org/2000/svg" xmlns:xlink="http://www.w3.org/1999/xlink" width="32" height="32" viewBox="0 0 32 32">
<path fill="#4493d1" d="M16.086 0.524c-5.559 0-10.085 4.525-10.085 10.084 0 5.562 4.525 10.085 10.085 10.085s10.083-4.523 10.083-10.085c-0-5.558-4.524-10.084-10.083-10.084zM16.086 19.76c-5.045 0-9.153-4.106-9.153-9.151 0-5.044 4.108-9.151 9.153-9.151 5.044 0 9.151 4.107 9.151 9.151s-4.107 9.151-9.151 9.151z"></path>
<path fill="#4493d1" d="M10.865 9.944c0.442 0 1.496 0 1.936 0 0-0.446 0-1.519 0-1.964-0.44 0-1.494 0-1.936 0 0 0.444 0 1.518 0 1.964z"></path>
<path fill="#4493d1" d="M16.095 2.674c-4.378 0-7.938 3.563-7.938 7.938 0 4.377 3.56 7.936 7.938 7.936 4.375 0 7.934-3.559 7.934-7.936-0-4.375-3.559-7.938-7.934-7.938zM10.183 10.633v-3.341h3.318v3.341h-3.318zM13.601 16.74c-0.908 0-1.644-0.735-1.644-1.645 0-0.91 0.736-1.646 1.644-1.646s1.642 0.735 1.642 1.646c0 0.909-0.735 1.645-1.642 1.645zM15.59 13.088c-0.908 0-1.646-0.736-1.646-1.644s0.737-1.646 1.646-1.646c0.906 0 1.642 0.737 1.642 1.646s-0.736 1.644-1.642 1.644zM16.742 6.857c-0.954 0-1.731-0.777-1.731-1.733 0-0.958 0.776-1.732 1.731-1.732 0.957 0 1.731 0.774 1.731 1.732 0 0.956-0.774 1.733-1.731 1.733zM19.615 15.679c-0.911 0-1.646-0.736-1.646-1.644 0-0.909 0.735-1.646 1.646-1.646 0.907 0 1.643 0.736 1.643 1.646s-0.736 1.644-1.643 1.644zM19.963 10.847c-0.907 0-1.644-0.737-1.644-1.646 0-0.91 0.737-1.646 1.644-1.646 0.91 0 1.646 0.735 1.646 1.646 0 0.908-0.736 1.646-1.646 1.646z"></path>
<path fill="#4493d1" d="M3.652 17.774v-6.348c0-0.9-0.737-1.633-1.643-1.633-0.903 0-1.633 0.733-1.633 1.633v8.693c0 1.202 0.432 2.363 1.208 3.27l5.421 5.757c0.538 0.506 0.67 0.955 0.67 1.634v1.048h5.9l0.007-2.494c0-0.95 0.078-2.219-1.111-3.465l-6.878-6.907c-0.245-0.236-0.567-0.365-0.907-0.365-0.72 0-1.305 0.583-1.305 1.302 0 0.31 0.11 0.612 0.311 0.849l3.318 3.554c0.215 0.251 0.579 0.726 0.76 1.308 0.098 0.303 0.125 0.598 0.131 0.936h-1.068c-0.004-0.242-0.022-0.435-0.080-0.614-0.104-0.336-0.313-0.638-0.469-0.832l-3.367-3.696c-0.423-0.427-0.655-0.98-0.655-1.561 0-0.872 0.525-1.675 1.393-2.071z"></path>
<path fill="#4493d1" d="M28.512 17.774v-6.348c0-0.9 0.737-1.633 1.643-1.633 0.903 0 1.633 0.733 1.633 1.633v8.693c0 1.202-0.432 2.363-1.209 3.27l-5.421 5.757c-0.538 0.506-0.67 0.955-0.67 1.634v1.048h-5.9l-0.007-2.494c0-0.95-0.077-2.219 1.111-3.465l6.878-6.907c0.245-0.236 0.567-0.365 0.907-0.365 0.72 0 1.305 0.583 1.305 1.302 0 0.31-0.11 0.612-0.31 0.849l-3.318 3.554c-0.215 0.251-0.579 0.726-0.76 1.308-0.098 0.303-0.125 0.598-0.131 0.936h1.068c0.004-0.242 0.022-0.435 0.080-0.614 0.104-0.336 0.312-0.638 0.469-0.832l3.367-3.696c0.424-0.427 0.656-0.98 0.656-1.561-0-0.872-0.525-1.675-1.393-2.071z"></path>
</svg>
