<?xml version="1.0" encoding="utf-8"?>
<!-- Generated by IcoMoon.io -->
<!DOCTYPE svg PUBLIC "-//W3C//DTD SVG 1.1//EN" "http://www.w3.org/Graphics/SVG/1.1/DTD/svg11.dtd">
<svg version="1.1" xmlns="http://www.w3.org/2000/svg" xmlns:xlink="http://www.w3.org/1999/xlink" width="32" height="32" viewBox="0 0 32 32">
<path fill="#4493d1" d="M15.937 25.124c-6.208 0-11.962-3.101-15.39-8.295l-0.177-0.269 0.177-0.268c3.432-5.194 9.184-8.295 15.39-8.295s11.958 3.102 15.386 8.295l0.177 0.268-0.177 0.266c-3.427 5.197-9.18 8.298-15.386 8.298v0zM16.013 21.176c1.233 0 2.393-0.481 3.267-1.352 0.873-0.872 1.352-2.033 1.352-3.267s-0.48-2.393-1.352-3.267c-0.873-0.872-2.034-1.352-3.267-1.352-1.234 0-2.394 0.48-3.267 1.352-0.871 0.874-1.351 2.033-1.351 3.267 0 2.546 2.070 4.619 4.618 4.619zM29.622 16.561c-2.471-3.427-6.070-5.762-10.116-6.634 2.376 1.254 4.002 3.748 4.002 6.616 0 1.999-0.78 3.878-2.192 5.292-0.568 0.567-1.21 1.026-1.907 1.379 4.086-0.857 7.721-3.2 10.213-6.652zM12.761 23.269c-0.74-0.36-1.425-0.837-2.024-1.435-1.415-1.413-2.194-3.293-2.194-5.292s0.779-3.877 2.194-5.291c0.564-0.564 1.208-1.025 1.903-1.376-4.157 0.825-7.864 3.182-10.392 6.685 2.553 3.536 6.309 5.905 10.513 6.708zM14.412 16.817c0.842 0 1.526-0.683 1.526-1.526s-0.684-1.527-1.526-1.527c-0.844 0-1.526 0.684-1.526 1.527s0.683 1.526 1.526 1.526z"></path>
</svg>
