<?xml version="1.0" encoding="utf-8"?>
<!-- Generated by IcoMoon.io -->
<!DOCTYPE svg PUBLIC "-//W3C//DTD SVG 1.1//EN" "http://www.w3.org/Graphics/SVG/1.1/DTD/svg11.dtd">
<svg version="1.1" xmlns="http://www.w3.org/2000/svg" xmlns:xlink="http://www.w3.org/1999/xlink" width="32" height="32" viewBox="0 0 32 32">
<path fill="#4493d1" d="M14.953 5.539c1.435 0.112 2.694-0.959 2.808-2.394 0.111-1.437-0.963-2.695-2.398-2.808s-2.693 0.959-2.807 2.396c-0.112 1.438 0.958 2.692 2.397 2.807z"></path>
<path fill="#4493d1" d="M15.668 10.77c0.814 0.153 1.426 0.872 1.426 1.732 0 0.974-0.79 1.764-1.764 1.764h-5.716c-0.618 0-1.12-0.501-1.12-1.12 0-0.15 0.030-0.294 0.083-0.425l0.618-1.442 6.883-4.93h-3.28c-1.259-0.035-2.144 0.403-2.652 1.395-0.344 0.668-2.171 4.749-2.171 4.749-0.080 0.202-0.125 0.423-0.125 0.654 0 0.974 0.789 1.764 1.764 1.764h2.232l-0.659 4.33-3.465 10.013c-0.292 0.888 0.191 1.836 1.072 2.13 0.882 0.295 1.838-0.189 2.13-1.073l3.985-11.295c0.777 1.263 2.324 3.526 2.586 3.953 0.061 0.71 0.617 6.974 0.617 6.974 0.085 0.931 0.903 1.609 1.829 1.529 0.927-0.079 1.612-0.902 1.53-1.828l-0.655-7.371c-0.022-0.262-0.107-0.514-0.245-0.736l-2.864-4.642 0.456-5.826c0 0 0.678 2.306 0.729 2.472 0.146 0.476 0.474 0.818 0.81 1.090 0.197 0.157 3.54 2.433 3.54 2.433 0.186 0.086 0.338 0.161 0.537 0.175 0.647 0.053 1.215-0.43 1.267-1.079 0.032-0.416-0.154-0.794-0.46-1.030 0 0-3.332-2.287-3.467-2.387-0.11-0.084-0.197-0.229-0.219-0.305l-1.319-4.749c-0.215-0.719-0.939-1.337-1.854-1.337h-0.394l-1.665 4.421z"></path>
<path fill="#4493d1" d="M15.33 13.621c0.618 0 1.12-0.501 1.12-1.119 0-0.577-0.439-1.047-1-1.107l-0.818 2.233 0.698-0.007z"></path>
</svg>
