<?xml version="1.0" encoding="utf-8"?>
<!-- Generated by IcoMoon.io -->
<!DOCTYPE svg PUBLIC "-//W3C//DTD SVG 1.1//EN" "http://www.w3.org/Graphics/SVG/1.1/DTD/svg11.dtd">
<svg version="1.1" xmlns="http://www.w3.org/2000/svg" xmlns:xlink="http://www.w3.org/1999/xlink" width="32" height="32" viewBox="0 0 32 32">
<path fill="#4493d1" d="M19.288 26.482l-7.266-4.195 0.72-1.245 7.265 4.194z"></path>
<path fill="#4493d1" d="M26.703 28.872c2.101-1.981 3.43-4.767 3.43-7.874 0-3.831-2.010-7.284-5.138-9.224l3.503-6.066-0.551-0.319 0.866-1.5-2.265-1.308-0.866 1.499-0.581-0.334-8.613 14.922 0.754 0.435-1.068 1.85 1.89 1.090 1.069-1.848 0.752 0.435 3.622-6.275c2.224 1.415 3.646 3.895 3.646 6.643 0 4.343-3.533 7.874-7.876 7.874-2.906 0-6.348 0-6.348 0v2.982h17.867v-2.981c-0-0-2.644-0-4.090-0z"></path>
<path fill="#4493d1" d="M8.135 0.578c-4.028 0-7.306 3.278-7.306 7.304 0 4.029 3.278 7.306 7.306 7.306 4.027 0 7.303-3.277 7.303-7.306 0-4.026-3.277-7.304-7.303-7.304zM8.135 14.511c-3.655 0-6.63-2.974-6.63-6.629 0-3.654 2.976-6.629 6.63-6.629 3.653 0 6.628 2.975 6.628 6.629 0 3.655-2.975 6.629-6.628 6.629z"></path>
<path fill="#4493d1" d="M4.354 7.401c0.321 0 1.083 0 1.402 0 0-0.322 0-1.1 0-1.422-0.319 0-1.082 0-1.402 0 0 0.322 0 1.1 0 1.422z"></path>
<path fill="#4493d1" d="M8.141 2.135c-3.171 0-5.75 2.581-5.75 5.751s2.579 5.747 5.75 5.747c3.169 0 5.747-2.577 5.747-5.747s-2.579-5.751-5.747-5.751zM3.86 7.901v-2.42h2.403v2.42h-2.403zM6.335 12.325c-0.657 0-1.191-0.533-1.191-1.191 0-0.66 0.533-1.193 1.191-1.193s1.19 0.533 1.19 1.193c0 0.658-0.533 1.191-1.19 1.191zM7.776 9.678c-0.658 0-1.192-0.533-1.192-1.191s0.534-1.192 1.192-1.192c0.657 0 1.19 0.534 1.19 1.192s-0.533 1.191-1.19 1.191zM8.61 5.166c-0.692 0-1.254-0.564-1.254-1.256 0-0.695 0.562-1.254 1.254-1.254s1.254 0.559 1.254 1.254c0 0.691-0.561 1.256-1.254 1.256zM10.691 11.555c-0.66 0-1.193-0.533-1.193-1.192s0.532-1.191 1.193-1.191c0.656 0 1.19 0.533 1.19 1.191s-0.533 1.192-1.19 1.192zM10.944 8.055c-0.658 0-1.191-0.534-1.191-1.192 0-0.659 0.533-1.192 1.191-1.192s1.193 0.533 1.193 1.192c-0 0.658-0.534 1.192-1.193 1.192z"></path>
</svg>
