<?xml version="1.0" encoding="utf-8"?>
<!-- Generated by IcoMoon.io -->
<!DOCTYPE svg PUBLIC "-//W3C//DTD SVG 1.1//EN" "http://www.w3.org/Graphics/SVG/1.1/DTD/svg11.dtd">
<svg version="1.1" xmlns="http://www.w3.org/2000/svg" xmlns:xlink="http://www.w3.org/1999/xlink" width="32" height="32" viewBox="0 0 32 32">
<path fill="#4493d1" d="M13.421 7.76c0.433 0 0.786-0.35 0.786-0.786 0-0.432-0.352-0.785-0.786-0.785s-0.786 0.352-0.786 0.785c0 0.436 0.352 0.786 0.786 0.786zM14.716 10.602c-0.533 0-0.822-0.542-0.824-0.547-0.123-0.234-0.411-0.325-0.645-0.202-0.232 0.12-0.325 0.407-0.206 0.641 0.021 0.042 0.549 1.066 1.675 1.066 0.441 0 0.807-0.094 1.102-0.272 0.281 0.194 0.645 0.299 1.090 0.299 1.030 0 1.516-1.072 1.537-1.117 0.027-0.062 0.042-0.127 0.042-0.192 0-0.184-0.107-0.359-0.284-0.437-0.116-0.053-0.246-0.058-0.365-0.012-0.119 0.044-0.214 0.136-0.267 0.253-0.001 0.004-0.257 0.548-0.662 0.548-0.358 0-0.517-0.091-0.583-0.149 0-0.098 0-0.605 0-0.809 0.321-0.061 0.572-0.346 0.572-0.691 0-0.398-0.323-0.737-0.703-0.737l-0.666 0.006c-0.403 0-0.73 0.329-0.73 0.731 0 0.346 0.243 0.639 0.57 0.714 0 0.193 0 0.641 0 0.753-0.086 0.062-0.276 0.154-0.651 0.154zM10.053 0.403c2.423-0.118 2.888 1.675 2.888 1.675s1.124-0.687 2.879-0.687c1.755 0 2.877 0.687 2.877 0.687s0.466-1.794 2.889-1.675c1.412 0.068 2.564 1.248 2.564 2.661 0 1.324-0.871 3.101-2.292 3.146l-0.18 0.005c0.040 0.241 0.056 0.912 0.056 1.089 0 3.262-2.654 5.918-5.914 5.918-3.261 0-5.915-2.656-5.915-5.918 0-0.177 0.014-0.848 0.057-1.089l-0.183-0.005c-1.419-0.045-2.289-1.822-2.289-3.146-0-1.414 1.151-2.594 2.563-2.661zM12.615 20.932v-2.343h2.072v-2.072h2.341v2.072h2.074v2.344h-2.074v2.072h-2.341v-2.072l-2.072-0zM5.077 20.646c-0.105-2.639 1.302-4.828 2.691-6.623l0.191-0.255c0.456-0.617 0.755-1.025 2.141-0.929 1.061 0.076 2.132 0.867 2.132 2.237 0 0.003 0 0.006 0 0.011-0.004 0.824-0.543 1.564-1.112 2.344-0.693 0.949-1.477 2.023-1.477 3.483 0 0.418 0.092 0.742 0.182 1.052 0.086 0.306 0.168 0.592 0.168 0.962 0 1.259-1.064 2.283-2.37 2.283-1.57 0-2.426-1.536-2.546-4.565zM11.981 31.595c-1.735 0-3.146-1.41-3.146-3.144s1.412-3.144 3.146-3.144c1.733 0 3.144 1.41 3.144 3.144s-1.411 3.144-3.144 3.144zM19.712 31.595c-1.734 0-3.146-1.41-3.146-3.144s1.412-3.144 3.146-3.144c1.735 0 3.147 1.41 3.147 3.144s-1.412 3.144-3.147 3.144zM24.016 25.211c-1.307 0-2.37-1.024-2.37-2.283 0-0.37 0.082-0.657 0.169-0.962 0.090-0.309 0.182-0.634 0.182-1.052 0-1.461-0.784-2.535-1.477-3.483-0.57-0.781-1.108-1.52-1.112-2.344 0-0.004 0-0.008 0-0.011 0-1.37 1.070-2.162 2.132-2.237 1.383-0.096 1.685 0.312 2.139 0.929l0.193 0.255c1.389 1.795 2.793 3.985 2.691 6.623-0.121 3.028-0.978 4.565-2.547 4.565zM18.229 7.76c0.434 0 0.787-0.35 0.787-0.786 0-0.432-0.352-0.785-0.787-0.785-0.432 0-0.785 0.352-0.785 0.785 0 0.436 0.352 0.786 0.785 0.786z"></path>
</svg>
