<?xml version="1.0" encoding="utf-8"?>
<!-- Generated by IcoMoon.io -->
<!DOCTYPE svg PUBLIC "-//W3C//DTD SVG 1.1//EN" "http://www.w3.org/Graphics/SVG/1.1/DTD/svg11.dtd">
<svg version="1.1" xmlns="http://www.w3.org/2000/svg" xmlns:xlink="http://www.w3.org/1999/xlink" width="32" height="32" viewBox="0 0 32 32">
<path fill="#4493d1" d="M20.646 15.846h-1.116l-1.176 2.13-1.545-2.827c0.774-0.501 1.189-1.383 1.189-2.514 0-1.72-0.847-2.933-2.776-2.933h-3.192v10.070h1.609v-4.161h1.411c0.118 0 0.219-0.018 0.33-0.027l2.142 3.9-1.776 3.216h1.125l1.211-2.198 1.207 2.197h1.649l-2.026-3.705 1.734-3.149zM14.781 14.398h-1.142v-3.483h1.032c1.283 0 1.719 0.664 1.719 1.749 0 1.269-0.747 1.735-1.609 1.735z"></path>
<path fill="#4493d1" d="M9.215 30.93c0 0.589 0.493 1.070 1.102 1.070h12.083c0.609 0 1.1-0.481 1.1-1.070v-24.36h-14.284v24.36zM10.632 8.157h11.461v15.773h-11.461v-15.773z"></path>
<path fill="#4493d1" d="M8.515 5.533h15.681c0.319 0 0.575-0.25 0.575-0.561v-4.065c0-0.31-0.256-0.559-0.575-0.559h-15.681c-0.317 0-0.576 0.249-0.576 0.559v4.065c0 0.311 0.259 0.561 0.576 0.561zM22.723 1.078h0.775v3.711h-0.775v-3.711zM20.992 1.078h0.772v3.711h-0.772v-3.711zM19.257 1.078h0.776v3.711h-0.776v-3.711z"></path>
</svg>
