<?xml version="1.0" encoding="utf-8"?>
<!-- Generated by IcoMoon.io -->
<!DOCTYPE svg PUBLIC "-//W3C//DTD SVG 1.1//EN" "http://www.w3.org/Graphics/SVG/1.1/DTD/svg11.dtd">
<svg version="1.1" xmlns="http://www.w3.org/2000/svg" xmlns:xlink="http://www.w3.org/1999/xlink" width="32" height="32" viewBox="0 0 32 32">
<path fill="#4493d1" d="M15.413 9.612c1.628 0 2.946-1.317 2.946-2.94s-1.318-2.94-2.946-2.94c-1.627 0-2.946 1.316-2.946 2.94s1.319 2.94 2.946 2.94z"></path>
<path fill="#4493d1" d="M24.39 29.49c0 0-22.903 0-23.487 0-0.661 0-0.593 0.52-0.593 0.52v0.865c0 0-0.060 1.125 1.095 1.125 0.882 0 29.408 0 29.408 0 1.163 0 1.1-1.098 1.1-1.098v-2.397c0 0-0.098-0.758-0.99-0.758h-2.866c-0.982 0-1.794 1.743-3.666 1.743z"></path>
<path fill="#4493d1" d="M26.674 24.179c0 1.461 1.189 2.648 2.654 2.648s2.656-1.187 2.656-2.648c0-1.466-1.192-2.649-2.656-2.649s-2.654 1.182-2.654 2.649z"></path>
<path fill="#4493d1" d="M17.999 19.128c-0.175 0.527-0.573 0.971-1.134 1.18l-2.364 0.876 0.872 0.865h3.99l-0.002-6.107-1.335 3.149c-0.007 0.015-0.019 0.023-0.026 0.037z"></path>
<path fill="#4493d1" d="M23.729 23.501h-8.25l-1.989-1.942-1.384 0.51c-1.027 0.367-2.277-0.193-2.663-1.214-0.227-0.634-0.196-1.341 0.184-1.857-0.169-0.008-5.004 0-5.004 0-0.804 0-1.458 0.647-1.458 1.449 0 0.804 0.654 1.431 1.458 1.431h4.922l1.952 2.954-10.076 0.809c-0.645 0.149-1.127 0.726-1.127 1.416 0 0.804 0.65 1.457 1.452 1.457l11.304 0.001c-0.196-0.318-0.315-0.688-0.315-1.088 0-1.151 0.936-2.086 2.086-2.086h4.523l3.666-0.766 0.204 0.974-3.766 0.787h-4.626c-0.603 0-1.092 0.488-1.092 1.092 0 0.595 0.476 1.076 1.070 1.088l8.949 0.001c1.385-0.011 2.496-1.127 2.496-2.507-0-1.385-1.121-2.511-2.516-2.511z"></path>
<path fill="#4493d1" d="M11.931 21.158c-0.584 0.254-1.264-0.010-1.519-0.592-0.257-0.585 0.009-1.264 0.593-1.52l4.2-1.577 1.298-3.096-0.846-0.313-1.104 2.651-3.197 1.178v-3.241l-3.126 3.414-3.537-0.003c0 0 6.19-6.785 6.383-6.988 0.257-0.255 0.843-0.676 1.949-0.676h3.974c2.258 0 2.693 2.251 2.23 3.416l-2.079 5.041c-0.128 0.29-0.368 0.522-0.669 0.63l-4.553 1.676z"></path>
</svg>
