<?xml version="1.0" encoding="utf-8"?>
<!-- Generated by IcoMoon.io -->
<!DOCTYPE svg PUBLIC "-//W3C//DTD SVG 1.1//EN" "http://www.w3.org/Graphics/SVG/1.1/DTD/svg11.dtd">
<svg version="1.1" xmlns="http://www.w3.org/2000/svg" xmlns:xlink="http://www.w3.org/1999/xlink" width="32" height="32" viewBox="0 0 32 32">
<path fill="#4493d1" d="M25.29 28.31c0 0.827-0.67 1.495-1.495 1.495-0.826 0-1.495-0.668-1.495-1.495v-1.304h2.989l0.001 1.304z"></path>
<path fill="#4493d1" d="M21.345 31.862h-4.251l0.006-2.098h-1.424l-0.002 2.098h-4.26v-4.856h9.931z"></path>
<path fill="#4493d1" d="M10.426 28.31c0 0.827-0.669 1.495-1.496 1.495-0.824 0-1.494-0.668-1.494-1.495v-1.304h2.989v1.304z"></path>
<path fill="#4493d1" d="M16.364 0.352c2.133 0 3.861 1.729 3.861 3.863s-1.728 3.862-3.861 3.862c-2.134 0-3.864-1.729-3.864-3.862s1.729-3.863 3.864-3.863z"></path>
<path fill="#4493d1" d="M27.349 25.501h-21.97v-12.839h21.97v12.839zM23.917 13.721h-15.024v10.736h15.023v-10.736z"></path>
<path fill="#4493d1" d="M17.094 20.068v0.942h2.751c0.114 0 0.283 0.103 0.283 0.281 0 1.605-0.201 2.361-1.046 2.361-0.877 0-1.057-1.899-1.988-2.024 0 0 0 1.423 0 1.817h-1.47c0-0.394 0-1.82 0-1.82-0.977 0.074-1.134 2.027-2.045 2.027-0.845 0-1-0.756-1-2.361 0-0.178 0.168-0.281 0.283-0.281h2.763v-0.942h-2.861c-0.166 0-0.299-0.133-0.299-0.297s0.132-0.297 0.299-0.297h2.861v-0.942h-3.22c-0.164 0-0.298-0.132-0.298-0.298 0-0.163 0.133-0.298 0.298-0.298h3.22v-0.941h-3.022c-0.164 0-0.298-0.132-0.298-0.298 0-0.163 0.134-0.299 0.298-0.299h3.022v-0.941h-2.367c-0.165 0-0.298-0.134-0.298-0.297 0-0.166 0.133-0.3 0.298-0.3h2.367v-0.521h1.47v0.521h2.368c0.164 0 0.298 0.134 0.298 0.3 0 0.162-0.133 0.297-0.298 0.297h-2.368v0.94h3.031c0.165 0 0.299 0.136 0.299 0.299 0 0.165-0.133 0.298-0.299 0.298h-3.031v0.941h3.229c0.164 0 0.298 0.135 0.298 0.298 0 0.165-0.134 0.298-0.298 0.298h-3.229v0.942h2.861c0.164 0 0.298 0.133 0.298 0.297s-0.133 0.297-0.298 0.297l-2.861 0.001z"></path>
<path fill="#4493d1" d="M20.865 9.022h-8.874c-1.605 0-3.091 0.856-3.926 2.134h16.597c-0.782-1.277-2.192-2.134-3.797-2.134z"></path>
</svg>
