<?xml version="1.0" encoding="utf-8"?>
<!-- Generated by IcoMoon.io -->
<!DOCTYPE svg PUBLIC "-//W3C//DTD SVG 1.1//EN" "http://www.w3.org/Graphics/SVG/1.1/DTD/svg11.dtd">
<svg version="1.1" xmlns="http://www.w3.org/2000/svg" xmlns:xlink="http://www.w3.org/1999/xlink" width="32" height="32" viewBox="0 0 32 32">
<path fill="#4493d1" d="M23.202 15.463h-3.608v-4.223c1.427-1.123 2.346-2.867 2.346-4.823 0-3.39-2.747-6.137-6.136-6.137-2.785 0-5.352 2.090-5.884 4.393-0.119 0.51-0.253 1.848-0.253 1.848l-1.28 3.229c-0.025 0.057-0.038 0.123-0.038 0.193 0 0.271 0.218 0.49 0.49 0.493 0.137-0.276 0.443-0.447 0.766-0.383 0.382 0.070 0.632 0.44 0.556 0.822-0.048 0.264-0.246 0.464-0.495 0.537v0.739c0 1.336 1.084 2.419 2.419 2.419h0.962v0.893h-3.909c-4.492-0.003-7.433 3.297-7.433 6.668v9.41l4.946-0.002v-8.146h1.424v8.146l15.783 0.002v-8.148h1.46v8.148l4.839-0.002 0.004-10.296c0.001-2.565-2.54-5.783-6.957-5.78zM11.153 9.095c-0.12 0.098-0.279 0.152-0.431 0.152-0.218 0-0.424-0.098-0.555-0.273-0.12-0.147-0.169-0.332-0.147-0.517 0.021-0.191 0.119-0.354 0.266-0.469 0.294-0.234 0.757-0.179 0.986 0.115 0.12 0.152 0.169 0.337 0.147 0.522s-0.114 0.354-0.266 0.469zM13.249 8.605v0.016l-0.153-0.011c-0.386-0.033-0.675-0.375-0.642-0.762 0.033-0.359 0.338-0.648 0.703-0.648l0.060 0.005c0.185 0.016 0.359 0.103 0.48 0.245 0.119 0.148 0.18 0.328 0.163 0.518-0.027 0.331-0.288 0.599-0.609 0.637zM14.778 9.492c-0.108-0.152-0.152-0.337-0.119-0.522s0.131-0.349 0.288-0.457c0.305-0.218 0.762-0.136 0.98 0.168 0.223 0.322 0.147 0.763-0.169 0.986-0.12 0.082-0.262 0.126-0.408 0.126-0.229 0-0.441-0.108-0.572-0.3zM15.992 14.833c-0.386 0-0.702-0.316-0.702-0.702 0-0.387 0.316-0.703 0.702-0.703 0.392 0 0.708 0.316 0.708 0.703 0 0.386-0.316 0.702-0.708 0.702zM15.992 12.252c-0.386 0-0.702-0.316-0.702-0.707 0-0.387 0.316-0.703 0.702-0.703 0.392 0 0.708 0.316 0.708 0.703 0 0.391-0.316 0.707-0.708 0.707zM18.953 18.391c2.561-0.089 4.023 5.661 3.142 11.030-0.519 2.278-1.878-0.059-3.072-0.261-1.322-0.223-2.066-0.377-2.129-1.070-0.229-2.508 0.732-9.651 2.059-9.699zM15.079 28.072c-0.063 0.69-0.806 0.844-2.128 1.067-1.194 0.202-2.62 2.675-3.072 0.261-0.881-5.37 0.583-11.12 3.14-11.029 1.329 0.049 2.289 7.19 2.060 9.701zM16.924 19.825c-0.261 0-0.501-0.147-0.626-0.381-0.179-0.344-0.043-0.768 0.3-0.948 0.337-0.174 0.778-0.033 0.953 0.3 0.086 0.163 0.103 0.353 0.042 0.533-0.054 0.179-0.173 0.328-0.343 0.415-0.097 0.055-0.212 0.081-0.326 0.081v0zM15.992 17.419c-0.326 0-0.604-0.223-0.686-0.539-0.044-0.185-0.011-0.375 0.087-0.533 0.098-0.164 0.251-0.272 0.436-0.316 0.37-0.092 0.755 0.147 0.849 0.517 0.092 0.375-0.142 0.757-0.517 0.85-0.054 0.011-0.115 0.021-0.169 0.021v0zM15.062 19.825c-0.11 0-0.223-0.027-0.327-0.081-0.343-0.18-0.473-0.605-0.294-0.947 0.174-0.333 0.616-0.474 0.947-0.3 0.169 0.087 0.288 0.234 0.349 0.414 0.054 0.179 0.037 0.37-0.050 0.539-0.119 0.234-0.359 0.375-0.626 0.375v0z"></path>
<path fill="#4493d1" d="M20.364 28.988c0.245 0 0.478-0.131 0.604-0.337 0.201-0.338 0.093-0.767-0.239-0.97-0.321-0.196-0.773-0.076-0.97 0.24-0.092 0.163-0.125 0.348-0.076 0.533 0.044 0.186 0.157 0.337 0.321 0.435 0.108 0.066 0.233 0.098 0.359 0.098v0z"></path>
<path fill="#4493d1" d="M21.099 26.543c0.375 0 0.686-0.299 0.702-0.674 0.017-0.392-0.288-0.719-0.702-0.736-0.382 0-0.691 0.3-0.708 0.675-0.005 0.19 0.059 0.37 0.185 0.506 0.131 0.136 0.305 0.218 0.495 0.229h0.027v-0z"></path>
<path fill="#4493d1" d="M20.565 24.045c0.115 0 0.218-0.027 0.316-0.076 0.349-0.175 0.49-0.594 0.315-0.942-0.163-0.338-0.599-0.49-0.942-0.321-0.169 0.087-0.293 0.229-0.354 0.408-0.059 0.18-0.049 0.37 0.038 0.539 0.12 0.239 0.359 0.391 0.626 0.391v0z"></path>
<path fill="#4493d1" d="M18.904 22.101c0.229 0 0.441-0.109 0.577-0.299 0.218-0.315 0.141-0.757-0.174-0.98-0.304-0.218-0.762-0.136-0.979 0.169-0.223 0.321-0.148 0.762 0.168 0.986 0.12 0.082 0.261 0.124 0.408 0.124v0z"></path>
<path fill="#4493d1" d="M11.621 28.988c0.131 0 0.255-0.032 0.365-0.098 0.157-0.098 0.272-0.25 0.321-0.435 0.043-0.18 0.016-0.371-0.082-0.529-0.196-0.321-0.648-0.435-0.969-0.246-0.159 0.099-0.272 0.251-0.321 0.436-0.044 0.179-0.017 0.37 0.082 0.533 0.124 0.213 0.358 0.337 0.604 0.337v0z"></path>
<path fill="#4493d1" d="M10.891 26.543h0.027c0.387-0.016 0.686-0.342 0.675-0.735-0.016-0.375-0.316-0.675-0.735-0.675-0.185 0.011-0.36 0.087-0.49 0.229-0.125 0.136-0.19 0.316-0.185 0.507 0.017 0.375 0.326 0.674 0.708 0.674v0z"></path>
<path fill="#4493d1" d="M11.413 24.045c0.272 0 0.518-0.152 0.637-0.391 0.082-0.169 0.092-0.359 0.033-0.539s-0.185-0.321-0.354-0.408c-0.342-0.17-0.778-0.017-0.942 0.321-0.087 0.169-0.098 0.359-0.037 0.539 0.060 0.174 0.185 0.321 0.353 0.403 0.098 0.049 0.207 0.075 0.31 0.075v0z"></path>
<path fill="#4493d1" d="M13.080 22.101c0.147 0 0.288-0.042 0.408-0.125 0.316-0.223 0.392-0.665 0.169-0.986-0.218-0.305-0.675-0.387-0.98-0.169-0.157 0.11-0.256 0.272-0.288 0.457s0.005 0.371 0.114 0.523c0.136 0.191 0.349 0.299 0.577 0.299v0z"></path>
</svg>
