<?xml version="1.0" encoding="utf-8"?>
<!-- Generated by IcoMoon.io -->
<!DOCTYPE svg PUBLIC "-//W3C//DTD SVG 1.1//EN" "http://www.w3.org/Graphics/SVG/1.1/DTD/svg11.dtd">
<svg version="1.1" xmlns="http://www.w3.org/2000/svg" xmlns:xlink="http://www.w3.org/1999/xlink" width="32" height="32" viewBox="0 0 32 32">
<path fill="#4493d1" d="M8.996 3.004c0 1.374-1.114 2.488-2.488 2.488s-2.488-1.114-2.488-2.488c0-1.374 1.114-2.488 2.488-2.488s2.488 1.114 2.488 2.488z"></path>
<path fill="#4493d1" d="M12.385 10.046v-1.257c0-1.322-1.071-2.394-2.394-2.394h-6.975c-1.322 0-2.394 1.072-2.394 2.394v1.257c-0.002 0.028-0.004 0.058-0.004 0.087v7.238c0 0.562 0.456 1.018 1.018 1.018 0.561 0 1.018-0.455 1.018-1.018v-7.13h0.682v8.148h0.005v11.514c0 0.749 0.608 1.357 1.357 1.357 0.75 0 1.358-0.608 1.358-1.357v-11.514h0.896v11.514c0 0.749 0.608 1.357 1.357 1.357s1.357-0.608 1.357-1.357v-11.514h0.004v-8.148h0.682v7.13c0 0.562 0.457 1.018 1.018 1.018s1.018-0.455 1.018-1.018v-7.238c0-0.030-0.001-0.059-0.004-0.087z"></path>
<path fill="#4493d1" d="M24.357 5.331c1.373 0 2.487-1.113 2.487-2.487s-1.114-2.489-2.487-2.489c-1.375 0-2.489 1.114-2.489 2.489s1.114 2.487 2.489 2.487z"></path>
<path fill="#4493d1" d="M31.333 16.058l-2.232-8.279c-0.021-0.075-0.050-0.147-0.086-0.213-0.253-0.776-0.981-1.337-1.841-1.337h-5.649c-0.896 0-1.649 0.61-1.871 1.437-0.015 0.036-0.028 0.074-0.039 0.113l-2.192 8.278c-0.146 0.543 0.176 1.101 0.72 1.247s1.101-0.177 1.247-0.72l1.722-6.503h0.717l-3.126 11.766h2.944v8.123c0 0.625 0.506 1.131 1.131 1.131 0.624 0 1.13-0.506 1.13-1.131v-8.123h0.9v8.123c0 0.625 0.506 1.131 1.132 1.131 0.624 0 1.131-0.506 1.131-1.131v-8.123h2.943l-3.137-11.766h0.736l1.753 6.503c0.146 0.543 0.704 0.865 1.247 0.72s0.865-0.704 0.72-1.247z"></path>
<path fill="#4493d1" d="M14.373 0.408h1.755v30.691h-1.755v-30.691z"></path>
</svg>
