<?xml version="1.0" encoding="utf-8"?>
<!-- Generated by IcoMoon.io -->
<!DOCTYPE svg PUBLIC "-//W3C//DTD SVG 1.1//EN" "http://www.w3.org/Graphics/SVG/1.1/DTD/svg11.dtd">
<svg version="1.1" xmlns="http://www.w3.org/2000/svg" xmlns:xlink="http://www.w3.org/1999/xlink" width="32" height="32" viewBox="0 0 32 32">
<path fill="#4493d1" d="M15.228 10.383c0 1.012-0.922 2.095-2.118 2.095v17.082c0 2.425-3.305 2.425-3.305 0v-17.082c-1.164 0-2.177-0.896-2.177-2.24v-9.401c0-0.818 1.182-0.849 1.182 0.032v6.949h0.99v-7.013c0-0.752 1.139-0.799 1.139 0.032v6.981h1.023v-7.004c0-0.786 1.105-0.817 1.105 0.031v6.972h1.007v-7.004c0-0.778 1.155-0.809 1.155 0.031v9.537z"></path>
<path fill="#4493d1" d="M24.044 3.023v26.529c0 2.372-3.312 2.336-3.312 0v-10.527h-1.763v-16.003c0-3.726 5.075-3.726 5.075 0z"></path>
</svg>
