<?xml version="1.0" encoding="utf-8"?>
<!-- Generated by IcoMoon.io -->
<!DOCTYPE svg PUBLIC "-//W3C//DTD SVG 1.1//EN" "http://www.w3.org/Graphics/SVG/1.1/DTD/svg11.dtd">
<svg version="1.1" xmlns="http://www.w3.org/2000/svg" xmlns:xlink="http://www.w3.org/1999/xlink" width="32" height="32" viewBox="0 0 32 32">
<path fill="#4493d1" d="M15.347 16.087c-0.584 0.544-5.264 5.085-5.264 5.085l1.249 1.232c0 0 4.158-3.838 4.783-4.418 0.154-0.143 0.416-0.416 0.9-0.416h14.182v-1.964h-14.676c-0.429 0-0.836 0.168-1.174 0.481z"></path>
<path fill="#4493d1" d="M23.75 5.412c1.663 0 2.571-1.152 2.571-2.57s-1.152-2.569-2.571-2.569c-1.419 0-2.57 1.151-2.57 2.569s1.151 2.57 2.57 2.57z"></path>
<path fill="#4493d1" d="M19.938 9.829h0.862l-1.263 4.538h8.425l-1.264-4.538h0.862l1.311 4.538h2.227l-1.79-6.021c-0.236-0.831-1.288-2.304-3.109-2.304h-4.901c-1.819 0-2.87 1.473-3.109 2.304l-1.788 6.021h2.227l1.308-4.538z"></path>
<path fill="#4493d1" d="M12.652 14.128l-2.262-4.219c0 0-0.133-0.201-0.379-0.082-0.222 0.107-0.122 0.357-0.122 0.357l0.751 1.432 0.467 0.892-0.538-0.242c-0.954-0.43-1.48-0.614-1.691-0.708-0.037-0.017-0.223-0.119-0.31-0.312-0.25-0.559-1.318-3.261-1.557-3.858-0.202-0.505-0.702-1.223-1.729-1.478-1.168-0.289-2.346 0.448-2.625 1.621l-1.595 6.721c-0.142 0.542-0.386 2.008-0.386 2.626s0.010 13.127 0.010 13.127c0.008 1.107 0.807 2 1.914 1.996 1.105-0.003 1.861-0.904 1.858-2.010 0 0-0.001-7.149-0.003-11.121l1.7-7.178c0.198 0.486 0.444 1.077 0.525 1.219 0.192 0.335 0.38 0.566 0.767 0.747 0 0 2.226 0.921 3.087 1.314 0.519 0.199 1.082 0.023 1.41-0.391l0.119-0.246 0.041 0.078c0 0 0.254 0.446 0.628 0.467 0.107-0.341-0.080-0.752-0.080-0.752z"></path>
<path fill="#4493d1" d="M9.211 2.819c0 1.42-1.151 2.571-2.571 2.571s-2.57-1.152-2.57-2.571c0-1.42 1.151-2.57 2.57-2.57s2.571 1.151 2.571 2.57z"></path>
<path fill="#4493d1" d="M10.369 19.593l5.009-4.662-0.651-0.699-5.009 4.663z"></path>
</svg>
