<?xml version="1.0" encoding="utf-8"?>
<!-- Generated by IcoMoon.io -->
<!DOCTYPE svg PUBLIC "-//W3C//DTD SVG 1.1//EN" "http://www.w3.org/Graphics/SVG/1.1/DTD/svg11.dtd">
<svg version="1.1" xmlns="http://www.w3.org/2000/svg" xmlns:xlink="http://www.w3.org/1999/xlink" width="32" height="32" viewBox="0 0 32 32">
<path fill="#4493d1" d="M0.34 21.382h26.65v4.263h-26.65v-4.263z"></path>
<path fill="#4493d1" d="M29.217 20.609h-1.429v-1.956c0-1.7-1.302-2.057-2.396-2.057h-3.835c-1.188 0-2.207-0.59-2.795-1.618-0.467-0.818-0.603-1.822-0.407-2.735-1.272-0.15-2.125-0.705-2.649-1.199-0.847-0.799-1.332-1.914-1.332-3.060 0-2.157 1.469-4.341 4.276-4.341v1.428c-2.252 0-2.848 1.905-2.848 2.912 0 0.754 0.322 1.491 0.884 2.021 0.65 0.613 1.566 0.903 2.645 0.84 0.276-0.017 0.514 0.115 0.651 0.341 0.138 0.225 0.14 0.508 0.006 0.735-0.397 0.675-0.392 1.641 0.013 2.349 0.234 0.41 0.694 0.898 1.555 0.898h3.835c2.359 0 3.824 1.335 3.824 3.485v1.956z"></path>
<path fill="#4493d1" d="M31.441 20.609h-1.428v-2.626c0-2.32-1.594-4.786-4.549-4.786h-2.268c-0.268 0-0.514-0.15-0.636-0.389s-0.1-0.527 0.058-0.744c0.517-0.713 0.826-1.588 0.826-2.34 0-1.889-1.499-3.26-3.563-3.26v-1.428c2.846 0 4.991 2.015 4.991 4.688 0 0.667-0.159 1.373-0.451 2.045h1.043c3.742 0 5.977 3.16 5.977 6.214v2.626z"></path>
<path fill="#4493d1" d="M27.788 21.314h1.429v4.313h-1.429v-4.313z"></path>
<path fill="#4493d1" d="M30.021 21.314h1.428v4.313h-1.428v-4.313z"></path>
</svg>
