<?xml version="1.0" encoding="utf-8"?>
<!-- Generated by IcoMoon.io -->
<!DOCTYPE svg PUBLIC "-//W3C//DTD SVG 1.1//EN" "http://www.w3.org/Graphics/SVG/1.1/DTD/svg11.dtd">
<svg version="1.1" xmlns="http://www.w3.org/2000/svg" xmlns:xlink="http://www.w3.org/1999/xlink" width="32" height="32" viewBox="0 0 32 32">
<path fill="#4493d1" d="M28.412 17.781v-6.26c0-0.888 0.727-1.611 1.621-1.611 0.89 0 1.611 0.723 1.611 1.611v8.573c0 1.185-0.426 2.33-1.192 3.225l-5.346 5.677c-0.531 0.499-0.661 0.942-0.661 1.611v1.033h-5.818l-0.006-2.459c0-0.936-0.076-2.188 1.095-3.416l6.783-6.811c0.242-0.233 0.559-0.36 0.894-0.36 0.71 0 1.287 0.576 1.287 1.284 0 0.306-0.108 0.603-0.306 0.837l-3.272 3.504c-0.212 0.249-0.571 0.717-0.749 1.291-0.096 0.298-0.124 0.589-0.129 0.922h1.053c0.004-0.237 0.022-0.429 0.079-0.605 0.103-0.331 0.308-0.629 0.463-0.82l3.321-3.645c0.418-0.421 0.646-0.966 0.646-1.539-0-0.861-0.517-1.652-1.374-2.042z"></path>
<path fill="#4493d1" d="M3.899 17.781v-6.26c0-0.888-0.727-1.611-1.62-1.611-0.89 0-1.611 0.723-1.611 1.611v8.573c0 1.185 0.426 2.33 1.192 3.225l5.346 5.677c0.53 0.499 0.66 0.942 0.66 1.611v1.033h5.818l0.007-2.459c0-0.936 0.076-2.188-1.096-3.416l-6.783-6.811c-0.242-0.233-0.558-0.36-0.894-0.36-0.71 0-1.287 0.576-1.287 1.284 0 0.306 0.108 0.603 0.306 0.837l3.272 3.504c0.212 0.249 0.571 0.717 0.749 1.291 0.096 0.298 0.124 0.589 0.129 0.922h-1.053c-0.004-0.237-0.022-0.429-0.079-0.605-0.103-0.331-0.308-0.629-0.462-0.82l-3.321-3.645c-0.418-0.421-0.646-0.966-0.646-1.539 0-0.861 0.517-1.652 1.374-2.042z"></path>
<path fill="#4493d1" d="M16.768 3.061c0.763 0 1.381-0.619 1.381-1.382 0-0.761-0.618-1.381-1.381-1.381s-1.38 0.62-1.38 1.381c-0 0.763 0.618 1.382 1.38 1.382z"></path>
<path fill="#4493d1" d="M9.275 3.069c-0.774 0-1.401-0.621-1.401-1.391 0-0.768 0.627-1.39 1.401-1.39s1.403 0.622 1.403 1.39c0 0.77-0.629 1.391-1.403 1.391z"></path>
<path fill="#4493d1" d="M23.631 8.401c0.535 0 0.969-0.434 0.969-0.969s-0.434-0.969-0.969-0.969c-0.536 0-0.97 0.434-0.97 0.969s0.434 0.969 0.97 0.969z"></path>
<path fill="#4493d1" d="M25.033 8.879c-0.341 0-2.283 0-2.613 0-0.012 0-0.875-0.079-0.875-0.079l-1.094-3.815c-0.441-1.536-1.729-1.489-1.729-1.489h-3.543c0 0-1.287-0.047-1.728 1.489l-0.54 1.878-0.539-1.878c-0.443-1.536-1.728-1.489-1.728-1.489h-2.741c0 0-1.288-0.047-1.729 1.489l-1.104 3.845c-0.105 0.36 0.092 0.633 0.407 0.724 0.314 0.090 0.635-0.069 0.716-0.355l1.075-3.747 0.524-0.001-1.569 6.489h1.387v4.609c0 0.379 0.306 0.689 0.687 0.689 0.379 0 0.69-0.309 0.69-0.689v-4.609h0.581v4.609c0 0.379 0.306 0.689 0.686 0.689 0.382 0 0.691-0.309 0.691-0.689v-4.609h1.363l-1.553-6.489 0.521 0.001 1.063 3.708c0.018 0.063 0.046 0.121 0.083 0.172 0.104 0.158 0.285 0.245 0.488 0.238 0.202 0.007 0.383-0.080 0.487-0.235 0.044-0.056 0.073-0.12 0.091-0.191l1.057-3.692 0.482-0.001c0 0 0 10.303 0 10.964 0 0.448 0.366 0.81 0.813 0.81s0.81-0.362 0.81-0.81c0-0.661 0-6.238 0-6.238h0.599c0 0 0 5.577 0 6.238 0 0.448 0.363 0.81 0.809 0.81 0.448 0 0.816-0.362 0.816-0.81 0-0.661 0-10.964 0-10.964l0.524 0.001 1.029 3.747c0.056 0.185 0.21 0.306 0.395 0.353 0.008 0.002 0.012 0.005 0.019 0.008 0.164 0.037 0.92 0.251 1.475 0.41 0 1.011 0 6.378 0 6.8 0 0.314 0.257 0.569 0.571 0.569s0.569-0.255 0.569-0.569c0-0.466 0-3.397 0-3.397h0.446c0 0 0 2.932 0 3.397 0 0.314 0.255 0.569 0.569 0.569s0.572-0.255 0.572-0.569c0-0.466 0-6.352 0-6.352h0.437c0 0 0 1.881 0 2.152 0 0.236 0.191 0.427 0.424 0.427 0.234 0 0.419-0.19 0.419-0.427 0-0.233 0-2.098 0-2.448 0.001-0.685-0.602-1.242-1.288-1.242z"></path>
</svg>
