<?xml version="1.0" encoding="utf-8"?>
<!-- Generated by IcoMoon.io -->
<!DOCTYPE svg PUBLIC "-//W3C//DTD SVG 1.1//EN" "http://www.w3.org/Graphics/SVG/1.1/DTD/svg11.dtd">
<svg version="1.1" xmlns="http://www.w3.org/2000/svg" xmlns:xlink="http://www.w3.org/1999/xlink" width="32" height="32" viewBox="0 0 32 32">
<path fill="#4493d1" d="M1.592 2.152c-0.055-0.099-0.019-0.224 0.081-0.277l1.485-0.809c0.099-0.055 0.222-0.019 0.277 0.082l0.596 1.086c2.251-0.675 4.746 0.285 5.918 2.43l-2.878 1.571c0.475 0.87 0.154 1.963-0.718 2.44-0.874 0.475-1.965 0.154-2.442-0.716l-2.878 1.569c-1.173-2.144-0.634-4.761 1.155-6.289l-0.594-1.087z"></path>
<path fill="#4493d1" d="M21.866 21.723h9.684v10.011h-9.684v-10.011z"></path>
<path fill="#4493d1" d="M20.755 26.727h-7.822c-1.363 0-2.473-1.107-2.473-2.471 0-1.366 1.109-2.471 2.473-2.471h7.822v4.942z"></path>
<path fill="#4493d1" d="M3.892 28.731c0-0.552 0.447-1.001 1.001-1.001h15.863v4.003h-16.863v-3.002z"></path>
<path fill="#4493d1" d="M9.907 23.744c0 1.648-1.338 2.983-2.988 2.983s-2.988-1.335-2.988-2.983c0-1.647 1.337-2.982 2.988-2.982s2.988 1.335 2.988 2.982z"></path>
<path fill="#4493d1" d="M26.237 15.39l-1.681-4.784c-0.326-0.902-0.952-1.606-2.719-1.606h-7.758c-1.766 0-2.393 0.704-2.718 1.606l-1.68 4.784c-0.126 0.309-0.191 1.003 0.493 1.468l3.951 2.603c0.576 0.381 1.354 0.222 1.734-0.354s0.222-1.354-0.357-1.734l-3.135-2.067 0.883-2.435h1.222l-0.716 1.975 2.38 1.569c0.534 0.353 0.901 0.892 1.028 1.52 0.13 0.628 0.007 1.269-0.346 1.804-0.141 0.213-0.315 0.394-0.508 0.549h3.296c-0.193-0.155-0.366-0.336-0.509-0.549-0.353-0.535-0.476-1.176-0.347-1.804s0.495-1.167 1.029-1.52l2.382-1.569-0.718-1.975h1.223l0.884 2.435-3.137 2.067c-0.577 0.38-0.737 1.159-0.356 1.734s1.158 0.735 1.735 0.354l3.95-2.603c0.684-0.465 0.62-1.16 0.495-1.469z"></path>
<path fill="#4493d1" d="M18.731 4.317c-0.187 0.405-0.597 0.687-1.072 0.687-0.477 0-0.887-0.282-1.074-0.687h-2.164c-0.035 0.19-0.056 0.384-0.056 0.585 0 1.823 1.481 3.302 3.306 3.302 1.826 0 3.306-1.478 3.306-3.302 0-0.201-0.021-0.395-0.055-0.585h-2.19z"></path>
<path fill="#4493d1" d="M16.511 3.537c0.129-0.512 0.592-0.894 1.147-0.894 0.553 0 1.020 0.382 1.145 0.894h1.875c-0.52-1.142-1.67-1.938-3.009-1.938-1.337 0-2.488 0.796-3.008 1.938h1.849z"></path>
</svg>
