<?xml version="1.0" encoding="utf-8"?>
<!-- Generated by IcoMoon.io -->
<!DOCTYPE svg PUBLIC "-//W3C//DTD SVG 1.1//EN" "http://www.w3.org/Graphics/SVG/1.1/DTD/svg11.dtd">
<svg version="1.1" xmlns="http://www.w3.org/2000/svg" xmlns:xlink="http://www.w3.org/1999/xlink" width="32" height="32" viewBox="0 0 32 32">
<path fill="#4493d1" d="M20.842 11.529h2.461c0.487 0 0.882 0.395 0.882 0.881v1.897c0 0.487-0.395 0.881-0.882 0.881h-2.461c-0.487 0-0.881-0.394-0.881-0.881v-1.897c0-0.487 0.395-0.881 0.881-0.881v0z"></path>
<path fill="#4493d1" d="M26.837 11.529h2.46c0.487 0 0.881 0.395 0.881 0.881v1.897c0 0.487-0.394 0.881-0.881 0.881h-2.46c-0.487 0-0.881-0.394-0.881-0.881v-1.897c0-0.487 0.395-0.881 0.881-0.881v0z"></path>
<path fill="#4493d1" d="M14.725 11.529h2.461c0.487 0 0.881 0.395 0.881 0.881v1.897c0 0.487-0.394 0.881-0.881 0.881h-2.461c-0.486 0-0.88-0.394-0.88-0.881v-1.897c-0.001-0.487 0.394-0.881 0.88-0.881v0z"></path>
<path fill="#4493d1" d="M2.613 11.529h2.461c0.487 0 0.881 0.395 0.881 0.881v1.897c0 0.487-0.395 0.881-0.881 0.881h-2.461c-0.487 0-0.881-0.394-0.881-0.881v-1.897c0-0.487 0.395-0.881 0.881-0.881v0z"></path>
<path fill="#4493d1" d="M8.744 11.529h2.461c0.487 0 0.881 0.395 0.881 0.881v1.897c0 0.487-0.395 0.881-0.881 0.881h-2.461c-0.487 0-0.881-0.394-0.881-0.881v-1.897c0-0.487 0.395-0.881 0.881-0.881v0z"></path>
<path fill="#4493d1" d="M20.91 22.791h2.461c0.487 0 0.881 0.394 0.881 0.882v1.896c0 0.487-0.395 0.882-0.881 0.882h-2.461c-0.487 0-0.881-0.395-0.881-0.882v-1.896c0-0.487 0.395-0.882 0.881-0.882v0z"></path>
<path fill="#4493d1" d="M26.906 22.791h2.46c0.487 0 0.881 0.394 0.881 0.882v1.896c0 0.487-0.394 0.882-0.881 0.882h-2.46c-0.487 0-0.881-0.395-0.881-0.882v-1.896c0-0.487 0.394-0.882 0.881-0.882v0z"></path>
<path fill="#4493d1" d="M14.794 22.791h2.461c0.487 0 0.881 0.394 0.881 0.882v1.896c0 0.487-0.394 0.882-0.881 0.882h-2.461c-0.487 0-0.881-0.395-0.881-0.882v-1.896c-0.001-0.487 0.393-0.882 0.881-0.882v0z"></path>
<path fill="#4493d1" d="M2.681 22.791h2.461c0.487 0 0.881 0.394 0.881 0.882v1.896c0 0.487-0.395 0.882-0.881 0.882h-2.461c-0.487 0-0.881-0.395-0.881-0.882v-1.896c0-0.487 0.394-0.882 0.881-0.882v0z"></path>
<path fill="#4493d1" d="M8.813 22.791h2.46c0.487 0 0.881 0.394 0.881 0.882v1.896c0 0.487-0.395 0.882-0.881 0.882h-2.46c-0.487 0-0.881-0.395-0.881-0.882v-1.896c0-0.487 0.395-0.882 0.881-0.882v0z"></path>
<path fill="#4493d1" d="M23.85 17.209h2.461c0.487 0 0.881 0.394 0.881 0.88v1.897c0 0.487-0.395 0.881-0.881 0.881h-2.461c-0.487 0-0.881-0.394-0.881-0.881v-1.897c0-0.487 0.395-0.88 0.881-0.88v0z"></path>
<path fill="#4493d1" d="M17.733 17.209h2.462c0.487 0 0.881 0.394 0.881 0.88v1.897c0 0.487-0.394 0.881-0.881 0.881h-2.462c-0.487 0-0.881-0.394-0.881-0.881v-1.897c-0.001-0.487 0.394-0.88 0.881-0.88v0z"></path>
<path fill="#4493d1" d="M5.621 17.209h2.461c0.487 0 0.881 0.394 0.881 0.88v1.897c0 0.487-0.395 0.881-0.881 0.881h-2.461c-0.487 0-0.881-0.394-0.881-0.881v-1.897c0-0.487 0.395-0.88 0.881-0.88v0z"></path>
<path fill="#4493d1" d="M11.752 17.209h2.461c0.487 0 0.881 0.394 0.881 0.88v1.897c0 0.487-0.395 0.881-0.881 0.881h-2.461c-0.487 0-0.881-0.394-0.881-0.881v-1.897c-0-0.487 0.394-0.88 0.881-0.88v0z"></path>
<path fill="#4493d1" d="M5.733 28.14h20.481c0.487 0 0.881 0.393 0.881 0.881v1.867c0 0.487-0.394 0.881-0.881 0.881h-20.481c-0.487 0-0.881-0.393-0.881-0.881v-1.867c0-0.487 0.395-0.881 0.881-0.881v0z"></path>
<path fill="#4493d1" d="M29.199 6.395c-0.14-1.252-2.221-5.805-12.95-5.937-11.301-0.14-13.679 4.685-13.653 5.951h7.465c0-1.041 1.135-1.251 3.474-1.489 1.549-0.158 3.465-0.203 5.371 0 1.336 0.143 2.641 0.392 2.641 1.483l7.652-0.008z"></path>
<path fill="#4493d1" d="M2.583 9.095c0 0.482 0.393 0.828 0.833 0.828l0.004 0.004c0 0 5.817-0.004 5.822-0.004 0.461 0 0.825-0.374 0.825-0.829v-2.115l-7.484 0.001c0 0-0.003 2.109-0.001 2.111l0.001 0.004z"></path>
<path fill="#4493d1" d="M21.548 9.094c0 0.482 0.393 0.828 0.833 0.828l0.003 0.004c0 0 5.986-0.004 5.99-0.004 0.462 0 0.826-0.374 0.826-0.828v-2.115h-7.652c0 0-0.003 2.11-0.002 2.112l0.002 0.003z"></path>
</svg>
