<?xml version="1.0" encoding="utf-8"?>
<!-- Generated by IcoMoon.io -->
<!DOCTYPE svg PUBLIC "-//W3C//DTD SVG 1.1//EN" "http://www.w3.org/Graphics/SVG/1.1/DTD/svg11.dtd">
<svg version="1.1" xmlns="http://www.w3.org/2000/svg" xmlns:xlink="http://www.w3.org/1999/xlink" width="32" height="32" viewBox="0 0 32 32">
<path fill="#4493d1" d="M27.606 27.465c0.83-1.014 1.12-2.424 0.638-3.743l-0.437-1.208h2.652v-22.361h-28.771v22.361h15.472l1.688 4.63c0.479 1.318 1.609 2.214 2.896 2.455l0.793 2.401 6.639 0.001-1.57-4.535zM25.192 15.383c-1.417 0.517-2.15 2.087-1.633 3.506l1.023 2.791h-22.061v-20.695h27.106v20.695h-2.129l-2.306-6.297z"></path>
<path fill="#4493d1" d="M27.167 11.612c-6.127 6.125-16.061 6.125-22.188 0l9.003-9.007c1.153 1.156 3.026 1.156 4.179 0l9.006 9.007zM20.781 9.782c0.98-0.673 1.232-2.012 0.563-2.996-0.674-0.98-2.016-1.232-2.995-0.561-0.983 0.677-1.232 2.015-0.56 2.994 0.671 0.981 2.011 1.231 2.992 0.563zM18.456 11.049c-0.044-0.124-0.1-0.243-0.198-0.346 0 0-1.749-1.845-2.18-2.299 0.029-0.548 0.097-1.97 0.097-1.97 0.023-0.51-0.374-0.947-0.887-0.97-0.511-0.025-0.948 0.369-0.97 0.882l-0.111 2.365c-0.013 0.252 0.078 0.501 0.251 0.683l0.799 0.844-2.398 1.583 0.129-1.811c-0.062-0.698-0.678-1.214-1.374-1.155 0 0-2.28 0.158-3.107 0.227-0.523 0.046-0.914 0.508-0.867 1.032 0.044 0.523 0.508 0.913 1.030 0.869 0.577-0.051 1.927-0.097 2.474-0.142 0 0-0.474 1.379-0.376 2.060 0.062 0.446 0.19 0.896 0.461 1.294 0.842 1.228 2.521 1.543 3.749 0.701 0.44-0.3 2.624-1.794 3.035-2.076 0.578-0.399 0.758-1.162 0.443-1.772z"></path>
</svg>
