<?xml version="1.0" encoding="utf-8"?>
<!-- Generated by IcoMoon.io -->
<!DOCTYPE svg PUBLIC "-//W3C//DTD SVG 1.1//EN" "http://www.w3.org/Graphics/SVG/1.1/DTD/svg11.dtd">
<svg version="1.1" xmlns="http://www.w3.org/2000/svg" xmlns:xlink="http://www.w3.org/1999/xlink" width="32" height="32" viewBox="0 0 32 32">
<path fill="#4493d1" d="M23.537 12.925c3.38-3.39 3.408-8.888 0.049-12.292l-0.577 0.578c3.050 3.094 3.039 8.073-0.029 11.152l0.557 0.562z"></path>
<path fill="#4493d1" d="M21.895 2.325l0.558-0.558c2.743 2.787 2.703 7.242-0.059 10.015l0.002 0.002-0.551-0.556c2.441-2.452 2.473-6.434 0.051-8.902z"></path>
<path fill="#4493d1" d="M20.614 10.003l0.643 0.643c2.12-2.13 2.132-5.571 0.032-7.717l-0.647 0.647c1.744 1.788 1.735 4.653-0.028 6.426z"></path>
<path fill="#4493d1" d="M19.5 8.889l0.589 0.589c1.464-1.474 1.46-3.871 0.014-5.361l-0.576 0.575c1.105 1.175 1.107 3.043-0.027 4.196z"></path>
<path fill="#4493d1" d="M18.866 8.239c0.797-0.798 0.8-2.090 0.007-2.891l-0.575 0.575c0.477 0.476 0.477 1.249 0 1.725l-0.015 0.023 0.584 0.569z"></path>
<path fill="#4493d1" d="M12.912 2.555c-1.357 0.152-6.294 2.409-6.438 14.042-0.151 12.255 5.081 14.833 6.453 14.804v-8.094c-1.129 0-1.357-1.23-1.614-3.768-0.172-1.679-0.222-3.758 0-5.824 0.154-1.45 0.423-2.865 1.606-2.865l-0.006-8.296z"></path>
<path fill="#4493d1" d="M15.838 31.415c0.524 0 0.899-0.426 0.899-0.903l0.004-0.005c0 0-0.004-6.308-0.004-6.312 0-0.501-0.406-0.895-0.899-0.895h-2.293v8.115c0 0 2.288 0.004 2.288 0.002l0.005-0.002z"></path>
<path fill="#4493d1" d="M15.838 10.852c0.524 0 0.899-0.426 0.899-0.904l0.004-0.004c0 0-0.004-6.49-0.004-6.494 0-0.501-0.406-0.895-0.899-0.895h-2.293v8.297c0 0 2.288 0.004 2.288 0.002l0.005-0.001z"></path>
</svg>
