<?xml version="1.0" encoding="utf-8"?>
<!-- Generated by IcoMoon.io -->
<!DOCTYPE svg PUBLIC "-//W3C//DTD SVG 1.1//EN" "http://www.w3.org/Graphics/SVG/1.1/DTD/svg11.dtd">
<svg version="1.1" xmlns="http://www.w3.org/2000/svg" xmlns:xlink="http://www.w3.org/1999/xlink" width="32" height="32" viewBox="0 0 32 32">
<path fill="#4493d1" d="M24.298 16.711l-8.351-1.374 1.198-0.853 2.005 0.278 2.003-0.278z"></path>
<path fill="#4493d1" d="M19.15 0.929c1.674 0 3.031 1.356 3.031 3.032 0 1.675-1.067 3.032-3.031 3.032-1.675 0-3.033-1.357-3.033-3.032s1.358-3.032 3.033-3.032z"></path>
<path fill="#4493d1" d="M19.905 22.842v7.327c0 0.914 0.742 1.654 1.656 1.654s1.655-0.74 1.655-1.654v-7.327c0-0.913-0.741-1.655-1.655-1.655s-1.656 0.742-1.656 1.655z"></path>
<path fill="#4493d1" d="M30.046 27.025c0 0.531-0.431 0.961-0.96 0.961h-5.076v-4.798h2.195v-4.795c0-0.528 0.431-0.959 0.959-0.959h1.922c0.528 0 0.96 0.431 0.96 0.959v8.632z"></path>
<path fill="#4493d1" d="M19.113 27.986h-9.854c-0.531 0-0.96-0.43-0.96-0.961v-8.632c0-0.528 0.429-0.959 0.96-0.959h1.921c0.529 0 0.96 0.431 0.96 0.959v4.795h6.974v4.798z"></path>
<path fill="#4493d1" d="M13.924 17.633c-0.148 0.902 0.462 1.755 1.364 1.903l7.23 1.191c0.902 0.146 1.754-0.462 1.902-1.365s-0.461-1.755-1.364-1.901l-7.23-1.192c-0.902-0.147-1.753 0.462-1.902 1.364z"></path>
<path fill="#4493d1" d="M5.771 8.558c-2.359 0-4.278-1.919-4.278-4.279s1.919-4.28 4.278-4.28c2.359 0 4.28 1.919 4.28 4.28s-1.921 4.279-4.28 4.279v0zM5.771 7.499c1.775 0 3.221-1.444 3.221-3.221 0-1.774-1.446-3.221-3.221-3.221-1.776 0-3.219 1.446-3.219 3.221-0 1.777 1.443 3.221 3.219 3.221v0z"></path>
<path fill="#4493d1" d="M5.793 4.845c-0.096 0.044-0.212 0.040-0.308-0.023-0.080-0.052-0.131-0.133-0.144-0.222l-0.004-2.487c0-0.178 0.145-0.322 0.322-0.322s0.322 0.144 0.322 0.322v0 1.929l1.65-0.777c0.159-0.077 0.353-0.008 0.428 0.153v0c0.076 0.162 0.007 0.353-0.154 0.429v0l-2.112 0.998z"></path>
<path fill="#4493d1" d="M19.15 9.405l3.931-0.64v2.763c0.626 0.471 1.941 1.46 1.941 1.46 0.187 0.188 0.111 0.402 0.067 0.462-0.111 0.146-0.317 0.176-0.463 0.067l-2.449-1.851c-0.508-0.358-1.209-0.237-1.567 0.27s-0.237 1.209 0.27 1.568l4.184 2.939c0.194 0.137 0.471 0.23 0.747 0.23v0c0.235 0 0.512-0.098 0.717-0.244 0.439-0.312 0.601-0.866 0.451-1.376l-1.554-4.592c-0.415-1.141-1.462-2.484-3.033-2.484h-6.483c-1.572 0-2.618 1.343-3.034 2.484l-1.554 4.592c-0.149 0.51 0.013 1.064 0.452 1.376 0.204 0.146 0.482 0.244 0.716 0.244v0c0.277 0 0.554-0.093 0.748-0.23l4.184-2.939c0.507-0.358 0.628-1.060 0.27-1.568-0.359-0.507-1.060-0.628-1.567-0.27l-2.45 1.851c-0.145 0.109-0.351 0.079-0.462-0.067-0.044-0.060-0.121-0.275 0.066-0.462 0 0 1.316-0.988 1.942-1.46v-2.763l3.931 0.64z"></path>
</svg>
