<?xml version="1.0" encoding="utf-8"?>
<!-- Generated by IcoMoon.io -->
<!DOCTYPE svg PUBLIC "-//W3C//DTD SVG 1.1//EN" "http://www.w3.org/Graphics/SVG/1.1/DTD/svg11.dtd">
<svg version="1.1" xmlns="http://www.w3.org/2000/svg" xmlns:xlink="http://www.w3.org/1999/xlink" width="32" height="32" viewBox="0 0 32 32">
<path fill="#4493d1" d="M16.084 8.034c-2.165 0-3.924-1.742-3.924-3.893 0-2.149 1.758-3.892 3.924-3.892s3.924 1.742 3.924 3.892c0 2.15-1.758 3.893-3.924 3.893z"></path>
<path fill="#4493d1" d="M26.701 26.181c-0.878 0.252-1.777-0.192-2.010-0.996l-3.003-10.488-1.465-0.002 4.802 16.734h-17.89l4.802-16.734-1.467 0.002-3.004 10.488c-0.23 0.804-1.129 1.248-2.007 0.996-0.879-0.252-1.434-1.021-1.139-2.025l3.091-10.76c1.234-4.301 4.834-4.167 4.834-4.167h7.672c0 0 3.6-0.135 4.835 4.166l3.088 10.76c0.294 1.004-0.26 1.773-1.139 2.025zM16.103 16.646c-2.66 0-4.815 2.155-4.815 4.813 0 2.416 1.78 4.417 4.101 4.762v1.32h-1.448v1.442h1.448v1.447h1.441v-1.447h1.448v-1.442h-1.448v-1.323c2.316-0.35 4.086-2.349 4.086-4.76 0-2.659-2.154-4.813-4.813-4.813zM16.079 24.753c-1.855 0-3.358-1.504-3.358-3.359 0-1.854 1.503-3.359 3.358-3.359 1.856 0 3.359 1.505 3.359 3.359 0 1.855-1.502 3.359-3.359 3.359z"></path>
</svg>
