<?xml version="1.0" encoding="utf-8"?>
<!-- Generated by IcoMoon.io -->
<!DOCTYPE svg PUBLIC "-//W3C//DTD SVG 1.1//EN" "http://www.w3.org/Graphics/SVG/1.1/DTD/svg11.dtd">
<svg version="1.1" xmlns="http://www.w3.org/2000/svg" xmlns:xlink="http://www.w3.org/1999/xlink" width="32" height="32" viewBox="0 0 32 32">
<path fill="#4493d1" d="M21.75 18.271c-0.404-1.103 0.167-2.323 1.271-2.727l0.728 1.999 1.064 2.899h1.655v-16.089h-21.073v16.088h17.152l-0.796-2.171zM22.673 7.212h1.444v6.951h-1.444v-6.951zM14.472 14.163h-1.354v-4.701c0-0.135 0.002-0.325 0.005-0.569s0.004-0.431 0.004-0.563l-1.317 5.833h-1.412l-1.308-5.833c0 0.132 0.002 0.32 0.004 0.563s0.005 0.433 0.005 0.569v4.701h-1.354v-6.951h2.114l1.265 5.465 1.256-5.465h2.090v6.951zM21.512 14.163h-1.603c-0.045-0.153-0.075-0.278-0.095-0.372-0.038-0.194-0.058-0.395-0.061-0.598l-0.009-0.646c-0.006-0.443-0.083-0.739-0.229-0.886-0.147-0.148-0.424-0.222-0.828-0.222h-1.419v2.725h-1.42v-6.951h3.326c0.474 0.010 0.841 0.069 1.096 0.179s0.473 0.272 0.651 0.485c0.147 0.176 0.264 0.372 0.35 0.585s0.128 0.458 0.128 0.731c0 0.331-0.083 0.655-0.25 0.974s-0.442 0.545-0.825 0.677c0.321 0.128 0.548 0.312 0.681 0.55s0.2 0.599 0.2 1.087v0.467c0 0.318 0.013 0.533 0.039 0.646 0.039 0.179 0.128 0.311 0.268 0.396v0.174z"></path>
<path fill="#4493d1" d="M19.544 8.542c-0.15-0.081-0.373-0.122-0.672-0.122h-1.604v1.867h1.563c0.311 0 0.544-0.038 0.699-0.113 0.275-0.132 0.412-0.393 0.412-0.783 0-0.421-0.133-0.704-0.398-0.848z"></path>
<path fill="#4493d1" d="M27.575 0.33h-23.288c-2.281 0-4.137 1.856-4.137 4.139v23.283c0 2.283 1.856 4.14 4.137 4.14h23.288c2.282 0 4.137-1.857 4.137-4.14v-23.283c0-2.283-1.855-4.139-4.137-4.139zM27.113 21.087h-2.061l0.341 0.94c0.372 1.024 0.148 2.122-0.497 2.909l1.318 3.578h-5.3l-0.576-1.92c-0.999-0.187-1.878-0.882-2.252-1.907l-1.31-3.601h-12.028v-17.379h22.364v17.379z"></path>
</svg>
