<?xml version="1.0" encoding="utf-8"?>
<!-- Generated by IcoMoon.io -->
<!DOCTYPE svg PUBLIC "-//W3C//DTD SVG 1.1//EN" "http://www.w3.org/Graphics/SVG/1.1/DTD/svg11.dtd">
<svg version="1.1" xmlns="http://www.w3.org/2000/svg" xmlns:xlink="http://www.w3.org/1999/xlink" width="32" height="32" viewBox="0 0 32 32">
<path fill="#4493d1" d="M21.945 18.209c-0.404-1.109 0.168-2.335 1.275-2.737l1.8 4.917h1.663v-16.16h-21.165v16.159h17.226l-0.799-2.179zM21.342 11.528h-4.275v1.247h3.787c0.218 0 0.395 0.175 0.395 0.393s-0.176 0.394-0.395 0.394h-3.787v1.246h3.642c0.152 0 0.374 0.136 0.374 0.374 0 2.122-0.267 3.125-1.385 3.125-1.162 0-1.4-2.516-2.631-2.68v2.405h-1.947v-2.408c-1.293 0.097-1.501 2.683-2.708 2.683-1.118 0-1.324-1.003-1.324-3.125 0-0.238 0.222-0.374 0.375-0.374h3.657v-1.246h-3.787c-0.218 0-0.396-0.176-0.396-0.394s0.177-0.393 0.396-0.393h3.787v-1.247h-4.263c-0.217 0-0.393-0.176-0.393-0.395 0-0.217 0.176-0.394 0.393-0.394h4.263v-1.246h-4.001c-0.217 0-0.393-0.176-0.393-0.395 0-0.218 0.176-0.395 0.393-0.395h4.001v-1.246h-3.133c-0.219 0-0.395-0.176-0.395-0.394s0.175-0.396 0.395-0.396h3.133v-0.689h1.947v0.689h3.134c0.217 0 0.395 0.178 0.395 0.396s-0.177 0.394-0.395 0.394h-3.134v1.246h4.012c0.218 0 0.395 0.177 0.395 0.395 0 0.219-0.177 0.395-0.395 0.395h-4.012v1.246h4.275c0.217 0 0.394 0.177 0.394 0.394-0 0.218-0.177 0.395-0.394 0.395z"></path>
<path fill="#4493d1" d="M27.797 0.185h-23.393c-2.292 0-4.157 1.865-4.157 4.158v23.39c0 2.293 1.865 4.159 4.157 4.159h23.393c2.292 0 4.157-1.866 4.157-4.159v-23.39c0-2.293-1.865-4.158-4.157-4.158zM27.332 21.039h-2.071l0.341 0.943c0.377 1.031 0.15 2.132-0.498 2.924l1.226 3.541-5.184-0.001-0.619-1.874c-1.004-0.188-1.887-0.888-2.261-1.917l-1.318-3.615h-12.081v-17.461h22.465v17.461z"></path>
</svg>
