<?xml version="1.0" encoding="utf-8"?>
<!-- Generated by IcoMoon.io -->
<!DOCTYPE svg PUBLIC "-//W3C//DTD SVG 1.1//EN" "http://www.w3.org/Graphics/SVG/1.1/DTD/svg11.dtd">
<svg version="1.1" xmlns="http://www.w3.org/2000/svg" xmlns:xlink="http://www.w3.org/1999/xlink" width="32" height="32" viewBox="0 0 32 32">
<path fill="#4493d1" d="M21.889 18.207c-0.406-1.108 0.167-2.333 1.277-2.738l0.729 2.007 0.491 1.338 0.578 1.574h1.663v-16.161h-21.166v16.161h17.227l-0.799-2.181zM8.965 12.429c0.316 0.39 0.719 0.585 1.207 0.585 0.501 0 0.883-0.167 1.145-0.501 0.145-0.181 0.266-0.451 0.361-0.81h1.45c-0.125 0.761-0.444 1.38-0.958 1.857-0.514 0.476-1.173 0.715-1.976 0.715-0.994 0-1.774-0.322-2.343-0.966-0.569-0.648-0.853-1.535-0.853-2.662 0-1.219 0.323-2.159 0.97-2.818 0.562-0.575 1.278-0.863 2.146-0.863 1.163 0 2.013 0.385 2.55 1.156 0.297 0.433 0.456 0.867 0.477 1.303h-1.459c-0.093-0.335-0.212-0.587-0.358-0.759-0.26-0.303-0.645-0.454-1.155-0.454-0.52 0-0.93 0.214-1.23 0.642s-0.45 1.034-0.45 1.816c-0 0.784 0.158 1.37 0.475 1.76zM18.261 14.080l-0.46-1.436h-2.572l-0.473 1.436h-1.526l2.493-6.983h1.651l2.47 6.983h-1.582zM19.434 8.334v-1.237h5.656v1.237h-2.089v5.746h-1.469v-5.747h-2.098z"></path>
<path fill="#4493d1" d="M15.626 11.441h1.788l-0.883-2.747z"></path>
<path fill="#4493d1" d="M27.739 0.185h-23.393c-2.291 0-4.156 1.865-4.156 4.158v23.39c0 2.293 1.865 4.159 4.156 4.159h23.393c2.292 0 4.158-1.866 4.158-4.159v-23.39c0-2.293-1.866-4.158-4.158-4.158zM27.275 21.036h-2.070l0.344 0.945c0.373 1.029 0.149 2.131-0.501 2.923l1.324 3.594h-5.321l-0.58-1.928c-1.004-0.188-1.886-0.886-2.261-1.915l-1.317-3.618h-12.079v-17.459h22.462v17.459z"></path>
</svg>
