<?xml version="1.0" encoding="utf-8"?>
<!-- Generated by IcoMoon.io -->
<!DOCTYPE svg PUBLIC "-//W3C//DTD SVG 1.1//EN" "http://www.w3.org/Graphics/SVG/1.1/DTD/svg11.dtd">
<svg version="1.1" xmlns="http://www.w3.org/2000/svg" xmlns:xlink="http://www.w3.org/1999/xlink" width="32" height="32" viewBox="0 0 32 32">
<path fill="#4493d1" d="M10.887 8.542c-0.185-0.155-0.444-0.232-0.777-0.232h-1.314v2.056h1.314c0.333 0 0.592-0.084 0.777-0.251s0.277-0.433 0.277-0.796c0-0.363-0.092-0.622-0.277-0.777z"></path>
<path fill="#4493d1" d="M21.895 18.207c-0.405-1.109 0.168-2.334 1.278-2.739l0.729 2.008 0.492 1.337 0.578 1.574h1.662v-16.161h-21.166v16.161h17.227l-0.799-2.18zM12.001 11.058c-0.409 0.341-0.992 0.511-1.751 0.511h-1.454v2.511h-1.45v-6.982h2.998c0.692 0 1.242 0.181 1.653 0.54s0.617 0.918 0.617 1.672c0 0.825-0.205 1.407-0.613 1.749zM18.924 14.079h-5.291v-6.982h5.12v1.237h-3.694v1.483h3.391v1.213h-3.391v1.795h3.865v1.255zM19.671 7.097h5.656v1.237h-2.088v5.746h-1.469v-5.746h-2.099v-1.237z"></path>
<path fill="#4493d1" d="M27.746 0.185h-23.393c-2.291 0-4.156 1.865-4.156 4.158v23.39c0 2.293 1.865 4.159 4.156 4.159h23.393c2.292 0 4.158-1.866 4.158-4.159v-23.39c0-2.293-1.866-4.158-4.158-4.158zM27.28 21.035h-2.069l0.343 0.945c0.373 1.030 0.149 2.131-0.5 2.923l1.324 3.594h-5.321l-0.58-1.928c-1.005-0.188-1.888-0.886-2.262-1.915l-1.317-3.618h-12.079v-17.458h22.461v17.458z"></path>
</svg>
