<?xml version="1.0" encoding="utf-8"?>
<!-- Generated by IcoMoon.io -->
<!DOCTYPE svg PUBLIC "-//W3C//DTD SVG 1.1//EN" "http://www.w3.org/Graphics/SVG/1.1/DTD/svg11.dtd">
<svg version="1.1" xmlns="http://www.w3.org/2000/svg" xmlns:xlink="http://www.w3.org/1999/xlink" width="32" height="32" viewBox="0 0 32 32">
<path fill="#4493d1" d="M27.723 0.233h-23.392c-2.292 0-4.157 1.865-4.157 4.158v23.39c0 2.293 1.865 4.159 4.157 4.159h23.392c2.292 0 4.157-1.866 4.157-4.159v-23.39c0-2.293-1.865-4.158-4.157-4.158zM7.824 4.836c1.575 0 2.852 1.278 2.852 2.852 0 1.576-1.277 2.853-2.852 2.853s-2.853-1.276-2.853-2.853c0-1.574 1.277-2.852 2.853-2.852zM4.744 27.661v-14.823c0-0.876 0.71-1.585 1.586-1.585h2.363c0.337 0 0.648 0.107 0.903 0.307 0 0 3.082 2.411 3.933 3.077l2.943-0.941c0.699-0.224 1.446 0.162 1.67 0.862 0.224 0.698-0.162 1.446-0.861 1.67l-3.612 1.154c-0.418 0.134-0.877 0.052-1.223-0.219l-1.494-1.169 3.244 11.667h-9.451zM27.424 27.661h-4.093v-11.891h-0.57l-3.472 6.738c-0.324 0.643-1.106 0.905-1.749 0.582-0.644-0.323-0.905-1.103-0.583-1.747l4.162-8.004-1.615-0.26-0.129 0.468-3.987-0.893 0.112-0.5-0.746-0.167-0.114 0.499-0.298-0.066 0.342-1.527 0.299 0.066-0.111 0.499 0.746 0.166 0.112-0.497 3.986 0.893-0.070 0.455 1.669 0.488 0.287-0.552c0.444-0.692 0.974-1.092 2.143-1.092h3.678v16.343zM24.608 10.551c-1.578 0-2.857-1.279-2.857-2.856 0-1.579 1.279-2.859 2.857-2.859 1.576 0 2.856 1.28 2.856 2.859 0 1.577-1.28 2.856-2.856 2.856z"></path>
<path fill="#4493d1" d="M9.265 16.73h-1.711v1.435h-1.428v1.716h1.428v1.428h1.711v-1.428h1.434v-1.716h-1.434z"></path>
</svg>
