<?xml version="1.0" encoding="utf-8"?>
<!-- Generated by IcoMoon.io -->
<!DOCTYPE svg PUBLIC "-//W3C//DTD SVG 1.1//EN" "http://www.w3.org/Graphics/SVG/1.1/DTD/svg11.dtd">
<svg version="1.1" xmlns="http://www.w3.org/2000/svg" xmlns:xlink="http://www.w3.org/1999/xlink" width="32" height="32" viewBox="0 0 32 32">
<path fill="#4493d1" d="M20.663 9.626c-0.249-0.143-0.565-0.056-0.709 0.193-0.142 0.249-0.056 0.565 0.193 0.708 0.248 0.141 0.565 0.055 0.708-0.193 0.142-0.25 0.056-0.565-0.192-0.707z"></path>
<path fill="#4493d1" d="M19.241 9.098c0.248 0.142 0.565 0.055 0.706-0.193 0.144-0.25 0.058-0.565-0.19-0.707s-0.566-0.057-0.71 0.193c-0.14 0.248-0.055 0.565 0.193 0.708z"></path>
<path fill="#4493d1" d="M21.079 9.098c0.248 0.142 0.565 0.055 0.708-0.193 0.144-0.248 0.055-0.565-0.192-0.707-0.248-0.143-0.565-0.057-0.709 0.193-0.141 0.247-0.057 0.564 0.193 0.707z"></path>
<path fill="#4493d1" d="M20.122 7.63c0.248 0.142 0.565 0.055 0.708-0.193 0.142-0.25 0.056-0.565-0.192-0.708-0.249-0.143-0.565-0.056-0.709 0.193-0.142 0.249-0.056 0.565 0.193 0.708z"></path>
<path fill="#4493d1" d="M18.662 12.258c-0.244 0.144-0.33 0.46-0.186 0.708s0.463 0.331 0.71 0.187c0.248-0.143 0.33-0.461 0.188-0.708-0.145-0.248-0.461-0.332-0.712-0.187z"></path>
<path fill="#4493d1" d="M27.825 0.18l-23.392 0c-2.292 0-4.157 1.865-4.157 4.157v23.391c0 2.293 1.865 4.158 4.157 4.158h23.392c2.292 0 4.158-1.864 4.158-4.158v-23.392c0-2.292-1.865-4.157-4.157-4.157zM19.78 3.934c0.145-0.247 0.462-0.331 0.71-0.188 0.247 0.146 0.33 0.463 0.187 0.71s-0.462 0.331-0.71 0.187c-0.248-0.144-0.331-0.46-0.187-0.708zM21.212 6.044c1.423 0 2.578 1.155 2.578 2.579s-1.155 2.578-2.578 2.578c-1.424 0-2.578-1.155-2.578-2.578s1.154-2.579 2.578-2.579zM19.039 10.846c-0.063 0.278-0.34 0.457-0.618 0.395-0.28-0.061-0.456-0.34-0.394-0.618 0.062-0.28 0.339-0.457 0.618-0.395s0.456 0.337 0.395 0.618zM18.187 4.854c0.144-0.247 0.462-0.331 0.71-0.187s0.331 0.462 0.187 0.709c-0.144 0.248-0.46 0.332-0.711 0.187-0.245-0.144-0.33-0.461-0.186-0.708zM17.886 6.551c0.064-0.281 0.34-0.458 0.618-0.396s0.457 0.337 0.395 0.618c-0.062 0.279-0.339 0.457-0.618 0.395s-0.455-0.339-0.395-0.617zM17.915 8.141c0.279 0.062 0.456 0.336 0.395 0.618-0.062 0.278-0.339 0.456-0.618 0.395s-0.456-0.34-0.395-0.618c0.064-0.28 0.34-0.458 0.618-0.395zM17.303 11.643c-0.248 0.144-0.564 0.061-0.708-0.187s-0.059-0.564 0.187-0.709c0.248-0.145 0.564-0.061 0.71 0.187s0.060 0.563-0.188 0.708zM16.595 5.772c0.144-0.246 0.46-0.329 0.708-0.185s0.333 0.459 0.188 0.707c-0.145 0.248-0.461 0.332-0.71 0.188-0.246-0.145-0.331-0.462-0.187-0.711zM16.368 8.196c0.248 0.142 0.333 0.458 0.192 0.708-0.143 0.248-0.46 0.335-0.708 0.193-0.249-0.141-0.334-0.458-0.193-0.706 0.143-0.249 0.461-0.335 0.709-0.194zM15.1 6.572c0.211-0.193 0.539-0.177 0.732 0.034 0.193 0.212 0.178 0.538-0.033 0.731s-0.538 0.178-0.733-0.034c-0.192-0.21-0.179-0.538 0.034-0.731zM15.067 9.926c0.194-0.211 0.522-0.226 0.733-0.033s0.226 0.52 0.033 0.732c-0.193 0.21-0.521 0.225-0.732 0.034-0.213-0.193-0.226-0.523-0.034-0.733zM8.514 6.27c1.297-0.581 2.822 0 3.403 1.297s0 2.819-1.297 3.399c-1.297 0.581-2.822 0.002-3.403-1.296-0.582-1.297-0.001-2.819 1.298-3.4zM14.274 12.384l-1.962 5.758c-0.164 0.419-0.575 0.703-1.051 0.703-0.421 0-0.781-0.229-0.966-0.571l-0.865-1.554-1.211 3.6v7.256h-4.404v-8.866c0-0.249 0.070-0.725 0.177-0.992l1.472-4.404c0.424-1.269 1.796-1.953 3.065-1.529 0.549 0.184 0.988 0.546 1.276 0.999l1.218 2.181 1.124-3.306c0.2-0.587 0.836-0.902 1.425-0.702 0.587 0.2 0.901 0.838 0.701 1.425zM14.118 9.804c-0.248 0.144-0.565 0.060-0.709-0.187-0.145-0.247-0.060-0.564 0.185-0.71 0.249-0.143 0.568-0.059 0.711 0.187 0.144 0.248 0.061 0.564-0.188 0.71zM14.305 8.134c-0.144 0.247-0.462 0.33-0.711 0.187-0.245-0.144-0.33-0.462-0.185-0.708 0.144-0.247 0.461-0.331 0.709-0.187 0.249 0.146 0.331 0.462 0.188 0.709zM27.933 23.249c0 0.624-0.493 1.133-1.117 1.133-0.621 0-1.126-0.508-1.126-1.133 0-0.724 0-7.207 0-7.207h-0.944v11.535h-3.034v-3.126h-0.964v3.126h-3.032v-11.535h-0.934c0 0 0 6.483 0 7.207 0 0.624-0.505 1.133-1.129 1.133-0.623 0-1.112-0.508-1.112-1.133 0-0.623 0-7.064 0-7.994 0-1.824 1.627-3.303 3.452-3.303 0.881 0 5.716 0 6.62 0 1.823 0 3.32 1.479 3.32 3.303-0 0.93-0 7.371-0 7.994z"></path>
<path fill="#4493d1" d="M20.257 13.177c-0.248 0.144-0.331 0.461-0.187 0.71 0.144 0.246 0.462 0.33 0.71 0.187 0.248-0.145 0.331-0.462 0.187-0.709s-0.462-0.331-0.71-0.187z"></path>
</svg>
