<?xml version="1.0" encoding="utf-8"?>
<!-- Generated by IcoMoon.io -->
<!DOCTYPE svg PUBLIC "-//W3C//DTD SVG 1.1//EN" "http://www.w3.org/Graphics/SVG/1.1/DTD/svg11.dtd">
<svg version="1.1" xmlns="http://www.w3.org/2000/svg" xmlns:xlink="http://www.w3.org/1999/xlink" width="32" height="32" viewBox="0 0 32 32">
<path fill="#4493d1" d="M27.913 0.361h-23.955c-2.014 0-3.646 1.632-3.646 3.645v23.955c0 2.013 1.632 3.645 3.646 3.645h23.955c2.013 0 3.645-1.632 3.645-3.645v-23.955c0-2.013-1.632-3.645-3.645-3.645zM15.788 27.299c-6.254 0-11.324-5.070-11.324-11.324s5.069-11.324 11.324-11.324c6.254 0 11.324 5.070 11.324 11.324s-5.070 11.324-11.324 11.324z"></path>
<path fill="#4493d1" d="M15.788 7.181c-4.857 0-8.793 3.937-8.793 8.793s3.937 8.794 8.793 8.794c4.857 0 8.793-3.937 8.793-8.794s-3.937-8.793-8.793-8.793zM17.124 23.542h-2.591v-2.659h2.591v2.659zM19.715 15.265c-1.091 1.458-2.591 0.872-2.591 3.204 0 1.555 0 1.527 0 1.527h-2.591v-2.591c0-1.159 0.463-1.99 1.445-2.481 1.387-0.693 2.604-2.004 1.513-3.354-0.466-0.577-1.050-0.641-1.732-0.641-1.145 0-2.291 0.627-2.291 2.413 0 0.6-0.005 0.905-0.005 0.905l-2.517-0.005c-0.409-3.259 1.718-4.774 2.318-5.181 0.722-0.491 3.314-1.391 5.604 0.423 2.002 1.585 2.321 3.809 0.846 5.782z"></path>
</svg>
