<?xml version="1.0" encoding="utf-8"?>
<!-- Generated by IcoMoon.io -->
<!DOCTYPE svg PUBLIC "-//W3C//DTD SVG 1.1//EN" "http://www.w3.org/Graphics/SVG/1.1/DTD/svg11.dtd">
<svg version="1.1" xmlns="http://www.w3.org/2000/svg" xmlns:xlink="http://www.w3.org/1999/xlink" width="32" height="32" viewBox="0 0 32 32">
<path fill="#4493d1" d="M7.882 9.467c1.391 0 2.523-1.131 2.523-2.522 0-1.39-1.132-2.522-2.523-2.522-1.39 0-2.52 1.133-2.52 2.522-0 1.391 1.13 2.522 2.52 2.522zM7.796 4.996c0.139 0 0.252 0.113 0.252 0.252v1.511l1.292-0.608c0.125-0.060 0.275-0.006 0.335 0.12s0.005 0.276-0.12 0.336l-1.653 0.782c-0.075 0.034-0.167 0.031-0.242-0.018-0.063-0.040-0.101-0.104-0.112-0.174l-0.003-1.948c0-0.14 0.113-0.252 0.252-0.252z"></path>
<path fill="#4493d1" d="M18.694 5.16h0.468v-0.468h0.469v-0.468h-0.469v-0.468h-0.468v0.468h-0.468v0.468h0.468z"></path>
<path fill="#4493d1" d="M27.776 0.203h-23.394c-2.291 0-4.156 1.865-4.156 4.158v23.391c0 2.293 1.865 4.158 4.156 4.158h23.394c2.292 0 4.158-1.865 4.158-4.158v-23.391c0-2.293-1.866-4.158-4.158-4.158zM18.931 3.571c0.668 0 1.762 0.281 2.371 0.947l-0.821 1.576c-0.359-0.464-0.92-0.762-1.551-0.762-0.624 0-1.178 0.291-1.537 0.746l-0.837-1.526c0.704-0.705 1.678-0.982 2.374-0.982zM20.433 7.393c0 0.831-0.674 1.506-1.506 1.506s-1.505-0.674-1.505-1.506c0-0.832 0.674-1.506 1.505-1.506s1.506 0.674 1.506 1.506zM15.679 10.671c0.138-0.482 0.747-1.337 1.8-1.342l2.933 0.002c1.030 0.026 1.627 0.864 1.764 1.34l1.288 4.21h-1.279l-0.97-3.23h-0.672l0.936 3.229h-5.108l0.943-3.229h-0.673l-0.945 3.23h-1.298l1.282-4.21zM11.916 16.051l11.586-0.004c0.705 0 1.275 0.553 1.281 1.253l0.003 3.382h-12.869v-4.631zM7.883 3.594c1.847 0 3.352 1.503 3.352 3.352s-1.504 3.351-3.352 3.351c-1.848 0-3.35-1.503-3.35-3.351s1.502-3.352 3.35-3.352zM9.619 18.632c-0.887 0-1.603-0.718-1.603-1.603 0-0.886 0.716-1.602 1.603-1.602s1.604 0.716 1.604 1.602c0 0.885-0.718 1.603-1.604 1.603zM11.223 19.891c0 0.435-0.354 0.789-0.789 0.789h-2.28c-0.437 0-0.788-0.353-0.788-0.789s0.351-0.789 0.788-0.789h2.28c0.435 0 0.789 0.353 0.789 0.789zM27.637 27.533h-2.088v-3.527h-18.752v3.527h-2.108v-13.295c0-0.576 0.453-1.043 1.029-1.043v-0.001c0.577 0 1.079 0.468 1.079 1.044v7.243h18.752v-5.133c0-0.575 0.468-1.043 1.047-1.043 0.576 0 1.042 0.468 1.042 1.043v11.185z"></path>
</svg>
