<?xml version="1.0" encoding="utf-8"?>
<!-- Generated by IcoMoon.io -->
<!DOCTYPE svg PUBLIC "-//W3C//DTD SVG 1.1//EN" "http://www.w3.org/Graphics/SVG/1.1/DTD/svg11.dtd">
<svg version="1.1" xmlns="http://www.w3.org/2000/svg" xmlns:xlink="http://www.w3.org/1999/xlink" width="32" height="32" viewBox="0 0 32 32">
<path fill="#4493d1" d="M20.701 11.998h4.999c0.612 0 1.107-0.496 1.106-1.108v-1.251h-0.794c-0.073 0-0.138-0.046-0.163-0.114 0 0-0.156-0.421-0.29-0.788-0.125 0.358-0.269 0.762-0.269 0.762-0.026 0.073-0.096 0.12-0.174 0.116s-0.143-0.058-0.161-0.134c0 0-0.25-1.049-0.453-1.903-0.121 1.074-0.31 2.752-0.31 2.752-0.008 0.073-0.062 0.133-0.133 0.15s-0.145-0.011-0.187-0.073c0 0-0.425-0.639-0.511-0.768-0.146 0-0.704 0-0.704 0-0.073 0-0.139-0.046-0.163-0.114 0 0-0.156-0.421-0.291-0.788-0.126 0.358-0.269 0.762-0.269 0.762-0.026 0.073-0.096 0.12-0.174 0.116s-0.143-0.058-0.161-0.134c0 0-0.251-1.049-0.453-1.902-0.121 1.073-0.31 2.751-0.31 2.751-0.009 0.073-0.062 0.133-0.133 0.15s-0.146-0.011-0.187-0.073c0 0-0.425-0.639-0.511-0.768-0.089 0-0.286 0-0.41 0v1.251c-0 0.612 0.493 1.108 1.108 1.108z"></path>
<path fill="#4493d1" d="M19.594 9.289h0.505c0.058 0 0.113 0.029 0.145 0.077 0 0 0.149 0.224 0.297 0.446 0.082-0.728 0.367-3.269 0.367-3.269 0.010-0.084 0.079-0.151 0.164-0.155s0.161 0.052 0.181 0.134c0 0 0.372 1.561 0.549 2.299 0.116-0.328 0.234-0.661 0.234-0.661 0.024-0.069 0.089-0.116 0.163-0.116s0.14 0.046 0.166 0.114c0 0 0.346 0.94 0.414 1.129 0.176 0 0.675 0 0.675 0 0.059 0 0.113 0.029 0.146 0.077 0 0 0.148 0.224 0.297 0.446 0.082-0.728 0.367-3.269 0.367-3.269 0.009-0.084 0.078-0.151 0.164-0.155 0.084-0.005 0.161 0.052 0.181 0.134 0 0 0.372 1.56 0.549 2.299 0.115-0.328 0.233-0.661 0.233-0.661 0.025-0.069 0.090-0.116 0.163-0.116s0.141 0.046 0.166 0.114l0.415 1.129h0.671v-3.004c0-0.612-0.495-1.106-1.107-1.106h-4.999c-0.614 0-1.108 0.495-1.108 1.106h0.001v3.004z"></path>
<path fill="#4493d1" d="M27.779 0.191l-23.392 0c-2.292 0-4.157 1.865-4.157 4.157v23.391c0 2.293 1.865 4.158 4.157 4.158h23.392c2.292 0 4.158-1.865 4.158-4.158v-23.391c0-2.293-1.866-4.157-4.158-4.157zM12.157 7.848c0.174 0 0.316 0.141 0.316 0.316 0 0.133 0.107 0.241 0.24 0.241s0.24-0.108 0.24-0.241c0-0.782 0.636-1.418 1.418-1.418 0.785 0 1.425 0.64 1.425 1.426v7.31h-0.633v-7.31c0-0.438-0.356-0.793-0.792-0.793-0.433 0-0.786 0.352-0.786 0.785 0 0.482-0.39 0.873-0.872 0.873s-0.872-0.391-0.872-0.873c-0-0.175 0.141-0.316 0.315-0.316zM23.414 16.215c0.704 0 1.272 0.552 1.279 1.251l0.003 3.377h-12.854v-4.627l11.572-0.001zM11.891 9.708h2.056c0 0 0.158 0.685 0.158 1.779s-0.158 1.779-0.158 1.779h-0.804c0.001 0.091 0.014 1.257-0.704 2.217h-0.57c0.865-0.877 0.84-2.197 0.839-2.211 0-0.003 0.002-0.004 0.002-0.006h-0.818c0 0-0.184-0.554-0.184-1.779s0.184-1.779 0.184-1.779zM9.548 15.592c0.885 0 1.601 0.716 1.601 1.601s-0.716 1.602-1.601 1.602c-0.886 0-1.604-0.717-1.604-1.602s0.718-1.601 1.604-1.601zM8.083 19.266h2.277c0.436 0 0.79 0.353 0.79 0.787s-0.353 0.79-0.79 0.79h-2.277c-0.436 0-0.789-0.355-0.789-0.79s0.353-0.787 0.789-0.787zM25.459 27.687v-3.523h-18.732v3.523h-2.105v-13.281c0-0.574 0.452-1.041 1.029-1.041v-0.001c0.575 0 1.076 0.468 1.076 1.042v7.236h18.732v-5.127c0-0.575 0.469-1.041 1.044-1.041s1.042 0.467 1.042 1.041v11.173h-2.085zM27.545 12.689h-8.695v-8.287h8.695v8.287z"></path>
</svg>
