<?xml version="1.0" encoding="utf-8"?>
<!-- Generated by IcoMoon.io -->
<!DOCTYPE svg PUBLIC "-//W3C//DTD SVG 1.1//EN" "http://www.w3.org/Graphics/SVG/1.1/DTD/svg11.dtd">
<svg version="1.1" xmlns="http://www.w3.org/2000/svg" xmlns:xlink="http://www.w3.org/1999/xlink" width="32" height="32" viewBox="0 0 32 32">
<path fill="#4493d1" d="M27.467 0.33h-23.179c-2.271 0-4.119 1.848-4.119 4.12v23.178c0 2.272 1.848 4.12 4.119 4.12h23.179c2.271 0 4.12-1.848 4.12-4.12v-23.178c0-2.272-1.849-4.12-4.12-4.12zM15.82 3.040c1.924 0 3.484 1.56 3.484 3.483s-1.56 3.484-3.484 3.484c-1.924 0-3.485-1.561-3.485-3.484s1.56-3.483 3.485-3.483zM24.902 26.334c0 0.843-0.662 1.527-1.505 1.527s-1.525-0.684-1.525-1.527c0-0.982 0-9.741 0-9.741h-1.277v11.793h-9.497v-11.793h-1.263c0 0 0 8.759 0 9.741 0 0.843-0.682 1.527-1.525 1.527-0.841 0-1.504-0.684-1.504-1.527s0-9.549 0-10.804c0-2.465 2.199-4.463 4.664-4.463 0.54 0 2.178 0 3.921 0v3.296l-0.754 0.208v-0.82c0-0.49-0.448-0.935-1.263-0.387-1.145 0.774-2.382 5.169-1.042 4.997 0.648-0.083 1.014-0.396 1.726-0.436 0.577-0.030 0.579-0.279 0.579-0.606s0-1.378 0-1.378v-0.512c0.194-0.054 0.493-0.136 0.754-0.209v4.633c0.001 0 0.013 0.325-0.294 0.325h-0.315c-0.006 0-0.011-0.003-0.017-0.003h-0.927c-0.825 0-1.496 0.672-1.496 1.498s0.671 1.498 1.496 1.498h4.154c0.147 0 0.267 0.12 0.267 0.268s-0.12 0.267-0.267 0.267h-4.298c-0.656 0-1.191 0.535-1.191 1.192s0.534 1.191 1.191 1.191h4.298c0.147 0 0.267 0.12 0.267 0.268s-0.12 0.267-0.267 0.267h-5.027c-0.255 0-0.462 0.207-0.462 0.462s0.207 0.462 0.462 0.462h5.027c0.656 0 1.191-0.534 1.191-1.191s-0.534-1.192-1.191-1.192h-4.298c-0.147 0-0.267-0.119-0.267-0.267 0-0.148 0.12-0.268 0.267-0.268h4.298c0.656 0 1.191-0.534 1.191-1.191s-0.534-1.191-1.191-1.191h-4.154c-0.316 0-0.573-0.257-0.573-0.574s0.257-0.575 0.573-0.575h0.701c0.622 1.167 2.604 0.643 2.968 0.421 1.578-0.93 1.258-2.071 0.748-2.468-0.809-0.626-1.94 0.142-1.94 0.142v-4.023c0.227 0.056 0.51 0.125 0.754 0.184v0.586c0 0-0.001 1.051 0 1.378s0.001 0.576 0.579 0.606c0.712 0.040 1.078 0.354 1.725 0.436 1.34 0.173 0.105-4.222-1.043-4.996-0.815-0.548-1.262-0.103-1.262 0.387v0.754l-0.754-0.185v-3.253c1.802 0 3.531 0 4.102 0 2.465 0 4.485 1.998 4.485 4.462 0 1.255 0 9.961 0 10.804z"></path>
</svg>
