<?xml version="1.0" encoding="utf-8"?>
<!-- Generated by IcoMoon.io -->
<!DOCTYPE svg PUBLIC "-//W3C//DTD SVG 1.1//EN" "http://www.w3.org/Graphics/SVG/1.1/DTD/svg11.dtd">
<svg version="1.1" xmlns="http://www.w3.org/2000/svg" xmlns:xlink="http://www.w3.org/1999/xlink" width="32" height="32" viewBox="0 0 32 32">
<path fill="#4493d1" d="M27.752 0.24h-23.392c-2.292 0-4.157 1.865-4.157 4.158v23.39c0 2.293 1.865 4.158 4.157 4.158h23.392c2.292 0 4.158-1.865 4.158-4.158v-23.39c0-2.293-1.865-4.158-4.158-4.158zM26.835 14.226c0 0.798-0.654 1.446-1.458 1.446s-1.458-0.648-1.458-1.446c0-0.799 0.653-1.446 1.458-1.446s1.458 0.647 1.458 1.446zM25.436 9.588l0.555 0.031c-0.062 1.109-1.013 1.961-2.122 1.901l0.030-0.554c0.804 0.044 1.493-0.575 1.537-1.378zM23.882 7.628l0.547-0.095c0.19 1.094-0.546 2.139-1.64 2.33l-0.095-0.547c0.793-0.138 1.326-0.895 1.188-1.688zM21.926 6.069l0.512-0.215c0.431 1.023-0.051 2.207-1.073 2.638l-0.216-0.512c0.741-0.313 1.089-1.17 0.777-1.911zM19.67 4.989l0.45-0.325c0.65 0.901 0.447 2.161-0.452 2.812l-0.325-0.45c0.65-0.471 0.798-1.386 0.327-2.038zM16.059 4.539c1.051 0 1.905 0.853 1.905 1.905s-0.854 1.903-1.905 1.903c-1.050 0-1.903-0.851-1.903-1.903s0.853-1.905 1.903-1.905zM10.892 5.149c1.102 0.132 1.892 1.136 1.761 2.239l-0.551-0.065c0.095-0.799-0.477-1.527-1.276-1.622l0.066-0.551zM9.472 9.694l-0.524 0.183c-0.264-0.76-1.098-1.162-1.859-0.898l-0.182-0.524c1.048-0.365 2.199 0.191 2.565 1.239zM8.351 11.322l-0.469 0.297c-0.428-0.68-1.332-0.886-2.013-0.457l-0.296-0.47c0.94-0.592 2.186-0.308 2.778 0.63zM6.465 12.595c0.798 0 1.447 0.648 1.447 1.448 0 0.798-0.649 1.447-1.447 1.447s-1.447-0.649-1.447-1.447c-0-0.8 0.648-1.448 1.447-1.448zM7.275 15.955c-0.011 1.443-0.318 1.634-0.84 1.634-0.526 0-0.805-0.191-0.817-1.634 0.517 0 1.134 0 1.657 0zM10.192 22.29c0 0.35-0.276 0.635-0.626 0.635-0.348 0-0.631-0.284-0.631-0.635 0-0.406 0-4.041 0-4.041h-0.529v5.091h-3.942v-5.092h-0.524c0 0 0 3.635 0 4.042 0 0.35-0.284 0.635-0.633 0.635s-0.624-0.284-0.624-0.635c0-0.349 0-3.962 0-4.483 0-1.023 0.912-1.852 1.936-1.852 0.111 0 0.337 0 0.623 0 0 1.36 0.392 2.011 1.029 2.011v1.63c-0.179 0.076-0.304 0.253-0.304 0.461 0 0.278 0.221 0.498 0.499 0.498 0.277 0 0.499-0.228 0.499-0.505 0-0.207-0.126-0.385-0.305-0.461v-1.629c0.606 0 1.018-0.596 1.018-2.005 0.298 0 0.537 0 0.655 0 1.023 0 1.861 0.829 1.861 1.852 0 0.521 0 4.134 0 4.483zM10.38 8.42c-0.088-0.799-0.809-1.38-1.609-1.293l-0.060-0.552c1.104-0.12 2.1 0.681 2.221 1.784l-0.551 0.061zM20.607 17.021c0 0.453-0.367 0.82-0.82 0.82s-0.82-0.367-0.82-0.82l-0.003-5.539h-0.482v15.021c0 0.593-0.481 1.073-1.074 1.073s-1.074-0.48-1.074-1.073v-9.303h-0.55v9.303c0 0.593-0.482 1.073-1.076 1.073s-1.073-0.48-1.073-1.073v-15.021h-0.483l-0.001 5.539c0 0.453-0.367 0.82-0.82 0.82s-0.82-0.367-0.82-0.82v-6.124c0-1.349 0.965-2.113 2.287-2.113h4.522c1.321 0 2.287 0.764 2.287 2.113v6.124zM29.322 22.409c-0.326 0.093-0.66-0.071-0.746-0.37l-1.116-3.896-0.545-0.001 1.492 5.197h-6.060l1.49-5.197-0.544 0.001-1.116 3.896c-0.085 0.299-0.419 0.463-0.745 0.37-0.327-0.093-0.533-0.379-0.424-0.753l1.148-3.997c0.459-1.598 1.796-1.548 1.796-1.548h2.85c0 0 1.337-0.050 1.796 1.548l1.147 3.997c0.11 0.374-0.096 0.659-0.423 0.753z"></path>
</svg>
