<?xml version="1.0" encoding="utf-8"?>
<!-- Generated by IcoMoon.io -->
<!DOCTYPE svg PUBLIC "-//W3C//DTD SVG 1.1//EN" "http://www.w3.org/Graphics/SVG/1.1/DTD/svg11.dtd">
<svg version="1.1" xmlns="http://www.w3.org/2000/svg" xmlns:xlink="http://www.w3.org/1999/xlink" width="32" height="32" viewBox="0 0 32 32">
<path fill="#4493d1" d="M19.617 21.468c-0.175-0.337-0.709-0.861-1.289-0.861-0.691 0-1.251 0.522-1.251 1.17 0 0.329 0.087 0.73 0.32 0.941 0.119 0.108 0.205 0.221 0.216 0.457 0.009 0.263-0.056 0.406-0.171 0.531-0.113 0.117-0.272 0.333-0.313 0.444s-0.052 0.205-0.052 0.315c0 0.646 0.561 1.17 1.251 1.17 0.676 0 1.202-0.608 1.397-1.142 0.142-0.491 0.248-0.976 0.227-1.576-0.019-0.636-0.202-1.178-0.335-1.448z"></path>
<path fill="#4493d1" d="M14.88 22.717c0.234-0.211 0.315-0.612 0.315-0.941 0-0.648-0.555-1.17-1.247-1.17-0.582 0-1.114 0.524-1.29 0.861-0.135 0.27-0.315 0.813-0.335 1.448-0.020 0.599 0.089 1.085 0.23 1.576 0.193 0.534 0.716 1.142 1.395 1.142 0.692 0 1.247-0.524 1.247-1.17 0-0.11-0.008-0.205-0.050-0.315-0.038-0.111-0.2-0.327-0.31-0.444-0.119-0.125-0.182-0.267-0.171-0.531 0.010-0.235 0.095-0.348 0.216-0.456z"></path>
<path fill="#4493d1" d="M27.817 0.177h-23.393c-2.292 0-4.157 1.865-4.157 4.158v23.39c0 2.293 1.865 4.158 4.157 4.158h23.393c2.292 0 4.157-1.865 4.157-4.158v-23.39c0-2.293-1.865-4.158-4.157-4.158zM16.103 2.865c1.943 0 3.517 1.573 3.517 3.515 0 1.941-1.574 3.515-3.517 3.515-1.941 0-3.516-1.574-3.516-3.515 0-1.942 1.575-3.515 3.516-3.515zM25.269 26.373c0 0.851-0.669 1.54-1.52 1.54s-1.539-0.69-1.539-1.54c0-0.991 0-9.829 0-9.829h-1.288v11.901h-9.586v-11.901h-1.275c0 0 0 8.839 0 9.829 0 0.851-0.687 1.54-1.538 1.54-0.849 0-1.519-0.69-1.519-1.54s0-9.637 0-10.903c0-2.487 2.219-4.504 4.707-4.504 1.203 0 7.795 0 9.029 0 2.489 0 4.527 2.017 4.527 4.504 0 1.266 0 10.053 0 10.903z"></path>
</svg>
