<?xml version="1.0" encoding="utf-8"?>
<!-- Generated by IcoMoon.io -->
<!DOCTYPE svg PUBLIC "-//W3C//DTD SVG 1.1//EN" "http://www.w3.org/Graphics/SVG/1.1/DTD/svg11.dtd">
<svg version="1.1" xmlns="http://www.w3.org/2000/svg" xmlns:xlink="http://www.w3.org/1999/xlink" width="32" height="32" viewBox="0 0 32 32">
<path fill="#4493d1" d="M11.386 7.709v6.062c0.001 0.458-0.36 0.829-0.814 0.831-0.452 0-0.828-0.373-0.828-0.831v-6.062h-1.585v6.062c0 0.458-0.361 0.829-0.815 0.831-0.452 0-0.827-0.373-0.827-0.831v-6.062h-1.523v7.882h7.894v-7.882h-1.503z"></path>
<path fill="#4493d1" d="M27.714 0.212l-23.393-0c-2.292 0-4.157 1.865-4.157 4.158v23.391c0 2.293 1.865 4.158 4.157 4.158h23.393c2.292 0 4.157-1.865 4.157-4.158v-23.391c0-2.293-1.865-4.158-4.157-4.158zM4.191 16.394v-9.488h2.327v-1.894h-0.25l-0.004-0.454h2.126l0.003 0.454h-0.232v1.894h1.585v-1.894h-0.25l-0.003-0.454h2.124l0.003 0.454h-0.233v1.894h2.307v9.488h-9.503zM12.905 18.986l5.814 3.359-0.575 0.997-5.815-3.359 0.576-0.997zM27.349 27.64h-14.297v-2.386c0 0 2.752 0 5.079 0 3.475 0 6.304-2.827 6.304-6.302 0-2.197-1.141-4.182-2.918-5.315l-2.898 5.020-0.601-0.347-0.855 1.479-1.515-0.875 0.855-1.478-0.602-0.347 6.893-11.94 0.464 0.268 0.693-1.201 1.813 1.047-0.692 1.202 0.44 0.254-2.804 4.853c2.503 1.552 4.112 4.316 4.112 7.381 0 2.487-1.064 4.716-2.744 6.302 1.155 0 3.272 0 3.272-0v2.386z"></path>
</svg>
