<?xml version="1.0" encoding="utf-8"?>
<!-- Generated by IcoMoon.io -->
<!DOCTYPE svg PUBLIC "-//W3C//DTD SVG 1.1//EN" "http://www.w3.org/Graphics/SVG/1.1/DTD/svg11.dtd">
<svg version="1.1" xmlns="http://www.w3.org/2000/svg" xmlns:xlink="http://www.w3.org/1999/xlink" width="32" height="32" viewBox="0 0 32 32">
<path fill="#4493d1" d="M27.775 0.102l-23.393-0c-2.292 0-4.157 1.865-4.157 4.158v23.391c0 2.293 1.865 4.158 4.157 4.158h23.393c2.292 0 4.157-1.865 4.157-4.158v-23.391c0-2.293-1.865-4.158-4.157-4.158zM16.058 3.464c1.686 0 3.054 1.356 3.054 3.029s-1.368 3.031-3.054 3.031c-1.686 0-3.055-1.357-3.055-3.031s1.369-3.029 3.055-3.029zM24.326 23.649c-0.684 0.196-1.384-0.148-1.563-0.775l-2.339-8.164-1.141-0.002 3.737 13.026h-13.926l3.738-13.027-1.142 0.002-2.338 8.164c-0.18 0.627-0.88 0.971-1.562 0.775-0.684-0.196-1.116-0.794-0.887-1.576l2.405-8.377c0.961-3.348 3.763-3.243 3.763-3.243h5.972c0 0 2.802-0.104 3.764 3.243l2.404 8.377c0.23 0.783-0.203 1.38-0.886 1.576z"></path>
<path fill="#4493d1" d="M16.059 17.931c-2.495 0-4.517 2.020-4.517 4.516 0 2.493 2.022 4.516 4.517 4.516 2.492 0 4.514-2.022 4.514-4.516 0-2.495-2.022-4.516-4.514-4.516zM18.040 22.858c-0.107 0.227-0.678 1.431-0.794 1.673-0.321 0.677-1.131 0.966-1.809 0.646-0.22-0.106-0.388-0.268-0.53-0.446-0.215-0.271-0.358-0.993-0.358-0.993-0.225 0.159-0.802 0.522-1.040 0.692-0.217 0.151-0.517 0.1-0.669-0.117-0.154-0.217-0.101-0.516 0.115-0.669 0.343-0.24 1.294-0.887 1.294-0.887 0.289-0.203 0.688-0.137 0.891 0.154l0.404 0.821 0.642-1.298-0.561-0.164c-0.123-0.035-0.225-0.12-0.285-0.234l-0.55-1.057c-0.119-0.229-0.031-0.512 0.199-0.63 0.228-0.12 0.511-0.030 0.631 0.198 0 0 0.331 0.636 0.458 0.882 0.302 0.089 1.532 0.446 1.532 0.446 0.067 0.021 0.123 0.058 0.173 0.102 0.292 0.186 0.409 0.563 0.257 0.884zM18.473 20.833c-0.257 0.54-0.903 0.772-1.444 0.514-0.543-0.255-0.773-0.902-0.517-1.445 0.257-0.54 0.904-0.772 1.445-0.515s0.772 0.904 0.516 1.446z"></path>
</svg>
