<?xml version="1.0" encoding="utf-8"?>
<!-- Generated by IcoMoon.io -->
<!DOCTYPE svg PUBLIC "-//W3C//DTD SVG 1.1//EN" "http://www.w3.org/Graphics/SVG/1.1/DTD/svg11.dtd">
<svg version="1.1" xmlns="http://www.w3.org/2000/svg" xmlns:xlink="http://www.w3.org/1999/xlink" width="32" height="32" viewBox="0 0 32 32">
<path fill="#4493d1" d="M27.519 0.223h-23.199c-2.273 0-4.122 1.865-4.122 4.158v23.391c0 2.293 1.849 4.157 4.122 4.157h23.199c2.273 0 4.124-1.864 4.384-4.188v-23.391c-0.261-2.262-2.111-4.127-4.384-4.127zM16.341 7.696c1.587 0 2.87 1.294 2.87 2.892s-1.011 2.895-2.87 2.895c-1.585 0-2.87-1.296-2.87-2.895s1.286-2.892 2.87-2.892zM4.794 16.663h5.103l-1.653 5.483h-3.449v-5.483zM27.1 27.358h-1.846v-5.212h-4.114l1.478 5.212h-12.263l1.473-5.212h-1.004l-1.271 4.348c-0.156 0.543-0.649 0.895-1.181 0.895-0.114 0-0.23-0.016-0.346-0.049-0.653-0.193-1.028-0.882-0.838-1.54l1.056-3.653h2.58l1.048-3.66h0.987l-1.022 3.66h9.303l-0.929-3.283c-0.15-0.529-0.129-0.801-0.052-1.017l0.604-1.183h-10.865l0.061-0.169c0.356-0.823 1.72-2.249 3.72-2.249h5.6l1.911-3.377-1.089-4.436c-0.163-0.666 0.24-1.338 0.901-1.503 0.658-0.165 1.327 0.242 1.491 0.907l1.207 4.918c0.076 0.31 0.031 0.637-0.125 0.914l-2.811 4.996h4.491v-11.797h1.846v22.492zM13.246 19.406c0-0.84 0.675-1.52 1.509-1.52 0.833 0 1.506 0.68 1.507 1.52 0 0.839-0.674 1.521-1.507 1.521-0.834 0-1.509-0.682-1.509-1.521zM16.706 19.406c0-0.84 0.675-1.52 1.508-1.52s1.507 0.68 1.507 1.52c0 0.839-0.674 1.521-1.507 1.521s-1.508-0.682-1.508-1.521z"></path>
</svg>
