<?xml version="1.0" encoding="utf-8"?>
<!-- Generated by IcoMoon.io -->
<!DOCTYPE svg PUBLIC "-//W3C//DTD SVG 1.1//EN" "http://www.w3.org/Graphics/SVG/1.1/DTD/svg11.dtd">
<svg version="1.1" xmlns="http://www.w3.org/2000/svg" xmlns:xlink="http://www.w3.org/1999/xlink" width="32" height="32" viewBox="0 0 32 32">
<path fill="none" stroke="#4493d1" stroke-width="1.6842" stroke-miterlimit="10" stroke-linecap="butt" stroke-linejoin="miter" d="M15.158 4.211c4.264 0 4.369 3.368 9.263 3.368 0 1.323 0 11.594 0 13.417 0 3.425-1.684 4.267-5.401 7.362-0.872 0.727-1.92 1.116-3.020 1.116s-2.145-0.392-3.020-1.119c-3.717-3.091-5.401-3.933-5.401-7.358 0-1.823 0-14.996 0-14.996s3.709-2.702 5.069-3.488 2.615-1.67 4.503-1.67c3.375 0 4.269 3.368 7.27 3.368 0.474 0 0.842 0 0.842 0M16 13.474v6.737M9.66 15.158c0 0 1.358 0.842 2.189 0.842s1.678 0 1.678 0M18.474 16c0 0 0.848 0 1.678 0s2.189-0.842 2.189-0.842M12.067 21.789c0 0 1.664 0.947 3.933 0.947 2.264 0 3.933-0.947 3.933-0.947M7.579 13.474c0 0-0.755-0.842-1.684-0.842s-1.684 0.755-1.684 1.684v3.368c0 1.859 1.508 3.368 3.368 3.368M24.421 21.053c1.86 0 3.368-1.508 3.368-3.368v-3.368c0-0.93-0.755-1.684-1.684-1.684s-1.684 0.842-1.684 0.842M15.158 12.632c-0.842 0-3.368-0.842-5.053-0.842-0.842 0-2.526 0.842-2.526 0.842M24.421 12.632c0 0-1.684-0.842-2.526-0.842-1.684 0-4.211 0.842-5.053 0.842M10.947 26.947v5.053M21.053 26.947v5.053"></path>
</svg>
