<?xml version="1.0" encoding="utf-8"?>
<!-- Generated by IcoMoon.io -->
<!DOCTYPE svg PUBLIC "-//W3C//DTD SVG 1.1//EN" "http://www.w3.org/Graphics/SVG/1.1/DTD/svg11.dtd">
<svg version="1.1" xmlns="http://www.w3.org/2000/svg" xmlns:xlink="http://www.w3.org/1999/xlink" width="32" height="32" viewBox="0 0 32 32">
<path fill="#4493d1" d="M21.595 20.201h2.749c0.215 0 0.388-0.174 0.388-0.387 0-0.215-0.173-0.389-0.388-0.389h-2.749c-0.214 0-0.387 0.174-0.387 0.389 0 0.213 0.173 0.387 0.387 0.387z"></path>
<path fill="#4493d1" d="M27.868 8.376h-9.757v7.664h9.757v-7.664zM27.16 15.39h-8.349v-6.361h8.349v6.361z"></path>
<path fill="#4493d1" d="M11.385 8.631h-1.586v1.585h-1.586v1.586h1.586v1.585h1.586v-1.585h1.585v-1.586h-1.585z"></path>
<path fill="#4493d1" d="M21.595 11.162h2.749c0.215 0 0.388-0.173 0.388-0.387 0-0.214-0.173-0.387-0.388-0.387h-2.749c-0.214 0-0.387 0.174-0.387 0.387 0 0.215 0.173 0.387 0.387 0.387z"></path>
<path fill="#4493d1" d="M27.806 0.273h-23.285c-2.282 0-4.138 1.857-4.138 4.139v23.284c0 2.283 1.856 4.139 4.138 4.139h23.285c2.282 0 4.139-1.856 4.139-4.139v-23.284c0-2.282-1.857-4.139-4.139-4.139zM4.626 5.681v5.208h-0.779c-0.147 0-0.267-0.119-0.267-0.267v-6.72c0-0.227 0.17-0.413 0.402-0.413h3.443c0.232 0 0.402 0.185 0.402 0.412v0.395h5.324c0.148 0 0.267 0.119 0.267 0.266v1.511h-4.545v-0.396c0-0.227-0.169-0.412-0.403-0.412h-3.442c-0.234 0-0.403 0.188-0.403 0.416zM15.245 14.309h-9.305c-0.148 0-0.267-0.119-0.267-0.266v-6.721c0-0.227 0.17-0.413 0.402-0.413h3.443c0.233 0 0.403 0.185 0.403 0.412v0.395h5.324c0.148 0 0.267 0.119 0.267 0.266v6.061h0c-0 0.148-0.119 0.266-0.267 0.266zM28.567 27.951h-11.153v-20.294h11.153v20.294z"></path>
<path fill="#4493d1" d="M27.868 17.416h-9.757v7.665h9.757v-7.665zM27.165 24.427h-8.348v-6.359h8.348v6.359z"></path>
</svg>
