<?xml version="1.0" encoding="utf-8"?>
<!-- Generated by IcoMoon.io -->
<!DOCTYPE svg PUBLIC "-//W3C//DTD SVG 1.1//EN" "http://www.w3.org/Graphics/SVG/1.1/DTD/svg11.dtd">
<svg version="1.1" xmlns="http://www.w3.org/2000/svg" xmlns:xlink="http://www.w3.org/1999/xlink" width="32" height="32" viewBox="0 0 32 32">
<path fill="#4493d1" d="M27.703 0.273h-23.287c-2.281 0-4.137 1.856-4.137 4.138v23.284c0 2.283 1.856 4.139 4.137 4.139h23.287c2.282 0 4.138-1.857 4.138-4.139v-23.284c0-2.282-1.856-4.138-4.138-4.138zM17.679 8.296c1.818 0 3.292 1.472 3.292 3.292 0 1.817-1.475 3.293-3.292 3.293s-3.292-1.476-3.292-3.293c0-1.819 1.474-3.292 3.292-3.292zM4.095 9.337v-2.635h2.635v-2.635h2.635v2.635h2.635v2.635h-2.635v2.634h-2.635v-2.634h-2.635zM26.32 26.529c-0.244 0-0.479-0.048-0.693-0.133l-2.931-0.815v2.922h-10.174v-2.922l-2.93 0.815c-0.215 0.086-0.449 0.133-0.693 0.133-1.036 0-1.876-0.842-1.876-1.877 0-0.389 0.118-0.751 0.32-1.050l4.7-6.444c0.51-0.699 1.223-1.478 2.725-1.478h5.682c1.502 0 2.215 0.779 2.725 1.478l4.7 6.444c0.202 0.299 0.321 0.66 0.321 1.050 0 1.035-0.841 1.877-1.876 1.877z"></path>
<path fill="#4493d1" d="M12.521 17.934v3.908l0.356-0.12c2.621-0.773 3.641 2.688 1.020 3.459l-0.084 0.024 3.796 1.256 3.796-1.256-0.086-0.024c-2.619-0.771-1.599-4.232 1.020-3.459l0.358 0.12v-3.908l-5.088 1.662-5.088-1.662z"></path>
</svg>
