<?xml version="1.0" encoding="utf-8"?>
<!-- Generated by IcoMoon.io -->
<!DOCTYPE svg PUBLIC "-//W3C//DTD SVG 1.1//EN" "http://www.w3.org/Graphics/SVG/1.1/DTD/svg11.dtd">
<svg version="1.1" xmlns="http://www.w3.org/2000/svg" xmlns:xlink="http://www.w3.org/1999/xlink" width="32" height="32" viewBox="0 0 32 32">
<path fill="#4493d1" d="M27.873 0.136h-23.501c-2.302 0-4.175 1.874-4.175 4.176v23.499c0 2.304 1.873 4.177 4.175 4.177h23.501c2.303 0 4.177-1.873 4.177-4.177v-23.499c0-2.303-1.874-4.176-4.177-4.176zM22.952 20.512v8.053h-10.123v-2.904h-1.487c-2.065 0-3.74-1.674-3.74-3.742v-2.652h-1.272c-0.423 0-0.767-0.344-0.767-0.765 0-0.106 0.019-0.207 0.057-0.297l1.982-4.991c0 0 0.205-2.068 0.391-2.859 0.825-3.561 4.795-6.793 9.1-6.793 5.237 0 9.484 4.248 9.484 9.49 0 3.027-1.418 5.725-3.625 7.462z"></path>
<path fill="#4493d1" d="M23.065 6.989l-1.162 0.818c-0.173-0.101-0.355-0.192-0.55-0.264-0.054-0.020-0.109-0.035-0.163-0.051l-0.253-1.451h-1.397l-0.236 1.397c-0.255 0.066-0.5 0.162-0.732 0.283l-1.202-0.85-0.991 0.989 0.823 1.157c-0.103 0.175-0.193 0.359-0.265 0.555-0.021 0.054-0.035 0.109-0.052 0.163l-1.199 0.206v-0.666l-0.916-0.157c-0.041-0.16-0.104-0.312-0.18-0.458l0.562-0.793-0.649-0.647-0.764 0.539c-0.111-0.065-0.226-0.125-0.352-0.172-0.032-0.012-0.066-0.015-0.098-0.025l-0.166-0.956h-0.912l-0.16 0.917c-0.161 0.042-0.314 0.105-0.461 0.182l-0.795-0.559-0.645 0.647 0.54 0.764c-0.065 0.111-0.126 0.225-0.171 0.351-0.012 0.033-0.020 0.066-0.030 0.099l-0.95 0.163v0.917l0.922 0.158c0.042 0.158 0.1 0.31 0.175 0.456l-0.561 0.794 0.646 0.648 0.766-0.54c0.111 0.066 0.227 0.126 0.353 0.173 0.032 0.012 0.066 0.015 0.098 0.026l0.166 0.956 0.911-0.001 0.16-0.916c0.16-0.042 0.312-0.105 0.459-0.181l0.791 0.558 0.649-0.647-0.539-0.764c0.065-0.111 0.125-0.225 0.17-0.349 0.013-0.033 0.015-0.067 0.027-0.101l0.703-0.121v1.147l1.396 0.24c0.066 0.255 0.162 0.499 0.283 0.732l-0.848 1.199 0.985 0.988 1.161-0.818c0.174 0.101 0.355 0.191 0.55 0.263 0.054 0.021 0.109 0.034 0.163 0.052l0.253 1.452h1.212l-0.1 0.581c-0.175 0.040-0.34 0.109-0.496 0.196l-0.58-0.409-0.454 0.455 0.392 0.556c-0.067 0.107-0.126 0.221-0.171 0.344-0.018 0.049-0.025 0.099-0.039 0.148l-0.704 0.12v0.641l0.673 0.117c0.039 0.176 0.108 0.341 0.196 0.498l-0.41 0.579 0.453 0.456 0.556-0.394c0.107 0.068 0.222 0.127 0.346 0.173 0.049 0.018 0.099 0.025 0.15 0.039l0.116 0.7h0.644l0.118-0.671c0.176-0.039 0.341-0.108 0.498-0.196l0.576 0.409 0.456-0.455-0.392-0.552c0.069-0.108 0.129-0.223 0.175-0.347 0.017-0.048 0.024-0.098 0.038-0.147l0.697-0.12v-0.644l-0.669-0.115c-0.039-0.175-0.108-0.341-0.196-0.497l0.409-0.58-0.455-0.455-0.555 0.39c-0.106-0.068-0.22-0.126-0.344-0.172-0.047-0.017-0.096-0.024-0.144-0.037l-0.123-0.7h-0.46l0.222-1.309c0.254-0.065 0.498-0.161 0.729-0.282l1.203 0.85 0.987-0.987-0.82-1.161c0.102-0.174 0.193-0.356 0.265-0.551 0.020-0.054 0.034-0.109 0.051-0.163l1.452-0.25v-1.397l-1.399-0.241c-0.066-0.253-0.162-0.497-0.282-0.728l0.848-1.204-0.983-0.987zM12.575 10.6c-0.554 0-1.002-0.448-1.002-1.001 0-0.555 0.449-1.003 1.002-1.003 0.555 0 1.002 0.448 1.002 1.003 0 0.553-0.448 1.001-1.002 1.001zM20.889 16.886c0.55 0 0.997 0.448 0.997 1.001s-0.447 1.001-0.997 1.001c-0.553 0-1.003-0.448-1.003-1.001s0.45-1.001 1.003-1.001zM20.121 11.684c-0.55 0-0.999-0.447-0.999-1.001 0-0.555 0.448-1.002 0.999-1.002 0.552 0 0.999 0.447 0.999 1.002 0 0.554-0.447 1.001-0.999 1.001z"></path>
<path fill="#4493d1" d="M9.932 12.986c-0.581 0-1.055 0.473-1.055 1.057 0 0.587 0.474 1.061 1.055 1.061 0.586 0 1.063-0.474 1.063-1.061 0-0.583-0.477-1.057-1.063-1.057z"></path>
</svg>
