<?xml version="1.0" encoding="utf-8"?>
<!-- Generated by IcoMoon.io -->
<!DOCTYPE svg PUBLIC "-//W3C//DTD SVG 1.1//EN" "http://www.w3.org/Graphics/SVG/1.1/DTD/svg11.dtd">
<svg version="1.1" xmlns="http://www.w3.org/2000/svg" xmlns:xlink="http://www.w3.org/1999/xlink" width="32" height="32" viewBox="0 0 32 32">
<path fill="#4493d1" d="M27.787 0.25h-23.392c-2.292 0-4.157 1.865-4.157 4.157v23.391c0 2.293 1.865 4.158 4.157 4.158h23.392c2.292 0 4.157-1.865 4.157-4.158v-23.391c0-2.292-1.865-4.157-4.157-4.157zM2.452 13.727l3.865-0.592h6.5c1.098 0 1.98 0.886 1.98 1.976 0 1.086-0.875 1.963-1.964 1.972l-7.048-0.001c-0.47-0.006-0.848-0.387-0.848-0.857 0-0.475 0.384-0.859 0.859-0.859h3.641l2.965-0.619-0.16-0.766-2.886 0.603h-3.56c-0.906 0-1.642 0.736-1.642 1.642 0 0.315 0.094 0.607 0.248 0.857l-1.951-0.001v-3.355zM16.201 10.829c-1.304 0-2.497 0.469-3.424 1.245h-3.288c1.38-2.253 3.857-3.761 6.692-3.761 4.337 0 7.851 3.515 7.851 7.852s-3.515 7.852-7.851 7.852c-2.528 0-4.771-1.2-6.206-3.055h3.898c0.704 0.342 1.492 0.54 2.328 0.54 2.947 0 5.336-2.389 5.336-5.337s-2.389-5.337-5.336-5.337zM19.181 15.144c0 1.069-0.872 1.941-1.942 1.941s-1.941-0.872-1.941-1.941c0-1.073 0.87-1.94 1.941-1.94 1.070 0 1.942 0.868 1.942 1.94zM2.458 19.901v-1.534h16.36v1.534h-16.36zM16.181 28.285c-4.995 0-9.285-3.016-11.152-7.324h3.971c1.549 2.315 4.186 3.841 7.181 3.841 4.77 0 8.636-3.866 8.636-8.636s-3.866-8.637-8.636-8.637c-3.288 0-6.146 1.839-7.605 4.544l-2.43-0.001-1.497 0.233c1.604-4.835 6.159-8.325 11.532-8.325 6.711 0 12.152 5.441 12.152 12.152s-5.441 12.152-12.152 12.152z"></path>
<path fill="#4493d1" d="M18.658 6.277c-1.606-0.401-3.309-0.401-4.914 0-0.207 0.052-0.333 0.261-0.281 0.467s0.261 0.335 0.467 0.28c1.484-0.37 3.059-0.37 4.542 0 0.031 0.009 0.063 0.012 0.094 0.012 0.173 0 0.329-0.117 0.374-0.292 0.051-0.206-0.074-0.415-0.281-0.467z"></path>
</svg>
