<?xml version="1.0" encoding="utf-8"?>
<!-- Generated by IcoMoon.io -->
<!DOCTYPE svg PUBLIC "-//W3C//DTD SVG 1.1//EN" "http://www.w3.org/Graphics/SVG/1.1/DTD/svg11.dtd">
<svg version="1.1" xmlns="http://www.w3.org/2000/svg" xmlns:xlink="http://www.w3.org/1999/xlink" width="32" height="32" viewBox="0 0 32 32">
<path fill="none" stroke="#4493d1" stroke-width="1.6842" stroke-miterlimit="10" stroke-linecap="butt" stroke-linejoin="miter" d="M30.316 27.789c0 0-7.291 0-7.579 0-2.842 0-6.737-1.754-6.737-5.895 0 0 0-13.384 0-15.998 0-0.93 0.755-1.684 1.684-1.684s1.684 0.419 1.684 0.419v9.684M16 5.896c0 0 0-2.439 0-3.368s0.755-1.684 1.684-1.684 1.684 0.419 1.684 0.419v7.158c0 0 1.851 6.284 3.106 9.996 0.165 0.488 0.473 0.952 1.105 0.952s6.737 0 6.737 0M1.684 27.789c0 0 7.291 0 7.579 0 2.842 0 6.737-1.754 6.737-5.895 0 0 0-13.384 0-15.998 0-0.93-0.755-1.684-1.684-1.684s-1.684 0.419-1.684 0.419v9.684M1.684 19.368c0 0 6.105 0 6.737 0s0.94-0.464 1.105-0.952c1.255-3.712 3.106-9.996 3.106-9.996v-7.158c0 0 0.755-0.419 1.684-0.419s1.684 0.755 1.684 1.684 0 3.368 0 3.368"></path>
</svg>
