<?xml version="1.0" encoding="utf-8"?>
<!-- Generated by IcoMoon.io -->
<!DOCTYPE svg PUBLIC "-//W3C//DTD SVG 1.1//EN" "http://www.w3.org/Graphics/SVG/1.1/DTD/svg11.dtd">
<svg version="1.1" xmlns="http://www.w3.org/2000/svg" xmlns:xlink="http://www.w3.org/1999/xlink" width="32" height="32" viewBox="0 0 32 32">
<path fill="none" stroke="#4493d1" stroke-width="1.6842" stroke-miterlimit="10" stroke-linecap="butt" stroke-linejoin="miter" d="M2.526 20.211c0 0 0 0.554 0 0.842 0 2.842 1.754 5.053 5.895 5.053 2.526 0 4.562 0 8.421 0 4.328 0 8.771 0.001 9.263 0 0.93 0 1.684-0.754 1.684-1.684s-0.755-1.684-1.684-1.684c-0.931-0.001-9.286-0.001-9.286-0.001M27.563 19.368c0 0 1.779 0 1.911 0 0.93 0 1.684-0.755 1.684-1.684s-0.755-1.684-1.684-1.684-10.947 0-10.947 0M24.627 22.737c0 0 3.031 0 3.162 0 0.93 0 1.684-0.755 1.684-1.684s-0.755-1.684-1.684-1.684-9.263 0-9.263 0M21.089 12.841c0 0-2.534-2.068-2.785-2.273-0.721-0.588-0.829-1.649-0.241-2.369s1.649-0.828 2.369-0.241c0.296 0.24 1.8 1.459 2.938 2.379 0.997 0.804 1.051 1.241 1.051 1.732 0 0.879-0.367 1.485-1.54 2.24-2.084 1.34-3.592 1.69-3.592 1.69M2.526 18.526c0 0 0-1.072 0-1.579 0-3.72 5.326-11.001 9.677-11.020 0.842-0.004 2.86-0.029 3.789-0.033s1.687 0.746 1.691 1.677c0.004 0.93-0.746 1.688-1.677 1.691s-3.229 0.020-3.646 0.022c0 0.001-1.413 0.82-1.413 1.662s1.404 1.684 5.053 1.684c2.667 0 3.453-0.817 3.624-0.986"></path>
</svg>
