<?xml version="1.0" encoding="utf-8"?>
<!-- Generated by IcoMoon.io -->
<!DOCTYPE svg PUBLIC "-//W3C//DTD SVG 1.1//EN" "http://www.w3.org/Graphics/SVG/1.1/DTD/svg11.dtd">
<svg version="1.1" xmlns="http://www.w3.org/2000/svg" xmlns:xlink="http://www.w3.org/1999/xlink" width="32" height="32" viewBox="0 0 32 32">
<path fill="none" stroke="#4493d1" stroke-width="1.6842" stroke-miterlimit="10" stroke-linecap="butt" stroke-linejoin="miter" d="M20.632 22.439c1.684-0.242 2.105 0.754 2.105 1.456 0 0.662-0.451 1.309-1.144 1.54-1.72 0.573-4.092 0.67-5.592 0.67-2.5 0-6.562-0.912-9.579-3.929-3.368-3.368-4.615-5.824-5.579-6.176v-5.053c0 0 1.684 0 4.211 0s5.053 1.684 5.053 1.684 3.281 0 4.211 0 1.684 0.755 1.684 1.684-0.755 1.684-1.684 1.684-2.175 0-3.368 0-1.684 0.632-1.684 1.684c0 3.263 3.509 5.053 7.579 5.053 2.105 0 5.71-0.105 9.263-2.526 3.937-2.683 4.237-3.914 5.053-4.211v-5.053c0 0-1.684 0-4.211 0s-5.053 1.684-5.053 1.684-3.281 0-4.211 0-1.684 0.755-1.684 1.684 0.755 1.684 1.684 1.684 2.176 0 3.368 0c0.737 0 1.684 0.071 1.684 1.123 0 1.438-2.562 2.245-5.895 2.245-2.151 0-3.934-0.798-5.165-1.581-1.18-0.749-2.399 0.239-2.399 0.239"></path>
</svg>
