<?xml version="1.0" encoding="utf-8"?>
<!-- Generated by IcoMoon.io -->
<!DOCTYPE svg PUBLIC "-//W3C//DTD SVG 1.1//EN" "http://www.w3.org/Graphics/SVG/1.1/DTD/svg11.dtd">
<svg version="1.1" xmlns="http://www.w3.org/2000/svg" xmlns:xlink="http://www.w3.org/1999/xlink" width="32" height="32" viewBox="0 0 32 32">
<path fill="#4493d1" d="M9.962 13.070c-0.586 0-1.061 0.474-1.061 1.058 0 0.586 0.476 1.061 1.061 1.061 0.581 0 1.057-0.475 1.057-1.061 0-0.584-0.476-1.058-1.057-1.058z"></path>
<path fill="#4493d1" d="M18.342 23.852h2.241v1.214h-2.241v-1.214z"></path>
<path fill="#4493d1" d="M18.342 22.13h2.241v1.212h-2.241v-1.212z"></path>
<path fill="#4493d1" d="M18.342 25.577h2.241v1.214h-2.241v-1.214z"></path>
<path fill="#4493d1" d="M18.342 20.405h2.241v1.211h-2.241v-1.211z"></path>
<path fill="#4493d1" d="M27.745 0.282h-23.392c-2.291 0-4.156 1.865-4.156 4.157v23.391c0 2.293 1.865 4.158 4.156 4.158h23.392c2.292 0 4.158-1.865 4.158-4.158v-23.391c0-2.292-1.865-4.157-4.157-4.157zM22.922 20.573v8.019h-2.34v-1.29h-2.241v1.29h-5.501v-2.892h-1.48c-2.057 0-3.723-1.668-3.723-3.728v-2.64h-1.267c-0.421 0-0.76-0.341-0.76-0.76 0-0.105 0.019-0.207 0.058-0.296l1.969-4.97c0 0 0.206-2.059 0.389-2.847 0.822-3.546 4.774-6.765 9.061-6.765 5.22 0 9.447 4.23 9.447 9.45 0 3.013-1.414 5.7-3.612 7.429z"></path>
<path fill="#4493d1" d="M22.403 7.259c-0.38-0.849-1.232-1.441-2.217-1.441-0.197 0-0.385 0.026-0.568 0.070-0.435-0.403-1.016-0.652-1.653-0.652-0.496 0-0.957 0.149-1.343 0.405-0.341-0.184-0.73-0.287-1.145-0.287-0.837 0-1.576 0.421-2.015 1.064-0.058-0.004-0.114-0.009-0.176-0.009-1.166 0-2.136 0.819-2.376 1.913-0.887 0.378-1.508 1.258-1.508 2.284 0 1.372 1.11 2.485 2.484 2.485 0.5 0 0.967-0.149 1.354-0.403 0.389 0.264 0.858 0.418 1.365 0.418 0.505 0 0.975-0.156 1.366-0.422 0.274 0.307 0.651 0.542 1.012 0.682 0.757 0.323 1.358 1.233 1.358 2.192v2.611h0.876v-2.746c-0.008-0.964 0.348-1.75 1.091-2.183 0.217-0.132 0.392-0.264 0.538-0.408 0.011-0.017 0.025-0.032 0.040-0.045 0.191-0.205 0.314-0.435 0.377-0.723-0.18-0.056-0.372-0.085-0.565-0.085-0.24 0-0.483 0.047-0.723 0.142-0.132 0.053-0.279-0.010-0.333-0.141-0.053-0.131 0.010-0.28 0.142-0.334 0.299-0.123 0.608-0.179 0.913-0.179 0.213 0 0.421 0.028 0.624 0.081-0.004-1.065-0.866-1.925-1.931-1.928-0.003 0-0.004 0-0.004 0-0.003 0-0.004-0.001-0.004-0.001-0.393 0-0.765-0.095-1.091-0.257-0.31 0.36-0.466 0.807-0.466 1.259 0 0.009 0 0.019 0 0.028 0.002 0.008 0 0.013 0 0.020 0.012 0.466 0.193 0.927 0.537 1.29h0.002c0.1 0.102 0.097 0.263-0.008 0.362-0.051 0.047-0.116 0.070-0.179 0.070-0.066 0-0.132-0.026-0.184-0.079-0.386-0.404-0.611-0.913-0.667-1.432-0.128-0.027-0.262-0.042-0.398-0.042-0.304 0-0.612 0.073-0.907 0.227-0.037 0.022-0.075 0.031-0.117 0.031-0.092 0-0.182-0.050-0.229-0.135-0.066-0.126-0.019-0.281 0.107-0.347 0.366-0.195 0.759-0.287 1.146-0.287 0.135 0 0.27 0.011 0.398 0.032 0.047-0.456 0.226-0.901 0.531-1.276-0.299-0.241-0.544-0.551-0.7-0.907-0.426 0.308-0.932 0.464-1.433 0.464-0.178 0-0.354-0.021-0.529-0.058-0.161 1.192-1.187 2.112-2.422 2.112h-0.031c-0.525 0-1.001 0.206-1.35 0.546-0.050 0.048-0.114 0.072-0.173 0.072-0.070 0-0.137-0.026-0.186-0.077-0.102-0.101-0.1-0.263 0.004-0.362 0.44-0.429 1.046-0.692 1.704-0.692h0.028c0.003 0 0.003 0 0.003 0 0.175 0 0.339-0.023 0.499-0.066-0.238-0.323-0.569-0.577-0.982-0.708-0.137-0.042-0.206-0.186-0.168-0.321 0.044-0.135 0.188-0.21 0.326-0.167 0.555 0.176 1.006 0.538 1.306 0.993 0.52-0.309 0.891-0.858 0.942-1.497-0.254-0.118-0.492-0.281-0.704-0.492-0.101-0.101-0.101-0.262 0-0.362s0.264-0.1 0.363 0c0.206 0.206 0.445 0.355 0.704 0.449 0.003 0.001 0.006 0.002 0.006 0.002 0.211 0.076 0.434 0.116 0.657 0.116 0.452 0 0.902-0.158 1.264-0.471-0.032-0.156-0.048-0.316-0.048-0.482 0-0.14 0.113-0.257 0.259-0.257 0.138 0 0.254 0.117 0.254 0.257 0.002 0.988 0.738 1.799 1.694 1.919 0.064-0.567 0.318-1.076 0.699-1.457 0.1-0.101 0.265-0.101 0.364 0 0.098 0.099 0.098 0.262 0 0.361-0.297 0.298-0.495 0.689-0.55 1.128 0.814 0.089 1.508 0.581 1.881 1.272 0.464-0.062 0.873-0.287 1.176-0.617 0.095-0.103 0.255-0.112 0.36-0.016s0.113 0.257 0.017 0.363c-0.347 0.383-0.82 0.655-1.355 0.757 0.062 0.212 0.096 0.439 0.096 0.671 0 0.004-0.003 0.006-0.003 0.009 0.006 0.514-0.124 0.943-0.358 1.302 0.456 0.206 0.858 0.553 1.122 1.023h0.002c0.070 0.124 0.026 0.28-0.1 0.349-0.040 0.023-0.083 0.034-0.125 0.034-0.087 0-0.175-0.047-0.224-0.129-0.235-0.42-0.606-0.715-1.025-0.865-0.16 0.151-0.347 0.286-0.554 0.405-0.564 0.338-0.833 0.886-0.84 1.742v2.746h0.918c0.18-1.184 0.774-2.17 1.767-2.748v-0.009c0.813-0.35 1.396-1.127 1.466-2.047 0.411-0.436 0.664-1.022 0.664-1.667 0-0.555-0.187-1.066-0.498-1.476 0.054-0.202 0.083-0.415 0.083-0.635 0-1.098-0.727-2.025-1.727-2.328z"></path>
<path fill="#4493d1" d="M18.342 18.682v1.212h2.241v-0.945c0-0.091 0.010-0.179 0.014-0.267h-2.255z"></path>
</svg>
