<?xml version="1.0" encoding="utf-8"?>
<!-- Generated by IcoMoon.io -->
<!DOCTYPE svg PUBLIC "-//W3C//DTD SVG 1.1//EN" "http://www.w3.org/Graphics/SVG/1.1/DTD/svg11.dtd">
<svg version="1.1" xmlns="http://www.w3.org/2000/svg" xmlns:xlink="http://www.w3.org/1999/xlink" width="32" height="32" viewBox="0 0 32 32">
<path fill="#4493d1" d="M8.145 18.458v-2.165h6.12l-5.76-5.76c-1.101 1.538-1.752 3.42-1.752 5.452 0 5.177 4.212 9.389 9.389 9.389 2.032 0 3.914-0.651 5.452-1.752l-5.164-5.164h-8.284z"></path>
<path fill="#4493d1" d="M16.14 6.595c-2.056 0-3.957 0.666-5.505 1.791l7.907 7.907h3.134v2.165h-0.969l3.032 3.032c1.125-1.548 1.791-3.45 1.791-5.505-0-5.177-4.212-9.389-9.389-9.389zM22.807 18.449h-0.725v-2.19h0.725v2.19zM23.94 18.449h-0.725v-2.19h0.725v2.19zM23.936 14.567v1.334h-0.725v-1.334c0-1.178-0.81-2.43-2.309-2.43h-1.151c-0.136 0-0.261-0.076-0.323-0.198s-0.050-0.267 0.030-0.378c0.262-0.362 0.419-0.806 0.419-1.188 0-0.945-0.739-1.633-1.763-1.654v0.147h-0.725v-0.852c-1.097 0.032-1.391 0.973-1.391 1.476 0 0.383 0.164 0.757 0.449 1.026 0.33 0.311 0.793 0.46 1.343 0.427 0.135-0.006 0.261 0.059 0.331 0.173s0.071 0.258 0.003 0.373c-0.202 0.343-0.199 0.833 0.006 1.192 0.119 0.208 0.352 0.456 0.789 0.456h1.948c1.198 0 1.941 0.678 1.941 1.77v0.993h-0.725v-0.993c0-0.863-0.661-1.045-1.216-1.045h-1.948c-0.603 0-1.12-0.299-1.419-0.821-0.237-0.415-0.306-0.925-0.207-1.389-0.646-0.076-1.079-0.358-1.345-0.609-0.43-0.405-0.677-0.972-0.677-1.553 0-1.081 0.728-2.173 2.116-2.201v-0.217h0.725v0.922c1.422 0.022 2.488 1.036 2.488 2.379 0 0.338-0.081 0.697-0.229 1.038h0.529c1.899 0 3.034 1.604 3.034 3.155z"></path>
<path fill="#4493d1" d="M28.495 0.183c0 0-24.667-0.008-24.659 0-2.273 0-3.551 1.175-3.551 3.577v24.757c0 2.246 1.149 3.423 3.42 3.423h24.862c2.271 0 3.422-1.118 3.422-3.423v-24.757c0-2.343-1.151-3.577-3.494-3.577zM16.14 28.069c-6.663 0-12.084-5.421-12.084-12.084s5.421-12.084 12.084-12.084c6.663 0 12.084 5.421 12.084 12.084s-5.421 12.084-12.084 12.084z"></path>
</svg>
