<?xml version="1.0" encoding="utf-8"?>
<!-- Generated by IcoMoon.io -->
<!DOCTYPE svg PUBLIC "-//W3C//DTD SVG 1.1//EN" "http://www.w3.org/Graphics/SVG/1.1/DTD/svg11.dtd">
<svg version="1.1" xmlns="http://www.w3.org/2000/svg" xmlns:xlink="http://www.w3.org/1999/xlink" width="32" height="32" viewBox="0 0 32 32">
<path fill="#4493d1" d="M28.105 0.415c0 0-24.423-0.008-24.415 0-2.248 0-3.551 1.162-3.551 3.535v24.471c0 2.221 1.245 3.421 3.49 3.421h24.574c2.245 0 3.327-1.143 3.327-3.421v-24.471c0-2.316-1.109-3.535-3.425-3.535zM16.143 4.36c1.795 0 3.25 1.455 3.25 3.25s-1.455 3.25-3.25 3.25-3.25-1.455-3.25-3.25 1.455-3.25 3.25-3.25zM13.711 26.957l-3.072-3.194c-0.66-0.673-0.842-1.915-0.135-2.622 0.002-0.003 2.198-2.201 2.198-2.201l2.582 2.582-1.895 1.892 1.942 1.942c1.146 1.147-0.435 2.786-1.62 1.6zM21.602 23.763l-3.072 3.194c-1.185 1.186-2.767-0.453-1.62-1.6l1.942-1.942-1.895-1.892 2.582-2.582c0 0 2.196 2.198 2.199 2.201 0.707 0.707 0.524 1.949-0.135 2.622zM22.314 17.861l-2.63-2.702v2.468h-7.108v-2.454l-2.564 2.645c-1.187 1.187-2.765-0.335-1.576-1.524l4.366-4.335c0.353-0.351 0.755-0.551 1.368-0.551h3.901c0.613 0 1.026 0.193 1.389 0.551l4.427 4.39c1.132 1.131-0.487 2.656-1.573 1.513z"></path>
</svg>
