<?xml version="1.0" encoding="utf-8"?>
<!-- Generated by IcoMoon.io -->
<!DOCTYPE svg PUBLIC "-//W3C//DTD SVG 1.1//EN" "http://www.w3.org/Graphics/SVG/1.1/DTD/svg11.dtd">
<svg version="1.1" xmlns="http://www.w3.org/2000/svg" xmlns:xlink="http://www.w3.org/1999/xlink" width="32" height="32" viewBox="0 0 32 32">
<path fill="#4493d1" d="M27.837 0.211h-23.287c-2.281 0-4.137 1.856-4.137 4.139v23.284c0 2.283 1.856 4.139 4.137 4.139h23.287c2.282 0 4.139-1.856 4.139-4.139v-23.284c0-2.283-1.857-4.139-4.139-4.139zM23.689 7.042c-2.732 0.264-2.891-2.853-2.891-2.853 3.199 0.248 2.891 2.853 2.891 2.853zM10.021 10.186c0.418 1.629-0.739 2.982-2.241 3.094-0.056-1.902 0.979-2.622 2.241-3.094zM10.021 13.119c0.418 1.627-0.739 2.981-2.241 3.093-0.056-1.902 0.979-2.621 2.241-3.093zM10.021 16.053c0.418 1.627-0.739 2.981-2.241 3.092-0.056-1.902 0.979-2.619 2.241-3.092zM6.488 7.686c0.975 0.933 1.642 2.005 0.837 3.729-1.335-0.697-1.861-2.398-0.837-3.729zM4.799 10.951c1.262 0.474 2.297 1.193 2.241 3.095-1.503-0.113-2.66-1.466-2.241-3.095zM4.799 13.886c1.262 0.472 2.297 1.191 2.241 3.092-1.503-0.111-2.66-1.466-2.241-3.092zM4.799 16.818c1.262 0.473 2.297 1.19 2.241 3.092-1.503-0.11-2.66-1.465-2.241-3.092zM11.094 28.393l5.1-8.837 5.1 8.837h-10.2zM5.551 22.373l-0.323-1.187 21.61-5.879 0.321 1.188-21.609 5.878zM27.454 12.424c0 0-0.763 1.435-1.351 2.077-0.288 0.287-0.714 0.491-1.15 0.491-0.533-0-1.009-0.261-1.294-0.665-0.285 0.404-0.761 0.665-1.294 0.665-0.436 0-0.862-0.205-1.15-0.491-0.588-0.642-1.351-2.077-1.351-2.077-0.427-0.868-0.657-1.54-0.657-2.218 0-1.446 1.17-2.7 2.62-2.7 0.714 0 1.359 0.286 1.832 0.748 0.473-0.462 1.117-0.748 1.831-0.748 1.45 0 2.62 1.254 2.62 2.7-0 0.679-0.23 1.35-0.657 2.218z"></path>
<path fill="#4493d1" d="M13.12 27.223h6.147l-3.074-5.325z"></path>
</svg>
