<?xml version="1.0" encoding="utf-8"?>
<!-- Generated by IcoMoon.io -->
<!DOCTYPE svg PUBLIC "-//W3C//DTD SVG 1.1//EN" "http://www.w3.org/Graphics/SVG/1.1/DTD/svg11.dtd">
<svg version="1.1" xmlns="http://www.w3.org/2000/svg" xmlns:xlink="http://www.w3.org/1999/xlink" width="32" height="32" viewBox="0 0 32 32">
<path fill="#4493d1" d="M18.822 13.238c-0.707 0-1.277 0.571-1.277 1.276s0.57 1.276 1.277 1.276c0.704 0 1.275-0.571 1.275-1.276s-0.571-1.276-1.275-1.276z"></path>
<path fill="#4493d1" d="M15.7 11.228c-0.704 0-1.276 0.572-1.276 1.276s0.572 1.276 1.276 1.276c0.703 0 1.274-0.571 1.274-1.276s-0.571-1.276-1.274-1.276z"></path>
<path fill="#4493d1" d="M16.594 6.259c-0.74 0-1.343 0.6-1.343 1.344 0 0.742 0.602 1.344 1.343 1.344 0.742 0 1.343-0.603 1.343-1.344 0-0.743-0.6-1.344-1.343-1.344z"></path>
<path fill="#4493d1" d="M27.768 0.282h-23.393c-2.292 0-4.157 1.865-4.157 4.158v23.39c0 2.293 1.865 4.159 4.157 4.159h23.393c2.292 0 4.157-1.866 4.157-4.159v-23.39c0-2.293-1.865-4.158-4.157-4.158zM14.142 26.383l-0.005 1.934h-4.577v-0.813c0-0.527-0.102-0.876-0.52-1.268l-4.205-4.466c-0.602-0.703-0.938-1.604-0.938-2.536v-6.744c0-0.698 0.567-1.267 1.267-1.267 0.703 0 1.275 0.569 1.275 1.267v4.924c-0.673 0.307-1.080 0.93-1.080 1.606 0 0.451 0.18 0.88 0.508 1.211l2.612 2.867c0.121 0.15 0.283 0.385 0.364 0.645 0.045 0.139 0.058 0.289 0.062 0.477h0.828c-0.004-0.262-0.026-0.491-0.101-0.726-0.14-0.451-0.422-0.82-0.589-1.015l-2.573-2.757c-0.156-0.184-0.241-0.418-0.241-0.659 0-0.557 0.454-1.010 1.012-1.010 0.264 0 0.513 0.1 0.704 0.283l5.335 5.358c0.922 0.966 0.862 1.95 0.862 2.687zM8.262 11.857c0-4.312 3.51-7.822 7.823-7.822s7.822 3.51 7.822 7.822c0 4.315-3.509 7.823-7.822 7.823s-7.823-3.508-7.823-7.823zM28.265 19.235c0 0.932-0.335 1.833-0.938 2.536l-4.205 4.466c-0.417 0.392-0.52 0.741-0.52 1.268v0.813h-4.577l-0.005-1.934c0-0.737-0.060-1.721 0.862-2.687l5.335-5.358c0.19-0.183 0.439-0.283 0.704-0.283 0.558 0 1.012 0.452 1.012 1.010 0 0.241-0.085 0.475-0.241 0.659l-2.573 2.757c-0.167 0.195-0.449 0.563-0.589 1.015-0.076 0.235-0.097 0.464-0.101 0.726h0.828c0.003-0.187 0.017-0.337 0.062-0.477 0.081-0.26 0.242-0.495 0.364-0.645l2.612-2.867c0.328-0.331 0.508-0.76 0.508-1.211-0-0.677-0.407-1.3-1.081-1.606v-4.924c0-0.698 0.572-1.267 1.275-1.267 0.7 0 1.267 0.569 1.267 1.267v6.744z"></path>
<path fill="#4493d1" d="M14.080 9.284h-2.573v2.592h2.573v-2.592zM13.537 11.342c-0.341 0-1.158 0-1.502 0 0-0.346 0-1.178 0-1.523 0.343 0 1.16 0 1.502 0 0 0.345 0 1.178 0 1.523z"></path>
<path fill="#4493d1" d="M14.157 14.062c-0.704 0-1.275 0.57-1.275 1.276s0.571 1.276 1.275 1.276c0.704 0 1.274-0.57 1.274-1.276 0-0.706-0.57-1.276-1.274-1.276z"></path>
<path fill="#4493d1" d="M19.092 9.489c-0.704 0-1.275 0.57-1.275 1.276 0 0.704 0.572 1.276 1.275 1.276 0.706 0 1.277-0.572 1.277-1.276 0-0.706-0.571-1.276-1.277-1.276z"></path>
<path fill="#4493d1" d="M16.085 4.758c-3.913 0-7.1 3.186-7.1 7.099s3.187 7.099 7.1 7.099c3.912 0 7.098-3.185 7.098-7.099s-3.186-7.099-7.098-7.099zM16.092 18.017c-3.396 0-6.157-2.761-6.157-6.156s2.762-6.158 6.157-6.158c3.394 0 6.155 2.764 6.155 6.158s-2.761 6.156-6.155 6.156z"></path>
</svg>
