<?xml version="1.0" encoding="utf-8"?>
<!-- Generated by IcoMoon.io -->
<!DOCTYPE svg PUBLIC "-//W3C//DTD SVG 1.1//EN" "http://www.w3.org/Graphics/SVG/1.1/DTD/svg11.dtd">
<svg version="1.1" xmlns="http://www.w3.org/2000/svg" xmlns:xlink="http://www.w3.org/1999/xlink" width="32" height="32" viewBox="0 0 32 32">
<path fill="#4493d1" d="M18.699 13.226c-0.722-0.721-1.681-1.117-2.7-1.117s-1.979 0.396-2.699 1.117c-0.719 0.723-1.117 1.68-1.117 2.7 0 2.104 1.711 3.817 3.816 3.817 1.019 0 1.978-0.397 2.7-1.117 0.721-0.721 1.117-1.68 1.117-2.7s-0.396-1.977-1.117-2.7zM14.676 16.141c-0.697 0-1.261-0.564-1.261-1.261s0.564-1.262 1.261-1.262c0.696 0 1.261 0.565 1.261 1.262s-0.565 1.261-1.261 1.261z"></path>
<path fill="#4493d1" d="M18.886 10.447c1.963 1.036 3.307 3.097 3.307 5.467 0 1.652-0.645 3.205-1.811 4.373-0.469 0.468-1 0.848-1.576 1.14 3.376-0.708 6.381-2.644 8.44-5.497-2.042-2.832-5.016-4.761-8.359-5.482z"></path>
<path fill="#4493d1" d="M9.826 15.914c0-1.651 0.644-3.204 1.813-4.372 0.466-0.466 0.998-0.847 1.573-1.137-3.435 0.681-6.498 2.629-8.587 5.524 2.11 2.922 5.213 4.879 8.687 5.543-0.611-0.297-1.177-0.692-1.673-1.186-1.17-1.168-1.813-2.721-1.813-4.373z"></path>
<path fill="#4493d1" d="M27.577 0.281h-23.286c-2.282 0-4.138 1.857-4.138 4.139v23.284c0 2.283 1.856 4.139 4.138 4.139h23.286c2.282 0 4.137-1.856 4.137-4.139v-23.284c0-2.282-1.856-4.139-4.137-4.139zM28.65 16.149c-2.832 4.294-7.585 6.856-12.714 6.856-5.13 0-9.884-2.562-12.717-6.855l-0.146-0.222 0.146-0.222c2.836-4.292 7.589-6.855 12.717-6.855s9.882 2.563 12.714 6.855l0.146 0.222-0.146 0.22z"></path>
</svg>
