<?xml version="1.0" encoding="utf-8"?>
<!-- Generated by IcoMoon.io -->
<!DOCTYPE svg PUBLIC "-//W3C//DTD SVG 1.1//EN" "http://www.w3.org/Graphics/SVG/1.1/DTD/svg11.dtd">
<svg version="1.1" xmlns="http://www.w3.org/2000/svg" xmlns:xlink="http://www.w3.org/1999/xlink" width="32" height="32" viewBox="0 0 32 32">
<path fill="#4493d1" d="M27.687 0.326h-23.285c-2.282 0-4.138 1.856-4.138 4.139v23.283c0 2.283 1.856 4.14 4.138 4.14h23.285c2.282 0 4.139-1.857 4.139-4.14v-23.283c0-2.283-1.857-4.139-4.139-4.139zM14.167 5.411c0.092-1.16 1.108-2.027 2.267-1.935s2.027 1.107 1.937 2.268c-0.092 1.159-1.109 2.025-2.268 1.934-1.162-0.093-2.027-1.106-1.936-2.267zM24.255 16.254c-0.042 0.524-0.501 0.914-1.023 0.872-0.161-0.011-0.283-0.072-0.434-0.141 0 0-2.7-1.838-2.86-1.965-0.271-0.22-0.537-0.496-0.654-0.88-0.041-0.134-0.589-1.997-0.589-1.997l-0.368 4.706 2.313 3.75c0.111 0.179 0.18 0.383 0.198 0.594l0.529 5.954c0.067 0.748-0.487 1.413-1.235 1.477s-1.408-0.484-1.477-1.235c0 0-0.449-5.059-0.498-5.633-0.212-0.345-1.461-2.173-2.089-3.193l-3.218 9.123c-0.235 0.714-1.008 1.104-1.72 0.866s-1.101-1.002-0.866-1.72l2.799-8.088 0.532-3.497h-1.803c-0.787 0-1.425-0.638-1.425-1.425 0-0.186 0.036-0.365 0.101-0.528 0 0 1.475-3.296 1.753-3.836 0.41-0.801 1.125-1.155 2.142-1.126h2.649l-5.559 3.982-0.499 1.165c-0.043 0.106-0.067 0.221-0.067 0.343 0 0.499 0.405 0.904 0.904 0.904h4.616c0.787 0 1.425-0.638 1.425-1.425 0-0.695-0.494-1.275-1.152-1.399l1.344-3.571h0.319c0.74 0 1.324 0.499 1.497 1.080l1.065 3.836c0.018 0.062 0.088 0.179 0.177 0.247 0.11 0.080 2.8 1.928 2.8 1.928 0.248 0.191 0.398 0.497 0.372 0.832zM16.505 12.407c0.453 0.049 0.807 0.428 0.807 0.894 0 0.499-0.405 0.904-0.904 0.904l-0.563 0.006 0.66-1.804z"></path>
</svg>
