<?xml version="1.0" encoding="utf-8"?>
<!-- Generated by IcoMoon.io -->
<!DOCTYPE svg PUBLIC "-//W3C//DTD SVG 1.1//EN" "http://www.w3.org/Graphics/SVG/1.1/DTD/svg11.dtd">
<svg version="1.1" xmlns="http://www.w3.org/2000/svg" xmlns:xlink="http://www.w3.org/1999/xlink" width="32" height="32" viewBox="0 0 32 32">
<path fill="#4493d1" d="M9.557 5.186c-0.542 0-0.983 0.438-0.983 0.983 0 0.542 0.44 0.984 0.983 0.984s0.982-0.442 0.982-0.984c0-0.545-0.44-0.983-0.982-0.983z"></path>
<path fill="#4493d1" d="M11.187 10.293c-0.518 0-0.935 0.418-0.935 0.933s0.417 0.934 0.935 0.934c0.514 0 0.932-0.418 0.932-0.934s-0.418-0.933-0.932-0.933z"></path>
<path fill="#4493d1" d="M7.774 10.895c-0.515 0-0.933 0.418-0.933 0.935 0 0.515 0.418 0.933 0.933 0.933s0.932-0.418 0.932-0.933c0-0.517-0.418-0.935-0.932-0.935z"></path>
<path fill="#4493d1" d="M11.385 7.549c-0.515 0-0.933 0.418-0.933 0.934s0.418 0.934 0.933 0.934c0.516 0 0.934-0.419 0.935-0.934s-0.418-0.934-0.935-0.934z"></path>
<path fill="#4493d1" d="M27.552 0.316h-23.286c-2.282 0-4.138 1.856-4.138 4.139v23.284c0 2.283 1.856 4.139 4.138 4.139h23.286c2.282 0 4.138-1.856 4.138-4.139v-23.284c0-2.283-1.856-4.139-4.138-4.139zM3.46 9.282c0-3.155 2.568-5.724 5.725-5.724 3.155 0 5.723 2.569 5.723 5.724 0 3.157-2.568 5.725-5.723 5.725-3.156 0-5.725-2.568-5.725-5.725zM12.794 19.594l5.693 3.287-0.563 0.977-5.694-3.288 0.564-0.976zM26.94 28.067h-14.001v-2.336c0 0 2.697 0 4.974 0 3.403 0 6.172-2.767 6.172-6.17 0-2.154-1.115-4.097-2.857-5.206l-2.838 4.917-0.589-0.341-0.837 1.448-1.481-0.855 0.837-1.45-0.591-0.341 6.75-11.693 0.455 0.262 0.679-1.175 1.775 1.025-0.679 1.176 0.431 0.25-2.745 4.754c2.451 1.521 4.027 4.226 4.027 7.228 0 2.435-1.041 4.618-2.688 6.17 1.133 0 3.205 0 3.205 0v2.336z"></path>
<path fill="#4493d1" d="M8.903 8.822c-0.515 0-0.934 0.419-0.934 0.934s0.419 0.933 0.934 0.933c0.514 0 0.932-0.418 0.932-0.933s-0.418-0.934-0.932-0.934z"></path>
<path fill="#4493d1" d="M7.717 7.4h-1.883v1.896h1.883v-1.896zM7.32 8.905c-0.25 0-0.848 0-1.099 0 0-0.252 0-0.862 0-1.115 0.251 0 0.849 0 1.099 0 0 0.253 0 0.862 0 1.115z"></path>
<path fill="#4493d1" d="M9.184 4.087c-2.864 0-5.196 2.332-5.196 5.195s2.332 5.195 5.196 5.195c2.863 0 5.194-2.331 5.194-5.195 0-2.863-2.331-5.195-5.194-5.195zM9.189 13.789c-2.485 0-4.505-2.020-4.505-4.504s2.021-4.507 4.505-4.507c2.483 0 4.504 2.022 4.504 4.507s-2.021 4.504-4.504 4.504z"></path>
</svg>
