<?xml version="1.0" encoding="utf-8"?>
<!-- Generated by IcoMoon.io -->
<!DOCTYPE svg PUBLIC "-//W3C//DTD SVG 1.1//EN" "http://www.w3.org/Graphics/SVG/1.1/DTD/svg11.dtd">
<svg version="1.1" xmlns="http://www.w3.org/2000/svg" xmlns:xlink="http://www.w3.org/1999/xlink" width="32" height="32" viewBox="0 0 32 32">
<path fill="#4493d1" d="M18.268 4.595h0.593v2.833h-0.593v-2.833z"></path>
<path fill="#4493d1" d="M20.433 9.999h-8.75v12.042h8.75v-12.042zM18.292 21.103v0l-0.922-1.678-0.924 1.678h-0.859l1.356-2.456-1.635-2.977c-0.085 0.007-0.162 0.021-0.252 0.021h-1.077v3.176h-1.228v-7.688h2.437c1.472 0 2.119 0.925 2.119 2.239 0 0.864-0.316 1.537-0.908 1.92l1.18 2.158 0.898-1.626h0.852l-1.324 2.404 1.546 2.829h-1.259z"></path>
<path fill="#4493d1" d="M14.767 12.105h-0.788v2.659h0.872c0.658 0 1.228-0.355 1.228-1.324 0-0.828-0.333-1.335-1.312-1.335z"></path>
<path fill="#4493d1" d="M19.593 4.595h0.589v2.833h-0.589v-2.833z"></path>
<path fill="#4493d1" d="M20.914 4.595h0.592v2.833h-0.592v-2.833z"></path>
<path fill="#4493d1" d="M27.772 0.282h-23.393c-2.292 0-4.157 1.865-4.157 4.158v23.39c0 2.293 1.865 4.159 4.157 4.159h23.393c2.292 0 4.157-1.866 4.157-4.159v-23.39c0-2.293-1.864-4.158-4.157-4.158zM21.507 27.386c0 0.45-0.374 0.817-0.84 0.817h-9.225c-0.464 0-0.841-0.367-0.841-0.817v-18.597h10.905v18.597zM22.478 7.568c0 0.237-0.195 0.428-0.439 0.428h-11.972c-0.242 0-0.44-0.191-0.44-0.428v-3.103c0-0.236 0.198-0.427 0.44-0.427h11.972c0.243 0 0.439 0.19 0.439 0.427v3.103z"></path>
</svg>
