<?xml version="1.0" encoding="utf-8"?>
<!-- Generated by IcoMoon.io -->
<!DOCTYPE svg PUBLIC "-//W3C//DTD SVG 1.1//EN" "http://www.w3.org/Graphics/SVG/1.1/DTD/svg11.dtd">
<svg version="1.1" xmlns="http://www.w3.org/2000/svg" xmlns:xlink="http://www.w3.org/1999/xlink" width="32" height="32" viewBox="0 0 32 32">
<path fill="#4493d1" d="M27.775 0.155h-23.392c-2.292 0-4.157 1.865-4.157 4.158v23.39c0 2.293 1.865 4.159 4.157 4.159h23.392c2.292 0 4.158-1.866 4.158-4.159v-23.39c0-2.293-1.866-4.158-4.158-4.158zM15.496 5.333c1.281 0 2.319 1.035 2.319 2.314s-1.037 2.315-2.319 2.315c-1.281 0-2.319-1.036-2.319-2.315s1.038-2.314 2.319-2.314zM12.083 11.11c0.202-0.2 0.664-0.532 1.534-0.532h3.128c1.777 0 2.119 1.772 1.756 2.689l-1.636 3.968c-0.101 0.228-0.29 0.411-0.526 0.496l-3.584 1.32c-0.459 0.2-0.995-0.008-1.196-0.466-0.202-0.46 0.007-0.995 0.467-1.196l3.306-1.241 1.022-2.437-0.666-0.246-0.869 2.087-2.517 0.927v-2.551l-2.46 2.687-2.784-0.003c0 0 4.872-5.34 5.024-5.5zM18.605 19.751h-3.141l-0.686-0.681 1.86-0.69c0.441-0.164 0.755-0.514 0.893-0.929 0.006-0.011 0.015-0.017 0.021-0.029l1.051-2.478 0.002 4.807zM4.482 22.58l7.931-0.637-1.536-2.325h-3.874c-0.633 0-1.147-0.494-1.147-1.127 0-0.631 0.514-1.141 1.147-1.141 0 0 3.805-0.006 3.938 0-0.298 0.406-0.323 0.963-0.144 1.461 0.304 0.803 1.287 1.245 2.096 0.956l1.090-0.402 1.565 1.529h6.494c1.098 0 1.98 0.886 1.98 1.976 0 1.086-0.874 1.964-1.964 1.973l-7.044-0.001c-0.467-0.010-0.842-0.389-0.842-0.857 0-0.475 0.385-0.859 0.859-0.859h3.641l2.964-0.619-0.16-0.766-2.885 0.603h-3.56c-0.906 0-1.642 0.736-1.642 1.642 0 0.315 0.094 0.606 0.248 0.857l-8.898-0.001c-0.631 0-1.143-0.514-1.143-1.147 0-0.543 0.379-0.997 0.887-1.114zM27.617 27.584c0 0-22.453 0-23.147 0-0.909 0-0.862-0.885-0.862-0.885v-0.681c0 0-0.053-0.409 0.467-0.409 0.46 0 18.487 0 18.487 0 1.473 0 2.112-1.372 2.886-1.372h2.256c0.702 0 0.779 0.597 0.779 0.597v1.886c-0 0 0.050 0.865-0.865 0.865zM26.448 23.512c-1.153 0-2.089-0.934-2.089-2.084 0-1.154 0.936-2.085 2.089-2.085s2.091 0.931 2.091 2.085c0 1.15-0.938 2.084-2.091 2.084z"></path>
</svg>
