<?xml version="1.0" encoding="utf-8"?>
<!-- Generated by IcoMoon.io -->
<!DOCTYPE svg PUBLIC "-//W3C//DTD SVG 1.1//EN" "http://www.w3.org/Graphics/SVG/1.1/DTD/svg11.dtd">
<svg version="1.1" xmlns="http://www.w3.org/2000/svg" xmlns:xlink="http://www.w3.org/1999/xlink" width="32" height="32" viewBox="0 0 32 32">
<path fill="#4493d1" d="M22.195 13.768h-12.189v8.71h12.189v-8.71zM19.279 17.67h-2.62v0.765h2.321c0.133 0 0.242 0.107 0.242 0.241s-0.108 0.241-0.242 0.241l-2.321 0v0.765h2.232c0.093 0 0.229 0.083 0.229 0.228 0 1.302-0.163 1.915-0.849 1.915-0.712 0-0.858-1.54-1.613-1.642 0 0 0 1.154 0 1.474h-1.193c0-0.32 0-1.477 0-1.477-0.792 0.060-0.92 1.644-1.659 1.644-0.685 0-0.812-0.613-0.812-1.915 0-0.144 0.137-0.228 0.229-0.228h2.242v-0.765h-2.321c-0.135 0-0.242-0.107-0.242-0.241s0.107-0.241 0.242-0.241h2.321v-0.765h-2.612c-0.133 0-0.241-0.107-0.241-0.242 0-0.132 0.108-0.242 0.241-0.242h2.612v-0.764h-2.452c-0.133 0-0.242-0.107-0.242-0.242 0-0.132 0.108-0.242 0.242-0.242h2.452v-0.763h-1.921c-0.134 0-0.242-0.109-0.242-0.241 0-0.135 0.107-0.243 0.242-0.243h1.921v-0.422h1.193v0.422h1.921c0.133 0 0.242 0.108 0.242 0.243 0 0.132-0.108 0.241-0.242 0.241h-1.921v0.763h2.459c0.134 0 0.242 0.11 0.242 0.242 0 0.134-0.108 0.242-0.242 0.242h-2.459v0.764h2.62c0.133 0 0.242 0.109 0.242 0.242 0 0.134-0.108 0.242-0.242 0.242z"></path>
<path fill="#4493d1" d="M27.762 0.171h-23.392c-2.292 0-4.157 1.865-4.157 4.158v23.39c0 2.293 1.865 4.159 4.157 4.159h23.392c2.292 0 4.158-1.866 4.158-4.159v-23.39c0-2.293-1.866-4.158-4.158-4.158zM16.067 2.921c1.731 0 3.133 1.403 3.133 3.134s-1.402 3.133-3.133 3.133c-1.732 0-3.135-1.403-3.135-3.133s1.403-3.134 3.135-3.134zM12.519 9.955h7.199c1.302 0 2.446 0.695 3.081 1.731h-13.466c0.677-1.036 1.883-1.731 3.185-1.731zM11.249 25.604c0 0.671-0.543 1.213-1.214 1.213-0.668 0-1.212-0.542-1.212-1.213v-1.058h2.425v1.058zM20.108 28.485h-3.449l0.005-1.702h-1.156l-0.002 1.702h-3.456v-3.94h8.057v3.94zM22.096 26.817c-0.67 0-1.213-0.542-1.213-1.213v-1.058h2.425v1.058h0c0 0.671-0.543 1.213-1.213 1.213zM24.979 23.324h-17.825v-10.417h17.825v10.417z"></path>
</svg>
