<?xml version="1.0" encoding="utf-8"?>
<!-- Generated by IcoMoon.io -->
<!DOCTYPE svg PUBLIC "-//W3C//DTD SVG 1.1//EN" "http://www.w3.org/Graphics/SVG/1.1/DTD/svg11.dtd">
<svg version="1.1" xmlns="http://www.w3.org/2000/svg" xmlns:xlink="http://www.w3.org/1999/xlink" width="32" height="32" viewBox="0 0 32 32">
<path fill="#4493d1" d="M27.647 0.201h-23.392c-2.292 0-4.157 1.865-4.157 4.158v23.39c0 2.293 1.865 4.159 4.157 4.159h23.392c2.292 0 4.157-1.866 4.157-4.159v-23.39c0-2.293-1.865-4.158-4.157-4.158zM22.333 4.416c1.074 0 1.947 0.871 1.947 1.946s-0.687 1.946-1.947 1.946c-1.075 0-1.946-0.872-1.946-1.946s0.871-1.946 1.946-1.946zM18.123 10.53c0.181-0.63 0.976-1.745 2.354-1.745h3.711c1.379 0 2.175 1.115 2.354 1.745l1.355 4.56h-1.687l-0.993-3.436h-0.653l0.957 3.436h-6.38l0.956-3.436h-0.653l-0.991 3.436h-1.687l1.354-4.56zM9.376 4.398c1.075 0 1.947 0.871 1.947 1.946s-0.872 1.947-1.947 1.947-1.946-0.872-1.946-1.947c0-1.075 0.871-1.946 1.946-1.946zM9.406 13.986c-0.061-0.107-0.247-0.555-0.398-0.923l-1.287 5.436c0.001 3.008 0.002 8.422 0.002 8.422 0.003 0.838-0.57 1.52-1.407 1.522-0.838 0.004-1.443-0.673-1.449-1.511 0 0-0.008-9.473-0.008-9.941s0.185-1.578 0.292-1.989l1.208-5.089c0.211-0.888 1.103-1.446 1.988-1.227 0.777 0.193 1.156 0.736 1.309 1.119 0.181 0.453 0.99 2.499 1.179 2.922 0.066 0.146 0.207 0.224 0.235 0.236 0.16 0.071 0.558 0.211 1.281 0.536l0.408 0.184-0.353-0.676-0.569-1.085c0 0-0.076-0.189 0.092-0.27 0.187-0.090 0.287 0.062 0.287 0.062l1.713 3.195c0 0 0.142 0.312 0.061 0.569-0.284-0.015-0.476-0.353-0.476-0.353l-0.031-0.059-0.090 0.187c-0.248 0.313-0.675 0.446-1.068 0.296-0.652-0.298-2.338-0.995-2.338-0.995-0.293-0.137-0.436-0.312-0.581-0.566zM15.5 14.988l0.493 0.529-3.793 3.531-0.493-0.529 3.793-3.531zM27.972 17.515h-10.74c-0.366 0-0.564 0.206-0.681 0.315-0.473 0.44-3.622 3.346-3.622 3.346l-0.946-0.933c0 0 3.544-3.439 3.987-3.851 0.256-0.236 0.564-0.364 0.889-0.364h11.114v1.487z"></path>
</svg>
