<?xml version="1.0" encoding="utf-8"?>
<!-- Generated by IcoMoon.io -->
<!DOCTYPE svg PUBLIC "-//W3C//DTD SVG 1.1//EN" "http://www.w3.org/Graphics/SVG/1.1/DTD/svg11.dtd">
<svg version="1.1" xmlns="http://www.w3.org/2000/svg" xmlns:xlink="http://www.w3.org/1999/xlink" width="32" height="32" viewBox="0 0 32 32">
<path fill="#4493d1" d="M17.212 19c0.138-0.071 0.234-0.191 0.278-0.337 0.049-0.146 0.035-0.301-0.035-0.433-0.142-0.27-0.5-0.385-0.774-0.244-0.279 0.146-0.39 0.491-0.244 0.77 0.102 0.19 0.297 0.309 0.509 0.309 0.092-0 0.186-0.022 0.265-0.066z"></path>
<path fill="#4493d1" d="M16.19 13.867c-0.314 0-0.57 0.257-0.57 0.571 0 0.314 0.257 0.57 0.57 0.57 0.319 0 0.575-0.257 0.575-0.57 0-0.315-0.257-0.571-0.575-0.571z"></path>
<path fill="#4493d1" d="M16.748 16.402c-0.075-0.301-0.389-0.495-0.69-0.42-0.15 0.035-0.275 0.124-0.354 0.257-0.079 0.128-0.106 0.283-0.071 0.433 0.066 0.257 0.292 0.438 0.557 0.438 0.044 0 0.093-0.009 0.137-0.017 0.305-0.075 0.495-0.386 0.42-0.69z"></path>
<path fill="#4493d1" d="M13.774 17.884c-2.078-0.074-3.267 4.598-2.552 8.962 0.367 1.962 1.526-0.048 2.496-0.212 1.074-0.181 1.678-0.306 1.729-0.867 0.187-2.040-0.594-7.843-1.674-7.883zM11.961 21.667c0.133-0.275 0.487-0.399 0.765-0.261 0.137 0.071 0.239 0.186 0.288 0.332s0.040 0.301-0.027 0.438c-0.097 0.194-0.297 0.318-0.518 0.318-0.084 0-0.172-0.022-0.252-0.061-0.137-0.067-0.238-0.186-0.287-0.328-0.049-0.146-0.040-0.301 0.030-0.438zM11.47 23.977c-0.004-0.156 0.049-0.302 0.15-0.412 0.106-0.115 0.248-0.176 0.398-0.186 0.341 0 0.584 0.244 0.597 0.549 0.009 0.319-0.234 0.584-0.549 0.597h-0.022c-0.31 0-0.562-0.243-0.576-0.548zM13.196 26.078c-0.040 0.15-0.133 0.274-0.261 0.353-0.089 0.053-0.19 0.079-0.296 0.079-0.2 0-0.39-0.101-0.491-0.274-0.080-0.133-0.102-0.288-0.066-0.434 0.040-0.15 0.132-0.274 0.261-0.354 0.261-0.155 0.628-0.061 0.787 0.2 0.079 0.128 0.102 0.283 0.066 0.429zM14.293 20.012c0.181 0.261 0.119 0.62-0.137 0.801-0.098 0.067-0.213 0.101-0.332 0.101-0.186 0-0.359-0.088-0.469-0.243-0.088-0.124-0.119-0.275-0.092-0.425s0.106-0.283 0.234-0.372c0.248-0.177 0.62-0.111 0.797 0.137z"></path>
<path fill="#4493d1" d="M15.7 17.986c-0.27-0.142-0.628-0.027-0.77 0.244-0.146 0.278-0.040 0.624 0.238 0.77 0.085 0.044 0.177 0.066 0.266 0.066 0.217 0 0.411-0.115 0.508-0.305 0.071-0.137 0.085-0.292 0.040-0.438-0.049-0.146-0.146-0.265-0.283-0.336z"></path>
<path fill="#4493d1" d="M15.62 12.337c0 0.318 0.257 0.575 0.57 0.575 0.319 0 0.575-0.257 0.575-0.575 0-0.315-0.257-0.571-0.575-0.571-0.314 0-0.57 0.257-0.57 0.571z"></path>
<path fill="#4493d1" d="M27.892 0.141h-23.5c-2.303 0-4.176 1.874-4.176 4.176v23.499c0 2.304 1.873 4.177 4.176 4.177h23.5c2.303 0 4.177-1.873 4.177-4.177v-23.499c0-2.303-1.874-4.176-4.177-4.176zM27.701 28.585l-3.932 0.002v-6.622h-1.186v6.622l-12.825-0.002v-6.62h-1.157v6.62l-4.019 0.002v-7.647c0-2.74 2.389-5.421 6.040-5.419h3.176v-0.726h-0.781c-1.085 0-1.966-0.88-1.966-1.966v-0.6c0.202-0.060 0.363-0.222 0.402-0.436 0.061-0.31-0.142-0.611-0.452-0.668-0.262-0.052-0.511 0.086-0.622 0.311-0.221-0.003-0.398-0.181-0.398-0.401 0-0.056 0.010-0.11 0.031-0.156l1.040-2.624c0 0 0.109-1.087 0.206-1.502 0.433-1.872 2.519-3.57 4.782-3.57 2.754 0 4.986 2.232 4.986 4.987 0 1.59-0.747 3.007-1.906 3.92v3.431h2.932c3.59-0.002 5.654 2.612 5.654 4.697l-0.003 8.367z"></path>
<path fill="#4493d1" d="M13.961 9.96v-0.013c0.261-0.031 0.473-0.248 0.495-0.517 0.014-0.155-0.035-0.301-0.132-0.421-0.098-0.115-0.239-0.186-0.39-0.199l-0.048-0.004c-0.296 0-0.544 0.234-0.571 0.526-0.027 0.315 0.208 0.593 0.522 0.62l0.124 0.009z"></path>
<path fill="#4493d1" d="M18.597 17.9c-1.078 0.040-1.859 5.844-1.673 7.882 0.051 0.563 0.656 0.688 1.73 0.869 0.97 0.163 2.075 2.063 2.496 0.212 0.717-4.363-0.472-9.035-2.553-8.963zM19.026 20.672c-0.111 0.155-0.283 0.243-0.469 0.243-0.119 0-0.234-0.035-0.332-0.101-0.257-0.181-0.318-0.54-0.137-0.801 0.176-0.248 0.549-0.315 0.796-0.137 0.257 0.182 0.319 0.54 0.142 0.797zM20.234 26.237c-0.102 0.168-0.292 0.274-0.491 0.274-0.102 0-0.204-0.026-0.292-0.080-0.133-0.079-0.226-0.203-0.261-0.353-0.040-0.151-0.014-0.302 0.061-0.434 0.16-0.257 0.527-0.354 0.788-0.195 0.27 0.164 0.358 0.513 0.194 0.788zM20.911 23.977c-0.013 0.305-0.265 0.548-0.57 0.548h-0.022c-0.155-0.009-0.296-0.075-0.403-0.186-0.102-0.111-0.155-0.257-0.15-0.411 0.014-0.305 0.265-0.549 0.575-0.549 0.336 0.014 0.584 0.279 0.57 0.598zM20.42 21.667c0.142 0.283 0.027 0.624-0.256 0.765-0.079 0.040-0.163 0.061-0.257 0.061-0.217 0-0.411-0.124-0.509-0.318-0.071-0.137-0.079-0.292-0.031-0.438s0.15-0.261 0.288-0.332c0.279-0.137 0.632-0.014 0.765 0.261z"></path>
<path fill="#4493d1" d="M11.554 9.447c-0.119 0.093-0.199 0.225-0.216 0.381-0.018 0.15 0.022 0.301 0.119 0.42 0.106 0.142 0.274 0.221 0.451 0.221 0.124 0 0.252-0.044 0.35-0.124 0.124-0.094 0.199-0.231 0.216-0.381s-0.022-0.301-0.119-0.424c-0.186-0.239-0.562-0.283-0.801-0.093z"></path>
<path fill="#4493d1" d="M15.668 10.912c0.119 0 0.234-0.035 0.332-0.102 0.257-0.181 0.319-0.539 0.137-0.801-0.177-0.247-0.549-0.314-0.796-0.137-0.128 0.088-0.207 0.221-0.234 0.372s0.009 0.301 0.097 0.424c0.106 0.155 0.279 0.244 0.465 0.244z"></path>
</svg>
