<?xml version="1.0" encoding="utf-8"?>
<!-- Generated by IcoMoon.io -->
<!DOCTYPE svg PUBLIC "-//W3C//DTD SVG 1.1//EN" "http://www.w3.org/Graphics/SVG/1.1/DTD/svg11.dtd">
<svg version="1.1" xmlns="http://www.w3.org/2000/svg" xmlns:xlink="http://www.w3.org/1999/xlink" width="32" height="32" viewBox="0 0 32 32">
<path fill="#4493d1" d="M28.008 0.458c0 0-24.394-0.008-24.387 0-2.248 0-3.512 1.162-3.512 3.537v24.483c0 2.222 1.136 3.385 3.383 3.385h24.586c2.247 0 3.384-1.105 3.384-3.385v-24.483c0-2.317-1.137-3.537-3.455-3.537zM22.62 4.128c1.055 0 1.912 0.857 1.912 1.913s-0.857 1.912-1.912 1.912c-1.057 0-1.913-0.856-1.913-1.912s0.857-1.913 1.913-1.913zM8.899 4.251c1.056 0 1.913 0.856 1.913 1.913s-0.857 1.913-1.913 1.913c-1.056 0-1.913-0.856-1.913-1.913s0.856-1.913 1.913-1.913zM13.42 17.208c0 0.432-0.35 0.783-0.783 0.783s-0.783-0.35-0.783-0.783v-5.481h-0.525v6.264h-0.003v8.851c0 0.576-0.467 1.043-1.043 1.043s-1.043-0.467-1.043-1.043v-8.851h-0.689v8.851c0 0.576-0.467 1.043-1.043 1.043s-1.043-0.467-1.043-1.043v-8.851h-0.004v-6.264h-0.525v5.481c0 0.432-0.351 0.783-0.783 0.783s-0.783-0.35-0.783-0.783v-5.564c0-0.023 0.001-0.045 0.003-0.067v-0.966c0-1.016 0.824-1.84 1.84-1.84h5.361c1.017 0 1.84 0.824 1.84 1.84v0.966c0.002 0.022 0.003 0.044 0.003 0.067v5.564zM16.295 27.761h-1.349v-23.593h1.349v23.593zM27.429 17.157c-0.417 0.112-0.846-0.136-0.958-0.553l-1.348-4.999h-0.566l2.412 9.044h-2.262v6.244c0 0.481-0.389 0.87-0.869 0.87s-0.87-0.389-0.87-0.87v-6.244h-0.692v6.244c0 0.481-0.389 0.87-0.869 0.87s-0.87-0.389-0.87-0.87v-6.244h-2.263l2.403-9.045h-0.551l-1.324 4.999c-0.112 0.417-0.541 0.665-0.958 0.553s-0.665-0.541-0.553-0.958l1.685-6.364c0.008-0.030 0.018-0.060 0.030-0.087 0.17-0.636 0.749-1.105 1.438-1.105h4.343c0.661 0 1.221 0.432 1.416 1.028 0.027 0.051 0.050 0.106 0.066 0.164l1.716 6.364c0.112 0.417-0.136 0.846-0.553 0.958z"></path>
</svg>
