<?xml version="1.0" encoding="utf-8"?>
<!-- Generated by IcoMoon.io -->
<!DOCTYPE svg PUBLIC "-//W3C//DTD SVG 1.1//EN" "http://www.w3.org/Graphics/SVG/1.1/DTD/svg11.dtd">
<svg version="1.1" xmlns="http://www.w3.org/2000/svg" xmlns:xlink="http://www.w3.org/1999/xlink" width="32" height="32" viewBox="0 0 32 32">
<path fill="#4493d1" d="M28.206 0.359c0 0-24.394-0.008-24.387 0-2.248 0-3.512 1.162-3.512 3.537v24.483c0 2.222 1.136 3.385 3.383 3.385h24.586c2.247 0 3.384-1.105 3.384-3.385v-24.483c0-2.317-1.137-3.537-3.455-3.537zM15.375 11.687c0 0.768-0.7 1.591-1.608 1.591v12.967c0 1.841-2.509 1.841-2.509 0v-12.967c-0.884 0-1.653-0.681-1.653-1.7v-7.137c0-0.621 0.897-0.645 0.897 0.024v5.275h0.751v-5.324c0-0.571 0.865-0.607 0.865 0.024v5.3h0.776v-5.317c0-0.596 0.839-0.62 0.839 0.024v5.293h0.764v-5.317c0-0.59 0.876-0.614 0.876 0.024v7.24zM22.068 26.239c0 1.8-2.514 1.773-2.514 0v-7.991h-1.339v-12.148c0-2.828 3.853-2.828 3.853 0v20.14z"></path>
</svg>
