<?xml version="1.0" encoding="utf-8"?>
<!-- Generated by IcoMoon.io -->
<!DOCTYPE svg PUBLIC "-//W3C//DTD SVG 1.1//EN" "http://www.w3.org/Graphics/SVG/1.1/DTD/svg11.dtd">
<svg version="1.1" xmlns="http://www.w3.org/2000/svg" xmlns:xlink="http://www.w3.org/1999/xlink" width="32" height="32" viewBox="0 0 32 32">
<path fill="none" stroke="#4493d1" stroke-width="1.6842" stroke-miterlimit="10" stroke-linecap="butt" stroke-linejoin="miter" d="M11.627 18.525c-6.418 3.704 0.586 11.609 0.586 11.609s10.019-3.341 6.312-9.761M20.373 13.475c6.418-3.704-0.585-11.609-0.585-11.609s-10.019 3.341-6.312 9.761M16 21.050c0 7.411 10.347 5.297 10.347 5.297s2.116-10.348-5.297-10.347M16 10.95c0-7.411-10.347-5.298-10.347-5.298s-2.115 10.349 5.297 10.348M20.373 18.525c6.418 3.705 9.761-6.312 9.761-6.312s-7.903-7.006-11.608-0.586M11.627 13.475c-6.418-3.705-9.762 6.312-9.762 6.312s7.904 7.006 11.61 0.586M13.475 20.373c-3.705 6.417 6.312 9.761 6.312 9.761s7.006-7.903 0.586-11.608M18.525 11.627c3.705-6.418-6.312-9.762-6.312-9.762s-7.007 7.904-0.587 11.609M18.525 20.373c3.704 6.418 11.609-0.586 11.609-0.586s-3.341-10.019-9.761-6.312M13.475 11.627c-3.704-6.418-11.61 0.585-11.61 0.585s3.342 10.019 9.762 6.312M21.050 16.001c7.411 0 5.297-10.348 5.297-10.348s-10.347-2.116-10.347 5.297M10.95 16c-7.411-0.001-5.298 10.347-5.298 10.347s10.349 2.116 10.348-5.297M21.053 16c0 2.79-2.263 5.053-5.053 5.053s-5.053-2.263-5.053-5.053 2.263-5.053 5.053-5.053 5.053 2.263 5.053 5.053z"></path>
</svg>
