<?xml version="1.0" encoding="utf-8"?>
<!-- Generated by IcoMoon.io -->
<!DOCTYPE svg PUBLIC "-//W3C//DTD SVG 1.1//EN" "http://www.w3.org/Graphics/SVG/1.1/DTD/svg11.dtd">
<svg version="1.1" xmlns="http://www.w3.org/2000/svg" xmlns:xlink="http://www.w3.org/1999/xlink" width="32" height="32" viewBox="0 0 32 32">
<path fill="#4493d1" d="M28.436 0.461c0 0-24.431-0.008-24.423 0-2.251 0-3.517 1.164-3.517 3.543v24.52c0 2.224 1.138 3.39 3.388 3.39h24.623c2.25 0 3.39-1.107 3.39-3.39v-24.52c0-2.32-1.14-3.543-3.46-3.543zM24.972 23.366h-20.565v-3.29h20.565v3.29zM26.69 23.352h-1.102v-3.328h1.102v3.328zM26.69 19.48h-1.102v-1.509c0-1.312-1.005-1.587-1.849-1.587h-2.96c-0.917 0-1.703-0.455-2.156-1.248-0.361-0.631-0.466-1.406-0.314-2.111-0.982-0.116-1.639-0.544-2.044-0.925-0.653-0.616-1.028-1.477-1.028-2.361 0-1.664 1.133-3.35 3.3-3.35v1.102c-1.738 0-2.198 1.47-2.198 2.247 0 0.582 0.249 1.15 0.682 1.559 0.502 0.473 1.209 0.697 2.041 0.648 0.213-0.013 0.397 0.089 0.503 0.263s0.108 0.392 0.005 0.567c-0.307 0.521-0.303 1.266 0.010 1.813 0.181 0.316 0.536 0.693 1.2 0.693h2.96c1.82 0 2.951 1.031 2.951 2.69v1.509zM23.794 13.76h-1.75c-0.207 0-0.397-0.116-0.491-0.301s-0.077-0.406 0.045-0.574c0.399-0.55 0.638-1.225 0.638-1.806 0-1.458-1.157-2.516-2.75-2.516v-1.102c2.196 0 3.852 1.555 3.852 3.618 0 0.514-0.123 1.060-0.348 1.578h0.805c2.887 0 4.613 2.438 4.613 4.795v2.026h-1.102v-2.026c0-1.79-1.23-3.693-3.51-3.693zM28.413 23.352h-1.102v-3.328h1.102v3.328z"></path>
</svg>
