<?xml version="1.0" encoding="utf-8"?>
<!-- Generated by IcoMoon.io -->
<!DOCTYPE svg PUBLIC "-//W3C//DTD SVG 1.1//EN" "http://www.w3.org/Graphics/SVG/1.1/DTD/svg11.dtd">
<svg version="1.1" xmlns="http://www.w3.org/2000/svg" xmlns:xlink="http://www.w3.org/1999/xlink" width="32" height="32" viewBox="0 0 32 32">
<path fill="#4493d1" d="M27.784 0.324h-23.285c-2.282 0-4.138 1.856-4.138 4.139v23.283c0 2.283 1.856 4.14 4.138 4.14h23.285c2.282 0 4.139-1.857 4.139-4.14v-23.283c0-2.283-1.857-4.139-4.139-4.139zM22.009 8.525c0.419 0 0.758 0.34 0.758 0.758s-0.34 0.759-0.758 0.759c-0.419 0-0.759-0.34-0.759-0.759s0.34-0.758 0.759-0.758zM16.635 3.698c0.597 0 1.081 0.485 1.081 1.081 0 0.598-0.484 1.082-1.081 1.082s-1.081-0.485-1.081-1.082c0-0.596 0.484-1.081 1.081-1.081zM10.768 3.69c0.606 0 1.099 0.487 1.099 1.088 0 0.603-0.492 1.089-1.099 1.089s-1.097-0.486-1.097-1.089c0-0.601 0.491-1.088 1.097-1.088zM14.226 26.312l-0.005 1.925h-4.556v-0.809c0-0.524-0.102-0.871-0.517-1.262l-4.186-4.445c-0.599-0.7-0.933-1.597-0.933-2.525v-6.712c0-0.696 0.564-1.262 1.261-1.262 0.7 0 1.269 0.566 1.269 1.262v4.902c-0.67 0.306-1.075 0.925-1.075 1.599 0 0.448 0.179 0.875 0.506 1.205l2.6 2.854c0.121 0.15 0.282 0.383 0.362 0.642 0.045 0.138 0.058 0.288 0.062 0.474h0.825c-0.004-0.261-0.026-0.489-0.101-0.722-0.14-0.449-0.42-0.816-0.587-1.011l-2.562-2.744c-0.155-0.183-0.24-0.416-0.24-0.655 0-0.555 0.452-1.006 1.008-1.006 0.263 0 0.511 0.1 0.7 0.282l5.311 5.333c0.918 0.961 0.858 1.941 0.858 2.675zM17.012 16.316c0-0.518 0-4.884 0-4.884h-0.469c0 0 0 4.366 0 4.884 0 0.351-0.284 0.634-0.634 0.634s-0.637-0.283-0.637-0.634c0-0.518 0-8.585 0-8.585l-0.378 0.001-0.828 2.891c-0.014 0.056-0.037 0.106-0.071 0.15-0.081 0.122-0.223 0.189-0.381 0.184-0.158 0.005-0.3-0.063-0.382-0.187-0.029-0.039-0.051-0.085-0.065-0.134l-0.832-2.903-0.408-0.001 1.216 5.081h-1.067v3.609c0 0.297-0.242 0.539-0.541 0.539-0.297 0-0.537-0.242-0.537-0.539v-3.609h-0.455v3.609c0 0.297-0.243 0.539-0.54 0.539s-0.538-0.242-0.538-0.539v-3.609h-1.086l1.229-5.081-0.41 0.001-0.842 2.934c-0.063 0.224-0.315 0.348-0.561 0.278s-0.401-0.285-0.319-0.567l0.864-3.010c0.345-1.203 1.354-1.166 1.354-1.166h2.146c0 0 1.006-0.037 1.353 1.166l0.422 1.471 0.423-1.471c0.345-1.203 1.353-1.166 1.353-1.166h2.774c0 0 1.009-0.037 1.354 1.166l0.857 2.987c0 0 0.676 0.062 0.685 0.062 0.259 0 1.779 0 2.046 0 0.537 0 1.009 0.436 1.009 0.973 0 0.274 0 1.735 0 1.917 0 0.185-0.145 0.334-0.328 0.334-0.182 0-0.332-0.149-0.332-0.334 0-0.212 0-1.685 0-1.685h-0.343c0 0 0 4.609 0 4.974 0 0.246-0.202 0.445-0.448 0.445s-0.445-0.199-0.445-0.445c0-0.365 0-2.66 0-2.66h-0.349c0 0 0 2.295 0 2.66 0 0.246-0.199 0.445-0.445 0.445s-0.447-0.199-0.447-0.445c0-0.331 0-4.533 0-5.325-0.435-0.124-1.027-0.292-1.155-0.321-0.005-0.002-0.009-0.004-0.015-0.006-0.145-0.037-0.265-0.132-0.309-0.277l-0.806-2.934-0.41-0.001c0 0 0 8.067 0 8.585 0 0.351-0.288 0.634-0.639 0.634-0.349-0-0.634-0.284-0.634-0.635zM28.283 19.197c0 0.928-0.334 1.825-0.933 2.525l-4.186 4.445c-0.415 0.391-0.517 0.737-0.517 1.262v0.809h-4.556l-0.005-1.925c0-0.733-0.060-1.713 0.858-2.675l5.311-5.333c0.189-0.182 0.437-0.282 0.7-0.282 0.556 0 1.008 0.451 1.008 1.006 0 0.24-0.085 0.472-0.24 0.655l-2.562 2.744c-0.166 0.195-0.447 0.561-0.587 1.011-0.075 0.233-0.097 0.461-0.101 0.722h0.825c0.003-0.186 0.017-0.335 0.062-0.474 0.081-0.259 0.241-0.492 0.362-0.642l2.6-2.854c0.327-0.33 0.506-0.757 0.506-1.205-0-0.674-0.405-1.294-1.076-1.599v-4.902c0-0.696 0.569-1.262 1.269-1.262 0.697 0 1.261 0.566 1.261 1.262v6.713z"></path>
</svg>
