<?xml version="1.0" encoding="utf-8"?>
<!-- Generated by IcoMoon.io -->
<!DOCTYPE svg PUBLIC "-//W3C//DTD SVG 1.1//EN" "http://www.w3.org/Graphics/SVG/1.1/DTD/svg11.dtd">
<svg version="1.1" xmlns="http://www.w3.org/2000/svg" xmlns:xlink="http://www.w3.org/1999/xlink" width="32" height="32" viewBox="0 0 32 32">
<path fill="#4493d1" d="M27.907 0.314h-23.678c-2.033 0-3.936 1.908-3.936 3.94v23.671c0 2.032 1.911 3.95 3.943 3.95h23.67c2.034 0 3.948-1.908 3.948-3.939v-23.681c0-2.033-1.913-3.942-3.948-3.942zM16.94 3.987c1.050 0 1.951 0.624 2.359 1.52h-1.47c-0.098-0.402-0.464-0.701-0.898-0.701-0.435 0-0.799 0.3-0.9 0.701h-1.45c0.408-0.896 1.31-1.52 2.359-1.52zM14.391 6.118h1.697c0.147 0.318 0.469 0.539 0.843 0.539 0.373 0 0.694-0.221 0.841-0.539h1.718c0.027 0.149 0.043 0.301 0.043 0.459 0 1.43-1.16 2.589-2.592 2.589s-2.592-1.159-2.592-2.589c-0-0.158 0.016-0.31 0.044-0.459zM3.892 10.205c-0.92-1.682-0.497-3.734 0.906-4.931l-0.466-0.853c-0.043-0.078-0.015-0.175 0.063-0.217l1.164-0.634c0.077-0.043 0.174-0.015 0.217 0.064l0.467 0.852c1.765-0.529 3.722 0.223 4.64 1.906l-2.256 1.232c0.373 0.682 0.121 1.539-0.563 1.914-0.685 0.372-1.541 0.121-1.915-0.562l-2.257 1.23zM10.852 21.352c0 1.292-1.049 2.339-2.343 2.339s-2.343-1.047-2.343-2.339c0-1.291 1.049-2.338 2.343-2.338s2.343 1.047 2.343 2.338zM19.359 27.618h-13.223v-2.354c0-0.433 0.351-0.785 0.785-0.785h12.439v3.139zM19.359 23.691h-6.133c-1.069 0-1.939-0.868-1.939-1.938 0-1.071 0.87-1.938 1.939-1.938h6.133v3.875zM18.812 17.717c-0.299-0.451-0.173-1.062 0.279-1.36l2.46-1.621-0.693-1.909h-0.959l0.563 1.549-1.868 1.23c-0.419 0.276-0.706 0.7-0.807 1.192s-0.004 0.995 0.272 1.415c0.112 0.167 0.247 0.309 0.399 0.43h-2.585c0.152-0.122 0.288-0.264 0.398-0.43 0.277-0.419 0.374-0.922 0.272-1.415-0.1-0.492-0.387-0.915-0.807-1.192l-1.866-1.23 0.561-1.549h-0.958l-0.692 1.909 2.459 1.621c0.453 0.298 0.578 0.909 0.28 1.36s-0.908 0.576-1.36 0.277l-3.098-2.041c-0.536-0.365-0.485-0.909-0.387-1.152l1.317-3.752c0.255-0.707 0.746-1.259 2.131-1.259h6.084c1.386 0 1.877 0.552 2.132 1.259l1.318 3.752c0.098 0.242 0.149 0.787-0.387 1.152l-3.097 2.041c-0.453 0.299-1.062 0.174-1.361-0.277zM27.824 27.618h-7.594v-7.85h7.594v7.85z"></path>
</svg>
