<?xml version="1.0" encoding="utf-8"?>
<!-- Generated by IcoMoon.io -->
<!DOCTYPE svg PUBLIC "-//W3C//DTD SVG 1.1//EN" "http://www.w3.org/Graphics/SVG/1.1/DTD/svg11.dtd">
<svg version="1.1" xmlns="http://www.w3.org/2000/svg" xmlns:xlink="http://www.w3.org/1999/xlink" width="32" height="32" viewBox="0 0 32 32">
<path fill="#4493d1" d="M28.206 0.359c-0 0-24.394-0.008-24.387 0-2.248 0-3.512 1.162-3.512 3.537v24.483c0 2.222 1.136 3.385 3.383 3.385h24.586c2.247 0 3.384-1.105 3.384-3.385v-24.483c0-2.317-1.137-3.537-3.455-3.537zM26.1 13.437v1.345c0 0.345-0.279 0.625-0.625 0.625h-1.744c-0.345 0-0.625-0.279-0.625-0.625v-1.345c0-0.345 0.279-0.625 0.625-0.625h1.744c0.345 0 0.625 0.28 0.625 0.625zM10.432 16.84c0.345 0 0.625 0.279 0.625 0.624v1.345c0 0.345-0.28 0.625-0.625 0.625h-1.745c-0.345 0-0.625-0.279-0.625-0.625v-1.345c0-0.345 0.28-0.624 0.625-0.624h1.745zM10.277 14.782v-1.345c0-0.345 0.28-0.625 0.625-0.625h1.745c0.345 0 0.625 0.28 0.625 0.625v1.345c0 0.345-0.28 0.625-0.625 0.625h-1.745c-0.345 0-0.625-0.279-0.625-0.625zM10.325 21.423c0-0.345 0.28-0.625 0.625-0.625h1.745c0.345 0 0.625 0.279 0.625 0.625v1.345c0 0.345-0.28 0.625-0.625 0.625h-1.745c-0.345 0-0.625-0.28-0.625-0.625v-1.345zM13.034 19.434c-0.345 0-0.625-0.279-0.625-0.625v-1.345c0-0.345 0.28-0.624 0.625-0.624h1.745c0.345 0 0.625 0.279 0.625 0.624v1.345c0 0.345-0.28 0.625-0.625 0.625h-1.745zM14.518 14.782v-1.345c-0-0.345 0.279-0.625 0.624-0.625h1.745c0.345 0 0.625 0.28 0.625 0.625v1.345c0 0.345-0.28 0.625-0.625 0.625h-1.745c-0.345 0-0.624-0.279-0.624-0.625zM14.567 21.423c-0-0.345 0.279-0.625 0.625-0.625h1.745c0.345 0 0.625 0.279 0.625 0.625v1.345c0 0.345-0.28 0.625-0.625 0.625h-1.745c-0.345 0-0.625-0.28-0.625-0.625v-1.345zM17.275 19.434c-0.345 0-0.625-0.279-0.625-0.625v-1.345c-0-0.345 0.28-0.624 0.625-0.624h1.745c0.345 0 0.625 0.279 0.625 0.624v1.345c0 0.345-0.28 0.625-0.625 0.625h-1.745zM18.855 14.782v-1.345c0-0.345 0.28-0.625 0.625-0.625h1.745c0.345 0 0.625 0.28 0.625 0.625v1.345c0 0.345-0.28 0.625-0.625 0.625h-1.745c-0.345 0-0.625-0.279-0.625-0.625zM18.904 21.423c0-0.345 0.279-0.625 0.624-0.625h1.745c0.345 0 0.625 0.279 0.625 0.625v1.345c0 0.345-0.28 0.625-0.625 0.625h-1.745c-0.345 0-0.624-0.28-0.624-0.625v-1.345zM21.612 19.434c-0.345 0-0.625-0.279-0.625-0.625v-1.345c0-0.345 0.28-0.624 0.625-0.624h1.745c0.345 0 0.625 0.279 0.625 0.624v1.345c0 0.345-0.28 0.625-0.625 0.625h-1.745zM25.406 11.086c0 0.322-0.258 0.587-0.585 0.587-0.002 0-4.247 0.003-4.247 0.003l-0.002-0.003c-0.313 0-0.591-0.245-0.591-0.587l-0.001-0.002c-0.001-0.001 0.001-1.497 0.001-1.497h5.426v1.5zM16.223 4.963c7.608 0.094 9.083 3.322 9.182 4.209l-5.426 0.005c0-0.774-0.925-0.95-1.873-1.052-1.352-0.144-2.71-0.112-3.809 0-1.659 0.169-2.463 0.318-2.463 1.056h-5.293c-0.018-0.897 1.668-4.319 9.681-4.219zM6.533 9.587l5.307-0.001v1.5c0 0.322-0.258 0.588-0.585 0.588-0.003 0-4.128 0.002-4.128 0.002l-0.003-0.002c-0.312 0-0.591-0.245-0.591-0.587l-0.001-0.003c-0.001-0.001 0.001-1.497 0.001-1.497zM5.929 13.437c0-0.345 0.28-0.625 0.625-0.625h1.745c0.345 0 0.625 0.28 0.625 0.625v1.345c0 0.345-0.28 0.625-0.625 0.625h-1.745c-0.345 0-0.625-0.279-0.625-0.625v-1.345zM5.978 22.768v-1.345c0-0.345 0.28-0.625 0.625-0.625h1.745c0.345 0 0.625 0.279 0.625 0.625v1.345c0 0.345-0.28 0.625-0.625 0.625h-1.745c-0.345 0-0.625-0.28-0.625-0.625zM23.913 26.539c0 0.345-0.279 0.625-0.624 0.625h-14.522c-0.345 0-0.625-0.279-0.625-0.625v-1.323c0-0.345 0.28-0.625 0.625-0.625h14.522c0.345 0 0.624 0.279 0.624 0.625v1.323zM26.148 22.768c0 0.345-0.279 0.625-0.625 0.625h-1.744c-0.345 0-0.625-0.28-0.625-0.625v-1.345c0-0.345 0.279-0.625 0.625-0.625h1.744c0.345 0 0.625 0.279 0.625 0.625v1.345z"></path>
</svg>
