<?xml version="1.0" encoding="utf-8"?>
<!-- Generated by IcoMoon.io -->
<!DOCTYPE svg PUBLIC "-//W3C//DTD SVG 1.1//EN" "http://www.w3.org/Graphics/SVG/1.1/DTD/svg11.dtd">
<svg version="1.1" xmlns="http://www.w3.org/2000/svg" xmlns:xlink="http://www.w3.org/1999/xlink" width="32" height="32" viewBox="0 0 32 32">
<path fill="#4493d1" d="M20.162 8.758c-0.527-0.766-1.574-0.963-2.339-0.438-0.767 0.528-0.962 1.573-0.437 2.338 0.524 0.766 1.57 0.961 2.336 0.44 0.765-0.526 0.962-1.572 0.44-2.34z"></path>
<path fill="#4493d1" d="M17.753 11.816c0 0-1.365-1.441-1.702-1.795 0.022-0.428 0.076-1.538 0.076-1.538 0.018-0.398-0.292-0.74-0.693-0.758-0.399-0.020-0.74 0.288-0.758 0.689l-0.086 1.847c-0.010 0.197 0.061 0.391 0.196 0.533l0.624 0.659-1.872 1.236 0.101-1.414c-0.048-0.545-0.53-0.948-1.073-0.901 0 0-1.78 0.123-2.426 0.177-0.409 0.036-0.714 0.397-0.677 0.806 0.034 0.409 0.396 0.713 0.804 0.679 0.45-0.040 1.504-0.076 1.932-0.111 0 0-0.37 1.077-0.293 1.608 0.048 0.348 0.148 0.699 0.36 1.011 0.657 0.959 1.969 1.205 2.927 0.547 0.343-0.234 2.049-1.4 2.37-1.621 0.451-0.312 0.592-0.907 0.346-1.384-0.034-0.097-0.078-0.19-0.155-0.27z"></path>
<path fill="#4493d1" d="M21.892 18.209c-0.404-1.108 0.169-2.334 1.275-2.737l1.8 4.917h1.663v-16.16h-21.166v16.159h17.226l-0.799-2.179zM7.384 12.526l7.030-7.033c0.901 0.902 2.363 0.902 3.263 0l7.032 7.033c-4.784 4.783-12.541 4.783-17.325 0z"></path>
<path fill="#4493d1" d="M27.743 0.185h-23.393c-2.292 0-4.157 1.866-4.157 4.158v23.39c0 2.293 1.865 4.159 4.157 4.159h23.393c2.292 0 4.158-1.866 4.158-4.159v-23.39c0-2.292-1.866-4.158-4.158-4.158zM27.28 21.039h-2.071l0.341 0.944c0.377 1.030 0.15 2.131-0.498 2.923l1.226 3.541-5.184-0.001-0.619-1.874c-1.005-0.188-1.887-0.888-2.261-1.917l-1.318-3.615h-12.081v-17.46h22.466v17.46z"></path>
</svg>
