<?xml version="1.0" encoding="utf-8"?>
<!-- Generated by IcoMoon.io -->
<!DOCTYPE svg PUBLIC "-//W3C//DTD SVG 1.1//EN" "http://www.w3.org/Graphics/SVG/1.1/DTD/svg11.dtd">
<svg version="1.1" xmlns="http://www.w3.org/2000/svg" xmlns:xlink="http://www.w3.org/1999/xlink" width="32" height="32" viewBox="0 0 32 32">
<path fill="#4493d1" d="M28.381 0.362c-0 0-24.546-0.008-24.538 0-2.262 0-3.534 1.17-3.534 3.559v24.635c0 2.235 1.143 3.406 3.404 3.406h24.739c2.26 0 3.405-1.112 3.405-3.406v-24.635c0-2.331-1.145-3.559-3.476-3.559zM14.032 27.777c-1.025 0.021-4.931-1.903-4.817-11.053 0.107-8.685 3.793-10.37 4.806-10.483l0.005 6.194c-0.883 0-1.084 1.056-1.199 2.139-0.165 1.542-0.128 3.094 0 4.347 0.193 1.894 0.362 2.813 1.206 2.813v6.042zM16.877 27.114c0 0.356-0.28 0.674-0.671 0.674l-0.003 0.002c-0.001 0.001-1.709-0.002-1.709-0.002v-6.058h1.712c0.368 0 0.671 0.295 0.671 0.668 0 0.003 0.003 4.713 0.003 4.713l-0.003 0.003zM16.877 11.761c0 0.357-0.28 0.675-0.671 0.675l-0.003 0.001c-0.001 0.002-1.709-0.001-1.709-0.001v-6.194h1.712c0.368 0 0.671 0.295 0.671 0.668 0 0.003 0.003 4.848 0.003 4.848l-0.003 0.003zM18.466 10.486l-0.436-0.425 0.012-0.017c0.356-0.356 0.356-0.932 0-1.288l0.429-0.429c0.592 0.598 0.59 1.563-0.005 2.159zM18.94 10.971c0.847-0.861 0.846-2.255 0.020-3.133l0.43-0.43c1.079 1.112 1.083 2.902-0.010 4.002l-0.439-0.44zM19.771 11.803c1.316-1.324 1.323-3.463 0.021-4.798l0.484-0.483c1.568 1.602 1.559 4.171-0.024 5.761l-0.481-0.48zM21.099 13.13v0l-0.41-0.414c1.823-1.831 1.847-4.804 0.038-6.646l0.417-0.417c2.048 2.081 2.017 5.407-0.045 7.477v0zM21.954 13.984l-0.416-0.42c2.291-2.299 2.299-6.016 0.022-8.326l0.431-0.431c2.508 2.541 2.487 6.646-0.037 9.177z"></path>
</svg>
