<?xml version="1.0" encoding="utf-8"?>
<!-- Generated by IcoMoon.io -->
<!DOCTYPE svg PUBLIC "-//W3C//DTD SVG 1.1//EN" "http://www.w3.org/Graphics/SVG/1.1/DTD/svg11.dtd">
<svg version="1.1" xmlns="http://www.w3.org/2000/svg" xmlns:xlink="http://www.w3.org/1999/xlink" width="32" height="32" viewBox="0 0 32 32">
<path fill="#4493d1" d="M6.951 4.537c-1.384 0-2.509 1.127-2.509 2.511 0 1.385 1.125 2.511 2.509 2.511s2.511-1.126 2.511-2.511c0-1.383-1.128-2.511-2.511-2.511zM8.615 6.71l-1.646 0.778c-0.075 0.034-0.165 0.031-0.24-0.018-0.063-0.040-0.102-0.104-0.112-0.173l-0.003-1.939c0-0.139 0.113-0.251 0.251-0.251s0.251 0.112 0.251 0.251v1.504l1.286-0.606c0.124-0.060 0.275-0.006 0.334 0.119 0.059 0.126 0.005 0.275-0.12 0.334z"></path>
<path fill="#4493d1" d="M27.663 0.337h-23.286c-2.282 0-4.138 1.856-4.138 4.139v23.283c0 2.283 1.856 4.14 4.138 4.14h23.286c2.282 0 4.138-1.857 4.138-4.14v-23.283c0-2.283-1.856-4.139-4.138-4.139zM17.382 4.436c1.305 0 2.363 1.057 2.363 2.364s-0.832 2.364-2.363 2.364c-1.306 0-2.365-1.058-2.365-2.364s1.059-2.364 2.365-2.364zM11.279 15.448l1.211-3.58c0.324-0.89 1.14-1.937 2.365-1.937h5.054c1.225 0 2.041 1.047 2.365 1.937l1.212 3.58c0.116 0.398-0.009 0.829-0.352 1.072-0.16 0.114-0.376 0.19-0.559 0.19-0.215 0-0.431-0.073-0.582-0.18l-3.262-2.291c-0.396-0.279-0.49-0.826-0.21-1.222s0.825-0.49 1.222-0.211l1.909 1.443c0.114 0.085 0.275 0.062 0.361-0.052 0.034-0.047 0.094-0.214-0.052-0.36 0 0-1.025-0.771-1.513-1.138v-2.154l-3.064 0.499-3.065-0.499v2.154c-0.488 0.367-1.514 1.138-1.514 1.138-0.146 0.146-0.086 0.313-0.051 0.36 0.086 0.114 0.247 0.137 0.36 0.052l1.91-1.443c0.396-0.279 0.942-0.185 1.222 0.211s0.185 0.943-0.21 1.222l-3.262 2.291c-0.152 0.107-0.367 0.18-0.583 0.18-0.182 0-0.399-0.076-0.558-0.19-0.343-0.243-0.47-0.675-0.353-1.072zM21.395 16.739l-6.51-1.071 0.934-0.665 1.563 0.217 1.562-0.217 2.451 1.736zM3.617 7.048c0-1.84 1.496-3.336 3.335-3.336s3.337 1.496 3.337 3.336c0 1.84-1.497 3.336-3.337 3.336s-3.335-1.496-3.335-3.336zM17.353 25.53h-7.682c-0.414 0-0.748-0.336-0.748-0.749v-6.73c0-0.412 0.335-0.747 0.748-0.747h1.497c0.413 0 0.748 0.336 0.748 0.747v3.738h5.437v3.741zM20.552 27.232c0 0.712-0.578 1.289-1.29 1.289s-1.291-0.577-1.291-1.289v-5.712c0-0.711 0.579-1.29 1.291-1.29s1.29 0.579 1.29 1.29v5.712zM20.008 19.871l-5.636-0.929c-0.703-0.116-1.179-0.781-1.063-1.484s0.78-1.178 1.483-1.063l5.636 0.93c0.704 0.114 1.179 0.779 1.063 1.482s-0.78 1.178-1.483 1.064zM25.877 24.781c0 0.414-0.337 0.749-0.748 0.749h-3.957v-3.741h1.712v-3.738c0-0.412 0.336-0.747 0.747-0.747h1.498c0.412 0 0.748 0.336 0.748 0.747v6.73z"></path>
</svg>
