<?xml version="1.0" encoding="utf-8"?>
<!-- Generated by IcoMoon.io -->
<!DOCTYPE svg PUBLIC "-//W3C//DTD SVG 1.1//EN" "http://www.w3.org/Graphics/SVG/1.1/DTD/svg11.dtd">
<svg version="1.1" xmlns="http://www.w3.org/2000/svg" xmlns:xlink="http://www.w3.org/1999/xlink" width="32" height="32" viewBox="0 0 32 32">
<path fill="none" stroke="#4493d1" stroke-width="1.6842" stroke-miterlimit="10" stroke-linecap="butt" stroke-linejoin="miter" d="M8.593 6.938c1.425-2.627 4.208-4.412 7.407-4.412 4.65 0 8.421 3.77 8.421 8.421s0 7.699 0 10.049c0 4.413-4.401 6.715-6.018 7.699-0.743 0.451-1.528 0.778-2.403 0.778s-1.659-0.329-2.403-0.781c-1.618-0.983-6.018-3.283-6.018-7.697 0-2.349 0-5.398 0-10.049 0-0.705 0.087-1.389 0.249-2.044M16 15.158v6.737M9.66 16.842c0 0 1.358 0.842 2.189 0.842s1.678 0 1.678 0M18.474 17.684c0 0 0.848 0 1.678 0s2.189-0.842 2.189-0.842M13.081 23.474c0 0 1.368 0.947 2.919 0.947 1.547 0 2.919-0.947 2.919-0.947M7.579 15.158c0 0-0.755-0.842-1.684-0.842s-1.684 0.755-1.684 1.684v1.684c0 1.859 1.508 3.368 3.368 3.368M24.421 21.053c1.86 0 3.368-1.508 3.368-3.368v-1.684c0-0.93-0.755-1.684-1.684-1.684s-1.684 0.842-1.684 0.842M13.474 13.474c-0.842 0-1.684-0.842-3.368-0.842-0.842 0-2.526 0.842-2.526 0.842M24.421 13.474c0 0-1.684-0.842-2.526-0.842-1.684 0-2.526 0.842-3.368 0.842M12.632 28.115v3.885M19.368 28.115v3.885M24.421 13.474c0 0-9.365-5.895-10.737-5.895s-2.065 1.106-2.065 1.106M19.368 28.115c0 0 1.404 3.043 6.979 3.043 1.443 0 2.285 0 2.285 0M24.421 21.053c0 3.256 0.955 6.737 4.211 6.737"></path>
</svg>
