<?xml version="1.0" encoding="utf-8"?>
<!-- Generated by IcoMoon.io -->
<!DOCTYPE svg PUBLIC "-//W3C//DTD SVG 1.1//EN" "http://www.w3.org/Graphics/SVG/1.1/DTD/svg11.dtd">
<svg version="1.1" xmlns="http://www.w3.org/2000/svg" xmlns:xlink="http://www.w3.org/1999/xlink" width="32" height="32" viewBox="0 0 32 32">
<path fill="#4493d1" d="M27.827 0.154h-23.5c-2.303 0-4.176 1.873-4.176 4.177v23.498c0 2.304 1.873 4.177 4.176 4.177h23.5c2.303 0 4.177-1.873 4.177-4.177v-23.498c0-2.304-1.874-4.177-4.177-4.177zM16.083 3.578c1.694 0 3.068 1.363 3.068 3.043s-1.375 3.044-3.068 3.044c-1.693 0-3.068-1.363-3.068-3.044s1.375-3.043 3.068-3.043zM24.386 23.857c-0.687 0.197-1.389-0.15-1.572-0.778l-2.349-8.202-1.146-0.002 3.755 13.087h-13.991l3.755-13.087-1.147 0.002-2.349 8.202c-0.18 0.629-0.883 0.975-1.569 0.778-0.688-0.197-1.121-0.798-0.891-1.584l2.417-8.415c0.965-3.364 3.78-3.258 3.78-3.258h6c0 0 2.815-0.105 3.781 3.258l2.415 8.415c0.23 0.785-0.203 1.387-0.89 1.584z"></path>
<path fill="#4493d1" d="M16.098 16.4c-2.080 0-3.766 1.685-3.766 3.764 0 1.89 1.392 3.455 3.207 3.724v1.033h-1.133v1.128h1.133v1.131h1.127v-1.131h1.132v-1.128h-1.132v-1.034c1.811-0.274 3.195-1.837 3.195-3.722 0-2.079-1.684-3.764-3.764-3.764zM16.079 22.74c-1.451 0-2.626-1.176-2.626-2.627s1.175-2.627 2.626-2.627c1.452 0 2.627 1.177 2.627 2.627s-1.175 2.627-2.627 2.627z"></path>
</svg>
