<?xml version="1.0" encoding="utf-8"?>
<!-- Generated by IcoMoon.io -->
<!DOCTYPE svg PUBLIC "-//W3C//DTD SVG 1.1//EN" "http://www.w3.org/Graphics/SVG/1.1/DTD/svg11.dtd">
<svg version="1.1" xmlns="http://www.w3.org/2000/svg" xmlns:xlink="http://www.w3.org/1999/xlink" width="32" height="32" viewBox="0 0 32 32">
<path fill="none" stroke="#4493d1" stroke-width="1.6842" stroke-miterlimit="10" stroke-linecap="butt" stroke-linejoin="miter" d="M29.474 16c0 7.442-6.032 13.474-13.474 13.474s-13.474-6.032-13.474-13.474c0-7.441 6.033-13.474 13.474-13.474s13.474 6.033 13.474 13.474zM16 29.474c3.72 0 6.737-3.016 6.737-6.737s-3.016-6.737-6.737-6.737-6.737-3.016-6.737-6.737 3.016-6.737 6.737-6.737M16 7.579c-0.93 0-1.684 0.755-1.684 1.684s0.755 1.684 1.684 1.684 1.684-0.755 1.684-1.684-0.755-1.684-1.684-1.684zM17.684 22.737c0-0.93-0.755-1.684-1.684-1.684s-1.684 0.755-1.684 1.684 0.755 1.684 1.684 1.684 1.684-0.755 1.684-1.684z"></path>
</svg>
